<svg xmlns="http://www.w3.org/2000/svg" xmlns:xlink="http://www.w3.org/1999/xlink" width="113" height="113" viewBox="0 0 113 113">
  <defs>
    <filter id="Trazado_982547" x="0" y="0" width="113" height="113" filterUnits="userSpaceOnUse">
      <feOffset dy="3" input="SourceAlpha"/>
      <feGaussianBlur stdDeviation="3" result="blur"/>
      <feFlood flood-opacity="0.161"/>
      <feComposite operator="in" in2="blur"/>
      <feComposite in="SourceGraphic"/>
    </filter>
  </defs>
  <g id="Grupo_1184371" data-name="Grupo 1184371" transform="translate(-613 -765)">
    <g id="Grupo_1180708" data-name="Grupo 1180708" transform="translate(413.539 -5396)">
      <g id="Grupo_1174888" data-name="Grupo 1174888" transform="translate(218.461 6167)">
        <g id="Grupo_1166845" data-name="Grupo 1166845" transform="translate(-10)">
          <g id="Grupo_1166720" data-name="Grupo 1166720">
            <g id="Grupo_1164305" data-name="Grupo 1164305">
              <g id="Grupo_1163948" data-name="Grupo 1163948">
                <g id="Grupo_1158168" data-name="Grupo 1158168">
                  <g id="Grupo_1152576" data-name="Grupo 1152576">
                    <g id="Grupo_1148633" data-name="Grupo 1148633">
                      <g id="Grupo_1148525" data-name="Grupo 1148525">
                        <g transform="matrix(1, 0, 0, 1, -9, -6)" filter="url(#Trazado_982547)">
                          <g id="Trazado_982547-2" data-name="Trazado 982547" transform="translate(9 6)" fill="#fbfbf9">
                            <path d="M 47.5 93.5 C 41.28937149047852 93.5 35.26533508300781 92.28397369384766 29.59518623352051 89.88570404052734 C 24.11771965026855 87.56893157958984 19.19813346862793 84.25196075439453 14.97309303283691 80.02691650390625 C 10.74804019927979 75.80186462402344 7.431066513061523 70.88229370117188 5.114293098449707 65.40481567382812 C 2.716026782989502 59.73468017578125 1.5 53.71062850952148 1.5 47.5 C 1.5 41.28937149047852 2.716026782989502 35.26533508300781 5.114293098449707 29.59518623352051 C 7.431066513061523 24.11771965026855 10.74804019927979 19.19813346862793 14.97309303283691 14.97309303283691 C 19.19813346862793 10.74804019927979 24.11771965026855 7.431066513061523 29.59518623352051 5.114293098449707 C 35.26533508300781 2.716026782989502 41.28937149047852 1.5 47.5 1.5 C 53.71062850952148 1.5 59.73468017578125 2.716026782989502 65.40481567382812 5.114293098449707 C 70.88229370117188 7.431066513061523 75.80186462402344 10.74804019927979 80.02691650390625 14.97309303283691 C 84.25196075439453 19.19813346862793 87.56893157958984 24.11771965026855 89.88570404052734 29.59518623352051 C 92.28397369384766 35.26533508300781 93.5 41.28937149047852 93.5 47.5 C 93.5 53.71062850952148 92.28397369384766 59.73468017578125 89.88570404052734 65.40481567382812 C 87.56893157958984 70.88229370117188 84.25196075439453 75.80186462402344 80.02691650390625 80.02691650390625 C 75.80186462402344 84.25196075439453 70.88229370117188 87.56893157958984 65.40481567382812 89.88570404052734 C 59.73468017578125 92.28397369384766 53.71062850952148 93.5 47.5 93.5 Z" stroke="none"/>
                            <path d="M 47.5 3 C 41.49121475219727 3 35.66376876831055 4.176155090332031 30.17950439453125 6.495796203613281 C 24.88084411621094 8.736953735351562 20.12152099609375 11.94598388671875 16.03375244140625 16.03375244140625 C 11.94598388671875 20.12152099609375 8.736953735351562 24.88084411621094 6.495796203613281 30.17950439453125 C 4.176155090332031 35.66376876831055 3 41.49121475219727 3 47.5 C 3 53.50878524780273 4.176155090332031 59.33623123168945 6.495796203613281 64.82049560546875 C 8.736953735351562 70.11915588378906 11.94598388671875 74.87847900390625 16.03375244140625 78.96624755859375 C 20.12152099609375 83.05401611328125 24.88084411621094 86.26304626464844 30.17950439453125 88.50419616699219 C 35.66376876831055 90.82384490966797 41.49121475219727 92 47.5 92 C 53.50878524780273 92 59.33623123168945 90.82384490966797 64.82049560546875 88.50419616699219 C 70.11915588378906 86.26304626464844 74.87847900390625 83.05401611328125 78.96624755859375 78.96624755859375 C 83.05401611328125 74.87847900390625 86.26304626464844 70.11915588378906 88.50419616699219 64.82049560546875 C 90.82384490966797 59.33623123168945 92 53.50878524780273 92 47.5 C 92 41.49121475219727 90.82384490966797 35.66376876831055 88.50419616699219 30.17950439453125 C 86.26304626464844 24.88084411621094 83.05401611328125 20.12152099609375 78.96624755859375 16.03375244140625 C 74.87847900390625 11.94598388671875 70.11915588378906 8.736953735351562 64.82049560546875 6.495796203613281 C 59.33623123168945 4.176155090332031 53.50878524780273 3 47.5 3 M 47.5 0 C 73.7335205078125 0 95 21.2664794921875 95 47.5 C 95 73.7335205078125 73.7335205078125 95 47.5 95 C 21.2664794921875 95 0 73.7335205078125 0 47.5 C 0 21.2664794921875 21.2664794921875 0 47.5 0 Z" stroke="none" fill="#7b776f"/>
                          </g>
                        </g>
                      </g>
                    </g>
                  </g>
                </g>
              </g>
            </g>
          </g>
        </g>
      </g>
    </g>
    <g id="seleccionado" transform="translate(637 786)">
      <g id="Grupo_1184340" data-name="Grupo 1184340" transform="translate(27.056 1.94)">
        <path id="Trazado_1041258" data-name="Trazado 1041258" d="M222.221,15.168c-5.037,0-10.732,6.826-10.732,12.452s5.694,12.452,10.732,12.452a13.432,13.432,0,0,0,0-24.9Z" transform="translate(-211.489 -15.168)" fill="#55d47b"/>
      </g>
      <g id="Grupo_1184341" data-name="Grupo 1184341" transform="translate(19.318 0.959)">
        <path id="Trazado_1041259" data-name="Trazado 1041259" d="M161.075,20.933a13.454,13.454,0,0,1,8.4-12.452,13.433,13.433,0,1,0,0,24.9A13.454,13.454,0,0,1,161.075,20.933Z" transform="translate(-151 -7.5)" fill="#00c140"/>
      </g>
      <g id="Grupo_1184343" data-name="Grupo 1184343" transform="translate(29.425 7.868)">
        <g id="Grupo_1184342" data-name="Grupo 1184342">
          <path id="Trazado_1041260" data-name="Trazado 1041260" d="M240.456,62.485a3.358,3.358,0,0,0-4.749,0l-3.958,3.958h0c-1.311,1.311-2.479,4.606-1.168,5.917s4.606.143,5.917-1.168l3.958-3.958A3.359,3.359,0,0,0,240.456,62.485Z" transform="translate(-230.007 -61.502)" fill="#fff"/>
        </g>
      </g>
      <g id="Grupo_1184344" data-name="Grupo 1184344" transform="translate(24.643 11.034)">
        <path id="Trazado_1041261" data-name="Trazado 1041261" d="M203.9,92.773a3.358,3.358,0,1,1-4.749-4.749h0l-.792-.792a3.358,3.358,0,1,0-4.749,4.749l3.166,3.166a3.358,3.358,0,0,0,4.749,0Z" transform="translate(-192.627 -86.248)" fill="#efedff"/>
      </g>
      <g id="Grupo_1184345" data-name="Grupo 1184345" transform="translate(5.028 44.418)">
        <path id="Trazado_1041262" data-name="Trazado 1041262" d="M63.726,356.175a12.712,12.712,0,0,0-24.3,0,2.9,2.9,0,0,0,2.78,3.737h5.82l3.549-1.607,3.549,1.607h5.82A2.9,2.9,0,0,0,63.726,356.175Z" transform="translate(-39.299 -347.205)" fill="#5ad6ff"/>
      </g>
      <g id="Grupo_1184346" data-name="Grupo 1184346" transform="translate(13.756 49.32)">
        <path id="Trazado_1041263" data-name="Trazado 1041263" d="M113.17,385.519l1.455,7.806h-7.1l1.455-7.806Z" transform="translate(-107.528 -385.519)" fill="#5b778f"/>
      </g>
      <g id="Grupo_1184347" data-name="Grupo 1184347" transform="translate(14.107 46.122)">
        <path id="Trazado_1041264" data-name="Trazado 1041264" d="M113.466,366.916a3.2,3.2,0,1,0-3.2-3.2A3.2,3.2,0,0,0,113.466,366.916Z" transform="translate(-110.268 -360.519)" fill="#7a8fa5"/>
      </g>
      <g id="Grupo_1184348" data-name="Grupo 1184348" transform="translate(10.072 19.247)">
        <path id="Trazado_1041265" data-name="Trazado 1041265" d="M85.964,150.448c-.227,0-.452.007-.676.018-3.85,1.673-6.557,5.282-6.557,8.769,0,3.024,1.652,6.162,5.646,7.864h16.2a14.721,14.721,0,0,0-14.616-16.65Z" transform="translate(-78.731 -150.448)" fill="#db9e82"/>
      </g>
      <g id="Grupo_1184349" data-name="Grupo 1184349" transform="translate(2.562 19.263)">
        <path id="Trazado_1041266" data-name="Trazado 1041266" d="M30.163,159.343a11.715,11.715,0,0,1,3.934-8.77,14.719,14.719,0,0,0-13.942,16.634H33.185A11.7,11.7,0,0,1,30.163,159.343Z" transform="translate(-20.029 -150.573)" fill="#c8866a"/>
      </g>
      <g id="Grupo_1184350" data-name="Grupo 1184350" transform="translate(0.96 34.361)">
        <circle id="Elipse_13322" data-name="Elipse 13322" cx="3.164" cy="3.164" r="3.164" fill="#f9bbaf"/>
      </g>
      <g id="Grupo_1184351" data-name="Grupo 1184351" transform="translate(11.47 26.359)">
        <path id="Trazado_1041267" data-name="Trazado 1041267" d="M107.134,216.141a11.631,11.631,0,0,0-5.515-9.9,1.382,1.382,0,0,0-2.041.778l-.005.017c-1.094,3.417-4.259,5.459-7.071,4.559a4.428,4.428,0,0,1-.6-.241l-.015-.006c-1.919,1.83-2.231,2.977-2.231,4.611,0,5.211,2.176,9.571,9.274,11.3-.1.031-.2.061-.308.09A11.644,11.644,0,0,0,107.134,216.141Z" transform="translate(-89.657 -206.037)" fill="#ffddcf"/>
      </g>
      <g id="Grupo_1184352" data-name="Grupo 1184352" transform="translate(5.663 31.525)">
        <path id="Trazado_1041268" data-name="Trazado 1041268" d="M51.385,251.178a11.966,11.966,0,0,1,.919-4.611,1.439,1.439,0,0,0-1.636.263,5.207,5.207,0,0,1-5.229,1.509l-.007,0a.686.686,0,0,0-.888.494,11.641,11.641,0,0,0,14.8,13.651A12.007,12.007,0,0,1,51.385,251.178Z" transform="translate(-44.265 -246.422)" fill="#ffcbbe"/>
      </g>
      <g id="Grupo_1184353" data-name="Grupo 1184353" transform="translate(35.919 44.418)">
        <path id="Trazado_1041269" data-name="Trazado 1041269" d="M305.19,356.175a12.712,12.712,0,0,0-24.3,0,2.9,2.9,0,0,0,2.78,3.737h5.82l3.549-1.605,3.549,1.605h5.82A2.9,2.9,0,0,0,305.19,356.175Z" transform="translate(-280.764 -347.205)" fill="#ea5b70"/>
      </g>
      <g id="Grupo_1184354" data-name="Grupo 1184354" transform="translate(44.647 49.32)">
        <path id="Trazado_1041270" data-name="Trazado 1041270" d="M350.448,385.519l-1.455,7.806h7.1l-1.455-7.806Z" transform="translate(-348.992 -385.519)" fill="#d4d4ff"/>
      </g>
      <g id="Grupo_1184355" data-name="Grupo 1184355" transform="translate(44.998 46.122)">
        <path id="Trazado_1041271" data-name="Trazado 1041271" d="M354.93,366.916a3.2,3.2,0,1,1,3.2-3.2A3.2,3.2,0,0,1,354.93,366.916Z" transform="translate(-351.732 -360.519)" fill="#efedff"/>
      </g>
      <g id="Grupo_1184356" data-name="Grupo 1184356" transform="translate(32.591 19.79)">
        <path id="Trazado_1041272" data-name="Trazado 1041272" d="M260.986,158.364a13.162,13.162,0,0,1-1.528,1.492c-2.9,2.372-4.706,5.457-4.706,8.223a6.81,6.81,0,0,0,1.085,3.628,2.063,2.063,0,0,1,.285.771h11.914l-1.379-17.788S262.485,156.665,260.986,158.364Z" transform="translate(-254.752 -154.69)" fill="#4e6a7f"/>
      </g>
      <g id="Grupo_1184357" data-name="Grupo 1184357" transform="translate(41.705 19.631)">
        <path id="Trazado_1041273" data-name="Trazado 1041273" d="M343.31,158.673a11.081,11.081,0,0,1-1.4-1.332,12.5,12.5,0,0,0-5.732-3.737,3.817,3.817,0,0,0-3.2.5.91.91,0,0,1-.5.151.866.866,0,0,1-.2-.026.95.95,0,0,1-.3-.126,3.822,3.822,0,0,0-3.2-.5c-4.238,4.722-3.547,12.428,1.379,17.788h16.6a2.152,2.152,0,0,1,.3-.865A6.781,6.781,0,0,0,348.092,167C348.092,164.191,346.26,161.058,343.31,158.673Z" transform="translate(-325.996 -153.448)" fill="#5b778f"/>
      </g>
      <g id="Grupo_1184358" data-name="Grupo 1184358" transform="translate(58.213 34.361)">
        <circle id="Elipse_13323" data-name="Elipse 13323" cx="3.164" cy="3.164" r="3.164" fill="#c8866a"/>
      </g>
      <g id="Grupo_1184359" data-name="Grupo 1184359" transform="translate(36.198 29.475)">
        <path id="Trazado_1041274" data-name="Trazado 1041274" d="M306.943,237.026q0-.265-.011-.527a2.394,2.394,0,0,0-.757-1.652,5.542,5.542,0,0,1-1.6-2.9l-.006-.027a1.926,1.926,0,0,0-1.635-1.524c-.947-.12-5.082,4.387-19.261,4.387-.6,0-.678.983-.711,1.58q-.015.279-.018.561a12,12,0,1,0,24,.1Z" transform="translate(-282.947 -230.395)" fill="#db9e82"/>
      </g>
      <g id="Grupo_1184360" data-name="Grupo 1184360" transform="translate(20.473 51.834)">
        <path id="Trazado_1041275" data-name="Trazado 1041275" d="M175.674,405.623a12.714,12.714,0,0,0-15.514,8.517,2.9,2.9,0,0,0,2.78,3.737h5.82l.171-.095Z" transform="translate(-160.031 -405.17)" fill="#d4d4ff"/>
      </g>
      <g id="Grupo_1184361" data-name="Grupo 1184361" transform="translate(27.203 52.288)">
        <path id="Trazado_1041276" data-name="Trazado 1041276" d="M230.332,417.235a12.729,12.729,0,0,0-8.788-8.516,12.732,12.732,0,0,0-8.781,8.516,2.9,2.9,0,0,0,2.042,3.642l3.378-1.868,3.549,1.963h5.82A2.9,2.9,0,0,0,230.332,417.235Z" transform="translate(-212.635 -408.719)" fill="#efedff"/>
      </g>
      <g id="Grupo_1184362" data-name="Grupo 1184362" transform="translate(29.202 56.735)">
        <path id="Trazado_1041277" data-name="Trazado 1041277" d="M229.715,443.484l-1.455,7.806h7.1l-1.455-7.806Z" transform="translate(-228.26 -443.484)" fill="#00c140"/>
      </g>
      <g id="Grupo_1184363" data-name="Grupo 1184363" transform="translate(29.552 53.537)">
        <path id="Trazado_1041278" data-name="Trazado 1041278" d="M234.2,424.881a3.2,3.2,0,1,1,3.2-3.2A3.2,3.2,0,0,1,234.2,424.881Z" transform="translate(-231 -418.484)" fill="#55d47b"/>
      </g>
      <g id="Grupo_1184364" data-name="Grupo 1184364" transform="translate(25.301 27.49)">
        <path id="Trazado_1041279" data-name="Trazado 1041279" d="M205.221,214.883c-.227,0-.452.007-.676.018-3.352,1.919-6.773,5.28-6.773,8.765,0,3.023,2.607,6.44,5.863,7.86h16.2a14.714,14.714,0,0,0-14.61-16.643Z" transform="translate(-197.772 -214.883)" fill="#f8ea69"/>
      </g>
      <g id="Grupo_1184365" data-name="Grupo 1184365" transform="translate(18.014 27.506)">
        <path id="Trazado_1041280" data-name="Trazado 1041280" d="M150.939,223.775a11.71,11.71,0,0,1,3.932-8.767,14.713,14.713,0,0,0-13.936,16.627h13.023A11.7,11.7,0,0,1,150.939,223.775Z" transform="translate(-140.809 -215.008)" fill="#ffcf6b"/>
      </g>
      <g id="Grupo_1184366" data-name="Grupo 1184366" transform="translate(16.405 42.048)">
        <circle id="Elipse_13324" data-name="Elipse 13324" cx="3.102" cy="3.102" r="3.102" fill="#f9bbaf"/>
      </g>
      <g id="Grupo_1184367" data-name="Grupo 1184367" transform="translate(42.892 42.048)">
        <circle id="Elipse_13325" data-name="Elipse 13325" cx="3.102" cy="3.102" r="3.102" fill="#ffccbf"/>
      </g>
      <g id="Grupo_1184368" data-name="Grupo 1184368" transform="translate(23.677 37.667)">
        <path id="Trazado_1041281" data-name="Trazado 1041281" d="M204.679,295.313a1.532,1.532,0,0,0-2.5-.4,4.4,4.4,0,0,1-5.893.417,1.519,1.519,0,0,0-1.367-.267,3.557,3.557,0,0,1-2,0,1.518,1.518,0,0,0-1.367.267,4.377,4.377,0,0,1-2.044.887c-1.986,1.986-4.427,3.747-4.427,5.9,0,4.342,4.335,7.951,8.7,10.169l.062,0a11.9,11.9,0,0,0,10.84-16.974Z" transform="translate(-185.077 -294.435)" fill="#ffded0"/>
      </g>
      <g id="Grupo_1184369" data-name="Grupo 1184369" transform="translate(20.618 37.668)">
        <path id="Trazado_1041282" data-name="Trazado 1041282" d="M167.069,302.117a11.7,11.7,0,0,1,1.585-5.9,4.394,4.394,0,0,1-3.849-1.3,1.532,1.532,0,0,0-2.5.4,11.9,11.9,0,0,0,10.624,16.973A11.748,11.748,0,0,1,167.069,302.117Z" transform="translate(-161.168 -294.436)" fill="#ffccbf"/>
      </g>
      <g id="Grupo_1184370" data-name="Grupo 1184370" transform="translate(0 0)">
        <path id="Trazado_1041283" data-name="Trazado 1041283" d="M192.625,68.969a4.29,4.29,0,0,0,3.053-1.265l6.332-6.332a4.323,4.323,0,0,0,0-6.106h0a4.317,4.317,0,0,0-6.106,0l-3.279,3.279-.113-.113a4.318,4.318,0,1,0-6.106,6.106l3.166,3.166A4.288,4.288,0,0,0,192.625,68.969Zm-5.565-7.484a2.4,2.4,0,0,1,4.095-1.7l.7.7a.994.994,0,0,0,.079.091.959.959,0,0,0,1.351.016l.011-.011.016-.017,3.947-3.947a2.4,2.4,0,1,1,3.392,3.392l-6.332,6.332a2.4,2.4,0,0,1-3.392,0l-3.166-3.166a2.383,2.383,0,0,1-.7-1.7Z" transform="translate(-161.458 -47.093)"/>
        <path id="Trazado_1041284" data-name="Trazado 1041284" d="M60.018,41.417A4.121,4.121,0,0,0,64.555,34.9a7.377,7.377,0,0,0,.206-1.721c0-3.078-1.921-6.468-5.138-9.069a10.081,10.081,0,0,1-1.279-1.216,13.447,13.447,0,0,0-6.172-4.024,4.779,4.779,0,0,0-3.976.594,5.052,5.052,0,0,0-1.732-.7,14.392,14.392,0,1,0-27.545-.392,15.712,15.712,0,0,0-1.613-.085c-.2,0-.412.005-.66.016h-.057A15.669,15.669,0,0,0,1.6,33.99c0,.09,0,.182,0,.273a4.121,4.121,0,0,0,4.088,7.074A12.751,12.751,0,0,0,9.222,46.1a13.644,13.644,0,0,0-4.983,7,3.858,3.858,0,0,0,3.7,4.978H20.7a13.621,13.621,0,0,0-1.02,2.437,3.858,3.858,0,0,0,3.7,4.978H42.119a3.858,3.858,0,0,0,3.7-4.978A13.665,13.665,0,0,0,44.8,58.085H57.565a3.858,3.858,0,0,0,3.7-4.978.959.959,0,1,0-1.834.564,1.9,1.9,0,0,1-.294,1.7,1.933,1.933,0,0,1-1.569.792H52.542l-.856-4.591a4.126,4.126,0,0,0,.566-3.162l.027-.008a13.007,13.007,0,0,0,2.4-1.077,11.75,11.75,0,0,1,2.882,2.7.959.959,0,1,0,1.529-1.16,13.666,13.666,0,0,0-2.725-2.7,12.936,12.936,0,0,0,3.653-4.752Zm1.359-1.687a2.2,2.2,0,0,1-.7-.117,12.993,12.993,0,0,0,.481-3.507c0-.192,0-.384-.012-.569,0-.068-.009-.135-.016-.2a2.248,2.248,0,0,1,.252-.015,2.2,2.2,0,1,1,0,4.409ZM48.2,21.4a1.875,1.875,0,0,0,1.017-.3,2.866,2.866,0,0,1,2.393-.388A11.528,11.528,0,0,1,56.9,24.155,11.956,11.956,0,0,0,58.416,25.6c2.73,2.207,4.425,5.11,4.425,7.576,0,.161-.008.323-.023.484a4.12,4.12,0,0,0-2.454-.134,3.256,3.256,0,0,0-.288-.3,4.587,4.587,0,0,1-1.309-2.394l-.006-.027a2.889,2.889,0,0,0-2.454-2.278c-.521-.066-.962.177-1.765.619a26.773,26.773,0,0,1-9.618,3.188,15.724,15.724,0,0,0-8.412-5.344A15.27,15.27,0,0,1,37.9,25.7a14.011,14.011,0,0,0,1.64-1.6,11.534,11.534,0,0,1,5.235-3.392,2.873,2.873,0,0,1,2.4.387,1.9,1.9,0,0,0,1.016.3ZM43.553,56.166a13.677,13.677,0,0,0-2.778-2.689q.415-.349.8-.735a12.882,12.882,0,0,0,2.459-3.4,4.131,4.131,0,0,0,.667,2.232l-.856,4.591ZM30.936,60.476a4.151,4.151,0,0,0,3.629,0l.579,3.106H30.356Zm4.053-3.74a2.239,2.239,0,1,1-4.438-.407,12.859,12.859,0,0,0,4.385-.075A2.261,2.261,0,0,1,34.989,56.735ZM24.832,51.388a10.911,10.911,0,0,1-2.21-12.433.556.556,0,0,1,.422-.321.581.581,0,0,1,.518.177,5.314,5.314,0,0,0,3.87,1.652,5.416,5.416,0,0,0,.817-.063,5.354,5.354,0,0,0,2.491-1.081.56.56,0,0,1,.5-.1,4.536,4.536,0,0,0,2.546,0,.56.56,0,0,1,.5.1,5.358,5.358,0,0,0,7.179-.508.582.582,0,0,1,.518-.177.556.556,0,0,1,.423.321,10.932,10.932,0,0,1-17.58,12.432Zm-2.884,4.778h-.3l-.856-4.591a4.13,4.13,0,0,0,.6-1.512,12.978,12.978,0,0,0,2.088,2.689,13.122,13.122,0,0,0,1.009.9A13.711,13.711,0,0,0,21.948,56.166Zm-5.18-7.113q.261.011.524.011c.331,0,.661-.015.99-.041a4.049,4.049,0,0,0,1.225.189h.032c0,.036,0,.073,0,.109a2.239,2.239,0,1,1-4.432-.448,12.423,12.423,0,0,0,1.656.181ZM19.662,43.9a12.8,12.8,0,0,0,.5,3.286,2.143,2.143,0,1,1-.656-4.182c.056,0,.112,0,.167.008C19.66,43.31,19.656,43.606,19.662,43.9ZM15.49,53.06a4.151,4.151,0,0,0,3.629,0l.579,3.106H14.911Zm30.5-5.767a2.136,2.136,0,0,1-1.067-.287,12.932,12.932,0,0,0,.448-3.385c0-.173,0-.346-.011-.518a2.142,2.142,0,1,1,.63,4.19Zm.489-6.174a3.99,3.99,0,0,0-1.339.06,12.716,12.716,0,0,0-1-3.045,2.492,2.492,0,0,0-4.06-.651,3.44,3.44,0,0,1-4.607.327,2.482,2.482,0,0,0-2.231-.433,2.608,2.608,0,0,1-1.46,0,2.482,2.482,0,0,0-2.231.433,3.44,3.44,0,0,1-4.607-.327,2.492,2.492,0,0,0-4.06.651,12.73,12.73,0,0,0-.983,2.974c-.132-.013-.264-.02-.4-.02a4.086,4.086,0,0,0-.489.03c1.318-16.675,26.13-16.7,27.465,0Zm-29.865-20.9h.056c.245-.011.446-.017.632-.017a13.807,13.807,0,0,1,6.483,1.616.959.959,0,1,0,.9-1.693,15.618,15.618,0,0,0-3.631-1.387,12.473,12.473,0,1,1,23.351.074c-.067.017-.134.035-.2.056a13.452,13.452,0,0,0-6.107,3.956,12.127,12.127,0,0,1-1.416,1.384,16.683,16.683,0,0,0-2.4,2.394q-.761-.074-1.541-.076c-.2,0-.412.005-.66.016h-.057c-.291.013-.579.035-.865.063a15.713,15.713,0,0,0-2.659-3.623.96.96,0,0,0-1.369,1.345,13.806,13.806,0,0,1,2.013,2.611,15.6,15.6,0,0,0-2.675.883,12.638,12.638,0,0,0-2.541-2.079,2.3,2.3,0,0,0-2.027-.2,2.355,2.355,0,0,0-1.434,1.507l0,.015a6.259,6.259,0,0,1-2.5,3.384A3.945,3.945,0,0,1,14.607,31a3.458,3.458,0,0,1-.462-.185L14.1,30.8a2.4,2.4,0,0,0-2.711.455,4.245,4.245,0,0,1-4.259,1.277l-.01,0a1.667,1.667,0,0,0-1.334.139,1.635,1.635,0,0,0-.717.849,4.069,4.069,0,0,0-1.536-.069,13.75,13.75,0,0,1,13.084-13.22ZM4.124,39.73a2.2,2.2,0,1,1,.625-4.318,12.652,12.652,0,0,0-.035,1.548,12.432,12.432,0,0,0,.368,2.551A2.183,2.183,0,0,1,4.124,39.73Zm2.507-2.845a10.7,10.7,0,0,1,.186-2.449,6.173,6.173,0,0,0,5.924-1.822.479.479,0,0,1,.54-.081l.029.013a5.38,5.38,0,0,0,.712.285,5.826,5.826,0,0,0,4.992-.768,8.171,8.171,0,0,0,3.281-4.4l.01-.03a.448.448,0,0,1,.271-.288.389.389,0,0,1,.35.035,10.716,10.716,0,0,1,1.762,1.367,15.671,15.671,0,0,0-7.2,9.785,1.458,1.458,0,0,1-1.3-.495A.959.959,0,1,0,14.745,39.3a3.4,3.4,0,0,0,2.408,1.162q-.08.717-.1,1.453a4.054,4.054,0,0,0-1.138,5.142,10.738,10.738,0,0,1-9.29-10.169ZM6.367,55.374a1.9,1.9,0,0,1-.294-1.7,11.735,11.735,0,0,1,4.809-6.382,12.56,12.56,0,0,0,2.371,1.1,4.134,4.134,0,0,0,.561,3.184l-.856,4.591H7.936a1.934,1.934,0,0,1-1.569-.793Zm15.445,7.416a1.9,1.9,0,0,1-.294-1.7A11.75,11.75,0,0,1,26.18,54.8a12.73,12.73,0,0,0,2.5,1.09,4.175,4.175,0,0,0-.086.843,4.131,4.131,0,0,0,.668,2.256L28.4,63.582H23.382A1.933,1.933,0,0,1,21.812,62.789Zm21.876,0a1.933,1.933,0,0,1-1.569.793H37.1l-.856-4.591a4.142,4.142,0,0,0,.55-3.236,12.7,12.7,0,0,0,2.322-1.09,11.726,11.726,0,0,1,4.87,6.421,1.9,1.9,0,0,1-.294,1.7ZM45.8,56.166l.579-3.106a4.151,4.151,0,0,0,3.629,0l.579,3.106H45.8Zm4.633-6.846a2.239,2.239,0,1,1-4.478,0c0-.036,0-.073,0-.109h.032a4.05,4.05,0,0,0,1.221-.188c.326.025.655.04.984.04h.17a12.97,12.97,0,0,0,2.022-.186A2.258,2.258,0,0,1,50.435,49.32Zm1.239-2.736a11.01,11.01,0,0,1-2.1.474,4.055,4.055,0,0,0-1.136-5.146q-.015-.735-.1-1.453A3.4,3.4,0,0,0,50.756,39.3a.959.959,0,1,0-1.447-1.261,1.458,1.458,0,0,1-1.3.494,15.607,15.607,0,0,0-1.851-4.462,28.344,28.344,0,0,0,9.312-3.244c.264-.145.559-.307.715-.375a.974.974,0,0,1,.7.747l.007.032a6.522,6.522,0,0,0,1.883,3.4,1.441,1.441,0,0,1,.45.99c.007.158.01.321.01.485a11.022,11.022,0,0,1-7.561,10.478Z" transform="translate(0 0)"/>
        <path id="Trazado_1041285" data-name="Trazado 1041285" d="M195.005,331.358a.959.959,0,0,0-.959.959v1.339a.959.959,0,0,0,1.919,0v-1.339A.959.959,0,0,0,195.005,331.358Z" transform="translate(-169.221 -288.967)"/>
        <path id="Trazado_1041286" data-name="Trazado 1041286" d="M304.873,333.656v-1.339a.959.959,0,0,0-1.919,0v1.339a.959.959,0,0,0,1.919,0Z" transform="translate(-264.197 -288.967)"/>
        <path id="Trazado_1041287" data-name="Trazado 1041287" d="M239.407,341.747a.959.959,0,0,0-1.354.093,1.475,1.475,0,0,1-2.227,0,.959.959,0,1,0-1.447,1.261,3.394,3.394,0,0,0,5.12,0A.96.96,0,0,0,239.407,341.747Z" transform="translate(-204.19 -297.821)"/>
        <path id="Trazado_1041288" data-name="Trazado 1041288" d="M75.233,286.9v-1.339a.959.959,0,0,0-1.919,0V286.9a.959.959,0,1,0,1.919,0Z" transform="translate(-63.935 -248.189)"/>
        <path id="Trazado_1041289" data-name="Trazado 1041289" d="M425.6,285.557a.959.959,0,1,0-1.919,0V286.9a.959.959,0,1,0,1.919,0Z" transform="translate(-369.483 -248.189)"/>
      </g>
    </g>
  </g>
</svg>
