<svg xmlns="http://www.w3.org/2000/svg" xmlns:xlink="http://www.w3.org/1999/xlink" width="505" height="338" viewBox="0 0 505 338">
  <defs>
    <clipPath id="clip-path">
      <rect id="Rectángulo_415591" data-name="Rectángulo 415591" width="505" height="338" transform="translate(915 6314)" fill="#fff" stroke="#707070" stroke-width="1" opacity="0.81"/>
    </clipPath>
  </defs>
  <g id="Enmascarar_grupo_1098849" data-name="Enmascarar grupo 1098849" transform="translate(-915 -6314)" clip-path="url(#clip-path)">
    <g id="Grupo_1185477" data-name="Grupo 1185477" transform="translate(-2 15.373)">
      <circle id="Elipse_13350" data-name="Elipse 13350" cx="243" cy="243" r="243" transform="translate(934 6340)" fill="#cee29d"/>
      <g id="Grupo_1185476" data-name="Grupo 1185476" transform="translate(-109.846 -274.733)">
        <g id="OBJECTS" transform="translate(1043.846 6588.678)">
          <g id="Grupo_1185475" data-name="Grupo 1185475" transform="translate(404.883 25.7)">
            <g id="Grupo_1185239" data-name="Grupo 1185239" transform="translate(43.76 22.501)">
              <g id="Grupo_1185234" data-name="Grupo 1185234" transform="translate(0 65.641)">
                <path id="Trazado_1041861" data-name="Trazado 1041861" d="M458.505,320.723a2.733,2.733,0,1,1,2.733,2.733A2.733,2.733,0,0,1,458.505,320.723Z" transform="translate(-458.505 -317.99)" fill="#a0a8fb"/>
              </g>
              <g id="Grupo_1185235" data-name="Grupo 1185235" transform="translate(0 43.761)">
                <path id="Trazado_1041862" data-name="Trazado 1041862" d="M458.505,300.467a2.733,2.733,0,1,1,2.733,2.733A2.733,2.733,0,0,1,458.505,300.467Z" transform="translate(-458.505 -297.734)" fill="#a0a8fb"/>
              </g>
              <g id="Grupo_1185236" data-name="Grupo 1185236" transform="translate(0 21.881)">
                <path id="Trazado_1041863" data-name="Trazado 1041863" d="M458.505,280.211a2.733,2.733,0,1,1,2.733,2.733A2.733,2.733,0,0,1,458.505,280.211Z" transform="translate(-458.505 -277.478)" fill="#a0a8fb"/>
              </g>
              <g id="Grupo_1185238" data-name="Grupo 1185238">
                <g id="Grupo_1185237" data-name="Grupo 1185237">
                  <path id="Trazado_1041864" data-name="Trazado 1041864" d="M458.505,259.954a2.733,2.733,0,1,1,2.733,2.733A2.733,2.733,0,0,1,458.505,259.954Z" transform="translate(-458.505 -257.221)" fill="#a0a8fb"/>
                </g>
              </g>
            </g>
            <g id="Grupo_1185245" data-name="Grupo 1185245" transform="translate(21.88 22.501)">
              <g id="Grupo_1185240" data-name="Grupo 1185240" transform="translate(0 65.641)">
                <path id="Trazado_1041865" data-name="Trazado 1041865" d="M438.249,320.723a2.733,2.733,0,1,1,2.733,2.733A2.733,2.733,0,0,1,438.249,320.723Z" transform="translate(-438.249 -317.99)" fill="#a0a8fb"/>
              </g>
              <g id="Grupo_1185241" data-name="Grupo 1185241" transform="translate(0 43.761)">
                <path id="Trazado_1041866" data-name="Trazado 1041866" d="M438.249,300.467a2.733,2.733,0,1,1,2.733,2.733A2.733,2.733,0,0,1,438.249,300.467Z" transform="translate(-438.249 -297.734)" fill="#a0a8fb"/>
              </g>
              <g id="Grupo_1185242" data-name="Grupo 1185242" transform="translate(0 21.881)">
                <path id="Trazado_1041867" data-name="Trazado 1041867" d="M438.249,280.211a2.733,2.733,0,1,1,2.733,2.733A2.733,2.733,0,0,1,438.249,280.211Z" transform="translate(-438.249 -277.478)" fill="#a0a8fb"/>
              </g>
              <g id="Grupo_1185244" data-name="Grupo 1185244">
                <g id="Grupo_1185243" data-name="Grupo 1185243">
                  <path id="Trazado_1041868" data-name="Trazado 1041868" d="M438.249,259.954a2.733,2.733,0,1,1,2.733,2.733A2.733,2.733,0,0,1,438.249,259.954Z" transform="translate(-438.249 -257.221)" fill="#a0a8fb"/>
                </g>
              </g>
            </g>
            <g id="Grupo_1185251" data-name="Grupo 1185251" transform="translate(0 22.501)">
              <g id="Grupo_1185246" data-name="Grupo 1185246" transform="translate(0 65.641)">
                <circle id="Elipse_13347" data-name="Elipse 13347" cx="2.733" cy="2.733" r="2.733" fill="#a0a8fb"/>
              </g>
              <g id="Grupo_1185247" data-name="Grupo 1185247" transform="translate(0 43.761)">
                <circle id="Elipse_13348" data-name="Elipse 13348" cx="2.733" cy="2.733" r="2.733" fill="#a0a8fb"/>
              </g>
              <g id="Grupo_1185248" data-name="Grupo 1185248" transform="translate(0 21.881)">
                <path id="Trazado_1041869" data-name="Trazado 1041869" d="M417.993,280.211a2.733,2.733,0,1,1,2.733,2.733A2.733,2.733,0,0,1,417.993,280.211Z" transform="translate(-417.993 -277.478)" fill="#a0a8fb"/>
              </g>
              <g id="Grupo_1185250" data-name="Grupo 1185250">
                <g id="Grupo_1185249" data-name="Grupo 1185249">
                  <path id="Trazado_1041870" data-name="Trazado 1041870" d="M417.993,259.954a2.733,2.733,0,1,1,2.733,2.733A2.733,2.733,0,0,1,417.993,259.954Z" transform="translate(-417.993 -257.221)" fill="#a0a8fb"/>
                </g>
              </g>
            </g>
            <g id="Grupo_1185252" data-name="Grupo 1185252" transform="translate(43.76 0)">
              <path id="Trazado_1041871" data-name="Trazado 1041871" d="M458.505,239.123a2.733,2.733,0,1,1,2.733,2.733A2.733,2.733,0,0,1,458.505,239.123Z" transform="translate(-458.505 -236.39)" fill="#a0a8fb"/>
            </g>
            <g id="Grupo_1185253" data-name="Grupo 1185253" transform="translate(21.88 0)">
              <path id="Trazado_1041872" data-name="Trazado 1041872" d="M438.249,239.123a2.733,2.733,0,1,1,2.733,2.733A2.733,2.733,0,0,1,438.249,239.123Z" transform="translate(-438.249 -236.39)" fill="#a0a8fb"/>
            </g>
            <g id="Grupo_1185254" data-name="Grupo 1185254" transform="translate(0 0)">
              <path id="Trazado_1041873" data-name="Trazado 1041873" d="M417.993,239.123a2.733,2.733,0,1,1,2.733,2.733A2.733,2.733,0,0,1,417.993,239.123Z" transform="translate(-417.993 -236.39)" fill="#a0a8fb"/>
            </g>
          </g>
          <g id="Grupo_1185255" data-name="Grupo 1185255" transform="translate(194.248 274.19)">
            <g id="Grupo_1185239-2" data-name="Grupo 1185239" transform="translate(43.76 22.501)">
              <g id="Grupo_1185234-2" data-name="Grupo 1185234" transform="translate(0 65.641)">
                <path id="Trazado_1041861-2" data-name="Trazado 1041861" d="M458.505,320.723a2.733,2.733,0,1,1,2.733,2.733A2.733,2.733,0,0,1,458.505,320.723Z" transform="translate(-458.505 -317.99)" fill="#a0a8fb"/>
              </g>
              <g id="Grupo_1185235-2" data-name="Grupo 1185235" transform="translate(0 43.761)">
                <path id="Trazado_1041862-2" data-name="Trazado 1041862" d="M458.505,300.467a2.733,2.733,0,1,1,2.733,2.733A2.733,2.733,0,0,1,458.505,300.467Z" transform="translate(-458.505 -297.734)" fill="#a0a8fb"/>
              </g>
              <g id="Grupo_1185236-2" data-name="Grupo 1185236" transform="translate(0 21.881)">
                <path id="Trazado_1041863-2" data-name="Trazado 1041863" d="M458.505,280.211a2.733,2.733,0,1,1,2.733,2.733A2.733,2.733,0,0,1,458.505,280.211Z" transform="translate(-458.505 -277.478)" fill="#a0a8fb"/>
              </g>
              <g id="Grupo_1185238-2" data-name="Grupo 1185238">
                <g id="Grupo_1185237-2" data-name="Grupo 1185237">
                  <path id="Trazado_1041864-2" data-name="Trazado 1041864" d="M458.505,259.954a2.733,2.733,0,1,1,2.733,2.733A2.733,2.733,0,0,1,458.505,259.954Z" transform="translate(-458.505 -257.221)" fill="#a0a8fb"/>
                </g>
              </g>
            </g>
            <g id="Grupo_1185245-2" data-name="Grupo 1185245" transform="translate(21.88 22.501)">
              <g id="Grupo_1185240-2" data-name="Grupo 1185240" transform="translate(0 65.641)">
                <path id="Trazado_1041865-2" data-name="Trazado 1041865" d="M438.249,320.723a2.733,2.733,0,1,1,2.733,2.733A2.733,2.733,0,0,1,438.249,320.723Z" transform="translate(-438.249 -317.99)" fill="#a0a8fb"/>
              </g>
              <g id="Grupo_1185241-2" data-name="Grupo 1185241" transform="translate(0 43.761)">
                <path id="Trazado_1041866-2" data-name="Trazado 1041866" d="M438.249,300.467a2.733,2.733,0,1,1,2.733,2.733A2.733,2.733,0,0,1,438.249,300.467Z" transform="translate(-438.249 -297.734)" fill="#a0a8fb"/>
              </g>
              <g id="Grupo_1185242-2" data-name="Grupo 1185242" transform="translate(0 21.881)">
                <path id="Trazado_1041867-2" data-name="Trazado 1041867" d="M438.249,280.211a2.733,2.733,0,1,1,2.733,2.733A2.733,2.733,0,0,1,438.249,280.211Z" transform="translate(-438.249 -277.478)" fill="#a0a8fb"/>
              </g>
              <g id="Grupo_1185244-2" data-name="Grupo 1185244">
                <g id="Grupo_1185243-2" data-name="Grupo 1185243">
                  <path id="Trazado_1041868-2" data-name="Trazado 1041868" d="M438.249,259.954a2.733,2.733,0,1,1,2.733,2.733A2.733,2.733,0,0,1,438.249,259.954Z" transform="translate(-438.249 -257.221)" fill="#a0a8fb"/>
                </g>
              </g>
            </g>
            <g id="Grupo_1185251-2" data-name="Grupo 1185251" transform="translate(0 22.501)">
              <g id="Grupo_1185246-2" data-name="Grupo 1185246" transform="translate(0 65.641)">
                <circle id="Elipse_13347-2" data-name="Elipse 13347" cx="2.733" cy="2.733" r="2.733" fill="#a0a8fb"/>
              </g>
              <g id="Grupo_1185247-2" data-name="Grupo 1185247" transform="translate(0 43.761)">
                <circle id="Elipse_13348-2" data-name="Elipse 13348" cx="2.733" cy="2.733" r="2.733" fill="#a0a8fb"/>
              </g>
              <g id="Grupo_1185248-2" data-name="Grupo 1185248" transform="translate(0 21.881)">
                <path id="Trazado_1041869-2" data-name="Trazado 1041869" d="M417.993,280.211a2.733,2.733,0,1,1,2.733,2.733A2.733,2.733,0,0,1,417.993,280.211Z" transform="translate(-417.993 -277.478)" fill="#a0a8fb"/>
              </g>
              <g id="Grupo_1185250-2" data-name="Grupo 1185250">
                <g id="Grupo_1185249-2" data-name="Grupo 1185249">
                  <path id="Trazado_1041870-2" data-name="Trazado 1041870" d="M417.993,259.954a2.733,2.733,0,1,1,2.733,2.733A2.733,2.733,0,0,1,417.993,259.954Z" transform="translate(-417.993 -257.221)" fill="#a0a8fb"/>
                </g>
              </g>
            </g>
            <g id="Grupo_1185252-2" data-name="Grupo 1185252" transform="translate(43.76 0)">
              <path id="Trazado_1041871-2" data-name="Trazado 1041871" d="M458.505,239.123a2.733,2.733,0,1,1,2.733,2.733A2.733,2.733,0,0,1,458.505,239.123Z" transform="translate(-458.505 -236.39)" fill="#a0a8fb"/>
            </g>
            <g id="Grupo_1185253-2" data-name="Grupo 1185253" transform="translate(21.88 0)">
              <path id="Trazado_1041872-2" data-name="Trazado 1041872" d="M438.249,239.123a2.733,2.733,0,1,1,2.733,2.733A2.733,2.733,0,0,1,438.249,239.123Z" transform="translate(-438.249 -236.39)" fill="#a0a8fb"/>
            </g>
            <g id="Grupo_1185254-2" data-name="Grupo 1185254" transform="translate(0 0)">
              <path id="Trazado_1041873-2" data-name="Trazado 1041873" d="M417.993,239.123a2.733,2.733,0,1,1,2.733,2.733A2.733,2.733,0,0,1,417.993,239.123Z" transform="translate(-417.993 -236.39)" fill="#a0a8fb"/>
            </g>
          </g>
          <g id="Grupo_1185277" data-name="Grupo 1185277" transform="translate(155.359 21.12)">
            <g id="Grupo_1185261" data-name="Grupo 1185261" transform="translate(43.761 22.502)">
              <g id="Grupo_1185256" data-name="Grupo 1185256" transform="translate(0 65.641)">
                <path id="Trazado_1041874" data-name="Trazado 1041874" d="M105.507,198.174a2.733,2.733,0,1,1,2.733,2.733A2.733,2.733,0,0,1,105.507,198.174Z" transform="translate(-105.507 -195.441)" fill="#a0a8fb"/>
              </g>
              <g id="Grupo_1185257" data-name="Grupo 1185257" transform="translate(0 43.76)">
                <path id="Trazado_1041875" data-name="Trazado 1041875" d="M105.507,177.917a2.733,2.733,0,1,1,2.733,2.733A2.733,2.733,0,0,1,105.507,177.917Z" transform="translate(-105.507 -175.184)" fill="#a0a8fb"/>
              </g>
              <g id="Grupo_1185258" data-name="Grupo 1185258" transform="translate(0 21.88)">
                <path id="Trazado_1041876" data-name="Trazado 1041876" d="M105.507,157.661a2.733,2.733,0,1,1,2.733,2.733A2.733,2.733,0,0,1,105.507,157.661Z" transform="translate(-105.507 -154.928)" fill="#a0a8fb"/>
              </g>
              <g id="Grupo_1185260" data-name="Grupo 1185260">
                <g id="Grupo_1185259" data-name="Grupo 1185259">
                  <path id="Trazado_1041877" data-name="Trazado 1041877" d="M105.507,137.4a2.733,2.733,0,1,1,2.733,2.733A2.733,2.733,0,0,1,105.507,137.4Z" transform="translate(-105.507 -134.672)" fill="#a0a8fb"/>
                </g>
              </g>
            </g>
            <g id="Grupo_1185267" data-name="Grupo 1185267" transform="translate(21.88 22.502)">
              <g id="Grupo_1185262" data-name="Grupo 1185262" transform="translate(0 65.641)">
                <path id="Trazado_1041878" data-name="Trazado 1041878" d="M85.25,198.174a2.733,2.733,0,1,1,2.733,2.733A2.733,2.733,0,0,1,85.25,198.174Z" transform="translate(-85.25 -195.441)" fill="#a0a8fb"/>
              </g>
              <g id="Grupo_1185263" data-name="Grupo 1185263" transform="translate(0 43.76)">
                <path id="Trazado_1041879" data-name="Trazado 1041879" d="M85.25,177.917a2.733,2.733,0,1,1,2.733,2.733A2.733,2.733,0,0,1,85.25,177.917Z" transform="translate(-85.25 -175.184)" fill="#a0a8fb"/>
              </g>
              <g id="Grupo_1185264" data-name="Grupo 1185264" transform="translate(0 21.88)">
                <path id="Trazado_1041880" data-name="Trazado 1041880" d="M85.25,157.661a2.733,2.733,0,1,1,2.733,2.733A2.733,2.733,0,0,1,85.25,157.661Z" transform="translate(-85.25 -154.928)" fill="#a0a8fb"/>
              </g>
              <g id="Grupo_1185266" data-name="Grupo 1185266">
                <g id="Grupo_1185265" data-name="Grupo 1185265">
                  <path id="Trazado_1041881" data-name="Trazado 1041881" d="M85.25,137.4a2.733,2.733,0,1,1,2.733,2.733A2.733,2.733,0,0,1,85.25,137.4Z" transform="translate(-85.25 -134.672)" fill="#a0a8fb"/>
                </g>
              </g>
            </g>
            <g id="Grupo_1185273" data-name="Grupo 1185273" transform="translate(0 22.502)">
              <g id="Grupo_1185268" data-name="Grupo 1185268" transform="translate(0 65.641)">
                <path id="Trazado_1041882" data-name="Trazado 1041882" d="M64.994,198.174a2.733,2.733,0,1,1,2.733,2.733A2.733,2.733,0,0,1,64.994,198.174Z" transform="translate(-64.994 -195.441)" fill="#a0a8fb"/>
              </g>
              <g id="Grupo_1185269" data-name="Grupo 1185269" transform="translate(0 43.76)">
                <path id="Trazado_1041883" data-name="Trazado 1041883" d="M64.994,177.917a2.733,2.733,0,1,1,2.733,2.733A2.733,2.733,0,0,1,64.994,177.917Z" transform="translate(-64.994 -175.184)" fill="#a0a8fb"/>
              </g>
              <g id="Grupo_1185270" data-name="Grupo 1185270" transform="translate(0 21.88)">
                <path id="Trazado_1041884" data-name="Trazado 1041884" d="M64.994,157.661a2.733,2.733,0,1,1,2.733,2.733A2.733,2.733,0,0,1,64.994,157.661Z" transform="translate(-64.994 -154.928)" fill="#a0a8fb"/>
              </g>
              <g id="Grupo_1185272" data-name="Grupo 1185272">
                <g id="Grupo_1185271" data-name="Grupo 1185271">
                  <path id="Trazado_1041885" data-name="Trazado 1041885" d="M64.994,137.4a2.733,2.733,0,1,1,2.733,2.733A2.733,2.733,0,0,1,64.994,137.4Z" transform="translate(-64.994 -134.672)" fill="#a0a8fb"/>
                </g>
              </g>
            </g>
            <g id="Grupo_1185274" data-name="Grupo 1185274" transform="translate(43.761 0)">
              <path id="Trazado_1041886" data-name="Trazado 1041886" d="M105.507,116.573a2.733,2.733,0,1,1,2.733,2.733A2.733,2.733,0,0,1,105.507,116.573Z" transform="translate(-105.507 -113.84)" fill="#a0a8fb"/>
            </g>
            <g id="Grupo_1185275" data-name="Grupo 1185275" transform="translate(21.88 0)">
              <path id="Trazado_1041887" data-name="Trazado 1041887" d="M85.25,116.573a2.733,2.733,0,1,1,2.733,2.733A2.733,2.733,0,0,1,85.25,116.573Z" transform="translate(-85.25 -113.84)" fill="#a0a8fb"/>
            </g>
            <g id="Grupo_1185276" data-name="Grupo 1185276" transform="translate(0 0)">
              <path id="Trazado_1041888" data-name="Trazado 1041888" d="M64.994,116.573a2.733,2.733,0,1,1,2.733,2.733A2.733,2.733,0,0,1,64.994,116.573Z" transform="translate(-64.994 -113.84)" fill="#a0a8fb"/>
            </g>
          </g>
          <g id="Grupo_1185278" data-name="Grupo 1185278" transform="translate(7.889 451.938)">
            <path id="Trazado_1041889" data-name="Trazado 1041889" d="M31.235,439.07H519.043s-3.4,42.937-251.421,42.937S31.235,439.07,31.235,439.07Z" transform="translate(-31.15 -439.07)" fill="#a0a8fb"/>
          </g>
          <g id="Grupo_1185289" data-name="Grupo 1185289" transform="translate(0 217.272)">
            <g id="Grupo_1185279" data-name="Grupo 1185279" transform="translate(70.213 38.166)">
              <path id="Trazado_1041890" data-name="Trazado 1041890" d="M96.8,297.287l-.176-.243c-1.656,1.656-4.7.994-6.181-.839-1.5-1.81-1.722-4.349-1.546-6.688.706-8.918,6.733-16.733,14.106-21.81s16.048-7.858,24.591-10.551c-4.746,5.739-4.26,13.995-5.54,21.324a41.925,41.925,0,0,1-10.132,20.75,17.529,17.529,0,0,1-5.717,4.459,7.894,7.894,0,0,1-7.042-.133A5.219,5.219,0,0,1,96.8,297.287Z" transform="translate(-88.847 -257.155)" fill="#a0a8fb"/>
            </g>
            <g id="Grupo_1185280" data-name="Grupo 1185280" transform="translate(78.27 86.999)">
              <path id="Trazado_1041891" data-name="Trazado 1041891" d="M139.183,320.085a16,16,0,0,0-11.325-1.369,30.894,30.894,0,0,0-8.389,4.017,34.1,34.1,0,0,1-8.344,4.106,11.085,11.085,0,0,1-8.984-.971c-2.538-1.678-3.973-5.144-2.759-7.925-2.185-.419-3.444-3.046-2.98-5.231.463-2.208,2.141-3.951,3.907-5.3a24.836,24.836,0,0,1,38.873,12.67Z" transform="translate(-96.307 -302.364)" fill="#a0a8fb"/>
            </g>
            <g id="Grupo_1185281" data-name="Grupo 1185281" transform="translate(43.719)">
              <path id="Trazado_1041892" data-name="Trazado 1041892" d="M84.53,270.828a13.789,13.789,0,0,1-8.653,4.592,10.457,10.457,0,0,1-8.984-3.444c-2.362-2.826-2.781-6.8-2.494-10.464,1.081-13.819,10.728-25.916,11.721-39.69A54.49,54.49,0,0,1,94.641,236.06a38.949,38.949,0,0,1,8.918,22.295,20.823,20.823,0,0,1-1.9,10.485,11.892,11.892,0,0,1-8.167,6.424C89.96,275.86,85.965,274.117,84.53,270.828Z" transform="translate(-64.32 -221.822)" fill="#a0a8fb"/>
            </g>
            <g id="Grupo_1185282" data-name="Grupo 1185282" transform="translate(0 97.119)">
              <path id="Trazado_1041893" data-name="Trazado 1041893" d="M66.628,322.071c.463,2.208-.772,4.835-2.959,5.231,1.193,2.781-.22,6.269-2.759,7.925a11.05,11.05,0,0,1-9.007.971,32.607,32.607,0,0,1-8.344-4.106,31.538,31.538,0,0,0-8.389-4.017,16.125,16.125,0,0,0-11.325,1.369,24.844,24.844,0,0,1,38.872-12.672C64.509,318.143,66.187,319.886,66.628,322.071Z" transform="translate(-23.846 -311.732)" fill="#a0a8fb"/>
            </g>
            <g id="Grupo_1185283" data-name="Grupo 1185283" transform="translate(13.356 40.397)">
              <path id="Trazado_1041894" data-name="Trazado 1041894" d="M74.643,287.078a17.488,17.488,0,0,1,1.5,6.976,8.094,8.094,0,0,1-2.959,6.291,5.368,5.368,0,0,1-6.623-.11,9.995,9.995,0,0,1-17.99,7.461c-2.185-3.069-2.473-7.064-2.671-10.839-.419-6.887-.861-13.8-2.384-20.529a45.541,45.541,0,0,0-7.306-17.108,44.04,44.04,0,0,1,38.432,27.858Z" transform="translate(-36.211 -259.22)" fill="#a0a8fb"/>
            </g>
            <g id="Grupo_1185284" data-name="Grupo 1185284" transform="translate(25.221 52.086)">
              <path id="Trazado_1041895" data-name="Trazado 1041895" d="M81.334,370.076h0a.539.539,0,0,1-.531-.477c-2.011-17.323-4.091-35.235-8.907-52.308-5.394-19.123-13.655-34.715-24.55-46.34a.54.54,0,0,1,.789-.739c11.016,11.752,19.36,27.494,24.8,46.786,4.445,15.758,6.566,32.191,8.445,48.221,2.074-15.076,4.593-30.883,9.1-46.192,5.38-18.3,13.086-33.7,22.9-45.8a.54.54,0,0,1,.838.682c-9.725,11.977-17.363,27.257-22.7,45.417-4.9,16.679-7.45,33.983-9.636,50.277A.541.541,0,0,1,81.334,370.076Z" transform="translate(-47.195 -270.042)" fill="#222a40"/>
            </g>
            <g id="Grupo_1185285" data-name="Grupo 1185285" transform="translate(63.902 94.788)">
              <path id="Trazado_1041896" data-name="Trazado 1041896" d="M83.544,335.207a.539.539,0,0,1-.455-.83c8.489-13.347,22.225-22.618,36.74-24.8a.54.54,0,1,1,.161,1.067C105.78,312.782,92.326,321.87,84,334.957A.545.545,0,0,1,83.544,335.207Z" transform="translate(-83.004 -309.574)" fill="#222a40"/>
            </g>
            <g id="Grupo_1185286" data-name="Grupo 1185286" transform="translate(58.565 10.774)">
              <path id="Trazado_1041897" data-name="Trazado 1041897" d="M78.605,373.718h-.032a.54.54,0,0,1-.508-.57l2.708-46.124c1.829-31.142,3.719-63.343-2.026-94.591a.542.542,0,0,1,.433-.63.548.548,0,0,1,.629.433c5.769,31.378,3.874,63.646,2.042,94.85L79.142,373.21A.538.538,0,0,1,78.605,373.718Z" transform="translate(-78.064 -231.796)" fill="#222a40"/>
            </g>
            <g id="Grupo_1185287" data-name="Grupo 1185287" transform="translate(19.808 104.911)">
              <path id="Trazado_1041898" data-name="Trazado 1041898" d="M79.088,344.578a.54.54,0,0,1-.456-.25c-8.324-13.087-21.779-22.175-35.988-24.309a.54.54,0,1,1,.161-1.067c14.515,2.18,28.25,11.45,36.74,24.8a.54.54,0,0,1-.165.745A.549.549,0,0,1,79.088,344.578Z" transform="translate(-42.184 -318.945)" fill="#222a40"/>
            </g>
            <g id="Grupo_1185288" data-name="Grupo 1185288" transform="translate(38.034 142.25)">
              <path id="Trazado_1041899" data-name="Trazado 1041899" d="M98.154,451.251a1.243,1.243,0,0,1-.135.079c-17.916,10.818-32.369.373-32.965-.065a.067.067,0,0,1-.021-.014s-6.14-61.469-5.973-69.037,5.973-17.74,5.973-17.74l-3.085-10.961H101.24l-3.085,10.961s5.814,10.179,5.979,17.74S98.154,451.251,98.154,451.251Z" transform="translate(-59.057 -353.513)" fill="#a0a8fb"/>
            </g>
          </g>
          <g id="Grupo_1185338" data-name="Grupo 1185338" transform="translate(265.71 33.168)">
            <g id="Grupo_1185290" data-name="Grupo 1185290" transform="translate(72.594 74.478)">
              <path id="Trazado_1041900" data-name="Trazado 1041900" d="M460.24,175.344s-.549.6-1.5,1.5c-2.436,2.336-7.492,6.735-12.489,8.315a38.94,38.94,0,0,1-11.176,1.347l2.66,12.181-13.928,4.165-5.181,19.873s1.272,27.506-2.71,29.118-33.509-1.613-33.509-1.613-22.375,8.091-27.115,8.323-12.48-6.827-14.1-11.333,2.312-24.845,2.777-33.742c.333-6.436,6.577-33.966,10.02-48.758l-16.953-12.04.807-4.025,5.5-27.506.166-.823s29.526,3.351,34.024,4.39,10.85,5.08,10.85,5.08l-.607,11.907s3.376-4.041,6.719-3c0,0,4.315,2.312,5.064,5.887,0,0,19.2-5.455,23.539-14.866,5.662,2.544,20.721,9.462,23.157,11.981C449.256,144.829,460.24,175.344,460.24,175.344Z" transform="translate(-337.038 -120.333)" fill="#7f85fa"/>
            </g>
            <g id="Grupo_1185291" data-name="Grupo 1185291" transform="translate(125.62 403.762)">
              <path id="Trazado_1041901" data-name="Trazado 1041901" d="M422.071,425.176l1.987,15.008-12.714,21.494H386.151c-.524-5.954,8.431-17.452,8.431-17.452l5.455-16.921C404.535,428.81,413.773,430.748,422.071,425.176Z" transform="translate(-386.129 -425.176)" fill="#6455e7"/>
            </g>
            <g id="Grupo_1185292" data-name="Grupo 1185292" transform="translate(117.966 26.494)">
              <path id="Trazado_1041902" data-name="Trazado 1041902" d="M381.855,91.367c.9-3.942,1.655-6.976,1.655-6.976l.016.009a18.889,18.889,0,0,1,3.209-7.65c.749,2.436,1.97,3.418,4.274,5.62.665.632,1.7,1.239,2.428.674a2.015,2.015,0,0,0,.574-1.554,41.624,41.624,0,0,0-.033-5.579,22.183,22.183,0,0,0,11.208,9.5c-.1-2.3-.207-4.6-.308-6.9A17.786,17.786,0,0,0,412.1,85.09c1.638,6.07,6.8,11.841,6.8,11.841a5.4,5.4,0,0,1,2.2.432,6.175,6.175,0,0,1,3.251,3.75,8.455,8.455,0,0,1-.075,5.014,10.155,10.155,0,0,1-4.565,5.654,9.981,9.981,0,0,1-5.9,1.281,19.176,19.176,0,0,1-2.212,4.407.023.023,0,0,1-.009.016c-5.064,7.508-13.935,8.956-15.773,9.512a14.174,14.174,0,0,1-4.29.075c-3.484-.308-7.791-1.23-8.914-2.487-1.747-1.929-3.592-11.549-3.584-16.987C379.053,104.414,380.591,96.972,381.855,91.367Z" transform="translate(-379.043 -75.911)" fill="#e07049"/>
            </g>
            <g id="Grupo_1185293" data-name="Grupo 1185293" transform="translate(76.752 201.37)">
              <path id="Trazado_1041903" data-name="Trazado 1041903" d="M403.665,442.328a24.293,24.293,0,0,1-2.768-1.106l-18.218-137.91,1.664,137.91c-9.5,4.922-20.272,2.611-25.3,1.039a29.515,29.515,0,0,1-2.894-1.039L340.888,237.807c1.621,4.507,9.363,11.558,14.1,11.333s27.115-8.323,27.115-8.323,29.518,3.234,33.509,1.613a253.008,253.008,0,0,1,7.567,28.088c2.827,14.218,5.322,167.461,5.322,167.461a24.232,24.232,0,0,1-2.8,2.22C417.4,445.77,408.163,443.833,403.665,442.328Z" transform="translate(-340.888 -237.807)" fill="#222a40"/>
            </g>
            <g id="Grupo_1185294" data-name="Grupo 1185294" transform="translate(119.263 14.003)">
              <path id="Trazado_1041904" data-name="Trazado 1041904" d="M421.013,98.29a5.4,5.4,0,0,0-2.2-.432s-5.163-5.77-6.8-11.841a17.785,17.785,0,0,1-7.225-6.577c.1,2.3.208,4.606.308,6.9a22.184,22.184,0,0,1-11.208-9.5,41.8,41.8,0,0,1,.034,5.579,2.014,2.014,0,0,1-.574,1.554c-.731.565-1.763-.041-2.428-.674-2.3-2.2-3.526-3.184-4.274-5.62a18.852,18.852,0,0,0-3.209,7.65l-.016-.009s-.756,3.035-1.655,6.976c-1.039-5.1-2.669-15.008-.283-17.627,3.251-3.575,8.165-9.579,16.829-10.285s20.063,9.853,20.063,9.853,4.715,1.68,6.245,3.251S421.013,98.29,421.013,98.29Z" transform="translate(-380.243 -64.348)" fill="#222a40"/>
            </g>
            <g id="Grupo_1185295" data-name="Grupo 1185295" transform="translate(130.049 75.517)">
              <path id="Trazado_1041905" data-name="Trazado 1041905" d="M418.832,129.652c-4.34,9.413-23.539,14.866-23.539,14.866-.749-3.575-5.064-5.887-5.064-5.887,12.089-2.6,24.138-13.753,24.138-13.753l-.333-3.584c3.65.749,5.188,7.392,5.188,7.392A8.29,8.29,0,0,1,418.832,129.652Z" transform="translate(-390.229 -121.295)" fill="#a0a8fb"/>
            </g>
            <g id="Grupo_1185296" data-name="Grupo 1185296" transform="translate(130.05 63.644)">
              <path id="Trazado_1041906" data-name="Trazado 1041906" d="M414.035,122.177l.333,3.584s-12.048,11.151-24.138,13.753l.225-8.323c14.859-2.379,20.063-15.939,20.254-16.464a.025.025,0,0,0,.009-.016,19.176,19.176,0,0,0,2.212-4.407Z" transform="translate(-390.23 -110.304)" fill="#e07049"/>
            </g>
            <g id="Grupo_1185297" data-name="Grupo 1185297" transform="translate(130.274 68.068)">
              <path id="Trazado_1041907" data-name="Trazado 1041907" d="M390.578,125.665l.05-1.68a14.21,14.21,0,0,0,4.29-.075c1.837-.557,10.71-2,15.773-9.512-.191.524-5.4,14.086-20.254,16.464Z" transform="translate(-390.437 -114.399)" fill="#222a40"/>
            </g>
            <g id="Grupo_1185298" data-name="Grupo 1185298" transform="translate(123.331 79.334)">
              <path id="Trazado_1041908" data-name="Trazado 1041908" d="M391.094,124.829l-.142,5.2-.225,8.323c-3.342-1.039-6.719,3-6.719,3l.607-11.907C385.548,127.3,390.836,124.946,391.094,124.829Z" transform="translate(-384.009 -124.829)" fill="#a0a8fb"/>
            </g>
            <g id="Grupo_1185299" data-name="Grupo 1185299" transform="translate(58.127 404.786)">
              <path id="Trazado_1041909" data-name="Trazado 1041909" d="M386.08,434.213c4.05,8.032,1.5,18.493,1.5,18.493h-59.06s-4.682-4.457-4.855-6.71.981-2.653,9.944-4.506,26.815-14.326,26.815-14.326c5.03,1.572,15.8,3.883,25.3-1.039Z" transform="translate(-323.645 -426.124)" fill="#6455e7"/>
            </g>
            <g id="Grupo_1185300" data-name="Grupo 1185300">
              <path id="Trazado_1041910" data-name="Trazado 1041910" d="M348.729,126.685l-5.5,27.506c-5.629-2.935-23.24-12.223-26.292-14.983-6.751-6.112-33.575-41.724-33.575-41.724a39.353,39.353,0,0,1-6.993-7.591c-2.6-4.016-1.914-13.557-2.571-15.811s-2.775-9.3-3.723-10.98,1.133-4.093,1.773-3.394,4.463,9.555,4.463,9.555-1.039-9.836-1.114-12.089.366-3.933,1.655-4.664,1.887.232,1.887.232c.731-1.388,1.48-1.388,2.046-1.347s1.189,1.464,1.189,1.464c1.039-1.464,2.777-.2,2.777-.2.15,1.663,3.983,28.819,6.011,27.78s2.195-4.565,4.848-6.469a2.878,2.878,0,0,1,4.282.457c-2.428,3.933-6.477,15.79-6.477,15.79l30.665,28.171Z" transform="translate(-269.833 -51.384)" fill="#e07049"/>
            </g>
            <g id="Grupo_1185301" data-name="Grupo 1185301" transform="translate(100.613 118.789)">
              <path id="Trazado_1041911" data-name="Trazado 1041911" d="M402.052,161.6l13.287,15.9-3.283,2.586,9.823,11.764,22.4,26.8-8.652,7.231-24.772,20.7-30.6-36.626-2-2.387-.008,0-15.169-18.151-.106-.131,9.012-7.535L396.4,161.355Z" transform="translate(-362.978 -161.355)" fill="#6455e7"/>
            </g>
            <g id="Grupo_1185302" data-name="Grupo 1185302" transform="translate(98.526 121.02)">
              <path id="Trazado_1041912" data-name="Trazado 1041912" d="M391.655,163.421l16.939,11.933-2.5,3.345,12.526,8.83,28.557,20.117-6.494,9.218-18.592,26.39-39.013-27.491-2.544-1.791-.009,0-19.338-13.622-.136-.1,6.763-9.606,18.322-26Z" transform="translate(-361.046 -163.421)" fill="#e8a03f"/>
            </g>
            <g id="Grupo_1185303" data-name="Grupo 1185303" transform="translate(113.087 130.995)">
              <path id="Trazado_1041913" data-name="Trazado 1041913" d="M455.737,172.655c.058.557,2.536,23.6,2.42,30.049-.117,6.528-2.253,8.664-7.4,11.208-3.335,1.646-22.275,3.1-35.172,3.924-6.993.441-12.215.7-12.215.7s-12.48,5.779-15.025,6.31-4-3-4-3-2.619-.922-2.927-3.16a3.883,3.883,0,0,1-2-3.393s-4.855-1.039-4.855-3v-1.963a28.375,28.375,0,0,0,3.159-1.122c2.345-.923,6.087-4.7,6.087-4.7s-7.126-1.039-8.091-2.461-1.621-3.276-.848-4.931,3.733,1.688,9.4,1.306,10.061.69,12.331,2.237a39.176,39.176,0,0,0,7.009,3.16l31.131-9.321-2.66-12.181a38.941,38.941,0,0,0,11.176-1.347C448.245,179.39,453.3,174.991,455.737,172.655Z" transform="translate(-374.526 -172.655)" fill="#e07049"/>
            </g>
            <g id="Grupo_1185312" data-name="Grupo 1185312" transform="translate(120.493 36.844)">
              <g id="Grupo_1185304" data-name="Grupo 1185304" transform="translate(2.312 7.892)">
                <path id="Trazado_1041914" data-name="Trazado 1041914" d="M391.875,92.8a21.766,21.766,0,0,1-.273,7.849c-.948,4.131-3.92,6.182-5.227,5.645s-3.4-2.946-2.718-5.038a9.064,9.064,0,0,1,2.15-2.235A83.628,83.628,0,0,0,391.875,92.8Z" transform="translate(-383.523 -92.799)" fill="#bd4a28"/>
              </g>
              <g id="Grupo_1185305" data-name="Grupo 1185305" transform="translate(1.76 6.189)">
                <path id="Trazado_1041915" data-name="Trazado 1041915" d="M387.88,108.034a.541.541,0,0,1-.283-.08,12.008,12.008,0,0,1-4.271-4.528,2.814,2.814,0,0,1,.755-3.486,56.775,56.775,0,0,0,8.358-8.513.54.54,0,1,1,.846.672,57.89,57.89,0,0,1-8.517,8.674,1.732,1.732,0,0,0-.494,2.138,10.932,10.932,0,0,0,3.888,4.121.54.54,0,0,1,.177.743A.534.534,0,0,1,387.88,108.034Z" transform="translate(-383.011 -91.222)" fill="#222a40"/>
              </g>
              <g id="Grupo_1185306" data-name="Grupo 1185306" transform="translate(16.538 7.772)">
                <path id="Trazado_1041916" data-name="Trazado 1041916" d="M396.722,95.22a2.526,2.526,0,1,0,2.866-2.512A2.709,2.709,0,0,0,396.722,95.22Z" transform="translate(-396.692 -92.687)" fill="#222a40"/>
              </g>
              <g id="Grupo_1185307" data-name="Grupo 1185307" transform="translate(0.937 5.655)">
                <path id="Trazado_1041917" data-name="Trazado 1041917" d="M382.279,93.262a2.527,2.527,0,1,0,2.866-2.515A2.707,2.707,0,0,0,382.279,93.262Z" transform="translate(-382.249 -90.728)" fill="#222a40"/>
              </g>
              <g id="Grupo_1185308" data-name="Grupo 1185308" transform="translate(17.269 1.597)">
                <path id="Trazado_1041918" data-name="Trazado 1041918" d="M399.241,87a17.944,17.944,0,0,1,5.9,2.468,1.661,1.661,0,0,1,.619,1.078,1.687,1.687,0,0,1-.335,1.237,1.667,1.667,0,0,1-1.078.619,1.87,1.87,0,0,1-1.237-.335c-.1-.064-.2-.123-.3-.185a15.774,15.774,0,0,0-3.559-1.5c-.151-.038-.3-.078-.455-.112a1.77,1.77,0,0,1-1.09-.635A1.649,1.649,0,0,1,399.241,87Z" transform="translate(-397.369 -86.971)" fill="#222a40"/>
              </g>
              <g id="Grupo_1185309" data-name="Grupo 1185309">
                <path id="Trazado_1041919" data-name="Trazado 1041919" d="M381.443,88.479a1.346,1.346,0,0,0,.875.884,1.872,1.872,0,0,0,1.281.006c.111-.035.224-.066.336-.1a15.749,15.749,0,0,1,3.83-.5c.157,0,.312.005.469.013a1.768,1.768,0,0,0,1.221-.322,1.648,1.648,0,0,0-.777-2.945,17.926,17.926,0,0,0-6.344.808A1.831,1.831,0,0,0,381.443,88.479Z" transform="translate(-381.382 -85.492)" fill="#222a40"/>
              </g>
              <g id="Grupo_1185310" data-name="Grupo 1185310" transform="translate(2.836 25.574)">
                <path id="Trazado_1041920" data-name="Trazado 1041920" d="M384.064,111.045a7.11,7.11,0,0,0,7.132,4.943c4.191-.113,5.718-3.767,6.213-5.7a.89.89,0,0,0-.913-1.122l-11.641.7A.876.876,0,0,0,384.064,111.045Z" transform="translate(-384.008 -109.169)" fill="#fff"/>
              </g>
              <g id="Grupo_1185311" data-name="Grupo 1185311" transform="translate(33.341 14.825)">
                <path id="Trazado_1041921" data-name="Trazado 1041921" d="M412.788,108.481a.52.52,0,0,1-.121-.014.541.541,0,0,1-.405-.647,13.528,13.528,0,0,1,6.292-8.529.54.54,0,1,1,.542.934,12.429,12.429,0,0,0-5.781,7.837A.543.543,0,0,1,412.788,108.481Z" transform="translate(-412.248 -99.217)" fill="#222a40"/>
              </g>
            </g>
            <g id="Grupo_1185313" data-name="Grupo 1185313" transform="translate(10.567 0.934)">
              <path id="Trazado_1041922" data-name="Trazado 1041922" d="M281.193,70.911a.54.54,0,0,1-.538-.5c-.007-.085-.638-8.505-.98-12.243-.364-3.967,1.049-5.663,1.108-5.734a.54.54,0,0,1,.823.7c-.027.035-1.171,1.495-.856,4.935.341,3.746.975,12.175.982,12.259a.541.541,0,0,1-.5.579A.262.262,0,0,1,281.193,70.911Z" transform="translate(-279.616 -52.248)" fill="#222a40"/>
            </g>
            <g id="Grupo_1185314" data-name="Grupo 1185314" transform="translate(7.498 0.818)">
              <path id="Trazado_1041923" data-name="Trazado 1041923" d="M278.186,71.5a.54.54,0,0,1-.538-.5c-.008-.118-.781-11.855-.867-14.348a7.622,7.622,0,0,1,.957-4.265.54.54,0,0,1,.9.6,6.718,6.718,0,0,0-.777,3.63c.084,2.477.858,14.2.865,14.315a.541.541,0,0,1-.5.575Z" transform="translate(-276.774 -52.141)" fill="#222a40"/>
            </g>
            <g id="Grupo_1185315" data-name="Grupo 1185315" transform="translate(6.458 18.952)">
              <path id="Trazado_1041924" data-name="Trazado 1041924" d="M276.352,71.238a.54.54,0,0,1-.2-1.042,18.462,18.462,0,0,1,7.329-1.257A.54.54,0,0,1,284,69.5a.519.519,0,0,1-.56.521,17.391,17.391,0,0,0-6.9,1.183A.508.508,0,0,1,276.352,71.238Z" transform="translate(-275.812 -68.929)" fill="#222a40"/>
            </g>
            <g id="Grupo_1185316" data-name="Grupo 1185316" transform="translate(10.565 22.879)">
              <path id="Trazado_1041925" data-name="Trazado 1041925" d="M280.155,82.333a.526.526,0,0,1-.092-.008.54.54,0,0,1-.442-.623,25.411,25.411,0,0,1,3.292-8.877.541.541,0,0,1,.927.557,24.326,24.326,0,0,0-3.153,8.5A.543.543,0,0,1,280.155,82.333Z" transform="translate(-279.614 -72.564)" fill="#222a40"/>
            </g>
            <g id="Grupo_1185317" data-name="Grupo 1185317" transform="translate(155.708 12.843)">
              <path id="Trazado_1041926" data-name="Trazado 1041926" d="M416.418,73.512a.54.54,0,0,1-.54-.525,25.935,25.935,0,0,0-1.856-8.973.539.539,0,1,1,1-.4,27.009,27.009,0,0,1,1.934,9.345.542.542,0,0,1-.525.555Z" transform="translate(-413.983 -63.273)" fill="#222a40"/>
            </g>
            <g id="Grupo_1185318" data-name="Grupo 1185318" transform="translate(152.258 15.378)">
              <path id="Trazado_1041927" data-name="Trazado 1041927" d="M415.183,71.939a.541.541,0,0,1-.467-.267,30.96,30.96,0,0,0-3.787-5.148.54.54,0,1,1,.8-.727,32.115,32.115,0,0,1,3.92,5.329.54.54,0,0,1-.193.739A.525.525,0,0,1,415.183,71.939Z" transform="translate(-410.789 -65.621)" fill="#222a40"/>
            </g>
            <g id="Grupo_1185319" data-name="Grupo 1185319" transform="translate(85.647 97.429)">
              <path id="Trazado_1041928" data-name="Trazado 1041928" d="M352.777,161.763a.54.54,0,0,1-.531-.454l-3.116-19.1a.539.539,0,0,1,.446-.62.547.547,0,0,1,.619.446l3.116,19.1a.539.539,0,0,1-.446.62A.6.6,0,0,1,352.777,161.763Z" transform="translate(-349.122 -141.58)" fill="#222a40"/>
            </g>
            <g id="Grupo_1185320" data-name="Grupo 1185320" transform="translate(82.342 103.457)">
              <path id="Trazado_1041929" data-name="Trazado 1041929" d="M350.294,157.491a.54.54,0,0,1-.5-.339L346.1,147.9a.542.542,0,0,1,.3-.7.536.536,0,0,1,.7.3l3.692,9.248a.538.538,0,0,1-.5.74Z" transform="translate(-346.062 -147.161)" fill="#222a40"/>
            </g>
            <g id="Grupo_1185321" data-name="Grupo 1185321" transform="translate(128.34 93.737)">
              <path id="Trazado_1041930" data-name="Trazado 1041930" d="M389.188,147.567l-.041,0a.54.54,0,0,1-.5-.579l.619-8.322a.54.54,0,1,1,1.078.08l-.619,8.322A.54.54,0,0,1,389.188,147.567Z" transform="translate(-388.647 -138.163)" fill="#222a40"/>
            </g>
            <g id="Grupo_1185322" data-name="Grupo 1185322" transform="translate(153.648 151.163)">
              <path id="Trazado_1041931" data-name="Trazado 1041931" d="M412.616,199.262a.54.54,0,0,1-.166-1.054c.108-.035,10.968-3.52,19.131-5.728,8.316-2.252,13-.525,13.2-.45a.54.54,0,0,1-.385,1.01c-.045-.017-4.591-1.667-12.533.482-8.138,2.2-18.974,5.68-19.082,5.714A.519.519,0,0,1,412.616,199.262Z" transform="translate(-412.076 -191.326)" fill="#222a40"/>
            </g>
            <g id="Grupo_1185323" data-name="Grupo 1185323" transform="translate(158.036 120.481)">
              <path id="Trazado_1041932" data-name="Trazado 1041932" d="M423.922,184.258h-.2a.541.541,0,0,1-.5-.362l-7.05-20.255a.541.541,0,0,1,1.022-.355l6.924,19.894a64.562,64.562,0,0,0,15.646-1.946c6.919-2.007,12.176-8.086,12.229-8.147a.54.54,0,0,1,.821.7c-.221.259-5.512,6.384-12.748,8.483C433.492,184.175,425.294,184.258,423.922,184.258Z" transform="translate(-416.138 -162.921)" fill="#222a40"/>
            </g>
            <g id="Grupo_1185324" data-name="Grupo 1185324" transform="translate(117.437 172.825)">
              <path id="Trazado_1041933" data-name="Trazado 1041933" d="M379.092,212.728a.54.54,0,0,1-.055-1.077l2.577-.268a.54.54,0,1,1,.112,1.074l-2.577.269Z" transform="translate(-378.553 -211.38)" fill="#222a40"/>
            </g>
            <g id="Grupo_1185325" data-name="Grupo 1185325" transform="translate(119.44 176.485)">
              <path id="Trazado_1041934" data-name="Trazado 1041934" d="M383.794,215.849h-2.847a.54.54,0,0,1,0-1.08h2.847a.54.54,0,0,1,0,1.08Z" transform="translate(-380.407 -214.769)" fill="#222a40"/>
            </g>
            <g id="Grupo_1185326" data-name="Grupo 1185326" transform="translate(122.367 179.645)">
              <path id="Trazado_1041935" data-name="Trazado 1041935" d="M386.2,218.774h-2.54a.54.54,0,0,1,0-1.08h2.54a.54.54,0,0,1,0,1.08Z" transform="translate(-383.117 -217.694)" fill="#222a40"/>
            </g>
            <g id="Grupo_1185327" data-name="Grupo 1185327" transform="translate(100.073 197.253)">
              <path id="Trazado_1041936" data-name="Trazado 1041936" d="M363.017,247.532a.54.54,0,0,1-.139-1.061c21.551-5.82,25.943-12.169,25.986-12.232a.54.54,0,0,1,.906.587c-.175.272-4.537,6.728-26.612,12.688A.524.524,0,0,1,363.017,247.532Z" transform="translate(-362.478 -233.995)" fill="#222a40"/>
            </g>
            <g id="Grupo_1185328" data-name="Grupo 1185328" transform="translate(59.245 427.203)">
              <path id="Trazado_1041937" data-name="Trazado 1041937" d="M325.22,448.021a.54.54,0,0,1,0-1.08l60.774-.064h0a.54.54,0,0,1,0,1.08l-60.775.064Z" transform="translate(-324.68 -446.877)" fill="#222a40"/>
            </g>
            <g id="Grupo_1185329" data-name="Grupo 1185329" transform="translate(125.578 418.231)">
              <path id="Trazado_1041938" data-name="Trazado 1041938" d="M410.46,457.686H386.63a.54.54,0,1,1,0-1.08h23.562l13.439-17.82a.54.54,0,0,1,.863.649l-13.6,18.035A.538.538,0,0,1,410.46,457.686Z" transform="translate(-386.09 -438.571)" fill="#222a40"/>
            </g>
            <g id="Grupo_1185330" data-name="Grupo 1185330" transform="translate(87.203 407.067)">
              <path id="Trazado_1041939" data-name="Trazado 1041939" d="M355.723,435.6a.54.54,0,0,1-.534-.467,7.819,7.819,0,0,0-4.316-5.868.54.54,0,1,1,.46-.977,8.924,8.924,0,0,1,4.927,6.7.539.539,0,0,1-.461.608A.461.461,0,0,1,355.723,435.6Z" transform="translate(-350.563 -428.236)" fill="#222a40"/>
            </g>
            <g id="Grupo_1185331" data-name="Grupo 1185331" transform="translate(84.356 409.814)">
              <path id="Trazado_1041940" data-name="Trazado 1041940" d="M351.283,437.69a.54.54,0,0,1-.539-.513,7.965,7.965,0,0,0-2.633-5.453.54.54,0,0,1,.715-.81,8.94,8.94,0,0,1,3,6.208.538.538,0,0,1-.512.566A.1.1,0,0,1,351.283,437.69Z" transform="translate(-347.928 -430.779)" fill="#222a40"/>
            </g>
            <g id="Grupo_1185332" data-name="Grupo 1185332" transform="translate(140.008 411.486)">
              <path id="Trazado_1041941" data-name="Trazado 1041941" d="M407.86,435.231a.535.535,0,0,1-.251-.063,15.226,15.226,0,0,0-7.6-1.753h-.017a.54.54,0,0,1-.017-1.08,16.414,16.414,0,0,1,8.139,1.877.54.54,0,0,1-.251,1.019Z" transform="translate(-399.449 -432.327)" fill="#222a40"/>
            </g>
            <g id="Grupo_1185333" data-name="Grupo 1185333" transform="translate(139.084 415.48)">
              <path id="Trazado_1041942" data-name="Trazado 1041942" d="M405.755,439.127a.541.541,0,0,1-.294-.086,12.229,12.229,0,0,0-6.337-1.937.54.54,0,0,1-.53-.55.585.585,0,0,1,.55-.53,13.143,13.143,0,0,1,6.906,2.11.54.54,0,0,1-.294.994Z" transform="translate(-398.593 -436.024)" fill="#222a40"/>
            </g>
            <g id="Grupo_1185334" data-name="Grupo 1185334" transform="translate(113.967 236.581)">
              <path id="Trazado_1041943" data-name="Trazado 1041943" d="M379.915,301.238a.539.539,0,0,1-.534-.468l-4.036-29.75a.541.541,0,0,1,.462-.608.528.528,0,0,1,.608.462l4.035,29.75a.541.541,0,0,1-.462.608A.439.439,0,0,1,379.915,301.238Z" transform="translate(-375.34 -270.404)" fill="#10141c"/>
            </g>
            <g id="Grupo_1185335" data-name="Grupo 1185335" transform="translate(91.954 226.822)">
              <path id="Trazado_1041944" data-name="Trazado 1041944" d="M374.771,270.751a.535.535,0,0,1-.214-.044l-19.27-8.3a.54.54,0,0,1,.428-.992l19.27,8.3a.54.54,0,0,1-.214,1.036Z" transform="translate(-354.961 -261.369)" fill="#10141c"/>
            </g>
            <g id="Grupo_1185336" data-name="Grupo 1185336" transform="translate(93.318 235.363)">
              <path id="Trazado_1041945" data-name="Trazado 1041945" d="M372.637,271.725a.427.427,0,0,1-.073-.005c-5.227-.709-10.55-1.168-15.82-1.363a.54.54,0,0,1-.52-.56.552.552,0,0,1,.56-.521c5.306.2,10.665.659,15.926,1.374a.54.54,0,0,1-.072,1.075Z" transform="translate(-356.224 -269.276)" fill="#10141c"/>
            </g>
            <g id="Grupo_1185337" data-name="Grupo 1185337" transform="translate(142.395 209.71)">
              <path id="Trazado_1041946" data-name="Trazado 1041946" d="M419.458,436.749a.541.541,0,0,1-.54-.524s-4.044-134.18-4.622-153.249c-.566-18.687-12.426-36.428-12.545-36.605a.54.54,0,1,1,.894-.6c.121.179,12.155,18.171,12.731,37.176C415.954,302.013,420,436.193,420,436.193a.542.542,0,0,1-.524.556Z" transform="translate(-401.658 -245.528)" fill="#10141c"/>
            </g>
          </g>
          <g id="Grupo_1185373" data-name="Grupo 1185373" transform="translate(78.235 25.7)">
            <g id="Grupo_1185339" data-name="Grupo 1185339" transform="translate(36.732 65.249)">
              <path id="Trazado_1041947" data-name="Trazado 1041947" d="M150.551,116.526a10.329,10.329,0,0,1,.474,2.536c-3.675.25-7.218.482-10.377.682-5.812-3.193-10.236-14.509-10.369-14.859l.009-.009c4.731,9.2,14.909,10.826,16.887,11.433a11.568,11.568,0,0,0,3.368.141Z" transform="translate(-130.279 -104.876)" fill="#222a40"/>
            </g>
            <g id="Grupo_1185340" data-name="Grupo 1185340" transform="translate(104.273)">
              <path id="Trazado_1041948" data-name="Trazado 1041948" d="M241.682,54.4a2.011,2.011,0,0,1,1.921,2c0,1.888-1.771,16.314-1.771,16.314s-1,14.31-5.928,20.587l-34.722,44.26c-2.1-6.136-6.1-17.544-8.374-21.976l31.538-27.256s-2-15.6-.922-18.293a25.356,25.356,0,0,1,3.467-5.6l6.852-19.906s2.469-.508,2.7,1.23c0,0,2.312.457,2.386,2.154,0,0,2.66.083,2.852,1.929Z" transform="translate(-192.807 -44.47)" fill="#e48c59"/>
            </g>
            <g id="Grupo_1185341" data-name="Grupo 1185341" transform="translate(33.414 62.754)">
              <path id="Trazado_1041949" data-name="Trazado 1041949" d="M130.525,105.07c.133.349,4.556,11.666,10.369,14.859-1.23.075-2.4.141-3.5.207-8.415-2.461-10.186-8.448-10.186-8.448l.607-3.285,1.081-5.8c.183-.009.366-.016.549-.033a17.814,17.814,0,0,0,1.089,2.494Z" transform="translate(-127.207 -102.566)" fill="#e48c59"/>
            </g>
            <g id="Grupo_1185342" data-name="Grupo 1185342" transform="translate(48.826 404.278)">
              <path id="Trazado_1041950" data-name="Trazado 1041950" d="M196.241,436.186c8.963,1.855,10.119,2.253,9.944,4.507s-4.855,6.71-4.855,6.71H142.269s-2.552-10.46,1.5-18.493l.582-9.221,24.146-.948.931,3.118S187.286,434.34,196.241,436.186Z" transform="translate(-141.475 -418.74)" fill="#222a40"/>
            </g>
            <g id="Grupo_1185343" data-name="Grupo 1185343" transform="translate(91.818 69.29)">
              <path id="Trazado_1041951" data-name="Trazado 1041951" d="M202.105,132.423c.832,2.444,1.363,4.05,1.363,4.05s-4.223,3.351-5.321,3.234c-.141-.016-.533-.449-1.1-1.205-3.051-4.041-11.325-17.2-14.5-22.3h-.009l-1.264-2.037a10.949,10.949,0,0,1,5.43-1.962s3.875-3.351,5.662-3.584c.283-.033.765.648,1.363,1.83C196,114.879,200,126.287,202.105,132.423Z" transform="translate(-181.276 -108.617)" fill="#a0a8fb"/>
            </g>
            <g id="Grupo_1185344" data-name="Grupo 1185344" transform="translate(3.439 68.592)">
              <path id="Trazado_1041952" data-name="Trazado 1041952" d="M101.993,255.551l-2.536.94,11.866-56.167s-6.469-47.735-6.236-62.062,15.707-20.571,15.707-20.571,1.8-3.009,1.855-4.74,7.392-4.981,7.392-4.981l-.607,3.285s1.771,5.986,10.186,8.448c1.1-.067,2.271-.133,3.5-.207,3.16-.2,6.7-.432,10.377-.682,16.231-1.106,35.138-2.528,35.6-2.561h.009c3.176,5.1,11.45,18.259,14.5,22.3L183.6,149.546s-.382,14.41,1.23,21.419-3.076,47.312-3.076,47.312l2.312,32.594a31.319,31.319,0,0,1-2.17,2.436c-4.223,4.332-14.4,12.938-28.8,13.046-19.265.158-33.75-17.254-33.75-17.254Z" transform="translate(-99.457 -107.971)" fill="#fff"/>
            </g>
            <g id="Grupo_1185345" data-name="Grupo 1185345" transform="translate(0 209.721)">
              <path id="Trazado_1041953" data-name="Trazado 1041953" d="M121.881,440.1l-21.493-.308-3.6-.05s-1.156-114.9,0-138.251c.839-16.929,3.866-43.237,5.462-56.417l17.344-6.452s14.484,17.411,33.75,17.254c14.4-.108,24.578-8.714,28.8-13.046,1.9,40.751-9.08,190.319-9.08,190.319l-.948.033-24.146.948-1.073.042-3.526-121.588-19.107,127.55Z" transform="translate(-96.273 -238.624)" fill="#6455e7"/>
            </g>
            <g id="Grupo_1185346" data-name="Grupo 1185346" transform="translate(25.335 25.569)">
              <path id="Trazado_1041954" data-name="Trazado 1041954" d="M129.759,105.768a9.568,9.568,0,0,1-5.192-1.276,9.836,9.836,0,0,1-4.425-5.483,8.207,8.207,0,0,1-.081-4.868,6.057,6.057,0,0,1,3.157-3.641,5.256,5.256,0,0,1,2.14-.412s5.992-6.355,4.619-14.946c0,0,21.8,3.448,23.158-7,0,0,5.208,3.94,6.452,9.229.04.177.081.363.113.549h.016s4.32,17.256,4.328,22.52-1.784,14.607-3.48,16.489c-1.195,1.324-6.055,2.269-9.544,2.47a11.208,11.208,0,0,1-3.27-.137c-1.922-.59-11.805-2.172-16.4-11.1a17.343,17.343,0,0,1-1.057-2.423C130.114,105.752,129.936,105.759,129.759,105.768Z" transform="translate(-119.728 -68.141)" fill="#e48c59"/>
            </g>
            <g id="Grupo_1185347" data-name="Grupo 1185347" transform="translate(21.656 16.459)">
              <path id="Trazado_1041955" data-name="Trazado 1041955" d="M119.6,71.369c.13-.194.267-.388.4-.581,5.2-7.17,12.314-9.689,16.222-10.836a1.86,1.86,0,0,1,.234-.056c4.247-.978,19.113,1.986,21.18,5.967,2.107,4.045,2.333,12.733,2.333,12.733-.032-.186-.072-.372-.113-.549-1.243-5.289-6.452-9.229-6.452-9.229-1.357,10.449-23.158,7-23.158,7,1.373,8.592-4.619,14.946-4.619,14.946a5.274,5.274,0,0,0-2.14.412,6.064,6.064,0,0,0-3.157,3.641C115.424,86.952,114.835,78.425,119.6,71.369Z" transform="translate(-116.322 -59.707)" fill="#222a40"/>
            </g>
            <g id="Grupo_1185348" data-name="Grupo 1185348" transform="translate(18.748 7.347)">
              <path id="Trazado_1041956" data-name="Trazado 1041956" d="M136.424,57.389a15.04,15.04,0,0,1,.251,3.181,2.124,2.124,0,0,0-.234.056c-3.908,1.146-11.022,3.666-16.222,10.836-.137.193-.274.388-.4.581a6.7,6.7,0,0,1-4.182-11.515c1.195-1.162,2.834-1.889,3.73-3.295.476-.751.7-1.631,1.171-2.39.985-1.566,2.842-2.326,4.619-2.851,2.64-.783,5.66-1.211,8.01.218A7.741,7.741,0,0,1,136.424,57.389Z" transform="translate(-113.63 -51.271)" fill="#222a40"/>
            </g>
            <g id="Grupo_1185349" data-name="Grupo 1185349" transform="translate(2.117 410.889)">
              <path id="Trazado_1041957" data-name="Trazado 1041957" d="M127.71,444.251s8.955,11.5,8.431,17.452H110.947L98.233,440.209l1.988-15.008.009-.341,21.493.308Z" transform="translate(-98.233 -424.86)" fill="#222a40"/>
            </g>
            <g id="Grupo_1185358" data-name="Grupo 1185358" transform="translate(27.641 37.602)">
              <g id="Grupo_1185350" data-name="Grupo 1185350" transform="translate(28.082 7.492)">
                <path id="Trazado_1041958" data-name="Trazado 1041958" d="M148.08,86.217a20.665,20.665,0,0,0,.259,7.449c.9,3.92,3.72,5.868,4.96,5.358s3.231-2.8,2.579-4.781a8.6,8.6,0,0,0-2.04-2.12A79.837,79.837,0,0,1,148.08,86.217Z" transform="translate(-147.86 -86.217)" fill="#e07045"/>
              </g>
              <g id="Grupo_1185351" data-name="Grupo 1185351" transform="translate(26.862 5.849)">
                <path id="Trazado_1041959" data-name="Trazado 1041959" d="M152,100.7a.54.54,0,0,1-.283-1,10.34,10.34,0,0,0,3.678-3.9,1.618,1.618,0,0,0-.461-2,55.1,55.1,0,0,1-8.087-8.235.54.54,0,1,1,.846-.672,53.977,53.977,0,0,0,7.927,8.074,2.7,2.7,0,0,1,.725,3.342,11.438,11.438,0,0,1-4.064,4.309A.539.539,0,0,1,152,100.7Z" transform="translate(-146.73 -84.696)" fill="#222a40"/>
              </g>
              <g id="Grupo_1185352" data-name="Grupo 1185352" transform="translate(17.966 7.377)">
                <path id="Trazado_1041960" data-name="Trazado 1041960" d="M143.229,88.514a2.4,2.4,0,1,1-2.72-2.385A2.571,2.571,0,0,1,143.229,88.514Z" transform="translate(-138.494 -86.11)" fill="#222a40"/>
              </g>
              <g id="Grupo_1185353" data-name="Grupo 1185353" transform="translate(32.77 5.37)">
                <path id="Trazado_1041961" data-name="Trazado 1041961" d="M156.935,86.656a2.4,2.4,0,1,1-2.72-2.385A2.57,2.57,0,0,1,156.935,86.656Z" transform="translate(-152.2 -84.252)" fill="#222a40"/>
              </g>
              <g id="Grupo_1185354" data-name="Grupo 1185354" transform="translate(14.059 1.518)">
                <path id="Trazado_1041962" data-name="Trazado 1041962" d="M141.076,80.716a17.023,17.023,0,0,0-5.6,2.342,1.575,1.575,0,0,0-.587,1.023,1.6,1.6,0,0,0,.319,1.173,1.574,1.574,0,0,0,1.023.587,1.768,1.768,0,0,0,1.173-.319c.093-.059.188-.117.283-.175a15.034,15.034,0,0,1,3.378-1.426c.144-.036.287-.073.432-.106a1.679,1.679,0,0,0,1.035-.6,1.563,1.563,0,0,0-1.456-2.5Z" transform="translate(-134.878 -80.686)" fill="#222a40"/>
              </g>
              <g id="Grupo_1185355" data-name="Grupo 1185355" transform="translate(30.154)">
                <path id="Trazado_1041963" data-name="Trazado 1041963" d="M157.99,82.116a1.278,1.278,0,0,1-.83.838,1.77,1.77,0,0,1-1.216.005c-.106-.033-.213-.063-.319-.093a15.069,15.069,0,0,0-3.635-.475c-.148,0-.3.005-.445.013a1.674,1.674,0,0,1-1.158-.306,1.565,1.565,0,0,1,.738-2.8,17.016,17.016,0,0,1,6.021.767A1.745,1.745,0,0,1,157.99,82.116Z" transform="translate(-149.778 -79.281)" fill="#222a40"/>
              </g>
              <g id="Grupo_1185356" data-name="Grupo 1185356" transform="translate(0 14.044)">
                <path id="Trazado_1041964" data-name="Trazado 1041964" d="M128.131,101.129a.541.541,0,0,1-.526-.419,11.765,11.765,0,0,0-5.473-7.42.54.54,0,0,1,.541-.934,12.864,12.864,0,0,1,5.985,8.112.54.54,0,0,1-.406.647A.513.513,0,0,1,128.131,101.129Z" transform="translate(-121.862 -92.282)" fill="#222a40"/>
              </g>
              <g id="Grupo_1185357" data-name="Grupo 1185357" transform="translate(23.929 22.597)">
                <path id="Trazado_1041965" data-name="Trazado 1041965" d="M151.682,104.961a9.322,9.322,0,0,1-7.572-3.916.54.54,0,1,1,.89-.611,8.181,8.181,0,0,0,8.178,3.3.54.54,0,1,1,.217,1.057A8.464,8.464,0,0,1,151.682,104.961Z" transform="translate(-144.015 -100.2)" fill="#222a40"/>
              </g>
            </g>
            <g id="Grupo_1185359" data-name="Grupo 1185359" transform="translate(25.477 3.755)">
              <path id="Trazado_1041966" data-name="Trazado 1041966" d="M136.056,62.223a.541.541,0,0,1-.538-.494,18.992,18.992,0,0,1,.179-3.8c.057-.495.115-.991.154-1.486a7.7,7.7,0,0,0-.768-4.733,5.5,5.5,0,0,0-2.94-2.263,8.893,8.893,0,0,0-3.872-.351,9.317,9.317,0,0,0-5.287,2.2,5.945,5.945,0,0,0-2,5.048.54.54,0,1,1-1.07.146,7.037,7.037,0,0,1,2.342-5.991,10.381,10.381,0,0,1,5.9-2.482,9.954,9.954,0,0,1,4.342.4,6.58,6.58,0,0,1,3.509,2.723,9,9,0,0,1,.922,5.383c-.042.508-.1,1.014-.158,1.522a17.946,17.946,0,0,0-.177,3.584.54.54,0,0,1-.491.584A.224.224,0,0,1,136.056,62.223Z" transform="translate(-119.86 -47.946)" fill="#222a40"/>
            </g>
            <g id="Grupo_1185360" data-name="Grupo 1185360" transform="translate(16.246 15.085)">
              <path id="Trazado_1041967" data-name="Trazado 1041967" d="M118.713,73.047a7.422,7.422,0,0,1-4-1.14,7.414,7.414,0,0,1,2.315-13.458.54.54,0,1,1,.246,1.052,6.334,6.334,0,1,0,5.019,11.4.54.54,0,1,1,.61.891A7.453,7.453,0,0,1,118.713,73.047Z" transform="translate(-111.314 -58.435)" fill="#222a40"/>
            </g>
            <g id="Grupo_1185361" data-name="Grupo 1185361" transform="translate(41.51 13.592)">
              <path id="Trazado_1041968" data-name="Trazado 1041968" d="M156.6,70.661a.541.541,0,0,1-.533-.452c-.636-3.824-1.415-7.445-3.911-9.718a10.625,10.625,0,0,0-8.1-2.305,32.738,32.738,0,0,0-8.612,2.4.54.54,0,0,1-.383-1.01,33.552,33.552,0,0,1,8.9-2.463,11.721,11.721,0,0,1,8.927,2.583c2.752,2.507,3.58,6.322,4.249,10.341a.54.54,0,0,1-.444.621A.481.481,0,0,1,156.6,70.661Z" transform="translate(-134.702 -57.053)" fill="#222a40"/>
            </g>
            <g id="Grupo_1185362" data-name="Grupo 1185362" transform="translate(136.522 12.244)">
              <path id="Trazado_1041969" data-name="Trazado 1041969" d="M223.2,70.172a.54.54,0,0,1-.521-.687L226.451,56.2a.54.54,0,1,1,1.039.294l-3.769,13.286A.539.539,0,0,1,223.2,70.172Z" transform="translate(-222.662 -55.806)" fill="#222a40"/>
            </g>
            <g id="Grupo_1185363" data-name="Grupo 1185363" transform="translate(142.475 0.761)">
              <path id="Trazado_1041970" data-name="Trazado 1041970" d="M228.714,66.517a.514.514,0,0,1-.127-.015.539.539,0,0,1-.4-.651l4.894-20.263a.54.54,0,0,1,1.05.253L229.238,66.1A.54.54,0,0,1,228.714,66.517Z" transform="translate(-228.173 -45.174)" fill="#222a40"/>
            </g>
            <g id="Grupo_1185364" data-name="Grupo 1185364" transform="translate(146.289 2.912)">
              <path id="Trazado_1041971" data-name="Trazado 1041971" d="M232.244,67.224a.492.492,0,0,1-.1-.009.54.54,0,0,1-.434-.629L235.18,47.61a.54.54,0,1,1,1.062.194l-3.467,18.977A.538.538,0,0,1,232.244,67.224Z" transform="translate(-231.704 -47.166)" fill="#222a40"/>
            </g>
            <g id="Grupo_1185365" data-name="Grupo 1185365" transform="translate(149.756 9.391)">
              <path id="Trazado_1041972" data-name="Trazado 1041972" d="M235.454,67.783a.5.5,0,0,1-.112-.012.54.54,0,0,1-.417-.639l2.853-13.539a.54.54,0,0,1,1.058.223l-2.853,13.539A.54.54,0,0,1,235.454,67.783Z" transform="translate(-234.913 -53.164)" fill="#222a40"/>
            </g>
            <g id="Grupo_1185366" data-name="Grupo 1185366" transform="translate(14.303 78.894)">
              <path id="Trazado_1041973" data-name="Trazado 1041973" d="M110.055,136.533a.541.541,0,0,1-.462-.82c.345-.57,8.5-13.993,14.641-15.8,6.008-1.771,27.527-2.377,28.44-2.4a.54.54,0,0,1,.03,1.08c-.221.005-22.291.627-28.163,2.358-5.74,1.693-13.94,15.189-14.022,15.326A.539.539,0,0,1,110.055,136.533Z" transform="translate(-109.515 -117.508)" fill="#222a40"/>
            </g>
            <g id="Grupo_1185367" data-name="Grupo 1185367" transform="translate(39.717 109.627)">
              <path id="Trazado_1041974" data-name="Trazado 1041974" d="M133.583,163.068a.54.54,0,0,1-.174-1.051l47.319-16.029a.54.54,0,1,1,.347,1.023L133.756,163.04A.532.532,0,0,1,133.583,163.068Z" transform="translate(-133.043 -145.96)" fill="#222a40"/>
            </g>
            <g id="Grupo_1185368" data-name="Grupo 1185368" transform="translate(42.801 121.958)">
              <path id="Trazado_1041975" data-name="Trazado 1041975" d="M136.438,167.531a.541.541,0,0,1-.321-.975,98.58,98.58,0,0,0,10.589-9.024.54.54,0,0,1,.757.77,99.715,99.715,0,0,1-10.706,9.123A.528.528,0,0,1,136.438,167.531Z" transform="translate(-135.897 -157.376)" fill="#222a40"/>
            </g>
            <g id="Grupo_1185369" data-name="Grupo 1185369" transform="translate(15.682 160.345)">
              <path id="Trazado_1041976" data-name="Trazado 1041976" d="M125.681,201.355a.544.544,0,0,1-.246-.059l-14.349-7.361a.54.54,0,1,1,.493-.961l14.349,7.361a.54.54,0,0,1-.246,1.021Z" transform="translate(-110.792 -192.913)" fill="#222a40"/>
            </g>
            <g id="Grupo_1185370" data-name="Grupo 1185370" transform="translate(78.563 113.191)">
              <path id="Trazado_1041977" data-name="Trazado 1041977" d="M176.173,215.506a.54.54,0,0,1-.537-.485l-6.628-65.168a.54.54,0,0,1,1.075-.109l6.628,65.168a.539.539,0,0,1-.483.592Z" transform="translate(-169.005 -149.259)" fill="#222a40"/>
            </g>
            <g id="Grupo_1185371" data-name="Grupo 1185371" transform="translate(46.561 232.906)">
              <path id="Trazado_1041978" data-name="Trazado 1041978" d="M139.919,311.4a.459.459,0,0,1-.093-.009.54.54,0,0,1-.44-.624l7.346-42.22a.541.541,0,0,1,.383-.427l27.97-8.014a.54.54,0,1,1,.3,1.038l-27.644,7.921-7.289,41.886A.541.541,0,0,1,139.919,311.4Z" transform="translate(-139.379 -260.088)" fill="#222a40"/>
            </g>
            <g id="Grupo_1185372" data-name="Grupo 1185372" transform="translate(3.574 213.315)">
              <path id="Trazado_1041979" data-name="Trazado 1041979" d="M100.122,440.066h-.014a.54.54,0,0,1-.526-.554c.016-.62,1.614-62.282,2.642-84.225s5.4-111.914,5.445-112.82a.534.534,0,0,1,.566-.513.539.539,0,0,1,.513.566c-.044.906-4.417,90.883-5.445,112.818s-2.625,83.581-2.641,84.2A.542.542,0,0,1,100.122,440.066Z" transform="translate(-99.582 -241.952)" fill="#222a40"/>
            </g>
          </g>
          <g id="Grupo_1185381" data-name="Grupo 1185381" transform="translate(241.108 246.403)">
            <g id="Grupo_1185374" data-name="Grupo 1185374" transform="translate(10.08)">
              <path id="Trazado_1041980" data-name="Trazado 1041980" d="M259.17,365.577h77.7c-4.271-12.5-2.352-28.576-2.352-28.576h13.1c10.876,0,19.114-9.347,17.374-19.677a115.656,115.656,0,0,1-1.471-19.315,99.068,99.068,0,0,1,8.005-38.854,17.586,17.586,0,0,1,16.243-10.364h-77.7a17.586,17.586,0,0,0-16.243,10.364,99.087,99.087,0,0,0-8.005,38.854,115.528,115.528,0,0,0,1.472,19.315c1.741,10.33-6.5,19.677-17.374,19.677h-13.1S254.9,353.074,259.17,365.577Z" transform="translate(-256.389 -248.791)" fill="#a0a8fb"/>
            </g>
            <g id="Grupo_1185375" data-name="Grupo 1185375" transform="translate(87.774)">
              <path id="Trazado_1041981" data-name="Trazado 1041981" d="M331.1,365.577h37.008s6.318-19.953-1.006-32.093l.018-.052c.718-1.966,24.175-65.48,23.673-74.5-.485-9.174-6.569-10.141-6.569-10.141H382a17.586,17.586,0,0,0-16.243,10.364,99.088,99.088,0,0,0-8.005,38.854,115.653,115.653,0,0,0,1.471,19.315c1.741,10.33-6.5,19.677-17.374,19.677h-13.1S326.826,353.074,331.1,365.577Z" transform="translate(-328.316 -248.791)" fill="#222a40"/>
            </g>
            <g id="Grupo_1185376" data-name="Grupo 1185376" transform="translate(13.181 87.669)">
              <path id="Trazado_1041982" data-name="Trazado 1041982" d="M334.284,331.033H259.8a.54.54,0,1,1,0-1.08h74.484a.54.54,0,1,1,0,1.08Z" transform="translate(-259.26 -329.953)" fill="#222a40"/>
            </g>
            <g id="Grupo_1185377" data-name="Grupo 1185377" transform="translate(111.841 116.777)">
              <path id="Trazado_1041983" data-name="Trazado 1041983" d="M362.321,356.9l15.716,107.665H372.55L350.6,356.9Z" transform="translate(-350.596 -356.9)" fill="#222a40"/>
            </g>
            <g id="Grupo_1185378" data-name="Grupo 1185378" transform="translate(0 116.777)">
              <path id="Trazado_1041984" data-name="Trazado 1041984" d="M262.774,356.9,247.057,464.565h5.488L274.5,356.9Z" transform="translate(-247.057 -356.9)" fill="#222a40"/>
            </g>
            <g id="Grupo_1185379" data-name="Grupo 1185379" transform="translate(76.16 116.777)">
              <path id="Trazado_1041985" data-name="Trazado 1041985" d="M333.281,356.9,317.564,464.565h5.488L345.006,356.9Z" transform="translate(-317.564 -356.9)" fill="#222a40"/>
            </g>
            <g id="Grupo_1185380" data-name="Grupo 1185380" transform="translate(33.51 116.777)">
              <path id="Trazado_1041986" data-name="Trazado 1041986" d="M289.8,356.9l15.717,107.665h-5.488L278.08,356.9Z" transform="translate(-278.08 -356.9)" fill="#222a40"/>
            </g>
          </g>
          <g id="Grupo_1185434" data-name="Grupo 1185434" transform="translate(211.296 69.894)">
            <g id="Grupo_1185382" data-name="Grupo 1185382" transform="translate(18.434)">
              <path id="Trazado_1041987" data-name="Trazado 1041987" d="M272.181,118.391c-.731.855-2.029.808-3.149.9a9.361,9.361,0,0,0-6.078,3,27.852,27.852,0,0,1-2.379,2.744c-1.99,1.695-4.913,1.819-7.082,3.281-1.9,1.275-2.969,3.39-3.871,5.519H237.457c.739-4.811-.964-9.794-.933-14.714.015-3.777,1.057-7.478,1.407-11.24.428-4.625-.179-9.336.739-13.882a4.686,4.686,0,0,1,.824-2.067,1.877,1.877,0,0,1,1.99-.708c.443,4.407.886,8.8,1.329,13.206.467-3.529.995-7.065,1.578-10.572a18.1,18.1,0,0,1,2.169-6.926c.358-.567,1.058-1.158,1.625-.8a1.416,1.416,0,0,1,.489,1.08c.28,2.091.011,7.048.291,9.147.614-2.635,2-8.1,3.744-10.134a2.445,2.445,0,0,1,.995-.785,1,1,0,0,1,1.15.326,1.426,1.426,0,0,1,.163.7c.085,1.252.163,2.5.241,3.755a6.515,6.515,0,0,1,2.915-3.047c.521-.265,1.259-.42,1.617.046a1.424,1.424,0,0,1,.14,1.049c-1.026,7.96-3.264,15.92-2.262,23.878a4.006,4.006,0,0,0,.708,2.091,1.636,1.636,0,0,0,1.656.567l.008.031a34.329,34.329,0,0,1,4.687-1.073c2.316-.365,4.928-.413,6.724,1.1a3.377,3.377,0,0,1,1.1,1.632A2.112,2.112,0,0,1,272.181,118.391Z" transform="translate(-236.524 -85.383)" fill="#e48c59"/>
            </g>
            <g id="Grupo_1185383" data-name="Grupo 1185383" transform="translate(26.148 24.275)">
              <path id="Trazado_1041988" data-name="Trazado 1041988" d="M244.206,116.925a.54.54,0,0,1-.489-.768,19.817,19.817,0,0,1,7.115-8.213.54.54,0,0,1,.59.9,19.016,19.016,0,0,0-6.727,7.765A.539.539,0,0,1,244.206,116.925Z" transform="translate(-243.666 -107.856)" fill="#222a40"/>
            </g>
            <g id="Grupo_1185384" data-name="Grupo 1185384" transform="translate(22.793 19.474)">
              <path id="Trazado_1041989" data-name="Trazado 1041989" d="M255.313,105.146a.472.472,0,0,1-.078-.005,63.485,63.485,0,0,0-14.093-.447.54.54,0,0,1-.086-1.077,64.729,64.729,0,0,1,14.334.454.541.541,0,0,1-.077,1.076Z" transform="translate(-240.559 -103.412)" fill="#222a40"/>
            </g>
            <g id="Grupo_1185385" data-name="Grupo 1185385" transform="translate(29.184 10.437)">
              <path id="Trazado_1041990" data-name="Trazado 1041990" d="M247.017,105.163a.54.54,0,0,1-.54-.534,55.321,55.321,0,0,1,1.162-9.155.54.54,0,0,1,1.057.22,55.5,55.5,0,0,0-1.14,8.921.54.54,0,0,1-.534.547Z" transform="translate(-246.476 -95.045)" fill="#222a40"/>
            </g>
            <g id="Grupo_1185386" data-name="Grupo 1185386" transform="translate(32.73 4.298)">
              <path id="Trazado_1041991" data-name="Trazado 1041991" d="M250.3,105.619a.568.568,0,0,1-.085-.006.54.54,0,0,1-.449-.618,113.611,113.611,0,0,1,3.921-15.265.54.54,0,0,1,1.024.345,112.7,112.7,0,0,0-3.877,15.089A.542.542,0,0,1,250.3,105.619Z" transform="translate(-249.759 -89.362)" fill="#222a40"/>
            </g>
            <g id="Grupo_1185387" data-name="Grupo 1185387" transform="translate(0 45.484)">
              <path id="Trazado_1041992" data-name="Trazado 1041992" d="M364.61,283.844c-.341,1.039-2.927,3.775-6.145,6.893-5.912,5.712-13.944,12.705-13.944,12.705s-11.957,10.984-20.139,10.76-17.827-5.6-17.827-5.6-31.247-.449-34.191-2.361a8.654,8.654,0,0,1-3.052-3.991,17.912,17.912,0,0,1-1.223-8.091c.366-5.163,3.393-54.229,3.393-54.229s-50.895-54.229-51.951-58.578,9.471-37.949,11.3-43.146,6.294-10.718,6.294-10.718h15.806s2.927,6.96,1.663,11.383-3.85,37.209-3.85,37.209l54.4,20.446c2.336-1.9,8.756-2.3,9.055-2.32h.009a55.88,55.88,0,0,0,6.287-.449,30.646,30.646,0,0,1,22.367,6.818,16.372,16.372,0,0,1,1.887.674S359.6,213.7,362.7,221.066,365.575,280.9,364.61,283.844Z" transform="translate(-219.458 -127.491)" fill="#e8a03f"/>
            </g>
            <g id="Grupo_1185388" data-name="Grupo 1185388" transform="translate(120.232 121.348)">
              <path id="Trazado_1041993" data-name="Trazado 1041993" d="M330.766,200.726a36.361,36.361,0,0,0,2.652-3A11.078,11.078,0,0,1,330.766,200.726Z" transform="translate(-330.766 -197.724)" fill="#e8a03f"/>
            </g>
            <g id="Grupo_1185389" data-name="Grupo 1185389" transform="translate(123.225 118.571)">
              <path id="Trazado_1041994" data-name="Trazado 1041994" d="M333.8,195.843a3.913,3.913,0,0,1-.258,1.356l.183-2.046A3.262,3.262,0,0,1,333.8,195.843Z" transform="translate(-333.537 -195.153)" fill="#e8a03f"/>
            </g>
            <g id="Grupo_1185400" data-name="Grupo 1185400" transform="translate(20.176 208.732)">
              <g id="Grupo_1185390" data-name="Grupo 1185390" transform="translate(27.777 150.815)">
                <path id="Trazado_1041995" data-name="Trazado 1041995" d="M286.406,466.341c-2.986,1.33-19.2,1.466-21.523-.929s0-6.509,0-6.509,8.1-14.749,9.432-17.808-1.721-14.467-1.721-14.467l21.422-8.385s6.61,9.568,7.146,11.69S289.4,465.013,286.406,466.341Z" transform="translate(-263.852 -418.243)" fill="#222a40"/>
              </g>
              <g id="Grupo_1185391" data-name="Grupo 1185391" transform="translate(78.287 151.083)">
                <path id="Trazado_1041996" data-name="Trazado 1041996" d="M352.6,464.295c-.865,3.715-23.78,2.586-27.768,2.4s-14.221-28.451-14.221-33.239c0-3.532,4.57-11.207,6.955-14.968,3.879,2.75,12.91,8.24,22.051,7.366l-2.294,9.6S353.465,460.572,352.6,464.295Z" transform="translate(-310.612 -418.491)" fill="#222a40"/>
              </g>
              <g id="Grupo_1185392" data-name="Grupo 1185392">
                <path id="Trazado_1041997" data-name="Trazado 1041997" d="M380.124,347.558c.241,10.069-33.933,90.532-33.933,90.532a17.506,17.506,0,0,1-3.035.574h-.009c-8.349.8-16.6-4.216-20.139-6.726-1.156-.823-1.813-1.372-1.813-1.372l17.96-72.813-27.913-22.816L286,363.574l13.6,66.261-3.418,1.338-19.565,7.658-4.931,1.929s-33.908-86.649-33.542-96.361c.349-9.271,27.247-50.563,29.676-54.263a8.654,8.654,0,0,0,3.052,3.991c2.943,1.913,34.191,2.361,34.191,2.361s9.654,5.372,17.827,5.6,20.139-10.76,20.139-10.76,8.032-6.993,13.944-12.705C363.229,294.975,379.926,339.367,380.124,347.558Z" transform="translate(-238.136 -278.622)" fill="#6455e7"/>
              </g>
              <g id="Grupo_1185393" data-name="Grupo 1185393" transform="translate(74.735 36.202)">
                <path id="Trazado_1041998" data-name="Trazado 1041998" d="M307.864,326.739a.54.54,0,0,1-.24-1.023l27.158-13.522a.54.54,0,0,1,.481.967L308.1,326.683A.536.536,0,0,1,307.864,326.739Z" transform="translate(-307.324 -312.137)" fill="#222a40"/>
              </g>
              <g id="Grupo_1185394" data-name="Grupo 1185394" transform="translate(76.236 50.996)">
                <path id="Trazado_1041999" data-name="Trazado 1041999" d="M309.252,328.647a.54.54,0,0,1-.086-1.073l10.518-1.733a.54.54,0,0,1,.175,1.065l-10.518,1.733A.493.493,0,0,1,309.252,328.647Z" transform="translate(-308.713 -325.833)" fill="#222a40"/>
              </g>
              <g id="Grupo_1185395" data-name="Grupo 1185395" transform="translate(51.617 43.6)">
                <path id="Trazado_1042000" data-name="Trazado 1042000" d="M304.839,329.2a.55.55,0,0,1-.241-.056l-18.376-9.13a.54.54,0,1,1,.481-.968l18.376,9.13a.54.54,0,0,1-.24,1.024Z" transform="translate(-285.922 -318.986)" fill="#222a40"/>
              </g>
              <g id="Grupo_1185396" data-name="Grupo 1185396" transform="translate(39.6 82.662)">
                <path id="Trazado_1042001" data-name="Trazado 1042001" d="M283.061,357.976a.5.5,0,0,1-.119-.014l-7.725-1.746a.54.54,0,1,1,.239-1.053l7.725,1.746a.54.54,0,0,1-.12,1.067Z" transform="translate(-274.797 -355.149)" fill="#222a40"/>
              </g>
              <g id="Grupo_1185397" data-name="Grupo 1185397" transform="translate(100.481 75.612)">
                <path id="Trazado_1042002" data-name="Trazado 1042002" d="M331.7,352.679a.54.54,0,0,1-.184-1.048l8.23-2.977a.54.54,0,0,1,.367,1.015l-8.23,2.977A.543.543,0,0,1,331.7,352.679Z" transform="translate(-331.159 -348.622)" fill="#222a40"/>
              </g>
              <g id="Grupo_1185398" data-name="Grupo 1185398" transform="translate(7.227 65.796)">
                <path id="Trazado_1042003" data-name="Trazado 1042003" d="M245.367,348.9a.54.54,0,0,1-.2-1.041,19.788,19.788,0,0,0,9.582-8.066.54.54,0,0,1,.922.561,20.852,20.852,0,0,1-10.107,8.509A.54.54,0,0,1,245.367,348.9Z" transform="translate(-244.827 -339.534)" fill="#222a40"/>
              </g>
              <g id="Grupo_1185399" data-name="Grupo 1185399" transform="translate(125.216 66.268)">
                <path id="Trazado_1042004" data-name="Trazado 1042004" d="M363.072,348.173a.532.532,0,0,1-.249-.062,26.284,26.284,0,0,1-8.653-7.271.539.539,0,0,1,.857-.656,25.209,25.209,0,0,0,8.3,6.969.54.54,0,0,1-.251,1.019Z" transform="translate(-354.058 -339.971)" fill="#222a40"/>
              </g>
            </g>
            <g id="Grupo_1185401" data-name="Grupo 1185401" transform="translate(91.902 54.312)">
              <path id="Trazado_1042005" data-name="Trazado 1042005" d="M348.876,156.336c-1.339,4.244-3.979,8.169-4.259,12.592a5.53,5.53,0,0,0-1.845-1.378,5.178,5.178,0,0,0-2.111-.413,26.57,26.57,0,0,1-4.564-16.493,36.926,36.926,0,0,1-15.644,2.943,15.624,15.624,0,0,1,4.751-5.435,30.123,30.123,0,0,1-17.241,3.2,18.145,18.145,0,0,0-1.121,3.808l-.015-.008s-.4,1.6-.958,3.963a17.636,17.636,0,0,1-1.129-9.454,29.745,29.745,0,0,1,2.928-8.41c1.012-2.017,2.274-4.1,4.338-5.015a10.862,10.862,0,0,1,4.8-.538l13.907.584a13.039,13.039,0,0,1,4.423.685,8.939,8.939,0,0,1,4.416,4.346,25.436,25.436,0,0,1,1.876,5.6l.272-.07a18.717,18.717,0,0,1,4.555,1.728,6.234,6.234,0,0,1,2.99,3.715A7.769,7.769,0,0,1,348.876,156.336Z" transform="translate(-304.538 -135.664)" fill="#222a40"/>
            </g>
            <g id="Grupo_1185402" data-name="Grupo 1185402" transform="translate(94.781 101.204)">
              <path id="Trazado_1042006" data-name="Trazado 1042006" d="M335.588,179.075l-1.55,17.864-.194,2.211s-8.527,11.766-20.153,11.938c0,0-5.054-7.429-6.486-14.212,17.77.716,22.45-9.267,22.583-9.57l.008-.008A18.255,18.255,0,0,0,335.588,179.075Z" transform="translate(-307.204 -179.075)" fill="#e48c59"/>
            </g>
            <g id="Grupo_1185403" data-name="Grupo 1185403" transform="translate(94.78 109.435)">
              <path id="Trazado_1042007" data-name="Trazado 1042007" d="M329.786,186.695c-.132.3-4.812,10.287-22.583,9.57l2.15-5.217c3.278.818,7.663,1.153,9.041.732C319.756,191.36,325.168,190.441,329.786,186.695Z" transform="translate(-307.203 -186.695)" fill="#222a40"/>
            </g>
            <g id="Grupo_1185404" data-name="Grupo 1185404" transform="translate(89.92 66.801)">
              <path id="Trazado_1042008" data-name="Trazado 1042008" d="M345.947,175a9.717,9.717,0,0,1-4.361,5.4,9.5,9.5,0,0,1-5.639,1.223,18.241,18.241,0,0,1-5.794,8.223l-.008.008c-4.618,3.746-10.029,4.664-11.393,5.085-1.378.42-5.763.085-9.041-.732a14,14,0,0,1-2.15-.685h-.008a3.967,3.967,0,0,1-1.425-.88c-1.667-1.854-3.426-11.043-3.426-16.244.008-3.589,2.056-12.872,3.31-18.214.561-2.367.958-3.963.958-3.963l.015.008a18.272,18.272,0,0,1,1.121-3.808,30.123,30.123,0,0,0,17.241-3.2,15.647,15.647,0,0,0-4.751,5.435,36.956,36.956,0,0,0,15.644-2.943,26.57,26.57,0,0,0,4.564,16.493,5.2,5.2,0,0,1,2.111.413A5.509,5.509,0,0,1,344.762,168a6.387,6.387,0,0,1,1.262,2.211A8.09,8.09,0,0,1,345.947,175Z" transform="translate(-302.704 -147.226)" fill="#e48c59"/>
            </g>
            <g id="Grupo_1185413" data-name="Grupo 1185413" transform="translate(93.23 73.359)">
              <g id="Grupo_1185405" data-name="Grupo 1185405" transform="translate(2.21 7.547)">
                <path id="Trazado_1042009" data-name="Trazado 1042009" d="M315.8,160.284a20.785,20.785,0,0,1-.261,7.5c-.906,3.948-3.747,5.909-5,5.4s-3.253-2.815-2.6-4.815A8.67,8.67,0,0,1,310,166.23,80.131,80.131,0,0,0,315.8,160.284Z" transform="translate(-307.814 -160.284)" fill="#e07045"/>
              </g>
              <g id="Grupo_1185406" data-name="Grupo 1185406" transform="translate(1.658 5.895)">
                <path id="Trazado_1042010" data-name="Trazado 1042010" d="M311.981,174.869a.541.541,0,0,1-.283-.08,11.506,11.506,0,0,1-4.091-4.337,2.712,2.712,0,0,1,.729-3.36,54.24,54.24,0,0,0,7.986-8.133.54.54,0,1,1,.846.671,55.41,55.41,0,0,1-8.143,8.295,1.632,1.632,0,0,0-.467,2.013,10.427,10.427,0,0,0,3.706,3.93.541.541,0,0,1-.283,1Z" transform="translate(-307.304 -158.755)" fill="#222a40"/>
              </g>
              <g id="Grupo_1185407" data-name="Grupo 1185407" transform="translate(15.806 7.429)">
                <path id="Trazado_1042011" data-name="Trazado 1042011" d="M320.43,162.6a2.415,2.415,0,1,0,2.739-2.4A2.588,2.588,0,0,0,320.43,162.6Z" transform="translate(-320.401 -160.175)" fill="#222a40"/>
              </g>
              <g id="Grupo_1185408" data-name="Grupo 1185408" transform="translate(0.895 5.408)">
                <path id="Trazado_1042012" data-name="Trazado 1042012" d="M306.626,160.726a2.415,2.415,0,1,0,2.739-2.4A2.588,2.588,0,0,0,306.626,160.726Z" transform="translate(-306.597 -158.304)" fill="#222a40"/>
              </g>
              <g id="Grupo_1185409" data-name="Grupo 1185409" transform="translate(16.503 1.529)">
                <path id="Trazado_1042013" data-name="Trazado 1042013" d="M322.838,154.743a17.155,17.155,0,0,1,5.64,2.359,1.583,1.583,0,0,1,.591,1.03,1.577,1.577,0,0,1-1.351,1.773,1.779,1.779,0,0,1-1.182-.321c-.094-.06-.19-.118-.284-.176a15.074,15.074,0,0,0-3.4-1.436c-.145-.037-.29-.075-.435-.107a1.69,1.69,0,0,1-1.042-.607,1.575,1.575,0,0,1,1.466-2.516Z" transform="translate(-321.046 -154.713)" fill="#222a40"/>
              </g>
              <g id="Grupo_1185410" data-name="Grupo 1185410">
                <path id="Trazado_1042014" data-name="Trazado 1042014" d="M305.826,156.154a1.284,1.284,0,0,0,.836.844,1.788,1.788,0,0,0,1.225.006c.107-.033.214-.063.321-.094a15.108,15.108,0,0,1,3.661-.479c.149,0,.3.005.448.013a1.687,1.687,0,0,0,1.167-.308,1.576,1.576,0,0,0-.743-2.816,17.138,17.138,0,0,0-6.064.772A1.759,1.759,0,0,0,305.826,156.154Z" transform="translate(-305.768 -153.298)" fill="#222a40"/>
              </g>
              <g id="Grupo_1185411" data-name="Grupo 1185411" transform="translate(2.711 24.447)">
                <path id="Trazado_1042015" data-name="Trazado 1042015" d="M308.332,177.723a6.8,6.8,0,0,0,6.817,4.725c4.006-.109,5.466-3.6,5.938-5.444a.85.85,0,0,0-.873-1.073l-11.127.67A.838.838,0,0,0,308.332,177.723Z" transform="translate(-308.278 -175.93)" fill="#fff"/>
              </g>
              <g id="Grupo_1185412" data-name="Grupo 1185412" transform="translate(30.948 16.374)">
                <path id="Trazado_1042016" data-name="Trazado 1042016" d="M334.959,177.358a.527.527,0,0,1-.121-.014.541.541,0,0,1-.405-.647,12.952,12.952,0,0,1,6.025-8.167.541.541,0,0,1,.542.935,11.858,11.858,0,0,0-5.514,7.475A.543.543,0,0,1,334.959,177.358Z" transform="translate(-334.419 -168.456)" fill="#222a40"/>
              </g>
            </g>
            <g id="Grupo_1185414" data-name="Grupo 1185414" transform="translate(99.8 52.155)">
              <path id="Trazado_1042017" data-name="Trazado 1042017" d="M340.475,148.792a.541.541,0,0,1-.538-.5c-.294-4.208-.819-8.536-3.652-11.142-3.141-2.891-7.963-2.65-11.455-1.941-1.232.251-2.484.576-3.7.89a30.777,30.777,0,0,1-8.76,1.4.54.54,0,1,1,.035-1.079,30.528,30.528,0,0,0,8.456-1.367c1.225-.318,2.491-.646,3.751-.9,3.74-.762,8.927-.995,12.4,2.2,3.125,2.874,3.688,7.436,4,11.863a.543.543,0,0,1-.5.577C340.5,148.791,340.488,148.792,340.475,148.792Z" transform="translate(-311.851 -133.667)" fill="#222a40"/>
            </g>
            <g id="Grupo_1185415" data-name="Grupo 1185415" transform="translate(18.335 93.88)">
              <path id="Trazado_1042018" data-name="Trazado 1042018" d="M236.972,176.991a.54.54,0,0,1-.2-1.041,85.443,85.443,0,0,1,11.143-3.637.54.54,0,1,1,.264,1.048,84.158,84.158,0,0,0-11,3.591A.53.53,0,0,1,236.972,176.991Z" transform="translate(-236.432 -172.295)" fill="#222a40"/>
            </g>
            <g id="Grupo_1185416" data-name="Grupo 1185416" transform="translate(48.883 130.864)">
              <path id="Trazado_1042019" data-name="Trazado 1042019" d="M269.94,231.853a.541.541,0,0,1-.529-.437l-4.688-24.24a.54.54,0,0,1,1.061-.2l4.688,24.24a.542.542,0,0,1-.429.633A.636.636,0,0,1,269.94,231.853Z" transform="translate(-264.713 -206.534)" fill="#222a40"/>
            </g>
            <g id="Grupo_1185417" data-name="Grupo 1185417" transform="translate(43.588 137.068)">
              <path id="Trazado_1042020" data-name="Trazado 1042020" d="M266.834,227.685a.538.538,0,0,1-.491-.318l-6.483-14.326a.54.54,0,1,1,.983-.446l6.483,14.326a.538.538,0,0,1-.269.714A.506.506,0,0,1,266.834,227.685Z" transform="translate(-259.811 -212.277)" fill="#222a40"/>
            </g>
            <g id="Grupo_1185418" data-name="Grupo 1185418" transform="translate(86.412 118.898)">
              <path id="Trazado_1042021" data-name="Trazado 1042021" d="M311.622,210.96a.535.535,0,0,1-.382-.159,89.747,89.747,0,0,1-11.7-14.512.54.54,0,0,1,.906-.587A88.69,88.69,0,0,0,312,210.039a.54.54,0,0,1-.382.92Z" transform="translate(-299.456 -195.456)" fill="#222a40"/>
            </g>
            <g id="Grupo_1185419" data-name="Grupo 1185419" transform="translate(103.749 123.432)">
              <path id="Trazado_1042022" data-name="Trazado 1042022" d="M316.047,212.389a.54.54,0,0,1-.166-1.053,92.291,92.291,0,0,0,23.638-11.589.54.54,0,1,1,.609.892,93.3,93.3,0,0,1-23.916,11.724A.542.542,0,0,1,316.047,212.389Z" transform="translate(-315.507 -199.654)" fill="#222a40"/>
            </g>
            <g id="Grupo_1185420" data-name="Grupo 1185420" transform="translate(116.798 154.497)">
              <path id="Trazado_1042023" data-name="Trazado 1042023" d="M328.152,254.667a.54.54,0,0,1-.54-.526c0-.158-.376-15.857,1.919-25.317a.541.541,0,0,1,1.051.255c-2.263,9.32-1.895,24.878-1.89,25.034a.54.54,0,0,1-.526.554Z" transform="translate(-327.587 -228.413)" fill="#222a40"/>
            </g>
            <g id="Grupo_1185421" data-name="Grupo 1185421" transform="translate(90.688 136.173)">
              <path id="Trazado_1042024" data-name="Trazado 1042024" d="M303.955,232.972a.564.564,0,0,1-.177-.029.543.543,0,0,1-.334-.688,191.751,191.751,0,0,1,8.47-20.5.54.54,0,1,1,.972.469,191,191,0,0,0-8.421,20.385A.54.54,0,0,1,303.955,232.972Z" transform="translate(-303.415 -211.449)" fill="#222a40"/>
            </g>
            <g id="Grupo_1185422" data-name="Grupo 1185422" transform="translate(99.632 136.424)">
              <path id="Trazado_1042025" data-name="Trazado 1042025" d="M318.885,237.3a.538.538,0,0,1-.521-.4l-6.651-24.536a.54.54,0,1,1,1.042-.282l6.651,24.536a.539.539,0,0,1-.38.662A.585.585,0,0,1,318.885,237.3Z" transform="translate(-311.695 -211.681)" fill="#222a40"/>
            </g>
            <g id="Grupo_1185423" data-name="Grupo 1185423" transform="translate(89.681 155.976)">
              <path id="Trazado_1042026" data-name="Trazado 1042026" d="M304.089,229.782a1.664,1.664,0,0,0,0,3.326A1.664,1.664,0,0,0,304.089,229.782Z" transform="translate(-302.483 -229.782)" fill="#222a40"/>
            </g>
            <g id="Grupo_1185424" data-name="Grupo 1185424" transform="translate(105.708 160.137)">
              <path id="Trazado_1042027" data-name="Trazado 1042027" d="M318.926,233.634a1.664,1.664,0,0,0,0,3.326A1.664,1.664,0,0,0,318.926,233.634Z" transform="translate(-317.32 -233.634)" fill="#222a40"/>
            </g>
            <g id="Grupo_1185425" data-name="Grupo 1185425" transform="translate(73.527 216.388)">
              <path id="Trazado_1042028" data-name="Trazado 1042028" d="M309.452,300.1a.483.483,0,0,1-.11-.012c-9.516-1.961-21.156-12.983-21.647-13.45a.539.539,0,0,1,.744-.781c.118.112,11.907,11.276,21.12,13.174a.54.54,0,0,1-.107,1.069Z" transform="translate(-287.528 -285.71)" fill="#222a40"/>
            </g>
            <g id="Grupo_1185426" data-name="Grupo 1185426" transform="translate(33.746 179.82)">
              <path id="Trazado_1042029" data-name="Trazado 1042029" d="M300.655,254.147a18.247,18.247,0,0,0-7.47-2.26c-4.366-.341-22.247,2.229-24.67,2.859s-13.775,11.523-15.222,12.421-3.295,4.864-2.322,6.695,4.624.321,4.624.321a7.864,7.864,0,0,0,3.545.929c1.684-.093,12.713-5.885,12.713-5.885s-7.009,3.993-6.886,4.981,1.285,1.945,3.555,1.041,15.324-5.775,15.324-5.775,8.676,1.078,11.833-1.736Z" transform="translate(-250.699 -251.856)" fill="#e48c59"/>
            </g>
            <g id="Grupo_1185427" data-name="Grupo 1185427" transform="translate(122.815 175.443)">
              <path id="Trazado_1042030" data-name="Trazado 1042030" d="M333.7,250.072a.54.54,0,0,1-.072-1.076l8.661-1.187a.54.54,0,0,1,.147,1.07l-8.661,1.187A.592.592,0,0,1,333.7,250.072Z" transform="translate(-333.157 -247.804)" fill="#222a40"/>
            </g>
            <g id="Grupo_1185428" data-name="Grupo 1185428" transform="translate(48.234 195.932)">
              <path id="Trazado_1042031" data-name="Trazado 1042031" d="M264.653,272.575a.54.54,0,0,1-.272-1.007l8.091-4.72a.54.54,0,1,1,.544.933l-8.091,4.72A.54.54,0,0,1,264.653,272.575Z" transform="translate(-264.112 -266.772)" fill="#222a40"/>
            </g>
            <g id="Grupo_1185429" data-name="Grupo 1185429" transform="translate(38.101 191.707)">
              <path id="Trazado_1042032" data-name="Trazado 1042032" d="M255.271,273.841a.54.54,0,0,1-.325-.971c.362-.272,8.89-6.7,11.806-7.943a45.917,45.917,0,0,1,6.185-2.05.54.54,0,1,1,.259,1.048,45.957,45.957,0,0,0-6.02,2c-2.8,1.191-11.492,7.746-11.578,7.812A.56.56,0,0,1,255.271,273.841Z" transform="translate(-254.731 -262.861)" fill="#222a40"/>
            </g>
            <g id="Grupo_1185430" data-name="Grupo 1185430" transform="translate(33.285 188.196)">
              <path id="Trazado_1042033" data-name="Trazado 1042033" d="M250.812,271.572a.54.54,0,0,1-.314-.979c.435-.312,10.7-7.664,12.429-8.581a54.036,54.036,0,0,1,6.951-2.382.54.54,0,1,1,.288,1.04,54.712,54.712,0,0,0-6.733,2.3c-1.663.884-12.2,8.43-12.306,8.505A.536.536,0,0,1,250.812,271.572Z" transform="translate(-250.272 -259.61)" fill="#222a40"/>
            </g>
            <g id="Grupo_1185431" data-name="Grupo 1185431" transform="translate(75.806 178.576)">
              <path id="Trazado_1042034" data-name="Trazado 1042034" d="M338.867,250.7S301.937,251.865,297.6,252s-5.358,2.087-5.358,2.087l-2.6,14.237a74.954,74.954,0,0,0,17.337,9.126c10.679,4.048,37.222,2.066,41.58,1.307S355.576,252.85,338.867,250.7Z" transform="translate(-289.637 -250.704)" fill="#e8a03f"/>
            </g>
            <g id="Grupo_1185432" data-name="Grupo 1185432" transform="translate(77.868 178.038)">
              <path id="Trazado_1042035" data-name="Trazado 1042035" d="M350.051,259.366a.54.54,0,0,1-.528-.433c-1.433-7.149-10.735-7.643-10.83-7.648-.018,0-36.507,1.146-41.231,1.291-4.193.13-4.86,1.712-4.866,1.729a.552.552,0,0,1-.687.32.533.533,0,0,1-.336-.668c.076-.235.889-2.307,5.855-2.461,4.729-.146,41.271-1.291,41.271-1.291.143.005,10.283.531,11.883,8.515a.54.54,0,0,1-.423.636A.715.715,0,0,1,350.051,259.366Z" transform="translate(-291.546 -250.206)" fill="#222a40"/>
            </g>
            <g id="Grupo_1185433" data-name="Grupo 1185433" transform="translate(75.265 195.65)">
              <path id="Trazado_1042036" data-name="Trazado 1042036" d="M325.279,278.689c-3.669,0-7.314-.068-10.55-.244-13.514-.736-25.288-10.884-25.407-10.986a.54.54,0,0,1,.711-.814c.113.1,11.618,10.008,24.754,10.723,13.3.724,33.573-.409,33.777-.421a.514.514,0,0,1,.569.509.539.539,0,0,1-.509.569C348.472,278.033,336.758,278.689,325.279,278.689Z" transform="translate(-289.137 -266.511)" fill="#222a40"/>
            </g>
          </g>
          <g id="Grupo_1185439" data-name="Grupo 1185439" transform="translate(75.401 274.441)">
            <g id="Grupo_1185435" data-name="Grupo 1185435" transform="translate(36.404)">
              <rect id="Rectángulo_415589" data-name="Rectángulo 415589" width="310.561" height="9.913" fill="#a0a8fb"/>
            </g>
            <g id="Grupo_1185436" data-name="Grupo 1185436" transform="translate(0 9.838)">
              <path id="Trazado_1042037" data-name="Trazado 1042037" d="M133.257,283.932,93.65,479.4h4.339l48.782-195.546Z" transform="translate(-93.65 -283.856)" fill="#222a40"/>
            </g>
            <g id="Grupo_1185437" data-name="Grupo 1185437" transform="translate(331.122 9.838)">
              <path id="Trazado_1042038" data-name="Trazado 1042038" d="M413.708,283.932,453.315,479.4h-4.339L400.194,283.856Z" transform="translate(-400.194 -283.856)" fill="#222a40"/>
            </g>
            <g id="Grupo_1185438" data-name="Grupo 1185438" transform="translate(36.404 9.914)">
              <rect id="Rectángulo_415590" data-name="Rectángulo 415590" width="310.561" height="4.149" fill="#222a40"/>
            </g>
          </g>
          <g id="Grupo_1185449" data-name="Grupo 1185449" transform="translate(230.43 0)">
            <g id="Grupo_1185444" data-name="Grupo 1185444" transform="translate(19.297)">
              <path id="Trazado_1042041" data-name="Trazado 1042041" d="M255.577,48.182h-.024a.541.541,0,0,1-.516-.563L256.149,21.2a.509.509,0,0,1,.564-.517.541.541,0,0,1,.516.563l-1.111,26.422A.542.542,0,0,1,255.577,48.182Z" transform="translate(-255.037 -20.678)" fill="#222a40"/>
            </g>
            <g id="Grupo_1185445" data-name="Grupo 1185445" transform="translate(6.239 10.028)">
              <path id="Trazado_1042042" data-name="Trazado 1042042" d="M249.87,47.735a.54.54,0,0,1-.5-.347l-6.382-16.694a.54.54,0,0,1,1.009-.387L250.374,47a.54.54,0,0,1-.311.7A.551.551,0,0,1,249.87,47.735Z" transform="translate(-242.948 -29.961)" fill="#222a40"/>
            </g>
            <g id="Grupo_1185446" data-name="Grupo 1185446" transform="translate(0 21.768)">
              <path id="Trazado_1042043" data-name="Trazado 1042043" d="M245.059,49.276a.535.535,0,0,1-.381-.159l-7.348-7.366a.54.54,0,0,1,.765-.763l7.348,7.366a.54.54,0,0,1,0,.764A.547.547,0,0,1,245.059,49.276Z" transform="translate(-237.172 -40.83)" fill="#222a40"/>
            </g>
            <g id="Grupo_1185447" data-name="Grupo 1185447" transform="translate(26.154 11.408)">
              <path id="Trazado_1042044" data-name="Trazado 1042044" d="M261.925,48.553a.532.532,0,0,1-.21-.043.54.54,0,0,1-.288-.708l6.86-16.234a.54.54,0,0,1,1,.42l-6.86,16.235A.544.544,0,0,1,261.925,48.553Z" transform="translate(-261.385 -31.239)" fill="#222a40"/>
            </g>
            <g id="Grupo_1185448" data-name="Grupo 1185448" transform="translate(30.488 23.111)">
              <path id="Trazado_1042045" data-name="Trazado 1042045" d="M265.936,49.483a.535.535,0,0,1-.349-.129.541.541,0,0,1-.063-.762l5.377-6.33a.54.54,0,1,1,.823.7l-5.377,6.33A.537.537,0,0,1,265.936,49.483Z" transform="translate(-265.396 -42.073)" fill="#222a40"/>
            </g>
          </g>
          <g id="Grupo_1185474" data-name="Grupo 1185474" transform="translate(312.22 21.119)">
            <g id="Grupo_1185454" data-name="Grupo 1185454" transform="translate(0)">
              <g id="Grupo_1185451" data-name="Grupo 1185451">
                <g id="Grupo_1185450" data-name="Grupo 1185450">
                  <ellipse id="Elipse_13349" data-name="Elipse 13349" cx="27.353" cy="27.352" rx="27.353" ry="27.352" transform="translate(0 21.264) rotate(-22.873)" fill="#c1c9fc"/>
                </g>
              </g>
              <g id="Grupo_1185453" data-name="Grupo 1185453" transform="translate(6.888 6.912)">
                <g id="Grupo_1185452" data-name="Grupo 1185452">
                  <path id="Trazado_1042046" data-name="Trazado 1042046" d="M348.2,104.5a28.937,28.937,0,1,1,28.938-28.937A28.97,28.97,0,0,1,348.2,104.5Zm0-54.706a25.768,25.768,0,1,0,25.769,25.769A25.8,25.8,0,0,0,348.2,49.8Z" transform="translate(-319.268 -46.628)" fill="#a0a8fb"/>
                </g>
              </g>
            </g>
            <g id="Grupo_1185456" data-name="Grupo 1185456" transform="translate(35.033 50.36)">
              <g id="Grupo_1185455" data-name="Grupo 1185455">
                <path id="Trazado_1042047" data-name="Trazado 1042047" d="M346.116,94.9a.792.792,0,0,1-.792-.792V87.644a.792.792,0,1,1,1.585,0v6.468A.792.792,0,0,1,346.116,94.9Z" transform="translate(-345.324 -86.851)" fill="#a0a8fb"/>
              </g>
            </g>
            <g id="Grupo_1185458" data-name="Grupo 1185458" transform="translate(35.033 13.283)">
              <g id="Grupo_1185457" data-name="Grupo 1185457">
                <path id="Trazado_1042048" data-name="Trazado 1042048" d="M346.116,60.579a.792.792,0,0,1-.792-.793V53.319a.792.792,0,1,1,1.585,0v6.467A.792.792,0,0,1,346.116,60.579Z" transform="translate(-345.324 -52.526)" fill="#a0a8fb"/>
              </g>
            </g>
            <g id="Grupo_1185460" data-name="Grupo 1185460" transform="translate(13.261 35.056)">
              <g id="Grupo_1185459" data-name="Grupo 1185459">
                <path id="Trazado_1042049" data-name="Trazado 1042049" d="M332.427,74.268H325.96a.792.792,0,0,1,0-1.585h6.467a.792.792,0,1,1,0,1.585Z" transform="translate(-325.168 -72.683)" fill="#a0a8fb"/>
              </g>
            </g>
            <g id="Grupo_1185462" data-name="Grupo 1185462" transform="translate(50.337 35.056)">
              <g id="Grupo_1185461" data-name="Grupo 1185461">
                <path id="Trazado_1042050" data-name="Trazado 1042050" d="M366.752,74.268h-6.468a.792.792,0,0,1,0-1.585h6.468a.792.792,0,0,1,0,1.585Z" transform="translate(-359.492 -72.683)" fill="#a0a8fb"/>
              </g>
            </g>
            <g id="Grupo_1185464" data-name="Grupo 1185464" transform="translate(19.637 45.878)">
              <g id="Grupo_1185463" data-name="Grupo 1185463">
                <path id="Trazado_1042051" data-name="Trazado 1042051" d="M331.863,88.859a.792.792,0,0,1-.561-1.352l4.573-4.572a.792.792,0,0,1,1.12,1.12l-4.573,4.572A.787.787,0,0,1,331.863,88.859Z" transform="translate(-331.07 -82.702)" fill="#a0a8fb"/>
              </g>
            </g>
            <g id="Grupo_1185466" data-name="Grupo 1185466" transform="translate(45.855 19.66)">
              <g id="Grupo_1185465" data-name="Grupo 1185465">
                <path id="Trazado_1042052" data-name="Trazado 1042052" d="M356.135,64.588a.792.792,0,0,1-.561-1.352l4.572-4.573a.792.792,0,1,1,1.12,1.12l-4.572,4.573A.788.788,0,0,1,356.135,64.588Z" transform="translate(-355.342 -58.43)" fill="#a0a8fb"/>
              </g>
            </g>
            <g id="Grupo_1185468" data-name="Grupo 1185468" transform="translate(19.637 19.66)">
              <g id="Grupo_1185467" data-name="Grupo 1185467">
                <path id="Trazado_1042053" data-name="Trazado 1042053" d="M336.436,64.588a.793.793,0,0,1-.561-.232L331.3,59.782a.792.792,0,1,1,1.12-1.12L337,63.236a.792.792,0,0,1-.56,1.352Z" transform="translate(-331.07 -58.43)" fill="#a0a8fb"/>
              </g>
            </g>
            <g id="Grupo_1185470" data-name="Grupo 1185470" transform="translate(45.855 45.878)">
              <g id="Grupo_1185469" data-name="Grupo 1185469">
                <path id="Trazado_1042054" data-name="Trazado 1042054" d="M360.707,88.859a.793.793,0,0,1-.561-.232l-4.572-4.572a.792.792,0,1,1,1.12-1.12l4.572,4.572a.792.792,0,0,1-.56,1.352Z" transform="translate(-355.342 -82.702)" fill="#a0a8fb"/>
              </g>
            </g>
            <g id="Grupo_1185473" data-name="Grupo 1185473" transform="translate(33.823 16.079)">
              <g id="Grupo_1185472" data-name="Grupo 1185472">
                <g id="Grupo_1185471" data-name="Grupo 1185471">
                  <path id="Trazado_1042055" data-name="Trazado 1042055" d="M346.206,77.847a2,2,0,0,1-2-2V57.117a2,2,0,1,1,4,0V73.006l9.257-3.309a2,2,0,0,1,1.346,3.768l-11.933,4.266A2,2,0,0,1,346.206,77.847Z" transform="translate(-344.204 -55.115)" fill="#7f85fa"/>
                </g>
              </g>
            </g>
          </g>
        </g>
      </g>
    </g>
  </g>
</svg>
