<svg xmlns="http://www.w3.org/2000/svg" xmlns:xlink="http://www.w3.org/1999/xlink" width="113" height="113" viewBox="0 0 113 113">
  <defs>
    <filter id="Trazado_982547" x="0" y="0" width="113" height="113" filterUnits="userSpaceOnUse">
      <feOffset dy="3" input="SourceAlpha"/>
      <feGaussianBlur stdDeviation="3" result="blur"/>
      <feFlood flood-opacity="0.161"/>
      <feComposite operator="in" in2="blur"/>
      <feComposite in="SourceGraphic"/>
    </filter>
  </defs>
  <g id="Grupo_1185480" data-name="Grupo 1185480" transform="translate(-324.461 -7236.382)">
    <g id="Grupo_1180751" data-name="Grupo 1180751" transform="translate(0.461 1288.367)">
      <g id="Grupo_1174057" data-name="Grupo 1174057" transform="translate(333 5954.015)">
        <g id="Grupo_1172010" data-name="Grupo 1172010">
          <g id="Grupo_1171046" data-name="Grupo 1171046">
            <g id="Grupo_1148525" data-name="Grupo 1148525">
              <g transform="matrix(1, 0, 0, 1, -9, -6)" filter="url(#Trazado_982547)">
                <g id="Trazado_982547-2" data-name="Trazado 982547" transform="translate(9 6)" fill="#f2f7e5">
                  <path d="M 47.5 93.5 C 41.28937149047852 93.5 35.26533508300781 92.28397369384766 29.59518623352051 89.88570404052734 C 24.11771965026855 87.56893157958984 19.19813346862793 84.25196075439453 14.97309303283691 80.02691650390625 C 10.74804019927979 75.80186462402344 7.431066513061523 70.88229370117188 5.114293098449707 65.40481567382812 C 2.716026782989502 59.73468017578125 1.5 53.71062850952148 1.5 47.5 C 1.5 41.28937149047852 2.716026782989502 35.26533508300781 5.114293098449707 29.59518623352051 C 7.431066513061523 24.11771965026855 10.74804019927979 19.19813346862793 14.97309303283691 14.97309303283691 C 19.19813346862793 10.74804019927979 24.11771965026855 7.431066513061523 29.59518623352051 5.114293098449707 C 35.26533508300781 2.716026782989502 41.28937149047852 1.5 47.5 1.5 C 53.71062850952148 1.5 59.73468017578125 2.716026782989502 65.40481567382812 5.114293098449707 C 70.88229370117188 7.431066513061523 75.80186462402344 10.74804019927979 80.02691650390625 14.97309303283691 C 84.25196075439453 19.19813346862793 87.56893157958984 24.11771965026855 89.88570404052734 29.59518623352051 C 92.28397369384766 35.26533508300781 93.5 41.28937149047852 93.5 47.5 C 93.5 53.71062850952148 92.28397369384766 59.73468017578125 89.88570404052734 65.40481567382812 C 87.56893157958984 70.88229370117188 84.25196075439453 75.80186462402344 80.02691650390625 80.02691650390625 C 75.80186462402344 84.25196075439453 70.88229370117188 87.56893157958984 65.40481567382812 89.88570404052734 C 59.73468017578125 92.28397369384766 53.71062850952148 93.5 47.5 93.5 Z" stroke="none"/>
                  <path d="M 47.5 3 C 41.49121475219727 3 35.66376876831055 4.176155090332031 30.17950439453125 6.495796203613281 C 24.88084411621094 8.736953735351562 20.12152099609375 11.94598388671875 16.03375244140625 16.03375244140625 C 11.94598388671875 20.12152099609375 8.736953735351562 24.88084411621094 6.495796203613281 30.17950439453125 C 4.176155090332031 35.66376876831055 3 41.49121475219727 3 47.5 C 3 53.50878524780273 4.176155090332031 59.33623123168945 6.495796203613281 64.82049560546875 C 8.736953735351562 70.11915588378906 11.94598388671875 74.87847900390625 16.03375244140625 78.96624755859375 C 20.12152099609375 83.05401611328125 24.88084411621094 86.26304626464844 30.17950439453125 88.50419616699219 C 35.66376876831055 90.82384490966797 41.49121475219727 92 47.5 92 C 53.50878524780273 92 59.33623123168945 90.82384490966797 64.82049560546875 88.50419616699219 C 70.11915588378906 86.26304626464844 74.87847900390625 83.05401611328125 78.96624755859375 78.96624755859375 C 83.05401611328125 74.87847900390625 86.26304626464844 70.11915588378906 88.50419616699219 64.82049560546875 C 90.82384490966797 59.33623123168945 92 53.50878524780273 92 47.5 C 92 41.49121475219727 90.82384490966797 35.66376876831055 88.50419616699219 30.17950439453125 C 86.26304626464844 24.88084411621094 83.05401611328125 20.12152099609375 78.96624755859375 16.03375244140625 C 74.87847900390625 11.94598388671875 70.11915588378906 8.736953735351562 64.82049560546875 6.495796203613281 C 59.33623123168945 4.176155090332031 53.50878524780273 3 47.5 3 M 47.5 0 C 73.7335205078125 0 95 21.2664794921875 95 47.5 C 95 73.7335205078125 73.7335205078125 95 47.5 95 C 21.2664794921875 95 0 73.7335205078125 0 47.5 C 0 21.2664794921875 21.2664794921875 0 47.5 0 Z" stroke="none" fill="#86b60c"/>
                </g>
              </g>
            </g>
          </g>
        </g>
      </g>
    </g>
    <g id="oportunidad" transform="translate(349 7258)">
      <path id="Trazado_1042056" data-name="Trazado 1042056" d="M24,30.08,18.08,36l-8.5-8.84L6.79,29.94,4,16l13.94,2.79-2.78,2.79Z" fill="#b4dd7f"/>
      <path id="Trazado_1042057" data-name="Trazado 1042057" d="M32,4l8,12H36V28H28V16H24Z" fill="#b4dd7f"/>
      <path id="Trazado_1042058" data-name="Trazado 1042058" d="M60,16,57.21,29.94l-2.79-2.78L45.92,36,40,30.08l8.84-8.5-2.78-2.79Z" fill="#b4dd7f"/>
      <g id="Grupo_1185479" data-name="Grupo 1185479">
        <circle id="Elipse_13351" data-name="Elipse 13351" cx="2" cy="2" r="2" transform="translate(2 39)" fill="#fcd770"/>
        <circle id="Elipse_13352" data-name="Elipse 13352" cx="2" cy="2" r="2" transform="translate(2 58)" fill="#fcd770"/>
        <circle id="Elipse_13353" data-name="Elipse 13353" cx="2" cy="2" r="2" transform="translate(2 2)" fill="#fcd770"/>
        <circle id="Elipse_13354" data-name="Elipse 13354" cx="2" cy="2" r="2" transform="translate(58 2)" fill="#fcd770"/>
        <circle id="Elipse_13355" data-name="Elipse 13355" cx="2" cy="2" r="2" transform="translate(58 39)" fill="#fcd770"/>
        <circle id="Elipse_13356" data-name="Elipse 13356" cx="2" cy="2" r="2" transform="translate(58 58)" fill="#fcd770"/>
      </g>
      <path id="Trazado_1042059" data-name="Trazado 1042059" d="M30,62H19V59a12.962,12.962,0,0,1,3.81-9.19c.17-.17.35-.35.54-.51L24,53l3,2-2,2Z" fill="#ff826e"/>
      <path id="Trazado_1042060" data-name="Trazado 1042060" d="M45,59v3H34l5-5-2-2,3-2,.65-3.7A12.951,12.951,0,0,1,45,59Z" fill="#ff826e"/>
      <path id="Trazado_1042061" data-name="Trazado 1042061" d="M27.04,46.98,32,62H30l-5-5,2-2-3-2-.65-3.7A13.077,13.077,0,0,1,27.04,46.98Z" fill="#fc6e51"/>
      <path id="Trazado_1042062" data-name="Trazado 1042062" d="M37,55l2,2-5,5H32l4.96-15.02a13.077,13.077,0,0,1,3.69,2.32L40,53Z" fill="#fc6e51"/>
      <path id="Trazado_1042063" data-name="Trazado 1042063" d="M36.96,46.98,32,62,27.04,46.98a13.042,13.042,0,0,1,9.92,0Z" fill="#ccd1d9"/>
      <circle id="Elipse_13357" data-name="Elipse 13357" cx="7" cy="7" r="7" transform="translate(25 32)" fill="#f0d0b4"/>
      <path id="Trazado_1042064" data-name="Trazado 1042064" d="M36.354,45.7a8,8,0,1,0-8.708,0A14.018,14.018,0,0,0,18,59v4H46V59A14.018,14.018,0,0,0,36.354,45.7ZM37.586,57l-4,4h-.2l4.171-12.627A12.047,12.047,0,0,1,39.568,49.7l-.478,2.708-3.659,2.439ZM24.911,52.4,24.433,49.7a12.047,12.047,0,0,1,2.013-1.325L30.617,61h-.2l-4-4,2.156-2.155ZM26,39a6,6,0,1,1,6,6A6.006,6.006,0,0,1,26,39Zm9.706,8.592L32,58.811,28.3,47.592a11.893,11.893,0,0,1,7.411,0ZM20,59a11.943,11.943,0,0,1,2.706-7.578l.383,2.173,2.341,1.561L23.586,57l4,4H20Zm24,2H36.414l4-4L38.57,55.155l2.341-1.561.383-2.173A11.948,11.948,0,0,1,44,59Z"/>
      <path id="Trazado_1042065" data-name="Trazado 1042065" d="M27,29H37V17h4.869L32,2.2,22.131,17H27ZM25.869,15,32,5.8,38.131,15H35V27H29V15Z"/>
      <path id="Trazado_1042066" data-name="Trazado 1042066" d="M2.725,14.725,6.174,31.972l3.389-3.389,8.506,8.845,7.358-7.358-8.845-8.506,3.389-3.389ZM22.572,30.1,18.1,34.572,9.592,25.727,7.4,27.915,5.275,17.275,15.916,19.4l-2.188,2.189Z"/>
      <path id="Trazado_1042067" data-name="Trazado 1042067" d="M38.572,30.07l7.358,7.358,8.506-8.845,3.389,3.389,3.449-17.247L44.027,18.174l3.389,3.389Zm20.153-12.8L56.6,27.916l-2.189-2.188L45.9,34.573,41.428,30.1l8.845-8.506L48.085,19.4Z"/>
      <path id="Trazado_1042068" data-name="Trazado 1042068" d="M4,7A3,3,0,1,0,1,4,3,3,0,0,0,4,7ZM4,3A1,1,0,1,1,3,4,1,1,0,0,1,4,3Z"/>
      <path id="Trazado_1042069" data-name="Trazado 1042069" d="M12.328,12.379h2v1.9h-2Z" transform="translate(-5.521 13.328) rotate(-45)"/>
      <path id="Trazado_1042070" data-name="Trazado 1042070" d="M9.536,9.536h2v2h-2Z" transform="translate(-4.364 10.536) rotate(-45)"/>
      <path id="Trazado_1042071" data-name="Trazado 1042071" d="M6.707,6.707h2v2h-2Z" transform="translate(-3.192 7.707) rotate(-45)"/>
      <path id="Trazado_1042072" data-name="Trazado 1042072" d="M4,57a3,3,0,1,0,3,3A3,3,0,0,0,4,57Zm0,4a1,1,0,1,1,1-1A1,1,0,0,1,4,61Z"/>
      <path id="Trazado_1042073" data-name="Trazado 1042073" d="M9.536,52.464h2v2h-2Z" transform="translate(-34.719 23.109) rotate(-45)"/>
      <path id="Trazado_1042074" data-name="Trazado 1042074" d="M6.707,55.293h2v2h-2Z" transform="translate(-37.548 21.938) rotate(-45)"/>
      <path id="Trazado_1042075" data-name="Trazado 1042075" d="M12.379,49.672h1.9v2h-1.9Z" transform="translate(-31.927 24.266) rotate(-45)"/>
      <path id="Trazado_1042076" data-name="Trazado 1042076" d="M60,57a3,3,0,1,0,3,3A3,3,0,0,0,60,57Zm0,4a1,1,0,1,1,1-1A1,1,0,0,1,60,61Z"/>
      <path id="Trazado_1042077" data-name="Trazado 1042077" d="M52.464,52.464h2v2h-2Z" transform="translate(-22.146 53.464) rotate(-45)"/>
      <path id="Trazado_1042078" data-name="Trazado 1042078" d="M49.672,49.722h2v1.9h-2Z" transform="translate(-20.989 50.672) rotate(-45)"/>
      <path id="Trazado_1042079" data-name="Trazado 1042079" d="M55.293,55.293h2v2h-2Z" transform="translate(-23.317 56.293) rotate(-45)"/>
      <path id="Trazado_1042080" data-name="Trazado 1042080" d="M60,7a3,3,0,1,0-3-3A3,3,0,0,0,60,7Zm0-4a1,1,0,1,1-1,1A1,1,0,0,1,60,3Z"/>
      <path id="Trazado_1042081" data-name="Trazado 1042081" d="M55.293,6.707h2v2h-2Z" transform="translate(11.038 42.063) rotate(-45)"/>
      <path id="Trazado_1042082" data-name="Trazado 1042082" d="M52.464,9.536h2v2h-2Z" transform="translate(8.21 40.891) rotate(-45)"/>
      <path id="Trazado_1042083" data-name="Trazado 1042083" d="M49.722,12.328h1.9v2h-1.9Z" transform="translate(5.417 39.734) rotate(-45)"/>
      <path id="Trazado_1042084" data-name="Trazado 1042084" d="M60,38a3,3,0,1,0,3,3A3,3,0,0,0,60,38Zm0,4a1,1,0,1,1,1-1A1,1,0,0,1,60,42Z"/>
      <path id="Trazado_1042085" data-name="Trazado 1042085" d="M53,40h2v2H53Z"/>
      <path id="Trazado_1042086" data-name="Trazado 1042086" d="M49,40h2v2H49Z"/>
      <path id="Trazado_1042087" data-name="Trazado 1042087" d="M45,40h2v2H45Z"/>
      <path id="Trazado_1042088" data-name="Trazado 1042088" d="M4,44a3,3,0,1,0-3-3A3,3,0,0,0,4,44Zm0-4a1,1,0,1,1-1,1A1,1,0,0,1,4,40Z"/>
      <path id="Trazado_1042089" data-name="Trazado 1042089" d="M9,40h2v2H9Z"/>
      <path id="Trazado_1042090" data-name="Trazado 1042090" d="M13,40h2v2H13Z"/>
      <path id="Trazado_1042091" data-name="Trazado 1042091" d="M17,40h2v2H17Z"/>
    </g>
  </g>
</svg>
