<svg xmlns="http://www.w3.org/2000/svg" xmlns:xlink="http://www.w3.org/1999/xlink" width="113" height="113" viewBox="0 0 113 113">
  <defs>
    <filter id="Trazado_982547" x="0" y="0" width="113" height="113" filterUnits="userSpaceOnUse">
      <feOffset dy="3" input="SourceAlpha"/>
      <feGaussianBlur stdDeviation="3" result="blur"/>
      <feFlood flood-opacity="0.161"/>
      <feComposite operator="in" in2="blur"/>
      <feComposite in="SourceGraphic"/>
    </filter>
  </defs>
  <g id="Grupo_1185486" data-name="Grupo 1185486" transform="translate(-744.461 -7236.382)">
    <g id="Grupo_1180752" data-name="Grupo 1180752" transform="translate(0 6440.382)">
      <g id="Grupo_1174902" data-name="Grupo 1174902" transform="translate(0.961 -5152.015)">
        <g id="Grupo_1174055" data-name="Grupo 1174055" transform="translate(752.5 5954.015)">
          <g id="Grupo_1172010" data-name="Grupo 1172010">
            <g id="Grupo_1171046" data-name="Grupo 1171046">
              <g id="Grupo_1148525" data-name="Grupo 1148525">
                <g transform="matrix(1, 0, 0, 1, -9, -6)" filter="url(#Trazado_982547)">
                  <g id="Trazado_982547-2" data-name="Trazado 982547" transform="translate(9 6)" fill="#f2f7e5">
                    <path d="M 47.5 93.5 C 41.28937149047852 93.5 35.26533508300781 92.28397369384766 29.59518623352051 89.88570404052734 C 24.11771965026855 87.56893157958984 19.19813346862793 84.25196075439453 14.97309303283691 80.02691650390625 C 10.74804019927979 75.80186462402344 7.431066513061523 70.88229370117188 5.114293098449707 65.40481567382812 C 2.716026782989502 59.73468017578125 1.5 53.71062850952148 1.5 47.5 C 1.5 41.28937149047852 2.716026782989502 35.26533508300781 5.114293098449707 29.59518623352051 C 7.431066513061523 24.11771965026855 10.74804019927979 19.19813346862793 14.97309303283691 14.97309303283691 C 19.19813346862793 10.74804019927979 24.11771965026855 7.431066513061523 29.59518623352051 5.114293098449707 C 35.26533508300781 2.716026782989502 41.28937149047852 1.5 47.5 1.5 C 53.71062850952148 1.5 59.73468017578125 2.716026782989502 65.40481567382812 5.114293098449707 C 70.88229370117188 7.431066513061523 75.80186462402344 10.74804019927979 80.02691650390625 14.97309303283691 C 84.25196075439453 19.19813346862793 87.56893157958984 24.11771965026855 89.88570404052734 29.59518623352051 C 92.28397369384766 35.26533508300781 93.5 41.28937149047852 93.5 47.5 C 93.5 53.71062850952148 92.28397369384766 59.73468017578125 89.88570404052734 65.40481567382812 C 87.56893157958984 70.88229370117188 84.25196075439453 75.80186462402344 80.02691650390625 80.02691650390625 C 75.80186462402344 84.25196075439453 70.88229370117188 87.56893157958984 65.40481567382812 89.88570404052734 C 59.73468017578125 92.28397369384766 53.71062850952148 93.5 47.5 93.5 Z" stroke="none"/>
                    <path d="M 47.5 3 C 41.49121475219727 3 35.66376876831055 4.176155090332031 30.17950439453125 6.495796203613281 C 24.88084411621094 8.736953735351562 20.12152099609375 11.94598388671875 16.03375244140625 16.03375244140625 C 11.94598388671875 20.12152099609375 8.736953735351562 24.88084411621094 6.495796203613281 30.17950439453125 C 4.176155090332031 35.66376876831055 3 41.49121475219727 3 47.5 C 3 53.50878524780273 4.176155090332031 59.33623123168945 6.495796203613281 64.82049560546875 C 8.736953735351562 70.11915588378906 11.94598388671875 74.87847900390625 16.03375244140625 78.96624755859375 C 20.12152099609375 83.05401611328125 24.88084411621094 86.26304626464844 30.17950439453125 88.50419616699219 C 35.66376876831055 90.82384490966797 41.49121475219727 92 47.5 92 C 53.50878524780273 92 59.33623123168945 90.82384490966797 64.82049560546875 88.50419616699219 C 70.11915588378906 86.26304626464844 74.87847900390625 83.05401611328125 78.96624755859375 78.96624755859375 C 83.05401611328125 74.87847900390625 86.26304626464844 70.11915588378906 88.50419616699219 64.82049560546875 C 90.82384490966797 59.33623123168945 92 53.50878524780273 92 47.5 C 92 41.49121475219727 90.82384490966797 35.66376876831055 88.50419616699219 30.17950439453125 C 86.26304626464844 24.88084411621094 83.05401611328125 20.12152099609375 78.96624755859375 16.03375244140625 C 74.87847900390625 11.94598388671875 70.11915588378906 8.736953735351562 64.82049560546875 6.495796203613281 C 59.33623123168945 4.176155090332031 53.50878524780273 3 47.5 3 M 47.5 0 C 73.7335205078125 0 95 21.2664794921875 95 47.5 C 95 73.7335205078125 73.7335205078125 95 47.5 95 C 21.2664794921875 95 0 73.7335205078125 0 47.5 C 0 21.2664794921875 21.2664794921875 0 47.5 0 Z" stroke="none" fill="#86b60c"/>
                  </g>
                </g>
              </g>
            </g>
          </g>
        </g>
      </g>
    </g>
    <g id="equilibrar" transform="translate(768.949 7259.568)">
      <g id="Grupo_1185484" data-name="Grupo 1185484" transform="translate(1.528 0.89)">
        <g id="Grupo_1185481" data-name="Grupo 1185481" transform="translate(15.155 9.371)">
          <path id="Trazado_1042092" data-name="Trazado 1042092" d="M236.938,86.653h3.247v40.964h-3.247Z" transform="translate(-224.827 -86.653)" fill="#f2f2f2"/>
          <path id="Trazado_1042093" data-name="Trazado 1042093" d="M255.295,86.651h2.146v40.964h-2.146Z" transform="translate(-241.01 -86.651)" fill="#e5e5e5"/>
          <path id="Trazado_1042094" data-name="Trazado 1042094" d="M224.785,390.492l-2.4.842-3.042-.842a1.367,1.367,0,0,1-1.363-1.363v-.482a1.367,1.367,0,0,1,1.363-1.363h3.056l2.807.3a1.367,1.367,0,0,1,1.363,1.363C226.564,389.7,225.534,390.492,224.785,390.492Z" transform="translate(-208.11 -351.687)" fill="#e5e5e5"/>
          <path id="Trazado_1042095" data-name="Trazado 1042095" d="M259.681,388.646v.481a1.367,1.367,0,0,1-1.363,1.363l-1.7.618-1.332-.618v-3.207h3.029A1.367,1.367,0,0,1,259.681,388.646Z" transform="translate(-241.006 -351.685)" fill="#d9d8db"/>
          <path id="Trazado_1042096" data-name="Trazado 1042096" d="M181.063,419.038l-11.048,1.286-11.15-1.286a2.867,2.867,0,0,0,2.868-2.868,2.512,2.512,0,0,1,2.512-2.512h5.183l.843.393.84-.393h1.027l3.346.178A2.512,2.512,0,0,1,178,416.348a2.719,2.719,0,0,0,1.079,1.851A2.766,2.766,0,0,0,181.063,419.038Z" transform="translate(-155.998 -374.937)" fill="#6f6571"/>
          <path id="Trazado_1042097" data-name="Trazado 1042097" d="M162.675,462.128l-.032,1.763a.224.224,0,0,1-.224.224l-3.708.352h-8.942l-.84-.544-.843.544h-13.2a.224.224,0,0,1-.224-.224v-2.288a2.865,2.865,0,0,1,2.867-2.867h18.689l3.6.172A2.866,2.866,0,0,1,162.675,462.128Z" transform="translate(-134.657 -414.988)" fill="#807782"/>
          <path id="Trazado_1042098" data-name="Trazado 1042098" d="M278.022,419.038l-1.2.526-2.74-.515-.543-.011a2.867,2.867,0,0,1-2.868-2.868,2.512,2.512,0,0,0-2.512-2.512h4.488a2.512,2.512,0,0,1,2.512,2.512,2.867,2.867,0,0,0,2.868,2.868Z" transform="translate(-252.347 -374.937)" fill="#5d5360"/>
          <path id="Trazado_1042099" data-name="Trazado 1042099" d="M320.941,461.956v2.288a.225.225,0,0,1-.224.224h-4.263v-2.512a2.867,2.867,0,0,0-2.867-2.867h4.488A2.867,2.867,0,0,1,320.941,461.956Z" transform="translate(-292.4 -414.988)" fill="#6f6571"/>
        </g>
        <circle id="Elipse_13358" data-name="Elipse 13358" cx="2.957" cy="2.957" r="2.957" transform="translate(7.98 4.413)" fill="#c3ddff"/>
        <path id="Trazado_1042100" data-name="Trazado 1042100" d="M196.2,14.248l.329-1.478a6.735,6.735,0,1,1,13.142,2.957l-.32,1.437Z" transform="translate(-173.762 -7.511)" fill="#dbe9ff"/>
        <circle id="Elipse_13359" data-name="Elipse 13359" cx="2.914" cy="2.914" r="2.914" transform="translate(26.428 3.822)" fill="#c3ddff"/>
        <circle id="Elipse_13360" data-name="Elipse 13360" cx="2.957" cy="2.957" r="2.957" transform="translate(45.241 12.387)" fill="#c3ddff"/>
        <path id="Trazado_1042101" data-name="Trazado 1042101" d="M102.467,40.557l-2.995-.249L57.8,31.392a1.184,1.184,0,0,1-.91-1.406l.361-1.686a1.184,1.184,0,0,1,1.406-.91l41.677,8.916,2.675.951a1.184,1.184,0,0,1,.91,1.406l-.041.984A1.184,1.184,0,0,1,102.467,40.557Z" transform="translate(-50.916 -25.013)" fill="#807782"/>
        <path id="Trazado_1042102" data-name="Trazado 1042102" d="M421.706,104.972l-.361,1.686a1.183,1.183,0,0,1-1.406.909l-3.2-.686.856-4,3.2.686A1.185,1.185,0,0,1,421.706,104.972Z" transform="translate(-368.18 -91.588)" fill="#6f6571"/>
        <path id="Trazado_1042103" data-name="Trazado 1042103" d="M27.418,170.934a9.75,9.75,0,0,1-10.089,10.13c-4.886,0-8.433-3.024-10.26-7.15A10.654,10.654,0,0,1,24.787,163.43C26.381,165.835,27.418,167.955,27.418,170.934Z" transform="translate(-6.675 -142.28)" fill="#bbec6c"/>
        <path id="Trazado_1042104" data-name="Trazado 1042104" d="M30.909,193.726A10.655,10.655,0,0,1,10,196.6a10.667,10.667,0,0,0,11.031,2.436c.026-.009.091-.249.117-.259.106-.039.172.152.277.11a10.668,10.668,0,0,0,6.294-12.771,10.618,10.618,0,0,1,3.194,7.606Z" transform="translate(-9.604 -164.971)" fill="#a0e254"/>
        <path id="Trazado_1042105" data-name="Trazado 1042105" d="M343.938,238.375c0,5.883-3.656,9.745-9.54,9.745a11.171,11.171,0,0,1-9.481-4.883,10.654,10.654,0,0,1,16-13.285A12.471,12.471,0,0,1,343.938,238.375Z" transform="translate(-286.2 -201.647)" fill="#fe7f86"/>
        <path id="Trazado_1042106" data-name="Trazado 1042106" d="M353.777,254.984a10.654,10.654,0,0,1-20.134,4.862,10.655,10.655,0,0,0,16-13.285A10.633,10.633,0,0,1,353.777,254.984Z" transform="translate(-294.926 -218.255)" fill="#f76d7b"/>
        <g id="Grupo_1185482" data-name="Grupo 1185482" transform="translate(42.597 32.144)">
          <path id="Trazado_1042107" data-name="Trazado 1042107" d="M372.157,288.339a.355.355,0,0,1-.5,0l-1.126-.845-3.208-3.207a3.112,3.112,0,0,1,4.4-4.4l.038.038a.355.355,0,0,0,.5,0l.038-.038a3.112,3.112,0,0,1,3.269-.722,8.8,8.8,0,0,1,1.109.825c1.215,1.215.789,3.106-.426,4.321Z" transform="translate(-366.409 -278.975)" fill="#f2f2f2"/>
        </g>
        <g id="Grupo_1185483" data-name="Grupo 1185483" transform="translate(46.716 32.333)">
          <path id="Trazado_1042108" data-name="Trazado 1042108" d="M407.368,285.693l-4.438,4.439a.357.357,0,0,1-.5,0L401.2,288.9l4.555-4.556a3.113,3.113,0,0,0,.484-3.774,3.112,3.112,0,0,1,1.132,5.122Z" transform="translate(-401.196 -280.571)" fill="#e5e5e5"/>
        </g>
      </g>
      <g id="Grupo_1185485" data-name="Grupo 1185485" transform="translate(0.836 0)">
        <path id="Trazado_1042109" data-name="Trazado 1042109" d="M72.256,202.173a2.55,2.55,0,0,1-1.831-.48.888.888,0,0,0-.972,1.486,4,4,0,0,0,1.977.742v.748a.888.888,0,0,0,1.776,0v-.856a3.37,3.37,0,0,0,2.334-2.648,2.967,2.967,0,0,0-2.017-3.358c-.21-.074-.411-.142-.6-.206a3.718,3.718,0,0,1-1.513-.718,1.191,1.191,0,0,1-.277-1.122,1.02,1.02,0,0,1,.715-.706,1.518,1.518,0,0,1,1.554.348.887.887,0,1,0,1.334-1.17h0a3.448,3.448,0,0,0-1.528-.917v-.834a.888.888,0,0,0-1.776,0v.845a2.934,2.934,0,0,0-2.006,1.94,2.975,2.975,0,0,0,.642,2.78,4.815,4.815,0,0,0,2.291,1.239c.183.061.375.125.575.2a1.184,1.184,0,0,1,.857,1.389A1.544,1.544,0,0,1,72.256,202.173Z" transform="translate(-60.973 -168.908)"/>
        <path id="Trazado_1042110" data-name="Trazado 1042110" d="M55.685,27.739l-4.572-7.919a3.883,3.883,0,0,0,.7-.358,3.819,3.819,0,0,0,1.439-1.7,2.05,2.05,0,0,0,2.306-1.617l.361-1.686A2.074,2.074,0,0,0,54.329,12L38.43,8.6A7.622,7.622,0,0,0,23.575,5.42L9.448,2.4a2.072,2.072,0,0,0-2.46,1.593L6.628,5.677a2.072,2.072,0,0,0,1.593,2.46l.4.085a3.856,3.856,0,0,0,2.224,3.523L6.217,19.769A11.524,11.524,0,0,0,.853,27.426a.888.888,0,1,0,1.743.339,9.764,9.764,0,1,1,.009,3.8.888.888,0,1,0-1.742.348A11.542,11.542,0,1,0,18.141,19.765l-4.52-7.84A3.857,3.857,0,0,0,15.988,9.8l12.031,2.574V38.648a.888.888,0,0,0,1.776,0v-25.9l2.316.5V44.971H29.795V42.793a.888.888,0,0,0-1.776,0v2.181a2.31,2.31,0,0,0-2.243,2.306v.281a2.3,2.3,0,0,0,.065.533h-.912a3.4,3.4,0,0,0-3.4,3.4,1.981,1.981,0,0,1-1.979,1.979,3.759,3.759,0,0,0-3.755,3.755V59.74a.888.888,0,0,0,.888.888H45.224a.888.888,0,0,0,.888-.888V57.228a3.759,3.759,0,0,0-3.755-3.755,1.981,1.981,0,0,1-1.979-1.979,3.4,3.4,0,0,0-3.4-3.4h-.912a2.3,2.3,0,0,0,.065-.533V47.28a2.31,2.31,0,0,0-2.243-2.306V13.628l3.017.645a.888.888,0,0,0,.372-1.737L8.592,6.4a.3.3,0,0,1-.228-.351l.361-1.686a.3.3,0,0,1,.351-.228l44.88,9.6a.3.3,0,0,1,.228.351l-.361,1.686a.3.3,0,0,1-.351.227L41.328,13.4a.888.888,0,1,0-.372,1.737l4.923,1.053a3.848,3.848,0,0,0,2.458,3.626l-4.572,7.919A11.54,11.54,0,1,0,56.178,47.187a.888.888,0,1,0-.994-1.472,9.762,9.762,0,1,1,2.658-2.668.888.888,0,1,0,1.475.989,11.539,11.539,0,0,0-3.632-16.3ZM30.065,58.852H17.57V57.228a1.981,1.981,0,0,1,1.979-1.979H30.065v3.6Zm0-5.379H22.738a3.732,3.732,0,0,0,.566-1.979,1.626,1.626,0,0,1,1.624-1.624h5.137v3.6Zm12.293,1.776a1.981,1.981,0,0,1,1.979,1.979v1.624h-12.5v-3.6ZM36.978,49.87A1.626,1.626,0,0,1,38.6,51.494a3.731,3.731,0,0,0,.566,1.979H31.841v-3.6Zm-2.624-2.59v.281a.54.54,0,0,1-.533.533H28.084a.54.54,0,0,1-.533-.533V47.28a.54.54,0,0,1,.533-.533h5.737A.54.54,0,0,1,34.354,47.28ZM11.292,18.139a11.484,11.484,0,0,0-2.33.425l2.33-4.042Zm4.1.42a11.471,11.471,0,0,0-2.327-.422V14.522ZM14.181,9.412a2.066,2.066,0,0,1-3.754-.8ZM29.119,6.606a2.025,2.025,0,0,1,3.765.805Zm7.566,1.619-2.016-.431a3.8,3.8,0,0,0-7.334-1.569l-2.018-.432A5.847,5.847,0,0,1,36.685,8.225ZM48.837,26.111a11.473,11.473,0,0,0-2.325.422l2.325-4.027Zm.455-7.854a2.071,2.071,0,0,1-1.605-1.677l3.758.8a2.068,2.068,0,0,1-2.152.873Zm1.321,7.854V22.505l2.325,4.027A11.474,11.474,0,0,0,50.613,26.111Z" transform="translate(-0.836 0)"/>
        <path id="Trazado_1042111" data-name="Trazado 1042111" d="M365.4,272.357a4,4,0,0,0-5.318,5.959l4.69,4.69a.888.888,0,0,0,1.256,0l4.69-4.69a4,4,0,0,0-5.318-5.959Zm4.061,4.7-4.062,4.062-4.062-4.062a2.224,2.224,0,0,1,3.145-3.145l.289.289a.888.888,0,0,0,1.256,0l.289-.289a2.224,2.224,0,0,1,3.145,3.145Z" transform="translate(-316.509 -239.343)"/>
      </g>
    </g>
  </g>
</svg>
