<svg xmlns="http://www.w3.org/2000/svg" xmlns:xlink="http://www.w3.org/1999/xlink" width="113" height="113" viewBox="0 0 113 113">
  <defs>
    <filter id="Trazado_982547" x="0" y="0" width="113" height="113" filterUnits="userSpaceOnUse">
      <feOffset dy="3" input="SourceAlpha"/>
      <feGaussianBlur stdDeviation="3" result="blur"/>
      <feFlood flood-opacity="0.161"/>
      <feComposite operator="in" in2="blur"/>
      <feComposite in="SourceGraphic"/>
    </filter>
  </defs>
  <g id="Grupo_1185539" data-name="Grupo 1185539" transform="translate(-199 -8586)">
    <g id="Grupo_1180760" data-name="Grupo 1180760" transform="translate(-0.461 2425)">
      <g id="Grupo_1174888" data-name="Grupo 1174888" transform="translate(218.461 6167)">
        <g id="Grupo_1166845" data-name="Grupo 1166845" transform="translate(-10)">
          <g id="Grupo_1166720" data-name="Grupo 1166720">
            <g id="Grupo_1164305" data-name="Grupo 1164305">
              <g id="Grupo_1163948" data-name="Grupo 1163948">
                <g id="Grupo_1158168" data-name="Grupo 1158168">
                  <g id="Grupo_1152576" data-name="Grupo 1152576">
                    <g id="Grupo_1148633" data-name="Grupo 1148633">
                      <g id="Grupo_1148525" data-name="Grupo 1148525">
                        <g transform="matrix(1, 0, 0, 1, -9, -6)" filter="url(#Trazado_982547)">
                          <g id="Trazado_982547-2" data-name="Trazado 982547" transform="translate(9 6)" fill="#e9f9fd">
                            <path d="M 47.5 93.5 C 41.28937149047852 93.5 35.26533508300781 92.28397369384766 29.59518623352051 89.88570404052734 C 24.11771965026855 87.56893157958984 19.19813346862793 84.25196075439453 14.97309303283691 80.02691650390625 C 10.74804019927979 75.80186462402344 7.431066513061523 70.88229370117188 5.114293098449707 65.40481567382812 C 2.716026782989502 59.73468017578125 1.5 53.71062850952148 1.5 47.5 C 1.5 41.28937149047852 2.716026782989502 35.26533508300781 5.114293098449707 29.59518623352051 C 7.431066513061523 24.11771965026855 10.74804019927979 19.19813346862793 14.97309303283691 14.97309303283691 C 19.19813346862793 10.74804019927979 24.11771965026855 7.431066513061523 29.59518623352051 5.114293098449707 C 35.26533508300781 2.716026782989502 41.28937149047852 1.5 47.5 1.5 C 53.71062850952148 1.5 59.73468017578125 2.716026782989502 65.40481567382812 5.114293098449707 C 70.88229370117188 7.431066513061523 75.80186462402344 10.74804019927979 80.02691650390625 14.97309303283691 C 84.25196075439453 19.19813346862793 87.56893157958984 24.11771965026855 89.88570404052734 29.59518623352051 C 92.28397369384766 35.26533508300781 93.5 41.28937149047852 93.5 47.5 C 93.5 53.71062850952148 92.28397369384766 59.73468017578125 89.88570404052734 65.40481567382812 C 87.56893157958984 70.88229370117188 84.25196075439453 75.80186462402344 80.02691650390625 80.02691650390625 C 75.80186462402344 84.25196075439453 70.88229370117188 87.56893157958984 65.40481567382812 89.88570404052734 C 59.73468017578125 92.28397369384766 53.71062850952148 93.5 47.5 93.5 Z" stroke="none"/>
                            <path d="M 47.5 3 C 41.49121475219727 3 35.66376876831055 4.176155090332031 30.17950439453125 6.495796203613281 C 24.88084411621094 8.736953735351562 20.12152099609375 11.94598388671875 16.03375244140625 16.03375244140625 C 11.94598388671875 20.12152099609375 8.736953735351562 24.88084411621094 6.495796203613281 30.17950439453125 C 4.176155090332031 35.66376876831055 3 41.49121475219727 3 47.5 C 3 53.50878524780273 4.176155090332031 59.33623123168945 6.495796203613281 64.82049560546875 C 8.736953735351562 70.11915588378906 11.94598388671875 74.87847900390625 16.03375244140625 78.96624755859375 C 20.12152099609375 83.05401611328125 24.88084411621094 86.26304626464844 30.17950439453125 88.50419616699219 C 35.66376876831055 90.82384490966797 41.49121475219727 92 47.5 92 C 53.50878524780273 92 59.33623123168945 90.82384490966797 64.82049560546875 88.50419616699219 C 70.11915588378906 86.26304626464844 74.87847900390625 83.05401611328125 78.96624755859375 78.96624755859375 C 83.05401611328125 74.87847900390625 86.26304626464844 70.11915588378906 88.50419616699219 64.82049560546875 C 90.82384490966797 59.33623123168945 92 53.50878524780273 92 47.5 C 92 41.49121475219727 90.82384490966797 35.66376876831055 88.50419616699219 30.17950439453125 C 86.26304626464844 24.88084411621094 83.05401611328125 20.12152099609375 78.96624755859375 16.03375244140625 C 74.87847900390625 11.94598388671875 70.11915588378906 8.736953735351562 64.82049560546875 6.495796203613281 C 59.33623123168945 4.176155090332031 53.50878524780273 3 47.5 3 M 47.5 0 C 73.7335205078125 0 95 21.2664794921875 95 47.5 C 95 73.7335205078125 73.7335205078125 95 47.5 95 C 21.2664794921875 95 0 73.7335205078125 0 47.5 C 0 21.2664794921875 21.2664794921875 0 47.5 0 Z" stroke="none" fill="#1d7083"/>
                          </g>
                        </g>
                      </g>
                    </g>
                  </g>
                </g>
              </g>
            </g>
          </g>
        </g>
      </g>
    </g>
    <g id="busqueda-de-talentos" transform="translate(226.896 8611)">
      <g id="Grupo_1185508" data-name="Grupo 1185508" transform="translate(10.133 0.842)">
        <path id="Trazado_1042127" data-name="Trazado 1042127" d="M108.057,10.663a19.352,19.352,0,0,1,18.6,14.02V7.5H89.452V24.683A19.359,19.359,0,0,1,108.057,10.663Z" transform="translate(-89.452 -7.5)" fill="#eff6ff" fill-rule="evenodd"/>
      </g>
      <g id="Grupo_1185509" data-name="Grupo 1185509" transform="translate(10.133 28.681)">
        <path id="Trazado_1042128" data-name="Trazado 1042128" d="M120.165,265.264A19.355,19.355,0,0,1,89.453,255.5v11.019a.883.883,0,0,1,.643.328l1.222,1.464,1.944,2.332,2.93,1.028,1.836.646a.861.861,0,0,1,.461,1.317l-1.063,1.572L95.7,277.725l-.115,2.994-.041,1.413h31.116V255.5A19.372,19.372,0,0,1,120.165,265.264Z" transform="translate(-89.453 -255.502)" fill="#eff6ff" fill-rule="evenodd"/>
      </g>
      <g id="Grupo_1185510" data-name="Grupo 1185510" transform="translate(29.225 0.842)">
        <path id="Trazado_1042129" data-name="Trazado 1042129" d="M262.2,10.921a19.365,19.365,0,0,1,15.442,13.762V7.5H259.526A25.019,25.019,0,0,1,262.2,10.921Z" transform="translate(-259.526 -7.5)" fill="#d9eeff" fill-rule="evenodd"/>
      </g>
      <g id="Grupo_1185511" data-name="Grupo 1185511" transform="translate(30.978 28.681)">
        <path id="Trazado_1042130" data-name="Trazado 1042130" d="M284.939,265.323a19.389,19.389,0,0,1-3.589,2.262,42.716,42.716,0,0,1-3.589,10.3,30.17,30.17,0,0,1-2.615,4.248h16.361V255.5a19.371,19.371,0,0,1-6.494,9.762Z" transform="translate(-275.145 -255.503)" fill="#d9eeff" fill-rule="evenodd"/>
      </g>
      <g id="Grupo_1185512" data-name="Grupo 1185512" transform="translate(12.138 6.719)">
        <path id="Trazado_1042131" data-name="Trazado 1042131" d="M140.509,76.453a16.6,16.6,0,1,0-28.195,11.878C112.289,96.08,140.509,98.511,140.509,76.453Z" transform="translate(-107.309 -59.856)" fill="#9fd4fe" fill-rule="evenodd"/>
      </g>
      <g id="Grupo_1185513" data-name="Grupo 1185513" transform="translate(18.142 28.083)">
        <path id="Trazado_1042132" data-name="Trazado 1042132" d="M165.972,250.174A6.561,6.561,0,0,0,160.8,256.3a15.111,15.111,0,0,0,8.483,4.168v-6.078l-1.378.932Z" transform="translate(-160.798 -250.174)" fill="#ffd772" fill-rule="evenodd"/>
      </g>
      <g id="Grupo_1185514" data-name="Grupo 1185514" transform="translate(23.316 27.943)">
        <path id="Trazado_1042133" data-name="Trazado 1042133" d="M206.888,249.067l1.931,5.145,1.378-.932,2.113-1.429-3.131-2.924h-.939A6.526,6.526,0,0,0,206.888,249.067Z" transform="translate(-206.888 -248.927)" fill="#eff6ff" fill-rule="evenodd"/>
      </g>
      <g id="Grupo_1185515" data-name="Grupo 1185515" transform="translate(26.625 30.867)">
        <path id="Trazado_1042134" data-name="Trazado 1042134" d="M236.368,276.406v6.078a15.327,15.327,0,0,0,4.226,0v-6.078l-2.113-1.429Z" transform="translate(-236.368 -274.977)" fill="#eb5468" fill-rule="evenodd"/>
      </g>
      <g id="Grupo_1185516" data-name="Grupo 1185516" transform="translate(28.738 27.943)">
        <path id="Trazado_1042135" data-name="Trazado 1042135" d="M255.189,251.851l2.113,1.429,1.375.932,1.935-5.145a6.519,6.519,0,0,0-1.352-.14h-.939Z" transform="translate(-255.189 -248.927)" fill="#eff6ff" fill-rule="evenodd"/>
      </g>
      <g id="Grupo_1185517" data-name="Grupo 1185517" transform="translate(30.851 28.083)">
        <path id="Trazado_1042136" data-name="Trazado 1042136" d="M277.32,250.174l-1.935,5.145-1.375-.932v6.078a15.121,15.121,0,0,0,8.483-4.168A6.564,6.564,0,0,0,277.32,250.174Z" transform="translate(-274.011 -250.174)" fill="#ffd772" fill-rule="evenodd"/>
      </g>
      <g id="Grupo_1185518" data-name="Grupo 1185518" transform="translate(25.607 25.047)">
        <path id="Trazado_1042137" data-name="Trazado 1042137" d="M227.3,223.132v2.9l3.131,2.924,3.131-2.924v-2.9A4.545,4.545,0,0,1,227.3,223.132Z" transform="translate(-227.297 -223.132)" fill="#fed1a3" fill-rule="evenodd"/>
      </g>
      <g id="Grupo_1185519" data-name="Grupo 1185519" transform="translate(22.873 15.189)">
        <path id="Trazado_1042138" data-name="Trazado 1042138" d="M205.681,145.172a4.545,4.545,0,0,0,6.262,0c1.581-1.4,2.733-3.974,2.733-7.723,0-.165-.006-.331-.022-.493-3.7,1.648-8.41.617-11.3-1.642a5.805,5.805,0,0,0-.4,2.135C202.948,141.2,204.1,143.775,205.681,145.172Z" transform="translate(-202.948 -135.314)" fill="#ffe5c1" fill-rule="evenodd"/>
      </g>
      <g id="Grupo_1185520" data-name="Grupo 1185520" transform="translate(23.278 11.46)">
        <path id="Trazado_1042139" data-name="Trazado 1042139" d="M206.548,105.821c2.892,2.259,7.6,3.29,11.3,1.642a5.862,5.862,0,0,0-11.3-1.642Z" transform="translate(-206.548 -102.092)" fill="#375e7d" fill-rule="evenodd"/>
      </g>
      <g id="Grupo_1185521" data-name="Grupo 1185521" transform="translate(9.392 4.005)">
        <path id="Trazado_1042140" data-name="Trazado 1042140" d="M102.193,39.854a15.17,15.17,0,0,1,2.113,30.191,15.322,15.322,0,0,1-4.226,0,15.169,15.169,0,0,1,2.113-30.191Zm0-4.178a19.366,19.366,0,0,0-18.6,24.673v0a19.353,19.353,0,0,0,37.206,0v0a19.347,19.347,0,0,0-18.6-24.673Z" transform="translate(-82.847 -35.676)" fill="#375e7d" fill-rule="evenodd"/>
      </g>
      <g id="Grupo_1185522" data-name="Grupo 1185522" transform="translate(0.946 39.7)">
        <path id="Trazado_1042141" data-name="Trazado 1042141" d="M8.955,362.536l1.6,2.336.118,2.994.054,1.871a.907.907,0,0,0,1.158.837l1.9-.465,3.02-.741,3.023.741,1.9.465a.91.91,0,0,0,1.158-.837l.013-.458.041-1.413.115-2.994,1.728-2.517,1.063-1.572a.861.861,0,0,0-.461-1.317l-1.836-.646-2.93-1.028-1.944-2.332L17.441,354a.791.791,0,0,0-1.282,0l-1.222,1.464-1.947,2.332-2.927,1.028-1.839.646a.861.861,0,0,0-.458,1.317Z" transform="translate(-7.611 -353.668)" fill="#ffd772" fill-rule="evenodd"/>
      </g>
      <g id="Grupo_1185523" data-name="Grupo 1185523" transform="translate(43.298 41.294)">
        <path id="Trazado_1042142" data-name="Trazado 1042142" d="M386.01,368.833a3.573,3.573,0,0,0-.146,5.037l1.941,2.059,3.8-1.168,1.384-3.723-1.941-2.059a3.323,3.323,0,0,0-.56-.48A3.573,3.573,0,0,0,386.01,368.833Z" transform="translate(-384.896 -367.865)" fill="#f5a96c" fill-rule="evenodd"/>
      </g>
      <g id="Grupo_1185524" data-name="Grupo 1185524" transform="translate(48.618 47.025)">
        <path id="Trazado_1042143" data-name="Trazado 1042143" d="M437.476,418.921l-3.8,1.165-1.387,3.723.27.29,1.671,1.772a3.563,3.563,0,0,0,5.183-4.891Z" transform="translate(-432.293 -418.921)" fill="#f5a96c" fill-rule="evenodd"/>
      </g>
      <g id="Grupo_1185525" data-name="Grupo 1185525" transform="translate(0.946 39.7)">
        <path id="Trazado_1042144" data-name="Trazado 1042144" d="M7.765,360.783l1.19,1.753,1.6,2.336.118,2.994.054,1.871a.907.907,0,0,0,1.158.837l1.9-.465,3.02-.741,3.023.741,1.9.465a.91.91,0,0,0,1.158-.837l.013-.458.041-1.413.115-2.994,1.728-2.517,1.063-1.572a.861.861,0,0,0-.461-1.317l-1.836-.646-2.93-1.028-1.944-2.332L17.441,354a.791.791,0,0,0-1.282,0l-1.222,1.464-1.947,2.332-2.927,1.028-1.839.646a.861.861,0,0,0-.458,1.317Z" transform="translate(-7.612 -353.668)" fill="#ffd772" fill-rule="evenodd"/>
      </g>
      <g id="Grupo_1185526" data-name="Grupo 1185526" transform="translate(9.532 39.7)">
        <path id="Trazado_1042145" data-name="Trazado 1042145" d="M85.338,353.995a.883.883,0,0,0-.643-.328.617.617,0,0,0-.108.01c.038.143.073.286.108.433a28.472,28.472,0,0,1,.757,6.692,26.435,26.435,0,0,1-1.359,8.715l.6-.15,3.023.741,1.9.465a.91.91,0,0,0,1.158-.837l.013-.458.041-1.413.114-2.994,1.728-2.517,1.063-1.572a.861.861,0,0,0-.461-1.317l-1.836-.646-2.93-1.028-1.944-2.332Z" transform="translate(-84.094 -353.667)" fill="#fbba58" fill-rule="evenodd"/>
      </g>
      <g id="Grupo_1185527" data-name="Grupo 1185527" transform="translate(43.597 41.294)">
        <path id="Trazado_1042146" data-name="Trazado 1042146" d="M393.338,372.942l2.017-1.9-1.941-2.059a3.319,3.319,0,0,0-.56-.48,3.573,3.573,0,0,0-4.477.334,3.509,3.509,0,0,0-.815,1.155,3.587,3.587,0,0,1,3.274.41,3.49,3.49,0,0,1,.56.484Z" transform="translate(-387.563 -367.866)" fill="#ea9a58" fill-rule="evenodd"/>
      </g>
      <g id="Grupo_1185528" data-name="Grupo 1185528" transform="translate(51.784 47.025)">
        <path id="Trazado_1042147" data-name="Trazado 1042147" d="M462.514,418.921l-2.017,1.9,1.944,2.062a3.574,3.574,0,0,1,.665,3.879,3.485,3.485,0,0,0,1.2-.745,3.573,3.573,0,0,0,.146-5.037Z" transform="translate(-460.497 -418.921)" fill="#ea9a58" fill-rule="evenodd"/>
      </g>
      <g id="Grupo_1185529" data-name="Grupo 1185529" transform="translate(27.72 11.46)">
        <path id="Trazado_1042148" data-name="Trazado 1042148" d="M246.119,102.181a5.884,5.884,0,0,1,3.43,5.333c0,.255,0,.5-.013.745a9.575,9.575,0,0,0,3.443-.8,5.883,5.883,0,0,0-5.842-5.371A5.971,5.971,0,0,0,246.119,102.181Z" transform="translate(-246.119 -102.092)" fill="#2b4d66" fill-rule="evenodd"/>
      </g>
      <g id="Grupo_1185530" data-name="Grupo 1185530" transform="translate(26.491 16.831)">
        <path id="Trazado_1042149" data-name="Trazado 1042149" d="M243.265,149.941a9.578,9.578,0,0,1-3.443.8c-.2,4.7-2.288,7.382-4.646,8.057a4.51,4.51,0,0,0,5.377-.636c1.581-1.4,2.733-3.974,2.733-7.723C243.288,150.269,243.281,150.1,243.265,149.941Z" transform="translate(-235.177 -149.941)" fill="#fed1a3" fill-rule="evenodd"/>
      </g>
      <g id="Grupo_1185531" data-name="Grupo 1185531" transform="translate(25.607 25.047)">
        <path id="Trazado_1042150" data-name="Trazado 1042150" d="M227.3,224.579a4.582,4.582,0,0,0,4.038,1.152c.655-.14.573.029.573.7v1.133l1.651-1.54v-2.9a4.51,4.51,0,0,1-5.377.636,5.292,5.292,0,0,1-.885-.636Z" transform="translate(-227.297 -223.131)" fill="#ffbc85" fill-rule="evenodd"/>
      </g>
      <g id="Grupo_1185532" data-name="Grupo 1185532" transform="translate(33.361 28.083)">
        <path id="Trazado_1042151" data-name="Trazado 1042151" d="M296.376,252.3a6.565,6.565,0,0,1,4.261,5.435,15.072,15.072,0,0,0,1.712-1.441,6.564,6.564,0,0,0-5.174-6.122Z" transform="translate(-296.376 -250.174)" fill="#fbba58" fill-rule="evenodd"/>
      </g>
      <g id="Grupo_1185533" data-name="Grupo 1185533" transform="translate(30.119 27.943)">
        <path id="Trazado_1042152" data-name="Trazado 1042152" d="M269.286,250.7a6.473,6.473,0,0,1,1.448.493l.8-2.129a6.524,6.524,0,0,0-1.352-.14h-.939l-1.651,1.54-.1.092h.442A6.519,6.519,0,0,1,269.286,250.7Z" transform="translate(-267.491 -248.927)" fill="#d9eeff" fill-rule="evenodd"/>
      </g>
      <g id="Grupo_1185534" data-name="Grupo 1185534" transform="translate(46.206 44.467)">
        <path id="Trazado_1042153" data-name="Trazado 1042153" d="M415.99,396.13l-5.183,4.891,2.412,2.555,5.183-4.888Z" transform="translate(-410.807 -396.13)" fill="#eb5468" fill-rule="evenodd"/>
      </g>
      <g id="Grupo_1185535" data-name="Grupo 1185535" transform="translate(49.372 44.467)">
        <path id="Trazado_1042154" data-name="Trazado 1042154" d="M441.028,396.13l-2.017,1.9,2.412,2.555,2.017-1.9Z" transform="translate(-439.011 -396.13)" fill="#e5384f" fill-rule="evenodd"/>
      </g>
      <g id="Grupo_1185536" data-name="Grupo 1185536" transform="translate(28.044 8.183)">
        <path id="Trazado_1042155" data-name="Trazado 1042155" d="M260.28,87.574a15.139,15.139,0,0,1-1.772,7.125,6.521,6.521,0,0,1,1.791,4.219A15.169,15.169,0,0,0,249.7,72.9c-.232,0-.465.006-.694.016A15.177,15.177,0,0,1,260.28,87.574Z" transform="translate(-249.01 -72.895)" fill="#85beef" fill-rule="evenodd"/>
      </g>
      <g id="Grupo_1185537" data-name="Grupo 1185537" transform="translate(24.184 4.005)">
        <path id="Trazado_1042156" data-name="Trazado 1042156" d="M234.348,55.023a15.127,15.127,0,0,1-4.572,10.854c-.261.255-.528.5-.8.732a19.31,19.31,0,0,1-14.344,7.223,19.358,19.358,0,0,0,23.155-13.479v0a19.347,19.347,0,0,0-18.6-24.673c-.248,0-.5.006-.745.016A19.386,19.386,0,0,1,231.065,45.6,15.1,15.1,0,0,1,234.348,55.023Z" transform="translate(-214.627 -35.676)" fill="#2b4d66" fill-rule="evenodd"/>
      </g>
      <g id="Grupo_1185538" data-name="Grupo 1185538" transform="translate(0.103 0)">
        <path id="Trazado_1042157" data-name="Trazado 1042157" d="M228.272,415.6a.842.842,0,1,0,0-1.684h-5.365a.842.842,0,1,0,0,1.684Z" transform="translate(-197.15 -367.452)"/>
        <path id="Trazado_1042158" data-name="Trazado 1042158" d="M195.448,448.234a.842.842,0,0,0,.842.842h11.728a.842.842,0,1,0,0-1.684H196.29A.842.842,0,0,0,195.448,448.234Z" transform="translate(-173.52 -397.171)"/>
        <path id="Trazado_1042159" data-name="Trazado 1042159" d="M56.355,48.507,50.061,41.83a4.378,4.378,0,0,0-1.88-1.176V28.789a20.224,20.224,0,0,0,0-10.875V.842A.842.842,0,0,0,47.339,0h-27.2a.842.842,0,0,0,0,1.684H46.5V13.758a20.181,20.181,0,0,0-35.522.006V1.684h5.2a.842.842,0,1,0,0-1.684H10.133a.842.842,0,0,0-.842.842V17.926a20.224,20.224,0,0,0,0,10.851V39.107a1.964,1.964,0,0,0-.424.358l-.02.023L5.827,43.106,1.279,44.7l-.039.015A1.775,1.775,0,0,0,.184,45.8a1.722,1.722,0,0,0,.2,1.455l.02.03,1.19,1.753,0,0,1.461,2.136.108,2.743.054,1.871c0,.014,0,.029,0,.043a1.727,1.727,0,0,0,1.753,1.637,2.064,2.064,0,0,0,.413-.043l.032-.007,4.716-1.157,4.719,1.157.031.007a1.818,1.818,0,0,0,1.476-.3A1.719,1.719,0,0,0,17,56.153H36.724a.842.842,0,0,0,0-1.684H17.09l.015-.539.105-2.751L18.8,48.858l1.063-1.572.019-.029a1.72,1.72,0,0,0,.2-1.455,1.777,1.777,0,0,0-1.059-1.084l-.037-.014-4.548-1.6-3.018-3.618-.022-.025a1.975,1.975,0,0,0-.425-.357V32.938a20.168,20.168,0,0,0,29.707,6.678l2.6,2.665a4.42,4.42,0,0,0,.372,5.6l1.941,2.059h0l.013.013.891.945v3.576H40.686a.842.842,0,1,0,0,1.684h6.653a.842.842,0,0,0,.842-.842V52.679l1.766,1.873a4.405,4.405,0,0,0,6.408-6.046ZM13.3,44.363a.841.841,0,0,0,.368.255l4.742,1.665a.063.063,0,0,1,.039.1l-1.031,1.525-1.728,2.517a.842.842,0,0,0-.147.444l-.115,3-.053,1.841a.092.092,0,0,1-.137.069l-4.9-1.2a.844.844,0,0,0-.4,0l-4.9,1.2a.111.111,0,0,1-.137-.066l-.054-1.852-.118-2.994a.841.841,0,0,0-.146-.442l-1.6-2.334L1.809,46.362c-.009-.016-.018-.058.052-.078L6.6,44.618a.84.84,0,0,0,.367-.255l3.157-3.782a.015.015,0,0,1,.015,0Zm15.442-2.507a18.5,18.5,0,1,1,18.5-18.5,18.525,18.525,0,0,1-18.5,18.5ZM42,38.558a20.323,20.323,0,0,0,4.5-5.614v7.522a4.384,4.384,0,0,0-1.99.662Zm4.239,9.61-1.364-1.446a2.731,2.731,0,0,1,.112-3.846h0a2.724,2.724,0,0,1,3.846.112L50.2,44.432ZM47.4,49.392l3.958-3.735,1.257,1.333-3.959,3.733Zm7.622,4.116a2.727,2.727,0,0,1-3.847-.111l-1.365-1.448,3.96-3.734,1.364,1.447A2.724,2.724,0,0,1,55.019,53.508Z" transform="translate(-0.103 0)"/>
        <path id="Trazado_1042160" data-name="Trazado 1042160" d="M128.576,65.4a16.01,16.01,0,1,0,16.01,16.01A16.028,16.028,0,0,0,128.576,65.4Zm-2.955,30.03a14.3,14.3,0,0,1-6.77-3.51,5.762,5.762,0,0,1,3.788-4.753l1.658,4.416a.842.842,0,0,0,1.26.4l.064-.043v3.489Zm-.123-5.438-1.18-3.143c.063,0,.794,0,.794,0l2.116,1.977Zm2.828-13.626a12.767,12.767,0,0,0,2.1.178,10.99,10.99,0,0,0,3.152-.448c-.212,5.091-2.693,7.42-5.006,7.42-2.419,0-5.022-2.545-5.022-8.131a5.038,5.038,0,0,1,.059-.768A13.213,13.213,0,0,0,128.326,76.361Zm-4.155-3.393a5.021,5.021,0,0,1,9.32,1.38A10.981,10.981,0,0,1,124.172,72.969Zm6.693,11.7v.966l-2.289,2.138-2.289-2.138v-.966a5.222,5.222,0,0,0,4.578,0Zm-1.018,11.009c-.419.037-.843.057-1.271.057s-.852-.02-1.271-.057V90.8l1.271-.859,1.271.861v4.876Zm2.192-8.836s.732,0,.794,0l-1.182,3.143-1.729-1.171Zm-.508,8.586V91.939l.061.041a.842.842,0,0,0,1.26-.4l1.66-4.416a5.769,5.769,0,0,1,3.789,4.753,14.3,14.3,0,0,1-6.77,3.51Zm8.177-5.012a7.4,7.4,0,0,0-7.062-5.258h-.1V83.474c1.587-1.565,2.733-4.223,2.733-8.095a6.706,6.706,0,1,0-13.412,0c0,3.871,1.146,6.53,2.733,8.095v1.682h-.1a7.4,7.4,0,0,0-7.063,5.257,14.326,14.326,0,1,1,22.264,0Z" transform="translate(-99.942 -58.055)"/>
      </g>
    </g>
  </g>
</svg>
