<svg xmlns="http://www.w3.org/2000/svg" xmlns:xlink="http://www.w3.org/1999/xlink" width="113" height="113" viewBox="0 0 113 113">
  <defs>
    <filter id="Trazado_982547" x="0" y="0" width="113" height="113" filterUnits="userSpaceOnUse">
      <feOffset dy="3" input="SourceAlpha"/>
      <feGaussianBlur stdDeviation="3" result="blur"/>
      <feFlood flood-opacity="0.161"/>
      <feComposite operator="in" in2="blur"/>
      <feComposite in="SourceGraphic"/>
    </filter>
  </defs>
  <g id="Grupo_1185542" data-name="Grupo 1185542" transform="translate(-153 -10819)">
    <g id="Grupo_1180797" data-name="Grupo 1180797" transform="translate(162 10825)">
      <g id="Grupo_1174888" data-name="Grupo 1174888">
        <g id="Grupo_1166845" data-name="Grupo 1166845">
          <g id="Grupo_1166720" data-name="Grupo 1166720">
            <g id="Grupo_1164305" data-name="Grupo 1164305">
              <g id="Grupo_1163948" data-name="Grupo 1163948">
                <g id="Grupo_1158168" data-name="Grupo 1158168">
                  <g id="Grupo_1152576" data-name="Grupo 1152576">
                    <g id="Grupo_1148633" data-name="Grupo 1148633">
                      <g id="Grupo_1148525" data-name="Grupo 1148525">
                        <g transform="matrix(1, 0, 0, 1, -9, -6)" filter="url(#Trazado_982547)">
                          <g id="Trazado_982547-2" data-name="Trazado 982547" transform="translate(9 6)" fill="#f2f7e5">
                            <path d="M 47.5 93.5 C 41.28937149047852 93.5 35.26533508300781 92.28397369384766 29.59518623352051 89.88570404052734 C 24.11771965026855 87.56893157958984 19.19813346862793 84.25196075439453 14.97309303283691 80.02691650390625 C 10.74804019927979 75.80186462402344 7.431066513061523 70.88229370117188 5.114293098449707 65.40481567382812 C 2.716026782989502 59.73468017578125 1.5 53.71062850952148 1.5 47.5 C 1.5 41.28937149047852 2.716026782989502 35.26533508300781 5.114293098449707 29.59518623352051 C 7.431066513061523 24.11771965026855 10.74804019927979 19.19813346862793 14.97309303283691 14.97309303283691 C 19.19813346862793 10.74804019927979 24.11771965026855 7.431066513061523 29.59518623352051 5.114293098449707 C 35.26533508300781 2.716026782989502 41.28937149047852 1.5 47.5 1.5 C 53.71062850952148 1.5 59.73468017578125 2.716026782989502 65.40481567382812 5.114293098449707 C 70.88229370117188 7.431066513061523 75.80186462402344 10.74804019927979 80.02691650390625 14.97309303283691 C 84.25196075439453 19.19813346862793 87.56893157958984 24.11771965026855 89.88570404052734 29.59518623352051 C 92.28397369384766 35.26533508300781 93.5 41.28937149047852 93.5 47.5 C 93.5 53.71062850952148 92.28397369384766 59.73468017578125 89.88570404052734 65.40481567382812 C 87.56893157958984 70.88229370117188 84.25196075439453 75.80186462402344 80.02691650390625 80.02691650390625 C 75.80186462402344 84.25196075439453 70.88229370117188 87.56893157958984 65.40481567382812 89.88570404052734 C 59.73468017578125 92.28397369384766 53.71062850952148 93.5 47.5 93.5 Z" stroke="none"/>
                            <path d="M 47.5 3 C 41.49121475219727 3 35.66376876831055 4.176155090332031 30.17950439453125 6.495796203613281 C 24.88084411621094 8.736953735351562 20.12152099609375 11.94598388671875 16.03375244140625 16.03375244140625 C 11.94598388671875 20.12152099609375 8.736953735351562 24.88084411621094 6.495796203613281 30.17950439453125 C 4.176155090332031 35.66376876831055 3 41.49121475219727 3 47.5 C 3 53.50878524780273 4.176155090332031 59.33623123168945 6.495796203613281 64.82049560546875 C 8.736953735351562 70.11915588378906 11.94598388671875 74.87847900390625 16.03375244140625 78.96624755859375 C 20.12152099609375 83.05401611328125 24.88084411621094 86.26304626464844 30.17950439453125 88.50419616699219 C 35.66376876831055 90.82384490966797 41.49121475219727 92 47.5 92 C 53.50878524780273 92 59.33623123168945 90.82384490966797 64.82049560546875 88.50419616699219 C 70.11915588378906 86.26304626464844 74.87847900390625 83.05401611328125 78.96624755859375 78.96624755859375 C 83.05401611328125 74.87847900390625 86.26304626464844 70.11915588378906 88.50419616699219 64.82049560546875 C 90.82384490966797 59.33623123168945 92 53.50878524780273 92 47.5 C 92 41.49121475219727 90.82384490966797 35.66376876831055 88.50419616699219 30.17950439453125 C 86.26304626464844 24.88084411621094 83.05401611328125 20.12152099609375 78.96624755859375 16.03375244140625 C 74.87847900390625 11.94598388671875 70.11915588378906 8.736953735351562 64.82049560546875 6.495796203613281 C 59.33623123168945 4.176155090332031 53.50878524780273 3 47.5 3 M 47.5 0 C 73.7335205078125 0 95 21.2664794921875 95 47.5 C 95 73.7335205078125 73.7335205078125 95 47.5 95 C 21.2664794921875 95 0 73.7335205078125 0 47.5 C 0 21.2664794921875 21.2664794921875 0 47.5 0 Z" stroke="none" fill="#86b60c"/>
                          </g>
                        </g>
                      </g>
                    </g>
                  </g>
                </g>
              </g>
            </g>
          </g>
        </g>
      </g>
    </g>
    <g id="reclutamiento" transform="translate(174.5 10839.5)">
      <g id="color" transform="translate(2.669 11.684)">
        <path id="Trazado_1042161" data-name="Trazado 1042161" d="M25.127,30.692H2A11.7,11.7,0,0,1,13.692,19a10.729,10.729,0,0,1,1.239.07,20.546,20.546,0,0,0,6.057,8.816,19.407,19.407,0,0,0,4.139,2.806Z" transform="translate(-2 9.061)" fill="#43b3ff"/>
        <path id="Trazado_1042162" data-name="Trazado 1042162" d="M11.515,25.576a6.4,6.4,0,0,1-1.169.117,5.846,5.846,0,0,1,0-11.692,3.783,3.783,0,0,1,.514.023,21.834,21.834,0,0,0-.514,4.653A20.448,20.448,0,0,0,11.515,25.576Z" transform="translate(1.346 2.369)" fill="#43b3ff"/>
        <path id="Trazado_1042163" data-name="Trazado 1042163" d="M43.237,30.692H20.11a19.261,19.261,0,0,0,4.139-2.806,20.546,20.546,0,0,0,6.057-8.816A10.73,10.73,0,0,1,31.545,19,11.7,11.7,0,0,1,43.237,30.692Z" transform="translate(22.239 9.061)" fill="#f45151"/>
        <path id="Trazado_1042164" data-name="Trazado 1042164" d="M25.669,25.693a6.4,6.4,0,0,1-1.169-.117,20.448,20.448,0,0,0,1.169-6.9,21.835,21.835,0,0,0-.514-4.653A3.783,3.783,0,0,1,25.669,14a5.846,5.846,0,0,1,0,11.692Z" transform="translate(28.115 2.369)" fill="#f45151"/>
        <path id="Trazado_1042165" data-name="Trazado 1042165" d="M49.092,28.046a20.448,20.448,0,0,1-1.169,6.9,1.606,1.606,0,0,1-.07.187A20.546,20.546,0,0,1,41.8,43.947,13.273,13.273,0,0,0,40,39.411a14.028,14.028,0,0,0-11.949-6.688,7.006,7.006,0,1,0-4.963-2.052,7.015,7.015,0,0,0,4.963,2.052A14.028,14.028,0,0,0,16.1,39.411a13.273,13.273,0,0,0-1.8,4.537,20.546,20.546,0,0,1-6.057-8.816,1.606,1.606,0,0,1-.07-.187A20.448,20.448,0,0,1,7,28.046a21.834,21.834,0,0,1,.514-4.653,21.054,21.054,0,0,1,41.063,0,21.834,21.834,0,0,1,.514,4.653Z" transform="translate(4.692 -7)" fill="#f2f2f2"/>
        <g id="Grupo_1185540" data-name="Grupo 1185540" transform="translate(18.988 11.692)">
          <circle id="Elipse_13361" data-name="Elipse 13361" cx="7.015" cy="7.015" r="7.015" transform="translate(6.735)" fill="#ffc943"/>
          <path id="Trazado_1042166" data-name="Trazado 1042166" d="M37.62,29.225a19.261,19.261,0,0,1-4.139,2.806,20.92,20.92,0,0,1-19.222,0,19.407,19.407,0,0,1-4.139-2.806,13.273,13.273,0,0,1,1.8-4.537,14.019,14.019,0,0,1,23.9,0,13.273,13.273,0,0,1,1.8,4.537Z" transform="translate(-10.12 -3.969)" fill="#ffc943"/>
        </g>
      </g>
      <g id="outline" transform="translate(1.5 3.5)">
        <g id="Grupo_1185541" data-name="Grupo 1185541">
          <path id="Trazado_1042167" data-name="Trazado 1042167" d="M60.812,35.338a6.966,6.966,0,0,0-3.986-12.431A22.236,22.236,0,0,0,35.407,6.5,21.924,21.924,0,0,0,23.553,9.959a1.169,1.169,0,1,0,1.261,1.969A19.6,19.6,0,0,1,35.407,8.838,19.9,19.9,0,0,1,54.485,23.185a6.953,6.953,0,0,0-2.371,12.169,12.63,12.63,0,0,0-4.591,2.9,15.194,15.194,0,0,0-7.36-5.243,8.185,8.185,0,1,0-9.512,0,15.22,15.22,0,0,0-7.359,5.244,12.631,12.631,0,0,0-4.591-2.9,6.953,6.953,0,0,0-2.383-12.172,19.5,19.5,0,0,1,2.3-5.06,1.169,1.169,0,1,0-1.969-1.261,21.807,21.807,0,0,0-2.66,6.046A6.966,6.966,0,0,0,10,35.338,12.871,12.871,0,0,0,1.5,47.423a1.169,1.169,0,0,0,1.169,1.169H19.963l-5.472,7.495a1.169,1.169,0,1,0,1.889,1.379l6.479-8.874h2.687a21.963,21.963,0,0,0,19.723,0H68.145a1.169,1.169,0,0,0,1.169-1.169A12.871,12.871,0,0,0,60.812,35.338Zm.318-5.453a4.667,4.667,0,0,1-4.3,4.639,21.057,21.057,0,0,0,.506-9.227,4.679,4.679,0,0,1,3.8,4.588Zm-6.136-4.421a19.041,19.041,0,0,1-.479,8.665,4.651,4.651,0,0,1,.479-8.665ZM53.259,37.4a19.939,19.939,0,0,1-3.523,5.055,16.083,16.083,0,0,0-.948-2.168A10.349,10.349,0,0,1,53.259,37.4Zm-23.7-11.023a5.846,5.846,0,1,1,5.846,5.846,5.846,5.846,0,0,1-5.846-5.846ZM22.026,40.285a16,16,0,0,0-.948,2.169A19.939,19.939,0,0,1,17.555,37.4a10.353,10.353,0,0,1,4.471,2.888Zm-2.987-10.4A4.674,4.674,0,0,1,16.3,34.129a18.917,18.917,0,0,1-.474-8.664,4.667,4.667,0,0,1,3.213,4.419ZM13.475,25.3a21.278,21.278,0,0,0,.514,9.226,4.661,4.661,0,0,1-.514-9.226ZM3.9,46.253A10.537,10.537,0,0,1,14.361,36.9c.141,0,.281.018.422.024a22.3,22.3,0,0,0,6.941,9.256l-.054.073ZM22.99,44.211a13.442,13.442,0,0,1,1.435-3.534,12.918,12.918,0,0,1,21.949-.024,13.49,13.49,0,0,1,1.45,3.559,19.789,19.789,0,0,1-24.834,0Zm26,2.042a22.3,22.3,0,0,0,7.04-9.33c.142-.006.278-.024.421-.024a10.537,10.537,0,0,1,10.458,9.354Z" transform="translate(-1.5 0.515)"/>
          <path id="Trazado_1042168" data-name="Trazado 1042168" d="M16.669,8.177a1.169,1.169,0,0,0,1.169-1.169V4.669a1.169,1.169,0,0,0-2.338,0V7.008a1.169,1.169,0,0,0,1.169,1.169Z" transform="translate(17.238 -3.5)"/>
          <path id="Trazado_1042169" data-name="Trazado 1042169" d="M10.826,8.886a1.169,1.169,0,0,0,2.026-1.169L11.682,5.693A1.169,1.169,0,0,0,9.657,6.862Z" transform="translate(9.207 -1.348)"/>
          <path id="Trazado_1042170" data-name="Trazado 1042170" d="M5.693,11.682l2.024,1.169a1.169,1.169,0,0,0,1.169-2.026L6.862,9.657a1.169,1.169,0,0,0-1.169,2.026Z" transform="translate(3.329 4.53)"/>
          <path id="Trazado_1042171" data-name="Trazado 1042171" d="M21.585,9.315a1.17,1.17,0,0,0,1.6-.428l1.169-2.024a1.169,1.169,0,0,0-2.026-1.169L21.157,7.717a1.169,1.169,0,0,0,.428,1.6Z" transform="translate(24.599 -1.348)"/>
          <path id="Trazado_1042172" data-name="Trazado 1042172" d="M26.2,13.008a1.163,1.163,0,0,0,.583-.156L28.8,11.682a1.169,1.169,0,0,0-1.169-2.026l-2.024,1.169a1.169,1.169,0,0,0,.586,2.182Z" transform="translate(29.988 4.53)"/>
          <path id="Trazado_1042173" data-name="Trazado 1042173" d="M11.132,11.132a1.169,1.169,0,1,0-1.653,0A1.169,1.169,0,0,0,11.132,11.132Z" transform="translate(8.72 4.043)"/>
        </g>
      </g>
    </g>
  </g>
</svg>
