<svg xmlns="http://www.w3.org/2000/svg" xmlns:xlink="http://www.w3.org/1999/xlink" width="113" height="113" viewBox="0 0 113 113">
  <defs>
    <filter id="Trazado_982547" x="0" y="0" width="113" height="113" filterUnits="userSpaceOnUse">
      <feOffset dy="3" input="SourceAlpha"/>
      <feGaussianBlur stdDeviation="3" result="blur"/>
      <feFlood flood-opacity="0.161"/>
      <feComposite operator="in" in2="blur"/>
      <feComposite in="SourceGraphic"/>
    </filter>
  </defs>
  <g id="Grupo_1185225" data-name="Grupo 1185225" transform="translate(-744 -1201)">
    <g id="Grupo_1180713" data-name="Grupo 1180713" transform="translate(-0.461 405)">
      <g id="Grupo_1174902" data-name="Grupo 1174902" transform="translate(0.961 -5152.015)">
        <g id="Grupo_1174055" data-name="Grupo 1174055" transform="translate(752.5 5954.015)">
          <g id="Grupo_1172010" data-name="Grupo 1172010">
            <g id="Grupo_1171046" data-name="Grupo 1171046">
              <g id="Grupo_1148525" data-name="Grupo 1148525">
                <g transform="matrix(1, 0, 0, 1, -9, -6)" filter="url(#Trazado_982547)">
                  <g id="Trazado_982547-2" data-name="Trazado 982547" transform="translate(9 6)" fill="#f2f7e5">
                    <path d="M 47.5 93.5 C 41.28937149047852 93.5 35.26533508300781 92.28397369384766 29.59518623352051 89.88570404052734 C 24.11771965026855 87.56893157958984 19.19813346862793 84.25196075439453 14.97309303283691 80.02691650390625 C 10.74804019927979 75.80186462402344 7.431066513061523 70.88229370117188 5.114293098449707 65.40481567382812 C 2.716026782989502 59.73468017578125 1.5 53.71062850952148 1.5 47.5 C 1.5 41.28937149047852 2.716026782989502 35.26533508300781 5.114293098449707 29.59518623352051 C 7.431066513061523 24.11771965026855 10.74804019927979 19.19813346862793 14.97309303283691 14.97309303283691 C 19.19813346862793 10.74804019927979 24.11771965026855 7.431066513061523 29.59518623352051 5.114293098449707 C 35.26533508300781 2.716026782989502 41.28937149047852 1.5 47.5 1.5 C 53.71062850952148 1.5 59.73468017578125 2.716026782989502 65.40481567382812 5.114293098449707 C 70.88229370117188 7.431066513061523 75.80186462402344 10.74804019927979 80.02691650390625 14.97309303283691 C 84.25196075439453 19.19813346862793 87.56893157958984 24.11771965026855 89.88570404052734 29.59518623352051 C 92.28397369384766 35.26533508300781 93.5 41.28937149047852 93.5 47.5 C 93.5 53.71062850952148 92.28397369384766 59.73468017578125 89.88570404052734 65.40481567382812 C 87.56893157958984 70.88229370117188 84.25196075439453 75.80186462402344 80.02691650390625 80.02691650390625 C 75.80186462402344 84.25196075439453 70.88229370117188 87.56893157958984 65.40481567382812 89.88570404052734 C 59.73468017578125 92.28397369384766 53.71062850952148 93.5 47.5 93.5 Z" stroke="none"/>
                    <path d="M 47.5 3 C 41.49121475219727 3 35.66376876831055 4.176155090332031 30.17950439453125 6.495796203613281 C 24.88084411621094 8.736953735351562 20.12152099609375 11.94598388671875 16.03375244140625 16.03375244140625 C 11.94598388671875 20.12152099609375 8.736953735351562 24.88084411621094 6.495796203613281 30.17950439453125 C 4.176155090332031 35.66376876831055 3 41.49121475219727 3 47.5 C 3 53.50878524780273 4.176155090332031 59.33623123168945 6.495796203613281 64.82049560546875 C 8.736953735351562 70.11915588378906 11.94598388671875 74.87847900390625 16.03375244140625 78.96624755859375 C 20.12152099609375 83.05401611328125 24.88084411621094 86.26304626464844 30.17950439453125 88.50419616699219 C 35.66376876831055 90.82384490966797 41.49121475219727 92 47.5 92 C 53.50878524780273 92 59.33623123168945 90.82384490966797 64.82049560546875 88.50419616699219 C 70.11915588378906 86.26304626464844 74.87847900390625 83.05401611328125 78.96624755859375 78.96624755859375 C 83.05401611328125 74.87847900390625 86.26304626464844 70.11915588378906 88.50419616699219 64.82049560546875 C 90.82384490966797 59.33623123168945 92 53.50878524780273 92 47.5 C 92 41.49121475219727 90.82384490966797 35.66376876831055 88.50419616699219 30.17950439453125 C 86.26304626464844 24.88084411621094 83.05401611328125 20.12152099609375 78.96624755859375 16.03375244140625 C 74.87847900390625 11.94598388671875 70.11915588378906 8.736953735351562 64.82049560546875 6.495796203613281 C 59.33623123168945 4.176155090332031 53.50878524780273 3 47.5 3 M 47.5 0 C 73.7335205078125 0 95 21.2664794921875 95 47.5 C 95 73.7335205078125 73.7335205078125 95 47.5 95 C 21.2664794921875 95 0 73.7335205078125 0 47.5 C 0 21.2664794921875 21.2664794921875 0 47.5 0 Z" stroke="none" fill="#86b60c"/>
                  </g>
                </g>
              </g>
            </g>
          </g>
        </g>
      </g>
    </g>
    <g id="triangulo" transform="translate(747.506 1222.999)">
      <path id="Trazado_1041795" data-name="Trazado 1041795" d="M60.625,16.8c-1.056-2.416-4.961-6.848-9.186-9.1A1.761,1.761,0,0,0,48.878,9a4.047,4.047,0,0,0-.073,1.194c-3.737-1.008-7.325,1.166-10.948,2.446a1.186,1.186,0,0,0-.723.723c-1.28,3.622-3.454,7.211-2.446,10.948a4.042,4.042,0,0,0-1.194.073A1.761,1.761,0,0,0,32.2,26.944c2.251,4.225,6.683,8.131,9.1,9.186Z" transform="translate(-6.576 -6.574)" fill="#4b5165"/>
      <path id="Trazado_1041796" data-name="Trazado 1041796" d="M266.173,268.149c-.474-2.371-5.435-16.014-7.374-20.07a7.49,7.49,0,0,0-1.933-6.381c-3.248-3.248-9.285-2.478-13.483,1.72s-4.968,10.235-1.72,13.483c.052.052.107.1.161.151-2.295,4.212-4.868,9.445-5.262,10.25a3.477,3.477,0,0,0,6.244,3.059c1.171-2.391,4.071-8.172,6.059-11.668a12.523,12.523,0,0,0,5.633-2.908c2.028,5.215,4.6,12.481,4.856,13.728a3.477,3.477,0,1,0,6.818-1.364Z" transform="translate(-185.633 -210.16)" fill="#ffd3bd"/>
      <path id="Trazado_1041797" data-name="Trazado 1041797" d="M276.821,265.67c-1.554-4.8-5.088-14.316-6.653-17.591a7.489,7.489,0,0,0-1.933-6.381c-3.248-3.248-9.285-2.478-13.483,1.72s-4.968,10.235-1.72,13.483c.052.052.107.1.161.151-1.43,2.625-2.969,5.647-4.02,7.746,1.349.344,4.578,1.535,6.191,3.17,1.4-2.795,3.389-6.669,4.871-9.274a12.523,12.523,0,0,0,5.633-2.908c1.519,3.907,3.341,8.964,4.269,11.78C271.2,266.4,274.647,265.239,276.821,265.67Z" transform="translate(-197.003 -210.16)" fill="#4b5165"/>
      <path id="Trazado_1041798" data-name="Trazado 1041798" d="M152.92,264.106a3.523,3.523,0,1,1-5.97-3.741c1.156-1.844,6.041-14.187,6.283-16.213a3.523,3.523,0,0,1,7,.8C159.836,248.395,154.432,261.694,152.92,264.106Z" transform="translate(-106.9 -211.338)" fill="#ffd3bd"/>
      <path id="Trazado_1041799" data-name="Trazado 1041799" d="M280.142,69.135a3.523,3.523,0,0,1-4.869-5.092C276.68,62.7,283.332,53.6,285.66,49.675a3.523,3.523,0,1,1,6.058,3.6C289.8,56.509,282.554,66.825,280.142,69.135Z" transform="translate(-218.931 -42.043)" fill="#ffbe9d"/>
      <path id="Trazado_1041800" data-name="Trazado 1041800" d="M231.578,207.083c1.876-1.875,7.872-8.7,4.61-11.36-5.427-4.432-17.1-9.235-21.154-5.184s.752,15.727,5.184,21.154C222.882,214.956,229.7,208.959,231.578,207.083Z" transform="translate(-165.73 -165.728)" fill="#8eafe2"/>
      <path id="Trazado_1041801" data-name="Trazado 1041801" d="M221.858,197.362a18.9,18.9,0,0,0,4.466-7.009c-4.531-1.592-9.062-2.041-11.289.186s-1.778,6.758-.186,11.289A18.9,18.9,0,0,0,221.858,197.362Z" transform="translate(-165.731 -165.728)" fill="#7c93dd"/>
      <circle id="Elipse_13337" data-name="Elipse 13337" cx="4.445" cy="4.445" r="4.445" transform="translate(30.49 25.572)" fill="#ffd3bd"/>
      <circle id="Elipse_13338" data-name="Elipse 13338" cx="4.445" cy="4.445" r="4.445" transform="translate(50.065 5.997)" fill="#ffbe9d"/>
      <ellipse id="Elipse_13339" data-name="Elipse 13339" cx="13.962" cy="12.151" rx="13.962" ry="12.151" transform="translate(26.696 21.95) rotate(-45)" fill="#ffd3bd"/>
      <path id="Trazado_1041802" data-name="Trazado 1041802" d="M110.708,150.682C97.22,161.216,88.022,148.79,86.935,143.2c-1.707,4.582-.984,9.6,2.322,12.9,4.745,4.745,13.012,4.172,18.465-1.28a15.772,15.772,0,0,0,2.985-4.139Z" transform="translate(-53.967 -125.558)" fill="#ffbe9d"/>
      <g id="Grupo_1185224" data-name="Grupo 1185224" transform="translate(36.323 10.508)">
        <g id="Grupo_1185223" data-name="Grupo 1185223" transform="translate(0 0)">
          <g id="Grupo_1185222" data-name="Grupo 1185222">
            <g id="Grupo_1185220" data-name="Grupo 1185220" transform="translate(0 15.182)">
              <path id="Trazado_1041803" data-name="Trazado 1041803" d="M126.347,209.248c1.125,1.125.891,3.181-.521,4.593s-3.469,1.645-4.593.521-.891-3.181.521-4.593S125.223,208.124,126.347,209.248Z" transform="translate(-120.521 -208.536)" fill="#eda1ab"/>
            </g>
            <g id="Grupo_1185221" data-name="Grupo 1185221" transform="translate(12.531)">
              <ellipse id="Elipse_13340" data-name="Elipse 13340" cx="3.616" cy="2.88" rx="3.616" ry="2.88" transform="translate(0 5.113) rotate(-45)" fill="#eda1ab"/>
            </g>
          </g>
        </g>
      </g>
      <path id="Trazado_1041804" data-name="Trazado 1041804" d="M49.609,12.93A.924.924,0,0,0,48.3,14.237l1.045,1.045a.924.924,0,1,0,1.307-1.307ZM38.73,23.81a.924.924,0,1,0-1.307,1.307l1.045,1.045a.924.924,0,1,0,1.307-1.307Zm42.715,34c-.1-.493-.365-1.4-.745-2.572-1.56-4.818-5.028-14.111-6.587-17.473a8.417,8.417,0,0,0-1.856-6.469,3.437,3.437,0,0,0-1.215-2.013,33.188,33.188,0,0,0-6.879-4.2c3.219-4.067,7.951-10.913,9.417-13.383A4.453,4.453,0,0,0,70.5,5.047a.924.924,0,0,0-.309,1.822,2.6,2.6,0,0,1,1.8,3.889c-1.49,2.51-6.418,9.626-9.584,13.565a32.069,32.069,0,0,0-3.86-1.289,14.918,14.918,0,0,0,.562-2.92c2.495-3.226,6.307-8.565,8.163-11.6A.924.924,0,0,0,65.7,7.553c-1.5,2.453-4.318,6.457-6.641,9.573a12.6,12.6,0,0,0-.729-2.908A5.37,5.37,0,0,0,51.985,5.7,25.709,25.709,0,0,0,45.3.315a2.687,2.687,0,0,0-3.908,1.968c-.012.078-.023.152-.033.223-3.66-.472-7.073,1.518-10.383,2.688A2.1,2.1,0,0,0,29.687,6.48C28.516,9.793,26.527,13.2,27,16.863l-.223.033A2.687,2.687,0,0,0,24.808,20.8,25.707,25.707,0,0,0,30.2,27.494,5.369,5.369,0,0,0,38.7,33.841a13.127,13.127,0,0,0,6.189.756,124.878,124.878,0,0,1-5.625,13.94,4.453,4.453,0,0,0,3.369,6.79.924.924,0,0,0,.165-1.84,2.6,2.6,0,0,1-1.968-3.969c1.11-1.771,5.012-11.588,6.109-15.292q.295-.075.587-.162a35.04,35.04,0,0,0,2.619,6.786A113.977,113.977,0,0,1,45.5,51.813a.924.924,0,1,0,1.628.874c.961-1.79,2.685-5.8,4.184-9.7a29.074,29.074,0,0,0,2.458,3.565,3.459,3.459,0,0,0,1.075.883c-1.579,2.948-3.511,6.775-4.749,9.3A4.4,4.4,0,1,0,58,60.607c1.538-3.139,4.09-8.162,5.833-11.265a13.218,13.218,0,0,0,4.622-2.2c2,5.233,4.146,11.389,4.357,12.4a4.4,4.4,0,1,0,8.63-1.726ZM57,7.953a3.527,3.527,0,0,1,.441,4.442,11.552,11.552,0,0,0-1.752-2.25h0a11.67,11.67,0,0,0-3.454-2.388A3.518,3.518,0,0,1,57,7.953ZM26.438,19.935a.837.837,0,0,1,.62-1.213,4.617,4.617,0,0,1,.856-.084A.924.924,0,0,0,29,17.495c-.914-3.39,1.143-6.77,2.425-10.4a.26.26,0,0,1,.16-.159c3.619-1.279,7.008-3.34,10.4-2.425a.924.924,0,0,0,1.143-1.089,4.572,4.572,0,0,1,.084-.855.837.837,0,0,1,1.213-.62,23.721,23.721,0,0,1,6.1,4.9c-.069.076-.136.155-.2.236-8.785-2.31-18.484,4.944-19.142,14.431a13.342,13.342,0,0,0,.389,4.322q-.121.1-.236.2a23.715,23.715,0,0,1-4.9-6.1Zm6.007,12.573a3.525,3.525,0,0,1-.2-4.765,11.7,11.7,0,0,0,4.635,5.208A3.527,3.527,0,0,1,32.445,32.508Zm3.5-2.618c-4.378-4.378-3.8-12.075,1.28-17.158,4.935-4.935,12.66-5.778,17.158-1.28,4.378,4.378,3.8,12.075-1.28,17.158C48.127,33.584,40.418,34.364,35.944,29.889Zm13.329,3.54a16.813,16.813,0,0,0,8.642-8.651,33.937,33.937,0,0,1,11.959,5.933c2.328,1.9-2.537,7.849-4.679,9.991s-8.09,7.007-9.991,4.679a33.937,33.937,0,0,1-5.931-11.952Zm7.071,26.364a2.553,2.553,0,1,1-4.585-2.246c.092-.188.418-.853.894-1.807a15.8,15.8,0,0,1,4.568,2.282c-.34.681-.638,1.285-.876,1.771ZM73.6,55.9c-1.034-3.029-2.635-7.415-3.878-10.611a.924.924,0,0,0-1.472-.358,11.565,11.565,0,0,1-5.212,2.7.924.924,0,0,0-.613.448c-1.3,2.294-3,5.575-4.365,8.266a17.839,17.839,0,0,0-4.575-2.269c.929-1.84,2.107-4.137,3.238-6.232,3.944-.116,9.175-5.232,9.775-5.832.5-.5,4.135-4.214,5.4-7.721a7.43,7.43,0,0,1,.346,3.514.924.924,0,0,0,.083.515c1.218,2.55,4.444,11.028,6.187,16.181A11.2,11.2,0,0,0,73.6,55.9Zm4.027,5.273a2.551,2.551,0,0,1-3.005-2.01c-.058-.276-.206-.784-.422-1.459a9.22,9.22,0,0,1,4.923-1.352c.252.8.43,1.433.507,1.818A2.551,2.551,0,0,1,77.631,61.174ZM45.9,17.682a.924.924,0,0,0-.858.985,1.764,1.764,0,0,1-1.883,1.883.924.924,0,0,0-.127,1.843,3.612,3.612,0,0,0,3.854-3.853.924.924,0,0,0-.985-.858Z" transform="translate(0 0)"/>
    </g>
  </g>
</svg>
