<svg xmlns="http://www.w3.org/2000/svg" xmlns:xlink="http://www.w3.org/1999/xlink" width="268.333" height="314.081" viewBox="0 0 268.333 314.081">
  <defs>
    <clipPath id="clip-path">
      <rect id="Rectángulo_414538" data-name="Rectángulo 414538" width="252.708" height="314.081" fill="#fff" stroke="#707070" stroke-width="1" opacity="0.62"/>
    </clipPath>
  </defs>
  <g id="Grupo_1180724" data-name="Grupo 1180724" transform="translate(0)">
    <g id="Enmascarar_grupo_1098810" data-name="Enmascarar grupo 1098810" transform="translate(0)" clip-path="url(#clip-path)">
      <g id="Grupo_1173368" data-name="Grupo 1173368" transform="translate(20.453 33.694)">
        <path id="Trazado_1039179" data-name="Trazado 1039179" d="M227.58,339.827a53.792,53.792,0,0,1-75.848-29.089c-3.537-9.726-4.2-20.283-3.671-30.619a140.135,140.135,0,0,1,7.561-38.8c3.841-11.063,9.112-21.8,10.525-33.427,1.152-9.475-.326-19.045-.793-28.579s.212-19.568,5.166-27.727S185.765,137.871,194.783,141c13.3-12.2,39.92-9.341,49.456,5.985,6.387,10.265,6.554,23.9,14.518,32.995,8.8,10.043,24.884,11.865,32.4,22.9,3.175,4.66,4.351,10.379,5.044,15.975C302.116,266.6,270.045,317.2,227.58,339.827Z" transform="translate(-92.556 -132.272)" fill="#272e41"/>
        <path id="Trazado_1039180" data-name="Trazado 1039180" d="M397.357,213.56c.731-.182,1.65-.3,2.106.3a1.956,1.956,0,0,1,.282,1.106,328.842,328.842,0,0,1-1.1,48.115,367.78,367.78,0,0,1-53.5-18.5c-2.9-1.262-5.473-2.861-6.4-6.092a6.379,6.379,0,0,1,2.055-6.9c3.2-2.483,8.451-3.452,12.24-4.778q6.682-2.339,13.427-4.488Q381.767,217.449,397.357,213.56Z" transform="translate(-167.112 -163.574)" fill="#f4b25b"/>
        <path id="Trazado_1039181" data-name="Trazado 1039181" d="M312.243,496.933s62.785-13.78,54.527-51.576-59.88-87.053-59.88-87.053l-38.326,23.212S277.577,477.284,312.243,496.933Z" transform="translate(-139.763 -220.262)" fill="#ba5e2b"/>
        <path id="Trazado_1039182" data-name="Trazado 1039182" d="M183.277,260.023c-14.229,9.729-40.588,21.911-59.645,27.886-2.9.909-11.134,2.992-14.121,2.437-3.566-.663-5.636-4.319-7.161-7.61-8.876-19.144-13.5-53.8-18.393-74.324-.113-1.541-1.045-8.1,2.695-7.922,1.509.071,2.856.906,4.254,1.479,4.7,1.927,10.038.885,15.008-.186,5.4-1.162,6.278-1.572,11.676-2.735,1.63-.351,3.452-.838,4.264-2.293a2.437,2.437,0,0,0-.749-2.943c3.444.068,9.455-1.359,11.418-2.99a1.372,1.372,0,0,0-.616-2.416c0-.017.013-.031.016-.049.108-.612-.609-1.018-1.206-1.191-5.193-1.5-10.726-.485-16.106.054q-.55.055-1.1.1-2.112.184-4.232.267L98.7,187.216c-7.925-.281-16.537-.36-22.9,4.375-6.738,5.013-9,13.992-10.129,22.314-2.453,18.17-3.594,51.745.489,69.62,3.211,14.058,15.751,37.909,29.228,43.037,11.777,4.48,30.105-.082,41.926-4.446,15.484-5.717,36.391-10.979,49.655-18.6,1.494.411,3.38-.767,4.305-2.011a10.241,10.241,0,0,0,1.576-4.329C194.529,288.122,186.173,268.76,183.277,260.023Z" transform="translate(-59.52 -152.999)" fill="#f5ba9c"/>
        <path id="Trazado_1039183" data-name="Trazado 1039183" d="M391.286,408.649a115.181,115.181,0,0,1-93.439-23.574c-9.167-7.5-17.1-16.374-24.982-25.21-7.351-8.237-14.806-16.625-19.5-26.616-10.694-22.738-4.43-51.87,13.721-69.246,11.117-10.642,28.1-17.031,42.571-11.805,7.073,2.554,12.7,7.91,18.276,12.961,13.695,12.414,29.3,24.229,47.616,26.689,4.218.567,8.683.676,12.341,2.85,4.739,2.816,6.983,8.4,8.624,13.659a155.119,155.119,0,0,1,5.669,25.668,167.087,167.087,0,0,1,.844,35.275C402.085,381.12,394.519,397.243,391.286,408.649Z" transform="translate(-131.77 -178.022)" fill="#fff"/>
        <g id="Grupo_1173342" data-name="Grupo 1173342" transform="translate(79.97 12.193)">
          <g id="Grupo_1173297" data-name="Grupo 1173297" transform="translate(0 31.504)">
            <g id="Grupo_1173291" data-name="Grupo 1173291" transform="translate(0)">
              <path id="Trazado_1039184" data-name="Trazado 1039184" d="M190.295,215.442c2.783,3.593,7.531,4.575,10.6,2.194s3.309-7.224.526-10.816-7.531-4.575-10.6-2.194S187.511,211.849,190.295,215.442Z" transform="translate(-188.352 -203.326)" fill="#f5ba9c"/>
            </g>
            <g id="Grupo_1173292" data-name="Grupo 1173292" transform="translate(5.052 4.096)">
              <path id="Trazado_1039185" data-name="Trazado 1039185" d="M197.785,217.128c1.625,2.1,4.4,2.671,6.192,1.281s1.932-4.218.307-6.316-4.4-2.672-6.192-1.281S196.16,215.03,197.785,217.128Z" transform="translate(-196.651 -210.053)" fill="#ec766e"/>
            </g>
            <g id="Grupo_1173294" data-name="Grupo 1173294" transform="translate(4.764 4.17)">
              <g id="Grupo_1173293" data-name="Grupo 1173293">
                <path id="Trazado_1039186" data-name="Trazado 1039186" d="M199.62,210.679a3.055,3.055,0,0,0-2.5,1.636A3.7,3.7,0,0,0,197,215.59c.857,2.033,3.357,3.9,5.619,3.05.3-.113.413.377.114.49-2.582.969-5.464-1.257-6.3-3.626a4.14,4.14,0,0,1,.351-3.618,3.53,3.53,0,0,1,2.853-1.711c.324-.01.3.493-.02.5Z" transform="translate(-196.177 -210.176)" fill="#2f383c"/>
              </g>
            </g>
            <g id="Grupo_1173296" data-name="Grupo 1173296" transform="translate(5.394 9.014)">
              <g id="Grupo_1173295" data-name="Grupo 1173295">
                <path id="Trazado_1039187" data-name="Trazado 1039187" d="M197.274,219.375a3.708,3.708,0,0,1,3.293-1.214,6.328,6.328,0,0,1,3.316,1.625c.245.211-.122.555-.365.346a5.742,5.742,0,0,0-2.971-1.468,3.246,3.246,0,0,0-2.927,1.078c-.205.25-.548-.119-.346-.366Z" transform="translate(-197.212 -218.132)" fill="#2f383c"/>
              </g>
            </g>
          </g>
          <g id="Grupo_1173299" data-name="Grupo 1173299" transform="translate(30.161 50.642)">
            <g id="Grupo_1173298" data-name="Grupo 1173298">
              <path id="Trazado_1039188" data-name="Trazado 1039188" d="M268.1,272.433h0c5.214-1.211,10.362-6.791,7.247-11.634l-18.567-26.036L237.9,239.15l18.567,26.036C260.355,270.644,262.883,273.644,268.1,272.433Z" transform="translate(-237.896 -234.763)" fill="#f5ba9c"/>
            </g>
          </g>
          <g id="Grupo_1173301" data-name="Grupo 1173301" transform="translate(37.052 53.581)">
            <g id="Grupo_1173300" data-name="Grupo 1173300">
              <path id="Trazado_1039189" data-name="Trazado 1039189" d="M263.415,239.59s-2.2,9.826-14.2,11.034l4.764,6.758a43.873,43.873,0,0,0,11.964-14.16Z" transform="translate(-249.217 -239.59)" fill="#ec766e"/>
            </g>
          </g>
          <g id="Grupo_1173303" data-name="Grupo 1173303" transform="translate(6.203 0)">
            <g id="Grupo_1173302" data-name="Grupo 1173302">
              <path id="Trazado_1039190" data-name="Trazado 1039190" d="M235.179,154.8a19.961,19.961,0,0,1,13.348,14.464h0c4.313,18.558.347,42.825-15.231,46.445-16.787,3.9-29.837-16.412-34.149-34.97l-.032-.138a22.39,22.39,0,0,1,4.279-18.954l1.541-1.941a21.483,21.483,0,0,1,23.38-7.1Z" transform="translate(-198.542 -151.574)" fill="#f5ba9c"/>
            </g>
          </g>
          <g id="Grupo_1173306" data-name="Grupo 1173306" transform="translate(28.288 31.531)">
            <g id="Grupo_1173305" data-name="Grupo 1173305" transform="translate(0)">
              <g id="Grupo_1173304" data-name="Grupo 1173304">
                <path id="Trazado_1039191" data-name="Trazado 1039191" d="M239.983,203.671a1.644,1.644,0,0,1-1.308,2.056,9.776,9.776,0,0,0-1.582.138,2.192,2.192,0,0,0-1,.726,1.887,1.887,0,0,0-.132,2.292,2.062,2.062,0,0,0,2.2.774c.523-.173.908-.514,1.493-.348a1.358,1.358,0,0,1,.969,1.111c.061.521-.741.713-.8.187a.559.559,0,0,0-.3-.468.632.632,0,0,0-.615.08,2.79,2.79,0,0,1-1.284.343,2.95,2.95,0,0,1-2.27-1.12,2.863,2.863,0,0,1,1.421-4.335,6.572,6.572,0,0,1,1.648-.177.826.826,0,0,0,.755-1.073c-.146-.51.658-.7.8-.186Z" transform="translate(-234.819 -203.369)" fill="#ec766e"/>
              </g>
            </g>
          </g>
          <g id="Grupo_1173309" data-name="Grupo 1173309" transform="translate(37.641 45.035)">
            <g id="Grupo_1173308" data-name="Grupo 1173308" transform="translate(0)">
              <g id="Grupo_1173307" data-name="Grupo 1173307">
                <path id="Trazado_1039192" data-name="Trazado 1039192" d="M252.579,225.62a1.823,1.823,0,0,1,.626.942,1.879,1.879,0,0,1-.025,1.078,1.76,1.76,0,0,1-1.72,1.169,1.8,1.8,0,0,1-1.164-.452.414.414,0,0,1,.016-.583.424.424,0,0,1,.583.016c.055.047-.065-.043.019.013.024.016.047.032.072.047s.058.032.087.049c.01.005.054.021,0,0s.007,0,.018.006a1.814,1.814,0,0,0,.177.055l.042.009c.053.016-.077-.007-.021,0,.034,0,.066.009.1.012.063,0,.124,0,.187,0,.1,0-.055.012.019,0,.033-.005.066-.01.1-.016a1.822,1.822,0,0,0,.18-.048c.072-.022-.079.038.016-.007l.09-.043c.029-.016.058-.032.086-.05s.078-.065.039-.025.03-.027.045-.04.049-.046.072-.07.025-.029.038-.043c.034-.034-.023.026-.021.026s.041-.057.05-.071.035-.057.051-.086l.02-.038c.028-.052,0,.01-.008.018.03-.02.05-.139.06-.175a.3.3,0,0,0,.022-.1s-.009.082-.007.035c0-.019,0-.038.007-.057a1.462,1.462,0,0,0,.007-.186c0-.024-.016-.117,0-.06s-.007-.04-.01-.059a1.738,1.738,0,0,0-.057-.222c-.006-.019-.027-.042,0,0s0,0-.008-.015c-.016-.034-.032-.069-.051-.1s-.035-.057-.051-.086-.007-.044.014.016a.2.2,0,0,0-.035-.045c-.021-.026-.043-.051-.066-.075s-.122-.111-.035-.04a.453.453,0,0,1-.184-.257.413.413,0,0,1,.619-.444Z" transform="translate(-250.183 -225.553)" fill="#ec766e"/>
              </g>
            </g>
          </g>
          <g id="Grupo_1173310" data-name="Grupo 1173310" transform="translate(39.637 24.695)">
            <path id="Trazado_1039193" data-name="Trazado 1039193" d="M253.562,195.129c.328,1.412,1.365,2.377,2.318,2.155s1.459-1.545,1.13-2.956-1.366-2.377-2.318-2.155S253.234,193.717,253.562,195.129Z" transform="translate(-253.462 -192.141)" fill="#2f383c"/>
          </g>
          <g id="Grupo_1173311" data-name="Grupo 1173311" transform="translate(17.49 30.339)">
            <path id="Trazado_1039194" data-name="Trazado 1039194" d="M217.183,204.4c.328,1.412,1.365,2.377,2.318,2.155s1.458-1.545,1.13-2.956-1.366-2.377-2.318-2.155S216.855,202.988,217.183,204.4Z" transform="translate(-217.083 -201.412)" fill="#2f383c"/>
          </g>
          <g id="Grupo_1173312" data-name="Grupo 1173312" transform="translate(34.188 14.273)">
            <path id="Trazado_1039195" data-name="Trazado 1039195" d="M257.741,178.243s-6.831-6.763-13.23-.7Z" transform="translate(-244.511 -175.02)" fill="#2f383c"/>
          </g>
          <g id="Grupo_1173313" data-name="Grupo 1173313" transform="translate(10.516 19.136)">
            <path id="Trazado_1039196" data-name="Trazado 1039196" d="M205.627,189.943s3.149-9.082,11.567-6.459Z" transform="translate(-205.627 -183.009)" fill="#2f383c"/>
          </g>
          <g id="Grupo_1173322" data-name="Grupo 1173322" transform="translate(16.639 37.17)">
            <g id="Grupo_1173315" data-name="Grupo 1173315" transform="translate(0)">
              <g id="Grupo_1173314" data-name="Grupo 1173314">
                <path id="Trazado_1039197" data-name="Trazado 1039197" d="M215.837,219.734a5.79,5.79,0,1,0,4.329-6.95A5.79,5.79,0,0,0,215.837,219.734Z" transform="translate(-215.685 -212.633)" fill="#ef9780"/>
              </g>
            </g>
            <g id="Grupo_1173317" data-name="Grupo 1173317" transform="translate(2.507 0.666)">
              <g id="Grupo_1173316" data-name="Grupo 1173316">
                <path id="Trazado_1039198" data-name="Trazado 1039198" d="M224.7,217.391l-4.787-3.193c-.269-.18,0-.607.266-.427l4.787,3.193c.269.179,0,.606-.266.427Z" transform="translate(-219.803 -213.728)" fill="#2f383c"/>
              </g>
            </g>
            <g id="Grupo_1173319" data-name="Grupo 1173319" transform="translate(2.439 3.586)">
              <g id="Grupo_1173318" data-name="Grupo 1173318">
                <path id="Trazado_1039199" data-name="Trazado 1039199" d="M222.593,220.477l-2.784-1.492a.253.253,0,0,1-.08-.346.256.256,0,0,1,.346-.08l2.784,1.493a.253.253,0,0,1,.08.346.256.256,0,0,1-.346.08Z" transform="translate(-219.692 -218.523)" fill="#2f383c"/>
              </g>
            </g>
            <g id="Grupo_1173321" data-name="Grupo 1173321" transform="translate(1.766 5.366)">
              <g id="Grupo_1173320" data-name="Grupo 1173320">
                <path id="Trazado_1039200" data-name="Trazado 1039200" d="M220.279,222.892l-1.575-.981a.251.251,0,0,1,.266-.427l1.575.981a.251.251,0,0,1-.266.427Z" transform="translate(-218.586 -221.447)" fill="#2f383c"/>
              </g>
            </g>
          </g>
          <g id="Grupo_1173332" data-name="Grupo 1173332" transform="translate(40.823 29.695)">
            <g id="Grupo_1173324" data-name="Grupo 1173324">
              <g id="Grupo_1173323" data-name="Grupo 1173323">
                <path id="Trazado_1039201" data-name="Trazado 1039201" d="M255.562,207.454a5.79,5.79,0,1,0,4.329-6.95A5.79,5.79,0,0,0,255.562,207.454Z" transform="translate(-255.41 -200.353)" fill="#ef9780"/>
              </g>
            </g>
            <g id="Grupo_1173331" data-name="Grupo 1173331" transform="translate(0.869 2.56)">
              <g id="Grupo_1173326" data-name="Grupo 1173326" transform="translate(0 1.559)">
                <g id="Grupo_1173325" data-name="Grupo 1173325">
                  <path id="Trazado_1039202" data-name="Trazado 1039202" d="M262.294,210.939a27.451,27.451,0,0,0-5.33-3.366c-.292-.14-.023-.566.266-.427a27.431,27.431,0,0,1,5.33,3.366c.249.2-.014.629-.266.427Z" transform="translate(-256.838 -207.119)" fill="#2f383c"/>
                </g>
              </g>
              <g id="Grupo_1173328" data-name="Grupo 1173328" transform="translate(3.068 0.844)">
                <g id="Grupo_1173327" data-name="Grupo 1173327">
                  <path id="Trazado_1039203" data-name="Trazado 1039203" d="M264.634,208.491,262,206.412a.259.259,0,0,1-.08-.346.253.253,0,0,1,.346-.08l2.639,2.08a.259.259,0,0,1,.08.346.253.253,0,0,1-.346.08Z" transform="translate(-261.878 -205.945)" fill="#2f383c"/>
                </g>
              </g>
              <g id="Grupo_1173330" data-name="Grupo 1173330" transform="translate(5.557)">
                <g id="Grupo_1173329" data-name="Grupo 1173329">
                  <path id="Trazado_1039204" data-name="Trazado 1039204" d="M267.164,206.1a2.446,2.446,0,0,1-1.171-1.179.251.251,0,0,1,.442-.24,2.168,2.168,0,0,0,.188.331c.007.01.037.049,0,.006l.025.033.058.072c.042.05.086.1.132.144s.09.085.136.125c.02.017.015.012,0,0l.041.032q.036.028.075.055a2.255,2.255,0,0,0,.339.195.252.252,0,0,1,.08.346.261.261,0,0,1-.347.08Z" transform="translate(-265.966 -204.558)" fill="#2f383c"/>
                </g>
              </g>
            </g>
          </g>
          <g id="Grupo_1173333" data-name="Grupo 1173333" transform="translate(39.18 29.16)">
            <path id="Trazado_1039205" data-name="Trazado 1039205" d="M252.712,201.081a6.034,6.034,0,0,1,5.7-1.323Z" transform="translate(-252.712 -199.475)" fill="#2f383c"/>
          </g>
          <g id="Grupo_1173334" data-name="Grupo 1173334" transform="translate(16.952 34.951)">
            <path id="Trazado_1039206" data-name="Trazado 1039206" d="M216.2,210.594a6.034,6.034,0,0,1,5.7-1.323Z" transform="translate(-216.199 -208.988)" fill="#2f383c"/>
          </g>
          <path id="Trazado_1039207" data-name="Trazado 1039207" d="M241.83,220.05a12.22,12.22,0,0,0,2.37-1.484,5.049,5.049,0,0,1,1.127-.79,1.3,1.3,0,0,1,1.311.085,1.623,1.623,0,0,1,.487,1.067,4.062,4.062,0,0,1-.4,2.577,4.7,4.7,0,0,1-3.525,2.03,3.9,3.9,0,0,1-2.2-.2c-.921-.431-1.648-1.8-.659-2.555a3.732,3.732,0,0,1,.832-.431C241.4,220.252,241.615,220.154,241.83,220.05Z" transform="translate(-208.509 -177.422)" fill="#2f383c"/>
          <g id="Grupo_1173341" data-name="Grupo 1173341" transform="translate(53.583 15.583)">
            <g id="Grupo_1173335" data-name="Grupo 1173335">
              <path id="Trazado_1039208" data-name="Trazado 1039208" d="M290.361,186.773c-.914,4.452-4.742,7.427-8.551,6.645s-6.155-5.025-5.241-9.477,4.742-7.427,8.551-6.645S291.275,182.322,290.361,186.773Z" transform="translate(-276.372 -177.172)" fill="#f5ba9c"/>
            </g>
            <g id="Grupo_1173336" data-name="Grupo 1173336" transform="translate(1.595 5.018)">
              <path id="Trazado_1039209" data-name="Trazado 1039209" d="M287.16,191.021c-.533,2.6-2.769,4.337-4.993,3.88s-3.594-2.934-3.06-5.534,2.769-4.337,4.993-3.88S287.693,188.421,287.16,191.021Z" transform="translate(-278.992 -185.414)" fill="#ec766e"/>
            </g>
            <g id="Grupo_1173338" data-name="Grupo 1173338" transform="translate(4.711 4.949)">
              <g id="Grupo_1173337" data-name="Grupo 1173337">
                <path id="Trazado_1039210" data-name="Trazado 1039210" d="M284.246,185.593a3.53,3.53,0,0,1,3.315.278,4.14,4.14,0,0,1,1.911,3.092c.293,2.5-1.312,5.763-4.057,6.032-.318.031-.435-.458-.114-.49,2.406-.236,3.823-3.012,3.7-5.215a3.71,3.71,0,0,0-1.495-2.855,3.068,3.068,0,0,0-3.019-.4c-.294.133-.535-.308-.24-.442Z" transform="translate(-284.111 -185.301)" fill="#2f383c"/>
              </g>
            </g>
            <g id="Grupo_1173340" data-name="Grupo 1173340" transform="translate(4.244 9.196)">
              <g id="Grupo_1173339" data-name="Grupo 1173339">
                <path id="Trazado_1039211" data-name="Trazado 1039211" d="M288.967,193.045a3.245,3.245,0,0,0-3.1.323A5.736,5.736,0,0,0,283.846,196c-.126.295-.608.149-.48-.149a6.326,6.326,0,0,1,2.26-2.921,3.708,3.708,0,0,1,3.491-.362c.29.133.145.615-.149.481Z" transform="translate(-283.344 -192.279)" fill="#2f383c"/>
              </g>
            </g>
          </g>
        </g>
        <path id="Trazado_1039212" data-name="Trazado 1039212" d="M229.467,456.216c-10.963-10.815-17.173-25.575-21.15-40.452s-5.988-30.228-10.049-45.081c-4.476-16.37-11.409-32.012-15.455-48.494s-4.992-34.523,2.262-49.866c-5.807,4.6-11.769,9.347-16.459,15.078a46.963,46.963,0,0,1-4.483,5.08,38.309,38.309,0,0,1-8.954,5.563c-14.05,7.027-28.443,14.162-44.029,16.132,1.235-3.015-1.742-6.827-4.966-6.359-2.633.382-5.091-3.966-5.952-6.484a290.349,290.349,0,0,1-11.822-47.1c-7.524,8.377-23.132,5.539-31.422,13.158.274,23.811,3.64,48.114,13.541,69.77,3.493,7.641,7.934,15.424,15.3,19.472,7.577,4.168,16.813,3.6,25.362,2.288a178.948,178.948,0,0,0,36.865-9.755c5.549-2.124,13.034-4,16.434.869a9.991,9.991,0,0,1,1.49,4.121c.908,5.467-.323,11.1.37,16.6,1.358,10.77,9.726,19.277,13.318,29.52,2.655,7.572,2.607,15.826,4.645,23.587C189.356,443.085,209.587,456.453,229.467,456.216Z" transform="translate(-56.987 -179.545)" fill="#f4b25b"/>
        <path id="Trazado_1039213" data-name="Trazado 1039213" d="M388.683,351.024c-14.569-5-23.815-19.153-30.6-32.981s-12.65-28.827-24.347-38.847c-12.958-11.1-30.984-14.243-45.146-23.758,10.085-8.367,23.594-13.746,36.519-11.584,18.785,3.141,33.529,17.371,50.7,25.6,2.9,1.39,5.96,2.664,8.231,4.944,3.738,3.754,4.6,9.423,5.186,14.689C391.521,309.824,389.222,330.169,388.683,351.024Z" transform="translate(-147.599 -175.297)" fill="#f4b25b"/>
        <path id="Trazado_1039214" data-name="Trazado 1039214" d="M256.406,280.211l-6.626-9.284s-14.255,24.634-13.619,27.651,5.9,6.828,5.9,6.828Z" transform="translate(-127.079 -186.077)" fill="#f4b25b"/>
        <path id="Trazado_1039215" data-name="Trazado 1039215" d="M281.857,250.809l5.222,7.33,15.484-4.406v-6.2Z" transform="translate(-144.965 -176.923)" fill="#f4b25b"/>
        <g id="Grupo_1173343" data-name="Grupo 1173343" transform="translate(42.098 40.188)">
          <path id="Trazado_1039216" data-name="Trazado 1039216" d="M145.631,197.565l-10.042,1.224c-2.884.351-6.142.964-8.77-.637a.457.457,0,0,0-.461.788c2.616,1.593,5.747,1.186,8.64.833l10.633-1.3c.577-.07.584-.984,0-.913Z" transform="translate(-126.141 -197.561)" fill="#2f383c"/>
        </g>
        <g id="Grupo_1173344" data-name="Grupo 1173344" transform="translate(44.446 35.781)">
          <path id="Trazado_1039217" data-name="Trazado 1039217" d="M156.193,190.323l-13.219.753c-2.145.122-4.291.279-6.438.354a14.469,14.469,0,0,1-5.991-.8c-.545-.219-.782.664-.243.88a14.513,14.513,0,0,0,5.824.843c2.184-.052,4.367-.225,6.548-.349l13.519-.77c.584-.033.588-.946,0-.913Z" transform="translate(-129.997 -190.323)" fill="#2f383c"/>
        </g>
        <g id="Grupo_1173345" data-name="Grupo 1173345" transform="translate(38.286 132.639)">
          <path id="Trazado_1039218" data-name="Trazado 1039218" d="M120.653,355.981l4.694-5.774a.471.471,0,0,0,0-.646.46.46,0,0,0-.646,0l-4.694,5.774a.471.471,0,0,0,0,.646.46.46,0,0,0,.646,0Z" transform="translate(-119.879 -349.428)" fill="#2f383c"/>
        </g>
        <g id="Grupo_1173346" data-name="Grupo 1173346" transform="translate(48.262 136.017)">
          <path id="Trazado_1039219" data-name="Trazado 1039219" d="M137.11,357.565l.953-1.906a.457.457,0,1,0-.788-.461l-.953,1.906a.457.457,0,0,0,.788.461Z" transform="translate(-136.266 -354.977)" fill="#2f383c"/>
        </g>
        <g id="Grupo_1173347" data-name="Grupo 1173347" transform="translate(109.617 101.319)">
          <path id="Trazado_1039220" data-name="Trazado 1039220" d="M240.638,298.172c-5.391,7.074-3.729,16.823-1.308,24.7a159.491,159.491,0,0,0,12.175,28.064c2.755,5.161,5.661,10.239,8.568,15.316a.457.457,0,0,0,.788-.461c-4.972-8.683-9.95-17.384-14.158-26.47a136.572,136.572,0,0,1-5.681-14.159,53.571,53.571,0,0,1-2.964-13.066c-.338-4.748.422-9.6,3.368-13.464.356-.466-.436-.922-.788-.46Z" transform="translate(-237.053 -297.98)" fill="#2f383c"/>
        </g>
        <g id="Grupo_1173348" data-name="Grupo 1173348" transform="translate(154.854 70.393)">
          <path id="Trazado_1039221" data-name="Trazado 1039221" d="M311.693,248.065c13.49,2.1,24.4,11.581,30.948,23.211a66.251,66.251,0,0,1,4.706,10.46c.194.55,1.077.313.88-.243-4.552-12.891-12.943-24.838-25.513-30.909a38.371,38.371,0,0,0-10.779-3.4c-.574-.09-.822.79-.242.88Z" transform="translate(-311.362 -247.178)" fill="#2f383c"/>
        </g>
        <g id="Grupo_1173349" data-name="Grupo 1173349" transform="translate(130.713 185.121)">
          <path id="Trazado_1039222" data-name="Trazado 1039222" d="M272.037,436.955a3.385,3.385,0,0,0,2.745-.462.457.457,0,0,0-.461-.788,2.971,2.971,0,0,1-.267.164c-.046.025-.093.048-.139.071-.029.013-.109.047-.034.016a3.028,3.028,0,0,1-.582.169c-.023,0-.164.023-.053.01-.052.006-.1.011-.156.015-.1.007-.2.008-.293,0l-.137-.008c-.021,0-.186-.025-.073-.007-.1-.017-.205-.038-.306-.065a.457.457,0,0,0-.243.88Z" transform="translate(-271.706 -435.639)" fill="#2f383c"/>
        </g>
        <g id="Grupo_1173350" data-name="Grupo 1173350" transform="translate(133.113 196.575)">
          <path id="Trazado_1039223" data-name="Trazado 1039223" d="M276.216,456.336l3.8-.986a.457.457,0,0,0-.243-.88l-3.8.986a.457.457,0,0,0,.243.88Z" transform="translate(-275.649 -454.454)" fill="#2f383c"/>
        </g>
        <g id="Grupo_1173351" data-name="Grupo 1173351" transform="translate(137.892 211.832)">
          <path id="Trazado_1039224" data-name="Trazado 1039224" d="M284.186,481.828l2.84-1.466a.46.46,0,0,0,.164-.625.467.467,0,0,0-.625-.164l-2.84,1.466a.46.46,0,0,0-.164.625.467.467,0,0,0,.625.164Z" transform="translate(-283.499 -479.516)" fill="#2f383c"/>
        </g>
        <g id="Grupo_1173352" data-name="Grupo 1173352" transform="translate(142.61 231.309)">
          <path id="Trazado_1039225" data-name="Trazado 1039225" d="M291.706,512.424h1.429a.457.457,0,1,0,0-.913h-1.429a.457.457,0,1,0,0,.913Z" transform="translate(-291.249 -511.511)" fill="#2f383c"/>
        </g>
        <g id="Grupo_1173353" data-name="Grupo 1173353" transform="translate(106.438 145.573)">
          <path id="Trazado_1039226" data-name="Trazado 1039226" d="M232.747,386.361a94.2,94.2,0,0,0,.387-15.247c-.032-.584-.946-.588-.913,0a94.266,94.266,0,0,1-.387,15.247c-.063.583.851.579.913,0Z" transform="translate(-231.831 -370.674)" fill="#2f383c"/>
        </g>
        <g id="Grupo_1173354" data-name="Grupo 1173354" transform="translate(105.425 137.927)">
          <path id="Trazado_1039227" data-name="Trazado 1039227" d="M231.061,360.6l.477-1.905a.457.457,0,0,0-.881-.243l-.477,1.905a.457.457,0,1,0,.881.243Z" transform="translate(-230.167 -358.116)" fill="#2f383c"/>
        </g>
        <g id="Grupo_1173355" data-name="Grupo 1173355" transform="translate(190.333 77.276)">
          <path id="Trazado_1039228" data-name="Trazado 1039228" d="M369.87,259.331A81.392,81.392,0,0,1,385.3,270.024c.44.387,1.088-.256.646-.646a82.391,82.391,0,0,0-15.618-10.835c-.518-.277-.98.511-.461.788Z" transform="translate(-369.642 -258.484)" fill="#2f383c"/>
        </g>
        <g id="Grupo_1173364" data-name="Grupo 1173364" transform="translate(162.42 157.565)">
          <path id="Trazado_1039237" data-name="Trazado 1039237" d="M324.23,399.134a104.515,104.515,0,0,0,33.54-7.843c.534-.223.3-1.107-.243-.88a103.763,103.763,0,0,1-33.3,7.811c-.584.037-.587.95,0,.913Z" transform="translate(-323.79 -390.373)" fill="#98dce9"/>
        </g>
        <g id="Grupo_1173365" data-name="Grupo 1173365" transform="translate(185.251 166.453)">
          <path id="Trazado_1039238" data-name="Trazado 1039238" d="M361.856,408.739l9.289-2.864c.56-.173.321-1.054-.243-.88l-9.289,2.864c-.56.172-.321,1.054.243.88Z" transform="translate(-361.294 -404.973)" fill="#98dce9"/>
        </g>
        <g id="Grupo_1173366" data-name="Grupo 1173366" transform="translate(91.56 2.841)">
          <path id="Trazado_1039239" data-name="Trazado 1039239" d="M207.417,136.591a4.028,4.028,0,0,0,1.4.393c.54.1,1.082.179,1.617.307a15.464,15.464,0,0,1,5.9,2.837c.882.692,1.615,1.54,2.543,2.172.393.267.788-.24.605-.605a7.245,7.245,0,0,0-2.433-2.464,16.513,16.513,0,0,0-6.39-2.751c-.975-.187-2.329-.5-3.236.012a.058.058,0,0,0,0,.1Z" transform="translate(-207.39 -136.212)" fill="#272e41"/>
        </g>
        <g id="Grupo_1173367" data-name="Grupo 1173367" transform="translate(101.65)">
          <path id="Trazado_1039240" data-name="Trazado 1039240" d="M230,131.567a12.138,12.138,0,0,0-4.52,4.88,14.306,14.306,0,0,0-1.194,3.159,11.609,11.609,0,0,0-.285,1.678,2.936,2.936,0,0,0,.189,1.679.462.462,0,0,0,.788,0,3.754,3.754,0,0,0,.275-1.424c.067-.538.114-1.074.214-1.608a13.168,13.168,0,0,1,.949-3.036,15.428,15.428,0,0,1,3.774-5.082c.135-.119-.038-.338-.19-.247Z" transform="translate(-223.966 -131.545)" fill="#272e41"/>
        </g>
      </g>
    </g>
    <g id="Grupo_1173522" data-name="Grupo 1173522" transform="translate(237.084 36.631)">
      <path id="Trazado_1039357" data-name="Trazado 1039357" d="M408.724,156.194c-2.228.105-3.543,3-2.631,5.039s3.306,3.071,5.537,3.052c-2.9,1.014-3.579,5.179-1.961,7.793s4.673,3.939,7.619,4.82a15.359,15.359,0,0,0,7.424.741c2.461-.508,4.806-2.277,5.314-4.738s-1.458-5.328-3.967-5.182a6.752,6.752,0,0,0,4.8-1.361,6.841,6.841,0,0,0,3.04-5.747c-.148-2.258-2.115-4.4-4.375-4.284a4.348,4.348,0,1,0,.446-8.517c2.553.41,4.961-1.877,5.242-4.322a8.727,8.727,0,0,0-1.048-4.807,11.521,11.521,0,0,0-6.637-5.283c-5.606-1.927-13.113-1.113-17.386,3.3-2.408,2.49-4.617,8.344-.652,10.511C404.376,147.592,403.5,155.159,408.724,156.194Z" transform="translate(-405.208 -132.416)" fill="#f5ba9c"/>
      <g id="Grupo_1173515" data-name="Grupo 1173515" transform="translate(4.804 13.568)">
        <path id="Trazado_1039358" data-name="Trazado 1039358" d="M435.284,156.292a119.8,119.8,0,0,0-21.744-1.566.457.457,0,0,0,0,.913,118.447,118.447,0,0,1,21.5,1.533c.575.095.822-.785.243-.88Z" transform="translate(-413.099 -154.704)" fill="#2f383c"/>
      </g>
      <g id="Grupo_1173516" data-name="Grupo 1173516" transform="translate(3.238 22.419)">
        <path id="Trazado_1039359" data-name="Trazado 1039359" d="M434.45,170.528q-11.767-.087-23.486-1.281c-.584-.06-.58.854,0,.913q11.707,1.194,23.486,1.281a.457.457,0,0,0,0-.913Z" transform="translate(-410.527 -169.243)" fill="#2f383c"/>
      </g>
      <g id="Grupo_1173517" data-name="Grupo 1173517" transform="translate(5.126 31.763)">
        <path id="Trazado_1039360" data-name="Trazado 1039360" d="M431.269,187.014c-2.9-.272-5.8-.537-8.7-.818a36.062,36.062,0,0,1-8.386-1.577c-.556-.192-.8.689-.243.881a36.221,36.221,0,0,0,8.345,1.582c2.993.3,5.988.564,8.983.845.584.055.581-.858,0-.913Z" transform="translate(-413.628 -184.592)" fill="#2f383c"/>
      </g>
      <g id="Grupo_1173518" data-name="Grupo 1173518" transform="translate(18.425 39.191)">
        <path id="Trazado_1039361" data-name="Trazado 1039361" d="M436.579,202.383a2.791,2.791,0,0,1,.938-3.177,8.564,8.564,0,0,1,4-1.52c.575-.119.332-1-.243-.88a8.8,8.8,0,0,0-4.57,1.913,3.63,3.63,0,0,0-.911,4.126c.263.525,1.051.063.788-.461Z" transform="translate(-435.474 -196.795)" fill="#2f383c"/>
      </g>
      <g id="Grupo_1173519" data-name="Grupo 1173519" transform="translate(21.568 28.595)">
        <path id="Trazado_1039362" data-name="Trazado 1039362" d="M441.678,184.185a2.723,2.723,0,0,1,1.242-3.04,7.485,7.485,0,0,1,4.275-.843.457.457,0,0,0,0-.913c-1.676-.016-3.552.063-4.944,1.117a3.6,3.6,0,0,0-1.453,3.921c.2.55,1.078.313.881-.243Z" transform="translate(-440.636 -179.388)" fill="#2f383c"/>
      </g>
      <g id="Grupo_1173520" data-name="Grupo 1173520" transform="translate(23.368 17.795)">
        <path id="Trazado_1039363" data-name="Trazado 1039363" d="M444.54,166.79a3.646,3.646,0,0,1,5.139-3.912.47.47,0,0,0,.625-.164.46.46,0,0,0-.164-.625,4.558,4.558,0,0,0-6.48,4.943c.1.578.978.333.88-.242Z" transform="translate(-443.594 -161.648)" fill="#2f383c"/>
      </g>
      <g id="Grupo_1173521" data-name="Grupo 1173521" transform="translate(23.098 7.701)">
        <path id="Trazado_1039364" data-name="Trazado 1039364" d="M444.092,151.854a4.87,4.87,0,0,1,2.568-4.677,4.715,4.715,0,0,1,2.645-.531c.746.037,1.857-.075,1.989-1a.473.473,0,0,0-.319-.562.459.459,0,0,0-.562.319c-.05.352-.515.337-.8.34-.445.006-.882-.057-1.327-.012a5.477,5.477,0,0,0-2.683,1.044,5.7,5.7,0,0,0-2.423,5.082c.064.577.978.584.914,0Z" transform="translate(-443.15 -145.066)" fill="#2f383c"/>
      </g>
    </g>
  </g>
</svg>
