<svg xmlns="http://www.w3.org/2000/svg" xmlns:xlink="http://www.w3.org/1999/xlink" width="93.656" height="93.656" viewBox="0 0 93.656 93.656">
  <defs>
    <filter id="Trazado_982547" x="0" y="0" width="93.656" height="93.656" filterUnits="userSpaceOnUse">
      <feOffset dy="3" input="SourceAlpha"/>
      <feGaussianBlur stdDeviation="3" result="blur"/>
      <feFlood flood-opacity="0.161"/>
      <feComposite operator="in" in2="blur"/>
      <feComposite in="SourceGraphic"/>
    </filter>
  </defs>
  <g id="Grupo_1185831" data-name="Grupo 1185831" transform="translate(-200.461 -5204)">
    <g id="Grupo_1184279" data-name="Grupo 1184279" transform="translate(0 -2586)">
      <g id="Grupo_1174894" data-name="Grupo 1174894" transform="translate(11.291 2507.168)">
        <g id="Grupo_1172067" data-name="Grupo 1172067" transform="translate(198.17 5288.832)">
          <g id="Grupo_1164308" data-name="Grupo 1164308" transform="translate(0 0)">
            <g id="Grupo_1163948" data-name="Grupo 1163948" transform="translate(0)">
              <g id="Grupo_1158168" data-name="Grupo 1158168" transform="translate(0)">
                <g id="Grupo_1152576" data-name="Grupo 1152576">
                  <g id="Grupo_1148633" data-name="Grupo 1148633">
                    <g id="Grupo_1148525" data-name="Grupo 1148525">
                      <g transform="matrix(1, 0, 0, 1, -9, -6)" filter="url(#Trazado_982547)">
                        <g id="Trazado_982547-2" data-name="Trazado 982547" transform="translate(9 6)" fill="#e9f9fd">
                          <path d="M 37.8281364440918 74.15627288818359 C 32.92320251464844 74.15627288818359 28.16579246520996 73.19596862792969 23.68804740905762 71.30204772949219 C 19.36230278015137 69.47240447998047 15.47705841064453 66.85280609130859 12.1402702331543 63.51601409912109 C 8.803469657897949 60.17921447753906 6.1838698387146 56.29397964477539 4.354236602783203 51.96822357177734 C 2.460303068161011 47.49048233032227 1.500003099441528 42.73307037353516 1.500003099441528 37.8281364440918 C 1.500003099441528 32.92321395874023 2.460303068161011 28.16579246520996 4.354236602783203 23.68804740905762 C 6.1838698387146 19.36230278015137 8.803469657897949 15.47706985473633 12.1402702331543 12.1402702331543 C 15.47706985473633 8.803469657897949 19.36230278015137 6.1838698387146 23.68804740905762 4.354236602783203 C 28.16579246520996 2.460303068161011 32.92321395874023 1.500003099441528 37.8281364440918 1.500003099441528 C 42.73307037353516 1.500003099441528 47.49048233032227 2.460303068161011 51.96822357177734 4.354236602783203 C 56.29397964477539 6.1838698387146 60.17921447753906 8.803469657897949 63.51601409912109 12.1402702331543 C 66.85280609130859 15.47705841064453 69.47240447998047 19.36230278015137 71.30204772949219 23.68804740905762 C 73.19596862792969 28.16579246520996 74.15627288818359 32.92320251464844 74.15627288818359 37.8281364440918 C 74.15627288818359 42.73307037353516 73.19596862792969 47.49048233032227 71.30204772949219 51.96822357177734 C 69.47240447998047 56.29397964477539 66.85280609130859 60.17921447753906 63.51601409912109 63.51601409912109 C 60.17921447753906 66.85280609130859 56.29397964477539 69.47240447998047 51.96822357177734 71.30204772949219 C 47.49048233032227 73.19596862792969 42.73307037353516 74.15627288818359 37.8281364440918 74.15627288818359 Z" stroke="none"/>
                          <path d="M 37.8281364440918 3 C 33.12504959106445 3 28.56423568725586 3.920433044433594 24.27237319946289 5.735733032226562 C 20.12542343139648 7.48974609375 16.40044784545898 10.00139617919922 13.20092391967773 13.20092391967773 C 10.00139617919922 16.40044784545898 7.48974609375 20.12542343139648 5.735733032226562 24.27237319946289 C 3.920433044433594 28.56423568725586 3 33.12504959106445 3 37.8281364440918 C 3 42.53122329711914 3.920433044433594 47.09203720092773 5.735733032226562 51.3838996887207 C 7.48974609375 55.53084945678711 10.00139617919922 59.25582122802734 13.20092391967773 62.45534896850586 C 16.40044784545898 65.65487670898438 20.12542343139648 68.16652679443359 24.27237319946289 69.92053985595703 C 28.56423568725586 71.73583984375 33.12504959106445 72.65627288818359 37.8281364440918 72.65627288818359 C 42.53122329711914 72.65627288818359 47.09203720092773 71.73583984375 51.3838996887207 69.92053985595703 C 55.53084945678711 68.16652679443359 59.25582122802734 65.65487670898438 62.45534896850586 62.45534896850586 C 65.65487670898438 59.25582122802734 68.16652679443359 55.53084945678711 69.92053985595703 51.3838996887207 C 71.73583984375 47.09203720092773 72.65627288818359 42.53122329711914 72.65627288818359 37.8281364440918 C 72.65627288818359 33.12504959106445 71.73583984375 28.56423568725586 69.92053985595703 24.27237319946289 C 68.16652679443359 20.12542343139648 65.65487670898438 16.40044784545898 62.45534896850586 13.20092391967773 C 59.25582122802734 10.00139617919922 55.53084945678711 7.48974609375 51.3838996887207 5.735733032226562 C 47.09203720092773 3.920433044433594 42.53122329711914 3 37.8281364440918 3 M 37.8281364440918 0 C 58.72003555297852 0 75.65627288818359 16.93623733520508 75.65627288818359 37.8281364440918 C 75.65627288818359 58.72003555297852 58.72003555297852 75.65627288818359 37.8281364440918 75.65627288818359 C 16.93623733520508 75.65627288818359 0 58.72003555297852 0 37.8281364440918 C 0 16.93623733520508 16.93623733520508 0 37.8281364440918 0 Z" stroke="none" fill="#1d7083"/>
                        </g>
                      </g>
                    </g>
                  </g>
                </g>
              </g>
            </g>
          </g>
        </g>
      </g>
    </g>
    <g id="Layer_5" transform="translate(223.975 5221.375)">
      <g id="Grupo_1185830" data-name="Grupo 1185830" transform="translate(0.022 0.011)">
        <g id="Grupo_1185825" data-name="Grupo 1185825" transform="translate(0 0)">
          <g id="Grupo_1185818" data-name="Grupo 1185818" transform="translate(5.562)">
            <path id="Trazado_1042624" data-name="Trazado 1042624" d="M83.519,13.374l-3.158,3.548-2.993,3.363.185-3.589a15.307,15.307,0,0,0-12.2,6.325l-.72-4.279-4.536-.2A22.086,22.086,0,0,1,77.729,9.816h.2L78.119,6,81.1,10.073Z" transform="translate(-59.483 -5.384)" fill="#d22732"/>
            <path id="Trazado_1042625" data-name="Trazado 1042625" d="M59.977,18.266l-.144-.021a.6.6,0,0,1-.463-.494l-.638-3.785-4.042-.175a.614.614,0,0,1-.525-.36.621.621,0,0,1,.062-.638,23.052,23.052,0,0,1,7.848-6.531,22.626,22.626,0,0,1,9.884-2.438L72.124.6a.63.63,0,0,1,.442-.555.585.585,0,0,1,.669.226l5.41,7.374a.619.619,0,0,1-.041.771l-6.15,6.912a.635.635,0,0,1-.7.165.642.642,0,0,1-.381-.607l.154-2.911a14.723,14.723,0,0,0-11.056,6.037A.6.6,0,0,1,59.977,18.266Zm-4.011-5.657,3.322.144a.624.624,0,0,1,.576.514l.494,2.911a15.812,15.812,0,0,1,11.818-5.472.616.616,0,0,1,.617.658l-.093,1.82L77.349,7.96,73.265,2.386l-.113,2.088a.6.6,0,0,1-.607.586h-.2A21.388,21.388,0,0,0,55.966,12.609Z" transform="translate(-54.105 -0.011)" fill="#231f20"/>
          </g>
          <g id="Grupo_1185819" data-name="Grupo 1185819" transform="translate(11.273 6.33)">
            <path id="Trazado_1042626" data-name="Trazado 1042626" d="M188.082,63.113a.615.615,0,0,1-.144-1.214h.021c.658-.144,1.337-.257,2.016-.339a.615.615,0,0,1,.689.535.623.623,0,0,1-.545.689c-.638.072-1.275.185-1.9.319Z" transform="translate(-179.455 -61.555)" fill="#231f20"/>
            <path id="Trazado_1042627" data-name="Trazado 1042627" d="M110.252,75.622a.633.633,0,0,1-.514-.257.625.625,0,0,1,.154-.864,22.508,22.508,0,0,1,5.657-2.859.624.624,0,0,1,.751.453.612.612,0,0,1-.35.71,21.617,21.617,0,0,0-5.348,2.7A.616.616,0,0,1,110.252,75.622Z" transform="translate(-109.627 -70.588)" fill="#231f20"/>
          </g>
          <g id="Grupo_1185820" data-name="Grupo 1185820" transform="translate(0.961 12.34)">
            <path id="Trazado_1042628" data-name="Trazado 1042628" d="M23.679,133.395a15.259,15.259,0,0,0-.813,10.151l-4.937-.915-1.471,3.559a22.239,22.239,0,0,1,1.913-17.536L15.4,126l4.6.206,4.536.2.72,4.279.813,4.855Z" transform="translate(-14.779 -125.382)" fill="#1f315f"/>
            <path id="Trazado_1042629" data-name="Trazado 1042629" d="M11.042,141.415h-.031a.606.606,0,0,1-.555-.432A22.852,22.852,0,0,1,12.174,123.4l-2.6-2.324a.629.629,0,0,1-.062-.874.613.613,0,0,1,.5-.206l9.133.4a.624.624,0,0,1,.576.514l1.532,9.133a.586.586,0,0,1-.309.638.624.624,0,0,1-.71-.082L18.5,129.042a14.652,14.652,0,0,0-.946,5.194,14.47,14.47,0,0,0,.494,3.754.63.63,0,0,1-.453.761.712.712,0,0,1-.257.01l-4.443-.823-1.286,3.1a.6.6,0,0,1-.566.381ZM11.68,121.3l1.687,1.5a.625.625,0,0,1,.123.771,21.424,21.424,0,0,0-2.818,10.666,21.934,21.934,0,0,0,.494,4.639L11.947,137a.616.616,0,0,1,.679-.37l4,.741a16.059,16.059,0,0,1-.309-3.137,15.64,15.64,0,0,1,1.378-6.48.613.613,0,0,1,.442-.35.629.629,0,0,1,.535.134l1.08.967-1.162-6.9Z" transform="translate(-9.362 -119.991)" fill="#231f20"/>
          </g>
          <g id="Grupo_1185821" data-name="Grupo 1185821" transform="translate(0 28.972)">
            <path id="Trazado_1042630" data-name="Trazado 1042630" d="M22.868,302.428l2.314,4.063A22.247,22.247,0,0,1,9.26,294.4L6,296.154l2.026-4.9L9.5,287.7l4.937.915,4.165.761-3.26,1.748A15.315,15.315,0,0,0,26,299.631Z" transform="translate(-5.385 -287.083)" fill="#02648e"/>
            <path id="Trazado_1042631" data-name="Trazado 1042631" d="M19.818,301.729h-.113A22.83,22.83,0,0,1,3.64,289.86l-2.715,1.46a.607.607,0,0,1-.7-.093.6.6,0,0,1-.154-.689l3.5-8.454a.616.616,0,0,1,.679-.37l9.1,1.676a.624.624,0,0,1,.494.514.616.616,0,0,1-.309.638l-2.746,1.471a14.745,14.745,0,0,0,9.987,7.632.627.627,0,0,1,.463.453.606.606,0,0,1-.185.617l-2.767,2.458,2.067,3.631a.608.608,0,0,1-.031.669A.614.614,0,0,1,19.818,301.729ZM3.9,288.4a.646.646,0,0,1,.2.031.61.61,0,0,1,.36.319A21.639,21.639,0,0,0,18.6,300.217l-1.635-2.859a.625.625,0,0,1,.123-.771l2.273-2.016a16.007,16.007,0,0,1-9.946-8.557.609.609,0,0,1,.267-.8l1.707-.926-6.881-1.265-2.643,6.387,1.738-.936A.57.57,0,0,1,3.9,288.4Z" transform="translate(-0.022 -281.704)" fill="#231f20"/>
          </g>
          <g id="Grupo_1185822" data-name="Grupo 1185822" transform="translate(16.866 36.08)">
            <path id="Trazado_1042632" data-name="Trazado 1042632" d="M193.831,360.276a22.111,22.111,0,0,1-17.505,8.567q-.6,0-1.2-.031l-.6,3.559-2.211-3.888L170,364.421l3.137-2.8,3.775-3.363-.627,3.692h.041a15.194,15.194,0,0,0,11.437-5.153l1.574,4.155Z" transform="translate(-169.384 -356.184)" fill="#89c45e"/>
            <path id="Trazado_1042633" data-name="Trazado 1042633" d="M169.152,367.616a.615.615,0,0,1-.535-.319l-4.525-7.94a.625.625,0,0,1,.123-.771l6.912-6.161a.605.605,0,0,1,.71-.072.616.616,0,0,1,.309.638l-.5,2.962a14.663,14.663,0,0,0,10.285-4.927.607.607,0,0,1,.679-.175.644.644,0,0,1,.37.381l1.389,3.672,4-.617a.643.643,0,0,1,.627.3.624.624,0,0,1-.051.689,22.838,22.838,0,0,1-7.817,6.418,22.55,22.55,0,0,1-10.172,2.4h-.679l-.514,3.024a.637.637,0,0,1-.5.5Zm-3.744-8.444,3.425,6.017.309-1.851a.626.626,0,0,1,.648-.514c.381.021.771.031,1.162.031a21.378,21.378,0,0,0,15.983-7.1l-2.88.442a.623.623,0,0,1-.669-.391l-1.224-3.24a15.918,15.918,0,0,1-11.211,4.628h-.041a.591.591,0,0,1-.473-.216.644.644,0,0,1-.134-.5l.329-1.954Z" transform="translate(-164.011 -350.811)" fill="#231f20"/>
          </g>
          <g id="Grupo_1185823" data-name="Grupo 1185823" transform="translate(32.921 17.275)">
            <path id="Trazado_1042634" data-name="Trazado 1042634" d="M335.511,193.771l2.911,1.718-4.546.7-4.495.679-1.574-4.155-1.707-4.495,3.476,2.047a15.315,15.315,0,0,0,1.08-13.052l4.453.771,1.646-4.083A22.264,22.264,0,0,1,335.511,193.771Z" transform="translate(-325.484 -173.29)" fill="#fdc00f"/>
            <path id="Trazado_1042635" data-name="Trazado 1042635" d="M324.008,192.162a.614.614,0,0,1-.576-.391l-3.281-8.66a.623.623,0,0,1,.175-.689.657.657,0,0,1,.72-.062l2.921,1.728a14.682,14.682,0,0,0,.741-11.982.617.617,0,0,1,.36-.792.559.559,0,0,1,.319-.031l3.97.679,1.45-3.6a.617.617,0,0,1,1.142-.021,22.808,22.808,0,0,1-.977,19.881l2.386,1.409a.631.631,0,0,1,.3.648.611.611,0,0,1-.514.494l-9.041,1.388Zm-2.078-7.837,2.479,6.541,6.84-1.049-1.43-.833a.62.62,0,0,1-.216-.843,21.663,21.663,0,0,0,1.769-17.875l-1.059,2.623a.617.617,0,0,1-.679.381l-3.435-.6a15.955,15.955,0,0,1-1.46,12.589.757.757,0,0,1-.381.288.634.634,0,0,1-.473-.072Z" transform="translate(-320.111 -167.968)" fill="#231f20"/>
          </g>
          <g id="Grupo_1185824" data-name="Grupo 1185824" transform="translate(25.824 4.067)">
            <path id="Trazado_1042636" data-name="Trazado 1042636" d="M276.621,54.394l-1.769,4.4-1.646,4.083-4.453-.771-4.659-.813,3.353-1.841a15.273,15.273,0,0,0-10.347-7l3.158-3.548-2.417-3.3a22.116,22.116,0,0,1,15.644,10.522Z" transform="translate(-256.483 -44.978)" fill="#f4841b"/>
            <path id="Trazado_1042637" data-name="Trazado 1042637" d="M267.825,58.069h-.1L258.609,56.5a.635.635,0,0,1-.5-.514.616.616,0,0,1,.309-.638l2.767-1.532a14.619,14.619,0,0,0-9.565-6.161.6.6,0,0,1-.5-.71.659.659,0,0,1,.144-.309l2.828-3.188-2.129-2.911a.643.643,0,0,1-.031-.689.655.655,0,0,1,.627-.288,22.665,22.665,0,0,1,15.767,10.316l2.623-1.45a.624.624,0,0,1,.843.237.611.611,0,0,1,.031.535L268.4,57.679A.614.614,0,0,1,267.825,58.069Zm-7.272-2.51,6.891,1.193,2.582-6.408-1.625.895a.627.627,0,0,1-.833-.226,21.442,21.442,0,0,0-13.689-9.946l1.5,2.047a.619.619,0,0,1-.041.771l-2.448,2.756a15.911,15.911,0,0,1,9.7,7.056.622.622,0,0,1-.206.854.036.036,0,0,0-.021.01Z" transform="translate(-251.101 -39.551)" fill="#231f20"/>
          </g>
        </g>
        <g id="Grupo_1185829" data-name="Grupo 1185829" transform="translate(16.376 14.768)">
          <g id="Grupo_1185826" data-name="Grupo 1185826" transform="translate(3.873 12.825)">
            <path id="Trazado_1042638" data-name="Trazado 1042638" d="M202.9,274.3h5.78v10.213H202.9Z" transform="translate(-202.283 -273.683)" fill="#02648e"/>
            <path id="Trazado_1042639" data-name="Trazado 1042639" d="M203.3,279.737h-5.78a.619.619,0,0,1-.617-.617v-10.2a.619.619,0,0,1,.617-.617h5.78a.619.619,0,0,1,.617.617v10.2A.619.619,0,0,1,203.3,279.737Zm-5.163-1.234h4.546v-8.969h-4.546Z" transform="translate(-196.9 -268.3)" fill="#231f20"/>
          </g>
          <path id="Trazado_1042640" data-name="Trazado 1042640" d="M225.517,303.256a.619.619,0,0,1-.617-.617v-6.922a.617.617,0,0,1,1.234,0v6.922A.619.619,0,0,1,225.517,303.256Z" transform="translate(-218.147 -279.518)" fill="#231f20"/>
          <g id="Grupo_1185827" data-name="Grupo 1185827" transform="translate(0 5.523)">
            <path id="Trazado_1042641" data-name="Trazado 1042641" d="M176.87,209.039,175,205.686V210.6h-5.8v-5.04l-2.057,3.754a.972.972,0,0,1-1.286.391.96.96,0,0,1-.432-1.286.01.01,0,0,1,.01-.01c.627-1.214,1.738-3.353,2.1-3.96.545-.905.8-1.152,1.862-1.152h5.071c1.059,0,1.389.35,1.934,1.255.391.648,1.45,2.52,2.057,3.6a.918.918,0,0,1-.35,1.234A.9.9,0,0,1,176.87,209.039Z" transform="translate(-164.697 -202.683)" fill="#d3d3d3"/>
            <path id="Trazado_1042642" data-name="Trazado 1042642" d="M169.556,205.837h-5.811a.66.66,0,0,1-.442-.185.649.649,0,0,1-.175-.442v-2.623l-.905,1.646a1.583,1.583,0,1,1-2.8-1.481c.627-1.224,1.738-3.374,2.119-4a2.3,2.3,0,0,1,2.386-1.45H169a2.511,2.511,0,0,1,2.468,1.553c.391.648,1.46,2.551,2.057,3.62a1.517,1.517,0,0,1-.576,2.067,1.482,1.482,0,0,1-1.162.144,1.531,1.531,0,0,1-.926-.73l-.7-1.265v2.52a.589.589,0,0,1-.175.442A.6.6,0,0,1,169.556,205.837Zm-5.194-1.234h4.577v-4.3a.613.613,0,0,1,1.152-.3l1.872,3.353a.324.324,0,0,0,.175.134.253.253,0,0,0,.226-.021.287.287,0,0,0,.1-.391c-.6-1.07-1.656-2.952-2.036-3.589-.494-.813-.648-.957-1.409-.957H163.94c-.792,0-.864.082-1.337.854-.257.432-1.008,1.862-2.078,3.929a.372.372,0,0,0-.021.257.35.35,0,0,0,.442.226.343.343,0,0,0,.2-.165l2.057-3.754a.617.617,0,0,1,1.162.3Z" transform="translate(-159.245 -197.3)" fill="#231f20"/>
          </g>
          <g id="Grupo_1185828" data-name="Grupo 1185828" transform="translate(4.315)">
            <path id="Trazado_1042643" data-name="Trazado 1042643" d="M209.517,149.6h.123a2.408,2.408,0,0,1,2.4,2.407v.792a2.094,2.094,0,0,1-2.1,2.1H209.2a2.094,2.094,0,0,1-2.1-2.1v-.792a2.41,2.41,0,0,1,2.407-2.407Z" transform="translate(-206.493 -148.983)" fill="#efcdb1"/>
            <path id="Trazado_1042644" data-name="Trazado 1042644" d="M204.656,150.131h-.741a2.713,2.713,0,0,1-2.715-2.715v-.792a3.029,3.029,0,0,1,3.024-3.024h.123a3.027,3.027,0,0,1,3.014,3.024v.792A2.724,2.724,0,0,1,204.656,150.131Zm-.432-5.3a1.791,1.791,0,0,0-1.79,1.79v.792a1.475,1.475,0,0,0,1.481,1.481h.741a1.486,1.486,0,0,0,1.471-1.481v-.792a1.773,1.773,0,0,0-1.769-1.79h-.134Z" transform="translate(-201.2 -143.6)" fill="#231f20"/>
          </g>
        </g>
      </g>
    </g>
  </g>
</svg>
