<svg xmlns="http://www.w3.org/2000/svg" xmlns:xlink="http://www.w3.org/1999/xlink" width="110" height="110" viewBox="0 0 110 110">
  <defs>
    <filter id="Trazado_982547" x="0" y="0" width="110" height="110" filterUnits="userSpaceOnUse">
      <feOffset dy="3" input="SourceAlpha"/>
      <feGaussianBlur stdDeviation="3" result="blur"/>
      <feFlood flood-opacity="0.161"/>
      <feComposite operator="in" in2="blur"/>
      <feComposite in="SourceGraphic"/>
    </filter>
  </defs>
  <g id="Grupo_1185729" data-name="Grupo 1185729" transform="translate(-3112 -963)">
    <g id="Grupo_1184117" data-name="Grupo 1184117" transform="translate(2280.761 -1462)">
      <g id="Grupo_1183743" data-name="Grupo 1183743" transform="translate(459.195 -389)">
        <g id="Grupo_1181545" data-name="Grupo 1181545" transform="translate(-5.417 -130)">
          <g id="Grupo_1177562" data-name="Grupo 1177562" transform="translate(0 -12113)">
            <g id="Grupo_1173147" data-name="Grupo 1173147" transform="translate(386.461 15063)">
              <g id="Grupo_1163801" data-name="Grupo 1163801" transform="translate(0 0)">
                <g id="Grupo_1163014" data-name="Grupo 1163014">
                  <g id="Grupo_1157015" data-name="Grupo 1157015" transform="translate(0 0)">
                    <g id="Grupo_1155792" data-name="Grupo 1155792" transform="translate(0 0)">
                      <g id="Grupo_1154703" data-name="Grupo 1154703">
                        <g id="Grupo_1150789" data-name="Grupo 1150789">
                          <g id="Grupo_1154212" data-name="Grupo 1154212">
                            <g id="Grupo_1152583" data-name="Grupo 1152583">
                              <g id="Grupo_1146973" data-name="Grupo 1146973" transform="translate(0 0)">
                                <g id="Grupo_1146954" data-name="Grupo 1146954">
                                  <g transform="matrix(1, 0, 0, 1, -9, -6)" filter="url(#Trazado_982547)">
                                    <g id="Trazado_982547-2" data-name="Trazado 982547" transform="translate(9 6)" fill="#f2f7e5">
                                      <path d="M 46.00000381469727 90.49988555908203 C 39.99188232421875 90.49988555908203 34.16427230834961 89.32352447509766 28.67905807495117 87.00347137451172 C 23.38020324707031 84.76226043701172 18.62103080749512 81.55342864990234 14.53375053405762 77.46615600585938 C 10.44645690917969 73.37887573242188 7.237643718719482 68.61971282958984 4.996417045593262 63.32085800170898 C 2.676363706588745 57.83565902709961 1.500003814697266 52.00806045532227 1.500003814697266 45.99993896484375 C 1.500003814697266 39.99181747436523 2.676363706588745 34.16421890258789 4.996417045593262 28.67901802062988 C 7.237643718719482 23.38017845153809 10.44645690917969 18.62101936340332 14.53375053405762 14.53373908996582 C 18.62103080749512 10.44645881652832 23.38020324707031 7.237632274627686 28.67905807495117 4.996418952941895 C 34.16427230834961 2.676365613937378 39.99188232421875 1.500005602836609 46.00000381469727 1.500005602836609 C 52.00812530517578 1.500005602836609 57.83573532104492 2.676365613937378 63.32094955444336 4.996418952941895 C 68.61980438232422 7.237632274627686 73.37896728515625 10.44645881652832 77.46625518798828 14.53373908996582 C 81.55353546142578 18.62101936340332 84.76236724853516 23.38017845153809 87.00359344482422 28.67901802062988 C 89.32364654541016 34.16421890258789 90.5 39.99181747436523 90.5 45.99993896484375 C 90.5 52.00806045532227 89.32364654541016 57.83565902709961 87.00359344482422 63.32085800170898 C 84.76236724853516 68.61971282958984 81.55353546142578 73.37887573242188 77.46625518798828 77.46615600585938 C 73.37896728515625 81.55342864990234 68.61980438232422 84.76226043701172 63.32094955444336 87.00347137451172 C 57.83573532104492 89.32352447509766 52.00812530517578 90.49988555908203 46.00000381469727 90.49988555908203 Z" stroke="none"/>
                                      <path d="M 46.00000381469727 2.999992370605469 C 40.19371795654297 2.999992370605469 34.56270217895508 4.136497497558594 29.26338958740234 6.377906799316406 C 24.14333343505859 8.543510437011719 19.54441833496094 11.64437866210938 15.59440612792969 15.59439849853516 C 11.64440155029297 19.54439544677734 8.54351806640625 24.14329528808594 6.377914428710938 29.26335144042969 C 4.136505126953125 34.56266784667969 3.000007629394531 40.19366836547852 3.000007629394531 45.99993896484375 C 3.000007629394531 51.80620956420898 4.136505126953125 57.43722534179688 6.377914428710938 62.73654174804688 C 8.54351806640625 67.85658264160156 11.64440155029297 72.45548248291016 15.59440612792969 76.40549468994141 C 19.54441833496094 80.35549926757812 24.14333343505859 83.45636749267578 29.26337432861328 85.62196350097656 C 34.56270217895508 87.86338043212891 40.19371795654297 88.9998779296875 46.00000381469727 88.9998779296875 C 51.80628967285156 88.9998779296875 57.43730545043945 87.86338043212891 62.73663330078125 85.62196350097656 C 67.85667419433594 83.45636749267578 72.45558929443359 80.35549926757812 76.40560150146484 76.40549468994141 C 80.35560607910156 72.45548248291016 83.45648956298828 67.85658264160156 85.62208557128906 62.73654174804688 C 87.86350250244141 57.43722534179688 89 51.80620956420898 89 45.99993896484375 C 89 40.19366836547852 87.86350250244141 34.56266784667969 85.62208557128906 29.26335144042969 C 83.45648956298828 24.14329528808594 80.35560607910156 19.54439544677734 76.40560150146484 15.59439849853516 C 72.45558929443359 11.64437866210938 67.85667419433594 8.543510437011719 62.73661804199219 6.377906799316406 C 57.43730545043945 4.136497497558594 51.80628967285156 2.999992370605469 46.00000381469727 2.999992370605469 M 46.00000381469727 -7.62939453125e-06 C 71.40510559082031 -7.62939453125e-06 92 20.59487915039062 92 45.99993896484375 C 92 71.40501403808594 71.40510559082031 91.99988555908203 46.00000381469727 91.99988555908203 C 20.59490203857422 91.99988555908203 7.62939453125e-06 71.40501403808594 7.62939453125e-06 45.99993896484375 C 7.62939453125e-06 20.59487915039062 20.59490203857422 -7.62939453125e-06 46.00000381469727 -7.62939453125e-06 Z" stroke="none" fill="#86b60c"/>
                                    </g>
                                  </g>
                                </g>
                              </g>
                            </g>
                          </g>
                        </g>
                      </g>
                    </g>
                  </g>
                </g>
              </g>
            </g>
          </g>
        </g>
      </g>
    </g>
    <g id="organizacion_3_" data-name="organizacion (3)" transform="translate(3116.665 977.001)">
      <circle id="Elipse_13367" data-name="Elipse 13367" cx="8.531" cy="8.531" r="8.531" transform="translate(37.781 21.554) rotate(-45)" fill="#fff" stroke="#000" stroke-linejoin="round" stroke-width="10"/>
      <path id="Trazado_1042475" data-name="Trazado 1042475" d="M147.182,14.178l-3.539,1.468-2.831-1.9L136.9,17.661l1.9,2.831-1.468,3.539-3.342.659v5.535l3.342.659,1.468,3.538-1.9,2.831,3.914,3.914,2.831-1.9,3.539,1.468.659,3.342h5.535l.659-3.342,3.538-1.468,2.831,1.9,3.914-3.914-1.9-2.831,1.468-3.538,3.342-.659V24.69l-3.342-.659-1.468-3.539,1.9-2.831L160.4,13.747l-2.831,1.9-3.538-1.468-.659-3.342h-5.535Z" transform="translate(-100.759 -5.905)" fill="#f9ac00" fill-rule="evenodd"/>
      <path id="Trazado_1042476" data-name="Trazado 1042476" d="M147.182,14.177l-1.324.549-.022.009-2.192.909h0l-.752.311-2.566-1.721L136.9,17.66l1.9,2.831-1.468,3.538-3.342.659v5.535l3.342.659,1.468,3.539-1.9,2.831,3.426,3.426,2.566-1.721.752.311h0l3.538,1.468.659,3.342h4.67l.69-3.5,3.908-1.621.465.311,2.1,1.411,3.426-3.425-1.9-2.831,1.765-4.267,3.045-.6v-4.2l-3.045-.6L161.2,20.491l1.9-2.831-3.426-3.426-2.568,1.722L153.2,14.336l-.69-3.5h-4.67Z" transform="translate(-100.759 -5.905)" fill="#fdc72e" fill-rule="evenodd"/>
      <circle id="Elipse_13368" data-name="Elipse 13368" cx="8.582" cy="8.582" r="8.582" transform="translate(39.813 13.375) rotate(-2.579)" fill="#f9ac00"/>
      <circle id="Elipse_13369" data-name="Elipse 13369" cx="8.582" cy="8.582" r="8.582" transform="translate(38.643 16.9) rotate(-22.514)" fill="#f3f3ff"/>
      <g id="Grupo_1185728" data-name="Grupo 1185728" transform="translate(43.34 16.508)">
        <path id="Trazado_1042477" data-name="Trazado 1042477" d="M235.185,102.369a3.276,3.276,0,1,0-3.276-3.276A3.282,3.282,0,0,0,235.185,102.369Z" transform="translate(-228.68 -95.817)" fill="#dea368" fill-rule="evenodd"/>
        <path id="Trazado_1042478" data-name="Trazado 1042478" d="M234.48,96.376a3.276,3.276,0,1,0,2.572,3.2A3.277,3.277,0,0,0,234.48,96.376Z" transform="translate(-228.679 -96.3)" fill="#e6b17c" fill-rule="evenodd"/>
        <path id="Trazado_1042479" data-name="Trazado 1042479" d="M214.713,143.9a7.242,7.242,0,0,0-6.5,4.1,8.587,8.587,0,0,0,13.01,0,7.242,7.242,0,0,0-6.5-4.1Z" transform="translate(-208.208 -137.353)" fill="#0e82f5" fill-rule="evenodd"/>
        <path id="Trazado_1042480" data-name="Trazado 1042480" d="M213.869,144.269a7.256,7.256,0,0,0-5.662,4.048,8.587,8.587,0,0,0,11.58,1.322C218.678,146.2,216.319,144.564,213.869,144.269Z" transform="translate(-208.207 -137.668)" fill="#2a93fc" fill-rule="evenodd"/>
        <path id="Trazado_1042481" data-name="Trazado 1042481" d="M366.275,298.8a8.893,8.893,0,0,1,8.856,8.085H357.419A8.893,8.893,0,0,1,366.275,298.8Z" transform="translate(-337.09 -271.143)" fill="#fdc72e" fill-rule="evenodd"/>
        <path id="Trazado_1042482" data-name="Trazado 1042482" d="M372.664,307.125H357.42a8.894,8.894,0,0,1,8.027-8.046A9.15,9.15,0,0,1,372.664,307.125Z" transform="translate(-337.091 -271.386)" fill="#fcdb35" fill-rule="evenodd"/>
      </g>
      <circle id="Elipse_13370" data-name="Elipse 13370" cx="4.235" cy="4.235" r="4.235" transform="translate(68.289 35.664)" fill="#fdb0a0"/>
      <path id="Trazado_1042483" data-name="Trazado 1042483" d="M394.712,245.35a4.236,4.236,0,1,1,3.378-4.148A4.237,4.237,0,0,1,394.712,245.35Z" transform="translate(-323.045 -201.303)" fill="#ffcec0" fill-rule="evenodd"/>
      <path id="Trazado_1042484" data-name="Trazado 1042484" d="M199.843,441.294a8.893,8.893,0,0,1,8.856,8.085H190.987A8.893,8.893,0,0,1,199.843,441.294Z" transform="translate(-149.993 -377.718)" fill="#f2671f" fill-rule="evenodd"/>
      <path id="Trazado_1042485" data-name="Trazado 1042485" d="M206.232,449.622H190.987a8.894,8.894,0,0,1,8.027-8.046A9.15,9.15,0,0,1,206.232,449.622Z" transform="translate(-149.993 -377.961)" fill="#ff8748" fill-rule="evenodd"/>
      <circle id="Elipse_13371" data-name="Elipse 13371" cx="4.235" cy="4.235" r="4.235" transform="translate(45.615 55.078)" fill="#fdb0a0"/>
      <path id="Trazado_1042486" data-name="Trazado 1042486" d="M228.279,387.847a4.236,4.236,0,1,1,3.378-4.148A4.237,4.237,0,0,1,228.279,387.847Z" transform="translate(-179.287 -324.386)" fill="#ffcec0" fill-rule="evenodd"/>
      <path id="Trazado_1042487" data-name="Trazado 1042487" d="M33.41,298.8a8.893,8.893,0,0,1,8.856,8.085H24.554A8.893,8.893,0,0,1,33.41,298.8Z" transform="translate(-6.235 -254.635)" fill="#29b933" fill-rule="evenodd"/>
      <path id="Trazado_1042488" data-name="Trazado 1042488" d="M39.8,307.125H24.554a8.894,8.894,0,0,1,8.027-8.046A9.15,9.15,0,0,1,39.8,307.125Z" transform="translate(-6.235 -254.878)" fill="#2dd62d" fill-rule="evenodd"/>
      <circle id="Elipse_13372" data-name="Elipse 13372" cx="4.235" cy="4.235" r="4.235" transform="matrix(0.987, -0.16, 0.16, 0.987, 22.309, 36.395)" fill="#fdb0a0"/>
      <path id="Trazado_1042489" data-name="Trazado 1042489" d="M61.847,245.35a4.236,4.236,0,0,1,0-8.3,4.236,4.236,0,0,1,0,8.3Z" transform="translate(-35.529 -201.303)" fill="#ffcec0" fill-rule="evenodd"/>
      <path id="Trazado_1042490" data-name="Trazado 1042490" d="M56.9,40.112a.95.95,0,0,1,0,1.349l-6.376,6.376a.951.951,0,0,1-1.346,0l-2.712-2.71a.955.955,0,0,1,1.353-1.349l2.036,2.035,5.7-5.7a.949.949,0,0,1,1.346,0Zm7.847,11.23a7.978,7.978,0,0,1,15.557,0Zm-8.333,13.8A22.3,22.3,0,0,0,69.98,53.25H63.636a.95.95,0,0,1-.946-1.04,9.87,9.87,0,0,1,6.429-8.376,5.2,5.2,0,0,1,1.1-8.594,22.038,22.038,0,0,0-6.7-8.7l-.781,1.89,1.615,2.406a.96.96,0,0,1-.118,1.206L60.32,35.953a.957.957,0,0,1-1.208.119l-2.4-1.614-2.594,1.076-.565,2.842a.949.949,0,0,1-.933.768H47.081a.949.949,0,0,1-.932-.768l-.565-2.842L42.99,34.457l-2.4,1.614a.957.957,0,0,1-1.208-.119L35.471,32.04a.944.944,0,0,1-.118-1.206l1.609-2.406-.781-1.89a22.037,22.037,0,0,0-6.7,8.7,5.2,5.2,0,0,1,1.1,8.594,9.887,9.887,0,0,1,6.436,8.376.96.96,0,0,1-.25.729.944.944,0,0,1-.7.311H29.725A22.263,22.263,0,0,0,43.286,65.142a9.852,9.852,0,0,1,3.159-1.894,5.2,5.2,0,1,1,6.81,0,9.8,9.8,0,0,1,3.159,1.894Zm-6.56-2.529a3.3,3.3,0,1,1,3.3-3.3A3.3,3.3,0,0,1,49.852,62.614ZM42.07,70.757a7.977,7.977,0,0,1,15.557,0H42.07ZM27.177,45.137a7.92,7.92,0,0,1,7.775,6.206H19.4A7.909,7.909,0,0,1,27.177,45.137Zm0-8.53a3.3,3.3,0,1,1-3.3,3.3A3.3,3.3,0,0,1,27.177,36.607Zm7.007-17.019,2.574-.507a.952.952,0,0,0,.7-.571l1.464-3.537a.947.947,0,0,0-.085-.9L37.369,11.9l2.8-2.805,2.18,1.462a.958.958,0,0,0,.9.089l3.54-1.467a.953.953,0,0,0,.565-.7l.512-2.572h3.966l.506,2.572a.947.947,0,0,0,.571.7l3.533,1.467a.956.956,0,0,0,.9-.089l2.18-1.462,2.8,2.805-1.464,2.18a.948.948,0,0,0-.085.9l1.464,3.537a.963.963,0,0,0,.7.571l2.574.507v3.966l-2.574.508a.964.964,0,0,0-.7.569L60.78,28.169a.946.946,0,0,0,.085.9l1.464,2.18-2.8,2.805-2.18-1.462a.96.96,0,0,0-.9-.09l-3.533,1.469a.944.944,0,0,0-.571.7l-.506,2.572H47.869l-.512-2.572a.951.951,0,0,0-.565-.7L43.253,32.5a.962.962,0,0,0-.9.09l-2.18,1.462-2.8-2.805,1.464-2.18a.947.947,0,0,0,.085-.9l-1.464-3.538a.952.952,0,0,0-.7-.569l-2.574-.508ZM75.824,39.9a3.3,3.3,0,1,1-3.3-3.3A3.3,3.3,0,0,1,75.824,39.9ZM82.365,52.21a9.887,9.887,0,0,0-6.436-8.376A5.2,5.2,0,0,0,72.521,34.7c-.151,0-.3.008-.453.022a23.985,23.985,0,0,0-6.751-9.184l1.333-.263a.948.948,0,0,0,.768-.936V18.8a.948.948,0,0,0-.768-.936l-2.837-.56-1.077-2.594,1.615-2.407a.958.958,0,0,0-.118-1.2L60.32,7.188a.958.958,0,0,0-1.208-.117l-2.4,1.613L54.114,7.608l-.565-2.841A.95.95,0,0,0,52.617,4H47.081a.95.95,0,0,0-.932.768l-.565,2.841L42.99,8.684l-2.4-1.613a.958.958,0,0,0-1.208.117L35.464,11.1a.949.949,0,0,0-.112,1.2l1.609,2.407-1.077,2.594-2.837.56a.954.954,0,0,0-.768.936v5.534a.955.955,0,0,0,.768.936l1.34.263a24,24,0,0,0-6.757,9.184c-.151-.014-.3-.022-.453-.022a5.2,5.2,0,0,0-3.408,9.135A9.87,9.87,0,0,0,17.34,52.21a.956.956,0,0,0,.243.729.966.966,0,0,0,.7.311h9.351A24.225,24.225,0,0,0,41.88,66.687a9.757,9.757,0,0,0-1.865,4.937.931.931,0,0,0,.243.729.955.955,0,0,0,.7.311H58.737a.944.944,0,0,0,.7-.311.961.961,0,0,0,.25-.729,9.825,9.825,0,0,0-1.872-4.937A24.225,24.225,0,0,0,72.061,53.25h9.351a.944.944,0,0,0,.7-.311.96.96,0,0,0,.25-.729ZM49.852,14a7.579,7.579,0,0,0-7.572,7.57,7.485,7.485,0,0,0,1.051,3.839,8.214,8.214,0,0,1,3.48-2.695,4.2,4.2,0,1,1,6.081,0,8.2,8.2,0,0,1,3.474,2.695,7.486,7.486,0,0,0,1.051-3.839A7.577,7.577,0,0,0,49.852,14Zm0,8.113a2.3,2.3,0,1,0-2.3-2.3A2.3,2.3,0,0,0,49.852,22.115Zm-5.286,4.866a6.2,6.2,0,0,1,10.566,0,7.545,7.545,0,0,1-10.566,0Zm5.286,4.066a9.476,9.476,0,1,1,9.476-9.476A9.485,9.485,0,0,1,49.852,31.047Z" transform="translate(0 0)" fill-rule="evenodd"/>
    </g>
  </g>
</svg>
