<svg xmlns="http://www.w3.org/2000/svg" xmlns:xlink="http://www.w3.org/1999/xlink" width="110" height="110" viewBox="0 0 110 110">
  <defs>
    <filter id="Trazado_982547" x="0" y="0" width="110" height="110" filterUnits="userSpaceOnUse">
      <feOffset dy="3" input="SourceAlpha"/>
      <feGaussianBlur stdDeviation="3" result="blur"/>
      <feFlood flood-opacity="0.161"/>
      <feComposite operator="in" in2="blur"/>
      <feComposite in="SourceGraphic"/>
    </filter>
  </defs>
  <g id="Grupo_1185778" data-name="Grupo 1185778" transform="translate(-3112 -1345.29)">
    <g id="Grupo_1184119" data-name="Grupo 1184119" transform="translate(2280.761 -1079.71)">
      <g id="Grupo_1183743" data-name="Grupo 1183743" transform="translate(459.195 -389)">
        <g id="Grupo_1181545" data-name="Grupo 1181545" transform="translate(-5.417 -130)">
          <g id="Grupo_1177562" data-name="Grupo 1177562" transform="translate(0 -12113)">
            <g id="Grupo_1173147" data-name="Grupo 1173147" transform="translate(386.461 15063)">
              <g id="Grupo_1163801" data-name="Grupo 1163801" transform="translate(0 0)">
                <g id="Grupo_1163014" data-name="Grupo 1163014">
                  <g id="Grupo_1157015" data-name="Grupo 1157015" transform="translate(0 0)">
                    <g id="Grupo_1155792" data-name="Grupo 1155792" transform="translate(0 0)">
                      <g id="Grupo_1154703" data-name="Grupo 1154703">
                        <g id="Grupo_1150789" data-name="Grupo 1150789">
                          <g id="Grupo_1154212" data-name="Grupo 1154212">
                            <g id="Grupo_1152583" data-name="Grupo 1152583">
                              <g id="Grupo_1146973" data-name="Grupo 1146973" transform="translate(0 0)">
                                <g id="Grupo_1146954" data-name="Grupo 1146954">
                                  <g transform="matrix(1, 0, 0, 1, -9, -6)" filter="url(#Trazado_982547)">
                                    <g id="Trazado_982547-2" data-name="Trazado 982547" transform="translate(9 6)" fill="#f2f7e5">
                                      <path d="M 46.00000381469727 90.49988555908203 C 39.99188232421875 90.49988555908203 34.16427230834961 89.32352447509766 28.67905807495117 87.00347137451172 C 23.38020324707031 84.76226043701172 18.62103080749512 81.55342864990234 14.53375053405762 77.46615600585938 C 10.44645690917969 73.37887573242188 7.237643718719482 68.61971282958984 4.996417045593262 63.32085800170898 C 2.676363706588745 57.83565902709961 1.500003814697266 52.00806045532227 1.500003814697266 45.99993896484375 C 1.500003814697266 39.99181747436523 2.676363706588745 34.16421890258789 4.996417045593262 28.67901802062988 C 7.237643718719482 23.38017845153809 10.44645690917969 18.62101936340332 14.53375053405762 14.53373908996582 C 18.62103080749512 10.44645881652832 23.38020324707031 7.237632274627686 28.67905807495117 4.996418952941895 C 34.16427230834961 2.676365613937378 39.99188232421875 1.500005602836609 46.00000381469727 1.500005602836609 C 52.00812530517578 1.500005602836609 57.83573532104492 2.676365613937378 63.32094955444336 4.996418952941895 C 68.61980438232422 7.237632274627686 73.37896728515625 10.44645881652832 77.46625518798828 14.53373908996582 C 81.55353546142578 18.62101936340332 84.76236724853516 23.38017845153809 87.00359344482422 28.67901802062988 C 89.32364654541016 34.16421890258789 90.5 39.99181747436523 90.5 45.99993896484375 C 90.5 52.00806045532227 89.32364654541016 57.83565902709961 87.00359344482422 63.32085800170898 C 84.76236724853516 68.61971282958984 81.55353546142578 73.37887573242188 77.46625518798828 77.46615600585938 C 73.37896728515625 81.55342864990234 68.61980438232422 84.76226043701172 63.32094955444336 87.00347137451172 C 57.83573532104492 89.32352447509766 52.00812530517578 90.49988555908203 46.00000381469727 90.49988555908203 Z" stroke="none"/>
                                      <path d="M 46.00000381469727 2.999992370605469 C 40.19371795654297 2.999992370605469 34.56270217895508 4.136497497558594 29.26338958740234 6.377906799316406 C 24.14333343505859 8.543510437011719 19.54441833496094 11.64437866210938 15.59440612792969 15.59439849853516 C 11.64440155029297 19.54439544677734 8.54351806640625 24.14329528808594 6.377914428710938 29.26335144042969 C 4.136505126953125 34.56266784667969 3.000007629394531 40.19366836547852 3.000007629394531 45.99993896484375 C 3.000007629394531 51.80620956420898 4.136505126953125 57.43722534179688 6.377914428710938 62.73654174804688 C 8.54351806640625 67.85658264160156 11.64440155029297 72.45548248291016 15.59440612792969 76.40549468994141 C 19.54441833496094 80.35549926757812 24.14333343505859 83.45636749267578 29.26337432861328 85.62196350097656 C 34.56270217895508 87.86338043212891 40.19371795654297 88.9998779296875 46.00000381469727 88.9998779296875 C 51.80628967285156 88.9998779296875 57.43730545043945 87.86338043212891 62.73663330078125 85.62196350097656 C 67.85667419433594 83.45636749267578 72.45558929443359 80.35549926757812 76.40560150146484 76.40549468994141 C 80.35560607910156 72.45548248291016 83.45648956298828 67.85658264160156 85.62208557128906 62.73654174804688 C 87.86350250244141 57.43722534179688 89 51.80620956420898 89 45.99993896484375 C 89 40.19366836547852 87.86350250244141 34.56266784667969 85.62208557128906 29.26335144042969 C 83.45648956298828 24.14329528808594 80.35560607910156 19.54439544677734 76.40560150146484 15.59439849853516 C 72.45558929443359 11.64437866210938 67.85667419433594 8.543510437011719 62.73661804199219 6.377906799316406 C 57.43730545043945 4.136497497558594 51.80628967285156 2.999992370605469 46.00000381469727 2.999992370605469 M 46.00000381469727 -7.62939453125e-06 C 71.40510559082031 -7.62939453125e-06 92 20.59487915039062 92 45.99993896484375 C 92 71.40501403808594 71.40510559082031 91.99988555908203 46.00000381469727 91.99988555908203 C 20.59490203857422 91.99988555908203 7.62939453125e-06 71.40501403808594 7.62939453125e-06 45.99993896484375 C 7.62939453125e-06 20.59487915039062 20.59490203857422 -7.62939453125e-06 46.00000381469727 -7.62939453125e-06 Z" stroke="none" fill="#86b60c"/>
                                    </g>
                                  </g>
                                </g>
                              </g>
                            </g>
                          </g>
                        </g>
                      </g>
                    </g>
                  </g>
                </g>
              </g>
            </g>
          </g>
        </g>
      </g>
    </g>
    <g id="candidatos" transform="translate(3136 1366)">
      <g id="Grupo_1185745" data-name="Grupo 1185745" transform="translate(24.118 0.908)">
        <path id="Trazado_1042511" data-name="Trazado 1042511" d="M218.336,15.889a1.832,1.832,0,0,1-.226-.737c-.326-4.262-5.6-7.652-12.057-7.652h-.061c-3.539,1.15-6.821,3.737-6.821,6.669,0,7.417,7.709,9.912,7.709,9.912H219.97a14.148,14.148,0,0,0,.078-1.483,13.929,13.929,0,0,0-1.712-6.711Z" transform="translate(-199.172 -7.5)" fill="#ea5b70"/>
      </g>
      <g id="Grupo_1185746" data-name="Grupo 1185746" transform="translate(17.005 0.909)">
        <path id="Trazado_1042512" data-name="Trazado 1042512" d="M155.254,21.2a7.416,7.416,0,0,1-.887-13.7c-6.431.021-11.672,3.4-12,7.651a1.833,1.833,0,0,1-.226.737,13.929,13.929,0,0,0-1.712,6.711,14.146,14.146,0,0,0,.078,1.483h14.744Z" transform="translate(-140.432 -7.503)" fill="#d34459"/>
      </g>
      <g id="Grupo_1185747" data-name="Grupo 1185747" transform="translate(15.528 14.996)">
        <circle id="Elipse_13373" data-name="Elipse 13373" cx="2.995" cy="2.995" r="2.995" fill="#f9bbaf"/>
      </g>
      <g id="Grupo_1185748" data-name="Grupo 1185748" transform="translate(40.482 14.996)">
        <circle id="Elipse_13374" data-name="Elipse 13374" cx="2.995" cy="2.995" r="2.995" fill="#ffcbbe"/>
      </g>
      <g id="Grupo_1185749" data-name="Grupo 1185749" transform="translate(19.728 13.661)">
        <path id="Trazado_1042513" data-name="Trazado 1042513" d="M178.423,126.318l-6.611-13.5a18.027,18.027,0,0,1-1.891.475,14.484,14.484,0,0,1-4.574.191,2.145,2.145,0,0,0-2.429,2.052q0,.054,0,.109a11.279,11.279,0,0,0,13.915,11.195l0,0A11.192,11.192,0,0,0,178.423,126.318Z" transform="translate(-162.912 -112.814)" fill="#ffcbbe"/>
      </g>
      <g id="Grupo_1185751" data-name="Grupo 1185751" transform="translate(28.204 8.413)">
        <g id="Grupo_1185750" data-name="Grupo 1185750">
          <path id="Trazado_1042514" data-name="Trazado 1042514" d="M244.026,70.175a2.145,2.145,0,0,0-3.151-.026,16.814,16.814,0,0,1-5.954,4.005c-.529.217-1.058.4-1.585.566a11.272,11.272,0,0,0,6.611,13.5,11.268,11.268,0,0,0,4.079-18.05Z" transform="translate(-232.913 -69.472)" fill="#ffded0"/>
        </g>
      </g>
      <g id="Grupo_1185752" data-name="Grupo 1185752" transform="translate(4.759 42.044)">
        <path id="Trazado_1042515" data-name="Trazado 1042515" d="M62.42,355.7a12.033,12.033,0,0,0-23,0,2.744,2.744,0,0,0,2.631,3.537h5.509l3.359-1.521,3.359,1.521h5.509A2.744,2.744,0,0,0,62.42,355.7Z" transform="translate(-39.299 -347.205)" fill="#5ad6ff"/>
      </g>
      <g id="Grupo_1185753" data-name="Grupo 1185753" transform="translate(13.021 46.684)">
        <path id="Trazado_1042516" data-name="Trazado 1042516" d="M112.869,385.519l1.378,7.389h-6.718l1.378-7.389Z" transform="translate(-107.528 -385.519)" fill="#5b778f"/>
      </g>
      <g id="Grupo_1185754" data-name="Grupo 1185754" transform="translate(13.353 43.657)">
        <path id="Trazado_1042517" data-name="Trazado 1042517" d="M113.3,366.574a3.027,3.027,0,1,0-3.027-3.027A3.027,3.027,0,0,0,113.3,366.574Z" transform="translate(-110.268 -360.519)" fill="#7a8fa5"/>
      </g>
      <g id="Grupo_1185755" data-name="Grupo 1185755" transform="translate(9.534 18.218)">
        <path id="Trazado_1042518" data-name="Trazado 1042518" d="M85.577,150.448c-.215,0-.428.007-.64.017-3.644,1.584-6.206,5-6.206,8.3,0,2.863,1.564,5.833,5.344,7.443H99.412a13.934,13.934,0,0,0-13.835-15.76Z" transform="translate(-78.731 -150.448)" fill="#db9e82"/>
      </g>
      <g id="Grupo_1185756" data-name="Grupo 1185756" transform="translate(2.425 18.233)">
        <path id="Trazado_1042519" data-name="Trazado 1042519" d="M29.622,158.875a11.089,11.089,0,0,1,3.724-8.3,13.933,13.933,0,0,0-13.2,15.745H32.482A11.075,11.075,0,0,1,29.622,158.875Z" transform="translate(-20.029 -150.573)" fill="#c8866a"/>
      </g>
      <g id="Grupo_1185757" data-name="Grupo 1185757" transform="translate(0.908 32.525)">
        <circle id="Elipse_13375" data-name="Elipse 13375" cx="2.995" cy="2.995" r="2.995" fill="#f9bbaf"/>
      </g>
      <g id="Grupo_1185758" data-name="Grupo 1185758" transform="translate(10.857 24.95)">
        <path id="Trazado_1042520" data-name="Trazado 1042520" d="M106.2,215.6a11.009,11.009,0,0,0-5.221-9.37,1.308,1.308,0,0,0-1.932.737l-.005.016c-1.035,3.235-4.032,5.167-6.693,4.315a4.191,4.191,0,0,1-.566-.228l-.014-.006c-1.816,1.732-2.112,2.818-2.112,4.364,0,4.932,2.06,9.06,8.778,10.7-.1.03-.194.058-.291.085A11.021,11.021,0,0,0,106.2,215.6Z" transform="translate(-89.657 -206.037)" fill="#ffddcf"/>
      </g>
      <g id="Grupo_1185759" data-name="Grupo 1185759" transform="translate(5.36 29.84)">
        <path id="Trazado_1042521" data-name="Trazado 1042521" d="M51,250.924a11.326,11.326,0,0,1,.87-4.364,1.362,1.362,0,0,0-1.549.249,4.929,4.929,0,0,1-4.949,1.429l-.007,0a.649.649,0,0,0-.841.468A11.019,11.019,0,0,0,58.54,261.623,11.365,11.365,0,0,1,51,250.924Z" transform="translate(-44.265 -246.422)" fill="#ffcbbe"/>
      </g>
      <g id="Grupo_1185760" data-name="Grupo 1185760" transform="translate(33.999 42.044)">
        <path id="Trazado_1042522" data-name="Trazado 1042522" d="M303.885,355.7a12.033,12.033,0,0,0-23,0,2.744,2.744,0,0,0,2.632,3.537h5.509l3.359-1.52,3.359,1.52h5.509A2.744,2.744,0,0,0,303.885,355.7Z" transform="translate(-280.764 -347.205)" fill="#ea5b70"/>
      </g>
      <g id="Grupo_1185761" data-name="Grupo 1185761" transform="translate(42.261 46.684)">
        <path id="Trazado_1042523" data-name="Trazado 1042523" d="M350.37,385.519l-1.378,7.389h6.718l-1.378-7.389Z" transform="translate(-348.992 -385.519)" fill="#d4d4ff"/>
      </g>
      <g id="Grupo_1185762" data-name="Grupo 1185762" transform="translate(42.593 43.657)">
        <path id="Trazado_1042524" data-name="Trazado 1042524" d="M354.759,366.574a3.027,3.027,0,1,1,3.027-3.027A3.027,3.027,0,0,1,354.759,366.574Z" transform="translate(-351.732 -360.519)" fill="#efedff"/>
      </g>
      <g id="Grupo_1185763" data-name="Grupo 1185763" transform="translate(30.849 18.732)">
        <path id="Trazado_1042525" data-name="Trazado 1042525" d="M260.653,158.167a12.459,12.459,0,0,1-1.446,1.413c-2.746,2.245-4.455,5.165-4.455,7.783a6.445,6.445,0,0,0,1.027,3.434,1.952,1.952,0,0,1,.27.73h11.277l-1.305-16.838S262.072,156.559,260.653,158.167Z" transform="translate(-254.752 -154.69)" fill="#4e6a7f"/>
      </g>
      <g id="Grupo_1185764" data-name="Grupo 1185764" transform="translate(39.476 18.582)">
        <path id="Trazado_1042526" data-name="Trazado 1042526" d="M342.385,158.394a10.484,10.484,0,0,1-1.324-1.26,11.836,11.836,0,0,0-5.426-3.538,3.613,3.613,0,0,0-3.026.472.861.861,0,0,1-.47.143.818.818,0,0,1-.19-.024.9.9,0,0,1-.28-.119,3.618,3.618,0,0,0-3.032-.47c-4.012,4.47-3.358,11.764,1.305,16.838h15.715a2.037,2.037,0,0,1,.28-.819,6.419,6.419,0,0,0,.973-3.345C346.911,163.617,345.177,160.651,342.385,158.394Z" transform="translate(-325.996 -153.448)" fill="#5b778f"/>
      </g>
      <g id="Grupo_1185765" data-name="Grupo 1185765" transform="translate(55.102 32.525)">
        <circle id="Elipse_13376" data-name="Elipse 13376" cx="2.995" cy="2.995" r="2.995" fill="#c8866a"/>
      </g>
      <g id="Grupo_1185766" data-name="Grupo 1185766" transform="translate(34.263 27.899)">
        <path id="Trazado_1042527" data-name="Trazado 1042527" d="M305.66,236.672q0-.251-.011-.5a2.266,2.266,0,0,0-.717-1.564,5.246,5.246,0,0,1-1.511-2.745l-.005-.025a1.823,1.823,0,0,0-1.548-1.443c-.9-.113-4.811,4.152-18.232,4.152-.565,0-.642.931-.673,1.5q-.015.264-.017.531a11.357,11.357,0,1,0,22.713.1Z" transform="translate(-282.947 -230.395)" fill="#db9e82"/>
      </g>
      <g id="Grupo_1185767" data-name="Grupo 1185767" transform="translate(19.379 49.064)">
        <path id="Trazado_1042528" data-name="Trazado 1042528" d="M174.838,405.6a12.034,12.034,0,0,0-14.685,8.062,2.744,2.744,0,0,0,2.632,3.537h5.509l.162-.09Z" transform="translate(-160.031 -405.17)" fill="#d4d4ff"/>
      </g>
      <g id="Grupo_1185768" data-name="Grupo 1185768" transform="translate(25.749 49.493)">
        <path id="Trazado_1042529" data-name="Trazado 1042529" d="M229.386,416.78a12.049,12.049,0,0,0-8.318-8.061,12.052,12.052,0,0,0-8.311,8.061,2.741,2.741,0,0,0,1.933,3.448l3.2-1.769,3.359,1.858h5.509A2.744,2.744,0,0,0,229.386,416.78Z" transform="translate(-212.635 -408.719)" fill="#efedff"/>
      </g>
      <g id="Grupo_1185769" data-name="Grupo 1185769" transform="translate(27.641 53.703)">
        <path id="Trazado_1042530" data-name="Trazado 1042530" d="M229.638,443.484l-1.378,7.389h6.718l-1.378-7.389Z" transform="translate(-228.26 -443.484)" fill="#00c140"/>
      </g>
      <g id="Grupo_1185770" data-name="Grupo 1185770" transform="translate(27.973 50.676)">
        <path id="Trazado_1042531" data-name="Trazado 1042531" d="M234.027,424.539a3.027,3.027,0,1,1,3.027-3.027A3.027,3.027,0,0,1,234.027,424.539Z" transform="translate(-231 -418.484)" fill="#55d47b"/>
      </g>
      <g id="Grupo_1185771" data-name="Grupo 1185771" transform="translate(23.949 26.021)">
        <path id="Trazado_1042532" data-name="Trazado 1042532" d="M204.823,214.883c-.215,0-.428.007-.64.017-3.173,1.816-6.411,5-6.411,8.3,0,2.862,2.468,6.1,5.549,7.44h15.33a13.928,13.928,0,0,0-13.829-15.753Z" transform="translate(-197.772 -214.883)" fill="#f8ea69"/>
      </g>
      <g id="Grupo_1185772" data-name="Grupo 1185772" transform="translate(17.051 26.036)">
        <path id="Trazado_1042533" data-name="Trazado 1042533" d="M150.4,223.306a11.084,11.084,0,0,1,3.722-8.3,13.926,13.926,0,0,0-13.191,15.738h12.327A11.071,11.071,0,0,1,150.4,223.306Z" transform="translate(-140.809 -215.008)" fill="#ffcf6b"/>
      </g>
      <g id="Grupo_1185773" data-name="Grupo 1185773" transform="translate(15.528 39.801)">
        <circle id="Elipse_13377" data-name="Elipse 13377" cx="2.936" cy="2.936" r="2.936" fill="#f9bbaf"/>
      </g>
      <g id="Grupo_1185774" data-name="Grupo 1185774" transform="translate(40.6 39.801)">
        <circle id="Elipse_13378" data-name="Elipse 13378" cx="2.936" cy="2.936" r="2.936" fill="#ffccbf"/>
      </g>
      <g id="Grupo_1185775" data-name="Grupo 1185775" transform="translate(22.412 35.654)">
        <path id="Trazado_1042534" data-name="Trazado 1042534" d="M203.631,295.266a1.45,1.45,0,0,0-2.367-.376,4.164,4.164,0,0,1-5.578.395,1.438,1.438,0,0,0-1.294-.252,3.367,3.367,0,0,1-1.9,0,1.437,1.437,0,0,0-1.294.252,4.143,4.143,0,0,1-1.935.839c-1.88,1.88-4.191,3.547-4.191,5.581,0,4.11,4.1,7.526,8.236,9.626l.058,0a11.263,11.263,0,0,0,10.26-16.067Z" transform="translate(-185.077 -294.435)" fill="#ffded0"/>
      </g>
      <g id="Grupo_1185776" data-name="Grupo 1185776" transform="translate(19.516 35.654)">
        <path id="Trazado_1042535" data-name="Trazado 1042535" d="M166.754,301.706a11.072,11.072,0,0,1,1.5-5.581,4.159,4.159,0,0,1-3.643-1.234,1.45,1.45,0,0,0-2.367.376A11.263,11.263,0,0,0,172.3,311.333,11.12,11.12,0,0,1,166.754,301.706Z" transform="translate(-161.168 -294.436)" fill="#ffccbf"/>
      </g>
      <g id="Grupo_1185777" data-name="Grupo 1185777" transform="translate(0 0)">
        <path id="Trazado_1042536" data-name="Trazado 1042536" d="M56.81,39.2A3.9,3.9,0,0,0,61.1,33.035a6.983,6.983,0,0,0,.195-1.629c0-2.913-1.818-6.122-4.863-8.584a9.528,9.528,0,0,1-1.21-1.151,12.728,12.728,0,0,0-5.842-3.809,4.311,4.311,0,0,0-2.012-.121,3.9,3.9,0,0,0-1.51-2.838,14.719,14.719,0,0,0-1.782-6.043.932.932,0,0,1-.117-.371C43.6,3.729,37.9,0,31,0h-.062a17.506,17.506,0,0,0-6.9,1.385.908.908,0,1,0,.727,1.665,15.67,15.67,0,0,1,6.144-1.234H31A14.748,14.748,0,0,1,38.84,3.9a6.422,6.422,0,0,1,3.311,4.727,2.722,2.722,0,0,0,.335,1.1,12.907,12.907,0,0,1,1.465,4.384,3.843,3.843,0,0,0-1.051.013A12.14,12.14,0,0,0,39.987,8.5a3.081,3.081,0,0,0-2.259-1H37.72a3.032,3.032,0,0,0-2.222.968,15.848,15.848,0,0,1-5.631,3.782,17.5,17.5,0,0,1-3.3.99,13.676,13.676,0,0,1-4.285.182,3.075,3.075,0,0,0-2.387.707c-.055.047-.108.1-.159.147a3.86,3.86,0,0,0-1.683-.163,12.906,12.906,0,0,1,1.465-4.384,2.722,2.722,0,0,0,.335-1.1,5.512,5.512,0,0,1,1.609-3.343A.908.908,0,0,0,20.14,4.036a7.3,7.3,0,0,0-2.1,4.455.933.933,0,0,1-.117.37A14.719,14.719,0,0,0,16.139,14.9a3.9,3.9,0,0,0-1.475,2.506A14.83,14.83,0,0,0,1.517,32.173c0,.086,0,.172,0,.259a3.9,3.9,0,0,0,3.869,6.7A12.071,12.071,0,0,0,8.729,43.64a12.914,12.914,0,0,0-4.717,6.628,3.652,3.652,0,0,0,3.5,4.712H19.6a12.892,12.892,0,0,0-.965,2.307A3.652,3.652,0,0,0,22.132,62H39.868a3.652,3.652,0,0,0,3.5-4.712,12.936,12.936,0,0,0-.963-2.307H54.488a3.652,3.652,0,0,0,3.5-4.712.908.908,0,1,0-1.736.533,1.8,1.8,0,0,1-.278,1.612,1.83,1.83,0,0,1-1.485.75H49.734l-.81-4.345a3.9,3.9,0,0,0,.536-2.993l.025-.008a12.311,12.311,0,0,0,2.273-1.02,11.125,11.125,0,0,1,2.728,2.56.908.908,0,1,0,1.447-1.1,12.939,12.939,0,0,0-2.58-2.559,12.245,12.245,0,0,0,3.457-4.5Zm1.286-1.6a2.086,2.086,0,0,1-.667-.11,12.3,12.3,0,0,0,.456-3.32c0-.179,0-.36-.012-.539,0-.064-.008-.128-.015-.191a2.131,2.131,0,0,1,.238-.014,2.087,2.087,0,0,1,0,4.174ZM48.847,19.6a10.913,10.913,0,0,1,5.009,3.266,11.311,11.311,0,0,0,1.438,1.37c2.584,2.089,4.189,4.836,4.189,7.171,0,.153-.008.305-.022.458a3.9,3.9,0,0,0-2.323-.127,3.08,3.08,0,0,0-.272-.289,4.348,4.348,0,0,1-1.241-2.272l0-.019A2.735,2.735,0,0,0,53.3,27c-.493-.062-.911.168-1.671.586a25.341,25.341,0,0,1-9.1,3.017,14.885,14.885,0,0,0-7.963-5.058,14.453,14.453,0,0,1,1.317-1.22,13.29,13.29,0,0,0,1.552-1.515A10.917,10.917,0,0,1,42.386,19.6a2.72,2.72,0,0,1,2.272.366,1.8,1.8,0,0,0,.962.288,1.775,1.775,0,0,0,.962-.288,2.715,2.715,0,0,1,2.265-.368ZM41.225,53.164A12.943,12.943,0,0,0,38.6,50.619q.393-.33.762-.7a12.192,12.192,0,0,0,2.327-3.217,3.912,3.912,0,0,0,.632,2.112l-.81,4.345ZM29.282,57.243a3.929,3.929,0,0,0,3.435,0l.548,2.94H28.734Zm3.837-3.54a2.119,2.119,0,1,1-4.2-.385,14.774,14.774,0,0,0,4.151-.071,2.132,2.132,0,0,1,.05.457ZM23.5,48.642a10.328,10.328,0,0,1-2.092-11.768.527.527,0,0,1,.4-.3.551.551,0,0,1,.49.168A5.03,5.03,0,0,0,25.966,38.3a5.122,5.122,0,0,0,.774-.06A5.068,5.068,0,0,0,29.1,37.218a.53.53,0,0,1,.476-.1,4.3,4.3,0,0,0,2.41,0,.53.53,0,0,1,.476.1,5.072,5.072,0,0,0,6.8-.481.55.55,0,0,1,.49-.168.527.527,0,0,1,.4.3A10.348,10.348,0,0,1,23.5,48.642Zm-2.73,4.522h-.281l-.81-4.345a3.909,3.909,0,0,0,.568-1.431,12.352,12.352,0,0,0,2.932,3.4A12.981,12.981,0,0,0,20.775,53.164Zm-4.9-6.733q.247.01.5.01c.313,0,.626-.015.937-.039a3.832,3.832,0,0,0,1.16.179h.031c0,.035,0,.069,0,.1a2.119,2.119,0,1,1-4.2-.424,11.759,11.759,0,0,0,1.568.172Zm2.739-4.873a12.117,12.117,0,0,0,.474,3.11,2.028,2.028,0,1,1-.621-3.959c.053,0,.106,0,.158.007C18.61,41,18.605,41.276,18.611,41.558Zm-3.949,8.666a3.929,3.929,0,0,0,3.435,0l.548,2.94H14.114Zm28.873-5.459a2.02,2.02,0,0,1-1.01-.271,12.24,12.24,0,0,0,.424-3.2c0-.164,0-.328-.011-.491a2.028,2.028,0,1,1,.6,3.966ZM44,38.922a3.777,3.777,0,0,0-1.267.057,12.036,12.036,0,0,0-.944-2.882,2.358,2.358,0,0,0-3.843-.616,3.256,3.256,0,0,1-4.361.309,2.349,2.349,0,0,0-2.112-.41,2.468,2.468,0,0,1-1.382,0,2.35,2.35,0,0,0-2.112.41,3.249,3.249,0,0,1-1.511.656,3.217,3.217,0,0,1-2.85-.965,2.358,2.358,0,0,0-3.843.616,12.049,12.049,0,0,0-.931,2.815c-.124-.012-.25-.019-.376-.019a3.868,3.868,0,0,0-.463.029C19.256,23.056,42.737,23.137,44,38.922ZM43.477,15.9a2.085,2.085,0,0,1,2.052,2.466,4.664,4.664,0,0,0-2.387-.693c.025-.317.038-.635.038-.953,0-.265-.012-.529-.029-.791A2.116,2.116,0,0,1,43.477,15.9ZM21.07,15.516a1.239,1.239,0,0,1,.975-.288,15.293,15.293,0,0,0,4.864-.2,19.319,19.319,0,0,0,3.648-1.093,17.668,17.668,0,0,0,6.277-4.229,1.2,1.2,0,0,1,.888-.385h0a1.26,1.26,0,0,1,.924.408,10.334,10.334,0,0,1,2.717,6.994,10.515,10.515,0,0,1-.085,1.335,12.741,12.741,0,0,0-5.21,3.55,11.5,11.5,0,0,1-1.34,1.31,15.8,15.8,0,0,0-2.27,2.266q-.72-.07-1.459-.072c-.19,0-.39,0-.625.015h-.054c-.275.012-.548.033-.818.06a14.861,14.861,0,0,0-8.793-7.235,10.376,10.376,0,0,1-.072-1.448l0-.1a1.2,1.2,0,0,1,.429-.89Zm-2.2.417a3.008,3.008,0,0,0-.043.418c0,.04,0,.079,0,.118-.007.349,0,.7.025,1.048a14.936,14.936,0,0,0-2.3-.2A2.089,2.089,0,0,1,18.523,15.9,2.112,2.112,0,0,1,18.868,15.933Zm-3.139,3.211h.053c.232-.011.422-.016.6-.016A13.037,13.037,0,0,1,27.594,25.5a14.77,14.77,0,0,0-2.531.835,11.958,11.958,0,0,0-2.405-1.968,2.182,2.182,0,0,0-1.918-.193,2.229,2.229,0,0,0-1.358,1.427l0,.014a5.925,5.925,0,0,1-2.364,3.2,3.734,3.734,0,0,1-3.187.524,3.269,3.269,0,0,1-.437-.175l-.043-.02a2.275,2.275,0,0,0-2.566.431,4.02,4.02,0,0,1-4.038,1.206,1.578,1.578,0,0,0-1.266.131,1.546,1.546,0,0,0-.679.8,3.85,3.85,0,0,0-1.453-.065A13.016,13.016,0,0,1,15.729,19.143ZM3.9,37.607a2.087,2.087,0,1,1,.591-4.088,11.976,11.976,0,0,0-.033,1.465A11.769,11.769,0,0,0,4.809,37.4a2.067,2.067,0,0,1-.906.207Zm2.373-2.693A10.136,10.136,0,0,1,6.452,32.6a5.842,5.842,0,0,0,5.608-1.724.455.455,0,0,1,.515-.075l.023.011a5.112,5.112,0,0,0,.673.27A5.515,5.515,0,0,0,18,30.35,7.735,7.735,0,0,0,21.1,26.184l.009-.028a.424.424,0,0,1,.257-.273.368.368,0,0,1,.331.033,10.15,10.15,0,0,1,1.668,1.294,14.834,14.834,0,0,0-6.813,9.262A1.38,1.38,0,0,1,15.326,36,.908.908,0,1,0,13.957,37.2a3.214,3.214,0,0,0,2.28,1.1q-.076.679-.09,1.376a3.838,3.838,0,0,0-1.077,4.867,10.165,10.165,0,0,1-8.794-9.625Zm-.25,17.5A1.8,1.8,0,0,1,5.749,50.8,11.106,11.106,0,0,1,10.3,44.761a11.892,11.892,0,0,0,2.244,1.044,3.912,3.912,0,0,0,.531,3.014l-.81,4.345H7.512a1.831,1.831,0,0,1-1.485-.75Zm14.62,7.019a1.8,1.8,0,0,1-.278-1.612,11.122,11.122,0,0,1,4.412-5.948,12.05,12.05,0,0,0,2.366,1.032,3.952,3.952,0,0,0-.082.8,3.91,3.91,0,0,0,.632,2.135l-.81,4.345H22.132A1.83,1.83,0,0,1,20.646,59.434Zm20.707,0a1.83,1.83,0,0,1-1.485.75H35.114l-.81-4.345a3.911,3.911,0,0,0,.632-2.135,3.951,3.951,0,0,0-.111-.928,12.016,12.016,0,0,0,2.2-1.032,11.1,11.1,0,0,1,4.609,6.078,1.8,1.8,0,0,1-.278,1.612Zm2-6.269.548-2.94a3.929,3.929,0,0,0,3.435,0l.548,2.94H43.354Zm4.385-6.48a2.119,2.119,0,1,1-4.238,0c0-.035,0-.069,0-.1h.031a3.829,3.829,0,0,0,1.156-.178c.309.023.62.038.932.038h.161a12.263,12.263,0,0,0,1.914-.176A2.147,2.147,0,0,1,47.739,46.684Zm1.173-2.59a10.424,10.424,0,0,1-1.984.449,3.838,3.838,0,0,0-1.075-4.871q-.014-.7-.091-1.375a3.214,3.214,0,0,0,2.281-1.1A.908.908,0,1,0,46.674,36a1.38,1.38,0,0,1-1.234.468,14.773,14.773,0,0,0-1.752-4.224,26.831,26.831,0,0,0,8.814-3.07c.25-.138.529-.291.677-.355a.923.923,0,0,1,.665.707l.007.03a6.175,6.175,0,0,0,1.782,3.219,1.364,1.364,0,0,1,.426.937c.007.152.01.306.01.459a10.433,10.433,0,0,1-7.157,9.918Z" transform="translate(0 0)"/>
        <path id="Trazado_1042537" data-name="Trazado 1042537" d="M194.954,331.358a.908.908,0,0,0-.908.908v1.267a.908.908,0,0,0,1.816,0v-1.267A.908.908,0,0,0,194.954,331.358Z" transform="translate(-170.548 -291.233)"/>
        <path id="Trazado_1042538" data-name="Trazado 1042538" d="M304.77,333.533v-1.267a.908.908,0,0,0-1.816,0v1.267a.908.908,0,0,0,1.816,0Z" transform="translate(-266.268 -291.233)"/>
        <path id="Trazado_1042539" data-name="Trazado 1042539" d="M239.125,341.734a.908.908,0,0,0-1.281.088,1.4,1.4,0,0,1-2.108,0,.908.908,0,1,0-1.369,1.193,3.213,3.213,0,0,0,4.846,0A.908.908,0,0,0,239.125,341.734Z" transform="translate(-205.79 -300.156)"/>
        <path id="Trazado_1042540" data-name="Trazado 1042540" d="M75.13,286.773v-1.267a.908.908,0,1,0-1.816,0v1.267a.908.908,0,1,0,1.816,0Z" transform="translate(-64.436 -250.135)"/>
        <path id="Trazado_1042541" data-name="Trazado 1042541" d="M425.5,285.506a.908.908,0,0,0-1.816,0v1.267a.908.908,0,0,0,1.816,0Z" transform="translate(-372.38 -250.135)"/>
        <path id="Trazado_1042542" data-name="Trazado 1042542" d="M194.954,134.807a.908.908,0,0,0,.908-.908v-1.267a.908.908,0,0,0-1.816,0V133.9A.908.908,0,0,0,194.954,134.807Z" transform="translate(-170.548 -115.772)"/>
        <path id="Trazado_1042543" data-name="Trazado 1042543" d="M303.862,134.807a.908.908,0,0,0,.908-.908v-1.267a.908.908,0,1,0-1.816,0V133.9A.908.908,0,0,0,303.862,134.807Z" transform="translate(-266.268 -115.772)"/>
        <path id="Trazado_1042544" data-name="Trazado 1042544" d="M236.79,144.484a3.214,3.214,0,0,0,2.423-1.1.908.908,0,0,0-1.369-1.193,1.4,1.4,0,0,1-2.108,0,.908.908,0,1,0-1.369,1.193A3.214,3.214,0,0,0,236.79,144.484Z" transform="translate(-205.79 -124.695)"/>
      </g>
    </g>
  </g>
</svg>
