<svg xmlns="http://www.w3.org/2000/svg" width="37.675" height="32.173" viewBox="0 0 37.675 32.173">
  <g id="support_7441228" transform="translate(-7 -42.047)">
    <path id="Trazado_1027341" data-name="Trazado 1027341" d="M219.331,51.439l-3.546-1.524c-1.464-.629-2.411.98-2.082,2.036" transform="translate(-190.926 -6.902)" fill="none" stroke="#000" stroke-miterlimit="22.926" stroke-width="1" fill-rule="evenodd"/>
    <path id="Trazado_1027342" data-name="Trazado 1027342" d="M349.884,141.231a1.753,1.753,0,0,1,2.479,2.479l-1.9,1.9" transform="translate(-317.118 -91.138)" fill="none" stroke="#000" stroke-miterlimit="2.613" stroke-width="1" fill-rule="evenodd"/>
    <path id="Trazado_1027343" data-name="Trazado 1027343" d="M321.587,107.289l1.786-1.786a1.753,1.753,0,0,0-2.479-2.479" transform="translate(-290.267 -55.75)" fill="none" stroke="#000" stroke-miterlimit="2.613" stroke-width="1" fill-rule="evenodd"/>
    <path id="Trazado_1027344" data-name="Trazado 1027344" d="M67.456,193.641l-3.772,3.772m8.165,8.165,2.819-2.819,3.767-.263,10.223-10.223a1.753,1.753,0,0,0-2.479-2.479" transform="translate(-52.038 -136.117)" fill="none" stroke="#000" stroke-miterlimit="22.926" stroke-width="1" fill-rule="evenodd"/>
    <path id="Trazado_1027345" data-name="Trazado 1027345" d="M249.191,69l3.07-3.07a1.753,1.753,0,0,1,2.479,2.479l-1.53,1.529" transform="translate(-223.856 -21.39)" fill="none" stroke="#000" stroke-miterlimit="22.926" stroke-width="1" fill-rule="evenodd"/>
    <path id="Trazado_1027346" data-name="Trazado 1027346" d="M177.067,77.9a1.753,1.753,0,0,0,2.479-2.479l-2.558-2.558a1.753,1.753,0,1,0-2.479,2.479Z" transform="translate(-154.211 -27.815)" fill="none" stroke="#000" stroke-miterlimit="22.926" stroke-width="1" fill-rule="evenodd"/>
    <path id="Trazado_1027347" data-name="Trazado 1027347" d="M146.888,109.962a1.753,1.753,0,0,0-2.479,2.479l2.3,2.3a1.753,1.753,0,0,0,2.479-2.479" transform="translate(-126.332 -62.176)" fill="none" stroke="#000" stroke-miterlimit="22.926" stroke-width="1" fill-rule="evenodd"/>
    <path id="Trazado_1027348" data-name="Trazado 1027348" d="M117.9,148.168a1.753,1.753,0,0,0-2.479,2.479l1.96,1.96a1.753,1.753,0,0,0,2.479-2.479" transform="translate(-99.481 -97.563)" fill="none" stroke="#000" stroke-miterlimit="22.926" stroke-width="1" fill-rule="evenodd"/>
    <path id="Trazado_1027349" data-name="Trazado 1027349" d="M99.264,196.731a1.753,1.753,0,0,0-2.479,2.479l.856.856a1.753,1.753,0,1,0,2.479-2.479" transform="translate(-82.222 -142.542)" fill="none" stroke="#000" stroke-miterlimit="22.926" stroke-width="1" fill-rule="evenodd"/>
    <path id="Trazado_1027350" data-name="Trazado 1027350" d="M287.445,241.336l4.26,4.26m-8.218,8.218-4.26-4.26" transform="translate(-251.675 -184.329)" fill="none" stroke="#000" stroke-miterlimit="22.926" stroke-width="1" fill-rule="evenodd"/>
    <path id="Trazado_1027351" data-name="Trazado 1027351" d="M16.12,292.136l4.631,4.631-2.819,2.819a1.333,1.333,0,0,1-1.879,0L7.888,291.42a1.333,1.333,0,0,1,0-1.879l2.819-2.819,4.631,4.631" transform="translate(0 -226.366)" fill="none" stroke="#000" stroke-miterlimit="22.926" stroke-width="1" fill-rule="evenodd"/>
    <path id="Trazado_1027352" data-name="Trazado 1027352" d="M333.322,295.5l-3.691,3.691a1.333,1.333,0,0,1-1.879,0l-2.819-2.819,10.044-10.044,2.819,2.819a1.333,1.333,0,0,1,0,1.879l-3.691,3.691" transform="translate(-294.008 -226.001)" fill="none" stroke="#000" stroke-miterlimit="22.926" stroke-width="1" fill-rule="evenodd"/>
    <path id="Trazado_1027353" data-name="Trazado 1027353" d="M81.35,46.561l2.459-1.733m-22.441.007L59.72,42.321m.253,4.24-2.459-1.733m1.3,3.627-2.923-.705m24.06-2.914L81.6,42.321m.9,6.134,2.923-.705" transform="translate(-44.824 0)" fill="none" stroke="#000" stroke-miterlimit="22.926" stroke-width="1" fill-rule="evenodd"/>
    <path id="Trazado_1027354" data-name="Trazado 1027354" d="M245.645,210.943l-.783-.783m2.348,2.348-.783-.783" transform="translate(-219.846 -155.454)" fill="none" stroke="#000" stroke-miterlimit="2.613" stroke-width="1" fill-rule="evenodd"/>
  </g>
</svg>
