<svg xmlns="http://www.w3.org/2000/svg" width="33.505" height="33.504" viewBox="0 0 33.505 33.504">
  <g id="sitio-web" transform="translate(-2 -2)">
    <path id="Trazado_1041478" data-name="Trazado 1041478" d="M22.549,33.749a.753.753,0,0,0-.1-.312.762.762,0,0,0-1.048-.249,5.225,5.225,0,0,1-1.885.723V26.366h1.226a.761.761,0,0,0,0-1.523H19.513v-5.33H21.3a.761.761,0,0,0,0-1.523H19.513V12.66h6.91a26.1,26.1,0,0,1,.7,6.092.761.761,0,0,0,.761.761h6.053a14.8,14.8,0,0,1-.279,2.317.762.762,0,1,0,1.49.316,16.4,16.4,0,0,0,.352-3.394A16.752,16.752,0,1,0,18.752,35.5a16.219,16.219,0,0,0,3.539-.384.758.758,0,0,0,.258-1.371Zm-4.559.162c-2.771-.457-5.15-3.378-6.481-7.544h6.481Zm0-9.067H11.08a25.876,25.876,0,0,1-.683-5.33h7.593ZM3.562,19.513H8.875a27.593,27.593,0,0,0,.64,5.33H4.8A15.1,15.1,0,0,1,3.562,19.513ZM4.8,12.66H9.516a27.593,27.593,0,0,0-.64,5.33H3.562A15.1,15.1,0,0,1,4.8,12.66Zm13.187,5.33H10.4a25.876,25.876,0,0,1,.683-5.33h6.91Zm0-14.4v7.544H11.509C12.839,6.971,15.22,4.05,17.991,3.593Zm1.523,7.544V3.593c2.771.457,5.15,3.378,6.481,7.544Zm8.476,1.523H32.7a15.1,15.1,0,0,1,1.242,5.33h-5.3a27.457,27.457,0,0,0-.653-5.33Zm3.931-1.523H27.594a16.183,16.183,0,0,0-3.616-6.671A15.294,15.294,0,0,1,31.921,11.137ZM13.534,4.463a16.151,16.151,0,0,0-3.625,6.674H5.583A15.291,15.291,0,0,1,13.534,4.463Zm-7.951,21.9H9.909a16.155,16.155,0,0,0,3.625,6.674A15.288,15.288,0,0,1,5.583,26.366Z"/>
    <path id="Trazado_1041479" data-name="Trazado 1041479" d="M41.1,30.2l-9.843-4.726a1.524,1.524,0,0,0-2.175,1.522l1.074,10.866a1.522,1.522,0,0,0,2.638.879l1.368-1.494,1.786,2.549a2.264,2.264,0,0,0,1.475.94,2.309,2.309,0,0,0,.4.035,2.27,2.27,0,0,0,1.306-.413l1.248-.873a2.287,2.287,0,0,0,.561-3.181L39.148,33.75l1.871-.774A1.523,1.523,0,0,0,41.1,30.2ZM37.69,32.706a.761.761,0,0,0-.333,1.141l2.33,3.327a.763.763,0,0,1-.187,1.061l-1.248.873a.761.761,0,0,1-1.061-.187l-2.33-3.327a.76.76,0,0,0-.574-.323l-.049,0a.759.759,0,0,0-.561.247l-2.009,2.194L30.595,26.844l9.844,4.726-2.748,1.137Z" transform="translate(-6.458 -5.563)"/>
  </g>
</svg>
