<svg xmlns="http://www.w3.org/2000/svg" xmlns:xlink="http://www.w3.org/1999/xlink" width="400" height="278" viewBox="0 0 400 278">
  <defs>
    <clipPath id="clip-path">
      <rect id="Rectángulo_415581" data-name="Rectángulo 415581" width="400" height="278" transform="translate(1020 261)" fill="#fff" stroke="#707070" stroke-width="1"/>
    </clipPath>
    <filter id="Trazado_1041406" x="355.937" y="47.637" width="46.15" height="46.207" filterUnits="userSpaceOnUse">
      <feOffset dy="3" input="SourceAlpha"/>
      <feGaussianBlur stdDeviation="3" result="blur"/>
      <feFlood flood-opacity="0.161"/>
      <feComposite operator="in" in2="blur"/>
      <feComposite in="SourceGraphic"/>
    </filter>
    <filter id="Trazado_1041452" x="202.537" y="5.366" width="67.525" height="63.549" filterUnits="userSpaceOnUse">
      <feOffset dy="3" input="SourceAlpha"/>
      <feGaussianBlur stdDeviation="3" result="blur-2"/>
      <feFlood flood-opacity="0.161"/>
      <feComposite operator="in" in2="blur-2"/>
      <feComposite in="SourceGraphic"/>
    </filter>
    <filter id="Trazado_1041463" x="108.754" y="31.357" width="54.641" height="51.7" filterUnits="userSpaceOnUse">
      <feOffset dy="3" input="SourceAlpha"/>
      <feGaussianBlur stdDeviation="3" result="blur-3"/>
      <feFlood flood-opacity="0.161"/>
      <feComposite operator="in" in2="blur-3"/>
      <feComposite in="SourceGraphic"/>
    </filter>
    <filter id="Trazado_1041465" x="-7.926" y="19.108" width="48.395" height="55.264" filterUnits="userSpaceOnUse">
      <feOffset dy="3" input="SourceAlpha"/>
      <feGaussianBlur stdDeviation="3" result="blur-4"/>
      <feFlood flood-opacity="0.161"/>
      <feComposite operator="in" in2="blur-4"/>
      <feComposite in="SourceGraphic"/>
    </filter>
  </defs>
  <g id="Enmascarar_grupo_1098847" data-name="Enmascarar grupo 1098847" transform="translate(-1020 -261)" clip-path="url(#clip-path)">
    <g id="Grupo_1184622" data-name="Grupo 1184622">
      <circle id="Elipse_13330" data-name="Elipse 13330" cx="175.5" cy="175.5" r="175.5" transform="translate(1030 315)" fill="#36ceef" opacity="0.41"/>
      <g id="Grupo_1184621" data-name="Grupo 1184621" transform="translate(3005.845 913.761)">
        <g id="Grupo_1184395" data-name="Grupo 1184395" transform="translate(-1872.843 -635.201)">
          <g id="Grupo_1184379" data-name="Grupo 1184379" transform="translate(36.796 18.92)">
            <g id="Grupo_1184374" data-name="Grupo 1184374" transform="translate(0 55.194)">
              <circle id="Elipse_13326" data-name="Elipse 13326" cx="2.298" cy="2.298" r="2.298" fill="#a0a8fb"/>
            </g>
            <g id="Grupo_1184375" data-name="Grupo 1184375" transform="translate(0.001 36.797)">
              <path id="Trazado_1041290" data-name="Trazado 1041290" d="M98.007,387.1a2.3,2.3,0,1,1,2.3,2.3A2.3,2.3,0,0,1,98.007,387.1Z" transform="translate(-98.007 -384.8)" fill="#a0a8fb"/>
            </g>
            <g id="Grupo_1184376" data-name="Grupo 1184376" transform="translate(0.001 18.398)">
              <path id="Trazado_1041291" data-name="Trazado 1041291" d="M98.007,367.2a2.3,2.3,0,1,1,2.3,2.3A2.3,2.3,0,0,1,98.007,367.2Z" transform="translate(-98.007 -364.897)" fill="#a0a8fb"/>
            </g>
            <g id="Grupo_1184378" data-name="Grupo 1184378" transform="translate(0.001)">
              <g id="Grupo_1184377" data-name="Grupo 1184377">
                <path id="Trazado_1041292" data-name="Trazado 1041292" d="M98.007,347.294a2.3,2.3,0,1,1,2.3,2.3A2.3,2.3,0,0,1,98.007,347.294Z" transform="translate(-98.007 -344.996)" fill="#a0a8fb"/>
              </g>
            </g>
          </g>
          <g id="Grupo_1184385" data-name="Grupo 1184385" transform="translate(18.398 18.92)">
            <g id="Grupo_1184380" data-name="Grupo 1184380" transform="translate(0 55.194)">
              <path id="Trazado_1041293" data-name="Trazado 1041293" d="M78.105,407a2.3,2.3,0,1,1,2.3,2.3A2.3,2.3,0,0,1,78.105,407Z" transform="translate(-78.105 -404.7)" fill="#a0a8fb"/>
            </g>
            <g id="Grupo_1184381" data-name="Grupo 1184381" transform="translate(0 36.797)">
              <path id="Trazado_1041294" data-name="Trazado 1041294" d="M78.105,387.1a2.3,2.3,0,1,1,2.3,2.3A2.3,2.3,0,0,1,78.105,387.1Z" transform="translate(-78.105 -384.8)" fill="#a0a8fb"/>
            </g>
            <g id="Grupo_1184382" data-name="Grupo 1184382" transform="translate(0 18.398)">
              <path id="Trazado_1041295" data-name="Trazado 1041295" d="M78.105,367.2a2.3,2.3,0,1,1,2.3,2.3A2.3,2.3,0,0,1,78.105,367.2Z" transform="translate(-78.105 -364.897)" fill="#a0a8fb"/>
            </g>
            <g id="Grupo_1184384" data-name="Grupo 1184384">
              <g id="Grupo_1184383" data-name="Grupo 1184383">
                <path id="Trazado_1041296" data-name="Trazado 1041296" d="M78.105,347.294a2.3,2.3,0,1,1,2.3,2.3A2.3,2.3,0,0,1,78.105,347.294Z" transform="translate(-78.105 -344.996)" fill="#a0a8fb"/>
              </g>
            </g>
          </g>
          <g id="Grupo_1184391" data-name="Grupo 1184391" transform="translate(0 18.92)">
            <g id="Grupo_1184386" data-name="Grupo 1184386" transform="translate(0 55.194)">
              <path id="Trazado_1041297" data-name="Trazado 1041297" d="M58.2,407a2.3,2.3,0,1,1,2.3,2.3A2.3,2.3,0,0,1,58.2,407Z" transform="translate(-58.204 -404.7)" fill="#a0a8fb"/>
            </g>
            <g id="Grupo_1184387" data-name="Grupo 1184387" transform="translate(0 36.797)">
              <path id="Trazado_1041298" data-name="Trazado 1041298" d="M58.2,387.1a2.3,2.3,0,1,1,2.3,2.3A2.3,2.3,0,0,1,58.2,387.1Z" transform="translate(-58.204 -384.8)" fill="#a0a8fb"/>
            </g>
            <g id="Grupo_1184388" data-name="Grupo 1184388" transform="translate(0 18.398)">
              <path id="Trazado_1041299" data-name="Trazado 1041299" d="M58.2,367.2a2.3,2.3,0,1,1,2.3,2.3A2.3,2.3,0,0,1,58.2,367.2Z" transform="translate(-58.204 -364.897)" fill="#a0a8fb"/>
            </g>
            <g id="Grupo_1184390" data-name="Grupo 1184390">
              <g id="Grupo_1184389" data-name="Grupo 1184389">
                <path id="Trazado_1041300" data-name="Trazado 1041300" d="M58.2,347.294a2.3,2.3,0,1,1,2.3,2.3A2.3,2.3,0,0,1,58.2,347.294Z" transform="translate(-58.204 -344.996)" fill="#a0a8fb"/>
              </g>
            </g>
          </g>
          <g id="Grupo_1184392" data-name="Grupo 1184392" transform="translate(36.796)">
            <path id="Trazado_1041301" data-name="Trazado 1041301" d="M98.007,326.827a2.3,2.3,0,1,1,2.3,2.3A2.3,2.3,0,0,1,98.007,326.827Z" transform="translate(-98.007 -324.53)" fill="#a0a8fb"/>
          </g>
          <g id="Grupo_1184393" data-name="Grupo 1184393" transform="translate(18.398)">
            <path id="Trazado_1041302" data-name="Trazado 1041302" d="M78.105,326.827a2.3,2.3,0,1,1,2.3,2.3A2.3,2.3,0,0,1,78.105,326.827Z" transform="translate(-78.105 -324.53)" fill="#a0a8fb"/>
          </g>
          <g id="Grupo_1184394" data-name="Grupo 1184394" transform="translate(0)">
            <path id="Trazado_1041303" data-name="Trazado 1041303" d="M58.2,326.827a2.3,2.3,0,1,1,2.3,2.3A2.3,2.3,0,0,1,58.2,326.827Z" transform="translate(-58.204 -324.53)" fill="#a0a8fb"/>
          </g>
        </g>
        <g id="Grupo_1184417" data-name="Grupo 1184417" transform="translate(-1756.202 -491.827)">
          <g id="Grupo_1184401" data-name="Grupo 1184401" transform="translate(36.797 18.922)">
            <g id="Grupo_1184396" data-name="Grupo 1184396" transform="translate(0 55.194)">
              <path id="Trazado_1041304" data-name="Trazado 1041304" d="M453.96,283.864a2.3,2.3,0,1,1,2.3,2.3A2.3,2.3,0,0,1,453.96,283.864Z" transform="translate(-453.96 -281.566)" fill="#a0a8fb"/>
            </g>
            <g id="Grupo_1184397" data-name="Grupo 1184397" transform="translate(0 36.796)">
              <path id="Trazado_1041305" data-name="Trazado 1041305" d="M453.96,263.962a2.3,2.3,0,1,1,2.3,2.3A2.3,2.3,0,0,1,453.96,263.962Z" transform="translate(-453.96 -261.664)" fill="#a0a8fb"/>
            </g>
            <g id="Grupo_1184398" data-name="Grupo 1184398" transform="translate(0 18.399)">
              <path id="Trazado_1041306" data-name="Trazado 1041306" d="M453.96,244.061a2.3,2.3,0,1,1,2.3,2.3A2.3,2.3,0,0,1,453.96,244.061Z" transform="translate(-453.96 -241.764)" fill="#a0a8fb"/>
            </g>
            <g id="Grupo_1184400" data-name="Grupo 1184400">
              <g id="Grupo_1184399" data-name="Grupo 1184399">
                <path id="Trazado_1041307" data-name="Trazado 1041307" d="M453.96,224.159a2.3,2.3,0,1,1,2.3,2.3A2.3,2.3,0,0,1,453.96,224.159Z" transform="translate(-453.96 -221.862)" fill="#a0a8fb"/>
              </g>
            </g>
          </g>
          <g id="Grupo_1184407" data-name="Grupo 1184407" transform="translate(18.399 18.922)">
            <g id="Grupo_1184402" data-name="Grupo 1184402" transform="translate(0 55.194)">
              <path id="Trazado_1041308" data-name="Trazado 1041308" d="M434.058,283.864a2.3,2.3,0,1,1,2.3,2.3A2.3,2.3,0,0,1,434.058,283.864Z" transform="translate(-434.058 -281.566)" fill="#a0a8fb"/>
            </g>
            <g id="Grupo_1184403" data-name="Grupo 1184403" transform="translate(0 36.796)">
              <path id="Trazado_1041309" data-name="Trazado 1041309" d="M434.058,263.962a2.3,2.3,0,1,1,2.3,2.3A2.3,2.3,0,0,1,434.058,263.962Z" transform="translate(-434.058 -261.664)" fill="#a0a8fb"/>
            </g>
            <g id="Grupo_1184404" data-name="Grupo 1184404" transform="translate(0 18.399)">
              <path id="Trazado_1041310" data-name="Trazado 1041310" d="M434.058,244.061a2.3,2.3,0,1,1,2.3,2.3A2.3,2.3,0,0,1,434.058,244.061Z" transform="translate(-434.058 -241.764)" fill="#a0a8fb"/>
            </g>
            <g id="Grupo_1184406" data-name="Grupo 1184406">
              <g id="Grupo_1184405" data-name="Grupo 1184405">
                <path id="Trazado_1041311" data-name="Trazado 1041311" d="M434.058,224.159a2.3,2.3,0,1,1,2.3,2.3A2.3,2.3,0,0,1,434.058,224.159Z" transform="translate(-434.058 -221.862)" fill="#a0a8fb"/>
              </g>
            </g>
          </g>
          <g id="Grupo_1184413" data-name="Grupo 1184413" transform="translate(0 18.922)">
            <g id="Grupo_1184408" data-name="Grupo 1184408" transform="translate(0 55.194)">
              <path id="Trazado_1041312" data-name="Trazado 1041312" d="M414.156,283.864a2.3,2.3,0,1,1,2.3,2.3A2.3,2.3,0,0,1,414.156,283.864Z" transform="translate(-414.156 -281.566)" fill="#a0a8fb"/>
            </g>
            <g id="Grupo_1184409" data-name="Grupo 1184409" transform="translate(0 36.796)">
              <path id="Trazado_1041313" data-name="Trazado 1041313" d="M414.156,263.962a2.3,2.3,0,1,1,2.3,2.3A2.3,2.3,0,0,1,414.156,263.962Z" transform="translate(-414.156 -261.665)" fill="#a0a8fb"/>
            </g>
            <g id="Grupo_1184410" data-name="Grupo 1184410" transform="translate(0 18.399)">
              <path id="Trazado_1041314" data-name="Trazado 1041314" d="M414.156,244.061a2.3,2.3,0,1,1,2.3,2.3A2.3,2.3,0,0,1,414.156,244.061Z" transform="translate(-414.156 -241.764)" fill="#a0a8fb"/>
            </g>
            <g id="Grupo_1184412" data-name="Grupo 1184412">
              <g id="Grupo_1184411" data-name="Grupo 1184411">
                <path id="Trazado_1041315" data-name="Trazado 1041315" d="M414.156,224.159a2.3,2.3,0,1,1,2.3,2.3A2.3,2.3,0,0,1,414.156,224.159Z" transform="translate(-414.156 -221.862)" fill="#a0a8fb"/>
              </g>
            </g>
          </g>
          <g id="Grupo_1184414" data-name="Grupo 1184414" transform="translate(36.797 0.001)">
            <path id="Trazado_1041316" data-name="Trazado 1041316" d="M453.96,203.692a2.3,2.3,0,1,1,2.3,2.3A2.3,2.3,0,0,1,453.96,203.692Z" transform="translate(-453.96 -201.395)" fill="#a0a8fb"/>
          </g>
          <g id="Grupo_1184415" data-name="Grupo 1184415" transform="translate(18.399)">
            <path id="Trazado_1041317" data-name="Trazado 1041317" d="M434.058,203.692a2.3,2.3,0,1,1,2.3,2.3A2.3,2.3,0,0,1,434.058,203.692Z" transform="translate(-434.058 -201.394)" fill="#a0a8fb"/>
          </g>
          <g id="Grupo_1184416" data-name="Grupo 1184416" transform="translate(0)">
            <path id="Trazado_1041318" data-name="Trazado 1041318" d="M414.156,203.692a2.3,2.3,0,1,1,2.3,2.3A2.3,2.3,0,0,1,414.156,203.692Z" transform="translate(-414.156 -201.394)" fill="#a0a8fb"/>
          </g>
        </g>
        <g id="Grupo_1184418" data-name="Grupo 1184418" transform="translate(-2005.845 -234.516)">
          <path id="Trazado_1041319" data-name="Trazado 1041319" d="M20.23,461.729H449.083s-2.989,20.045-221.036,20.045S20.23,461.729,20.23,461.729Z" transform="translate(-20.155 -461.729)" fill="#a0a8fb"/>
        </g>
        <g id="Grupo_1184466" data-name="Grupo 1184466" transform="translate(-1974.547 -624.477)">
          <g id="Grupo_1184419" data-name="Grupo 1184419" transform="translate(30.416 0)">
            <path id="Trazado_1041320" data-name="Trazado 1041320" d="M163.617,102.366a24.527,24.527,0,0,0-3.87-1.842c-2.206-2.589-6.076-2.944-9.442-2.5s-6.755,1.477-10.113.965a10.734,10.734,0,0,1-3.4-1.132v-.01a11.318,11.318,0,0,1-1.842-1.192,11.1,11.1,0,0,1-2.807-3.347c-2.068-3.811-1.694-8.3-1.831-12.7l-1.448.049a20.35,20.35,0,0,1-9.4,11.57c-2.383,1.221-5.78,2.54-7.818,1.536a14.063,14.063,0,0,1-1.624-1.024l-.2,2.1a44.629,44.629,0,0,0-6.016,2.333c-2.786,1.368-10.1,8.616-10.1,8.616s-2.363.9-5.377,2.216a4.954,4.954,0,0,1-1.221-4.983,14.926,14.926,0,0,1,2.649-4.776,13.5,13.5,0,0,0,2.551-4.825,12.166,12.166,0,0,0-.9-6.656A24.377,24.377,0,0,1,89.56,80.23a16.412,16.412,0,0,1,1.427-6.952,44.605,44.605,0,0,0,2.422-6.725,10.674,10.674,0,0,0-.157-5.593,8.55,8.55,0,0,1-2.511-3.319,21.093,21.093,0,0,1-1.3-4.8,4.736,4.736,0,0,1,.138-2.983c.561-1.083,1.812-1.575,2.924-2.068,3.574-1.6,6.647-4.126,10.123-5.918s7.729-2.786,11.265-1.113l.019.04A12.839,12.839,0,0,1,128.64,45c2.856,3.919,3.328,9.344,6.686,12.84,3.466,3.594,9.334,4.392,12.24,8.468,3.86,5.426.453,13.707,4.185,19.211,1.467,2.166,3.811,3.525,6.076,4.835s4.588,2.7,6.016,4.884C165.241,97.393,165.448,100.574,163.617,102.366Z" transform="translate(-86.912 -39.906)" fill="#222a40"/>
          </g>
          <g id="Grupo_1184420" data-name="Grupo 1184420" transform="translate(74.567 349.097)">
            <path id="Trazado_1041321" data-name="Trazado 1041321" d="M134.877,461.553c1.063-4.785,5.889-7.729,5.889-7.729l3.506-20.166v-.01l.866-5.012-.749-8.37s8.626,4.155,14.583-2.737c3.663,1.143,7.661,13.775,7.661,13.775l-7.661,31.962h-24.3A7.979,7.979,0,0,1,134.877,461.553Z" transform="translate(-134.671 -417.527)" fill="#6455e7"/>
          </g>
          <g id="Grupo_1184421" data-name="Grupo 1184421" transform="translate(39.286 143.549)">
            <path id="Trazado_1041322" data-name="Trazado 1041322" d="M135.628,390l1.92,20.018c-4.431,3.417-10.6,3.535-12.831,3.446-.551-.019-.866-.049-.866-.049s-21.623-69.617-22.992-79.385-4.342-45.344-4.342-45.344h-.01c.167-21.5.591-63.186,1.585-83.579,0,0,10.378,3.929,19.87,3.653a33.785,33.785,0,0,0,13.726-3.377l11.275,3.821,4.756-14.021.178.069c-9.857,74.914-3.377,106.9-3.377,106.9.748.03,1.477.03,2.2-.01L135.3,330.3s15.509,24.637,18.246,37.221,2.54,33.213,2.54,33.213c-5.957,6.893-14.583,2.737-14.583,2.737Z" transform="translate(-96.507 -195.184)" fill="#222a40"/>
          </g>
          <g id="Grupo_1184422" data-name="Grupo 1184422" transform="translate(42.191 68.152)">
            <path id="Trazado_1041323" data-name="Trazado 1041323" d="M171.392,133.615l-7.02,20.717-4.136-1.536-5.2,15.322L143.2,203.044l-11.275-3.821-32.278-10.94,16.178-47.717,1.054-3.111v-.01l8.015-23.651.059-.167L136.7,117.6l31.805,10.782Z" transform="translate(-99.649 -113.626)" fill="#e8a03f"/>
          </g>
          <g id="Grupo_1184423" data-name="Grupo 1184423" transform="translate(52.403 358.383)">
            <path id="Trazado_1041324" data-name="Trazado 1041324" d="M142.461,434.406v.01l-3.506,20.166s-4.825,2.944-5.889,7.729H110.753c-.817-6.529,7.356-8.961,7.356-8.961l7.68-22.313v-.019c2.235.089,8.4-.03,12.831-3.446A13.543,13.543,0,0,1,142.461,434.406Z" transform="translate(-110.696 -427.572)" fill="#6455e7"/>
          </g>
          <g id="Grupo_1184424" data-name="Grupo 1184424" transform="translate(66.936 56.749)">
            <path id="Trazado_1041325" data-name="Trazado 1041325" d="M139.778,102.483v.01l-1.054,14.179-11.747-3.978-.059.167-.5-.167c3.5-2.688,9.059-7.336,11.521-11.4A11.376,11.376,0,0,0,139.778,102.483Z" transform="translate(-126.416 -101.292)" fill="#6455e7"/>
          </g>
          <g id="Grupo_1184425" data-name="Grupo 1184425" transform="translate(39.896 9.67)">
            <path id="Trazado_1041326" data-name="Trazado 1041326" d="M130.429,75.929a.564.564,0,0,1-.138.049,17.221,17.221,0,0,1-.65,5.465,20.35,20.35,0,0,1-9.4,11.57c-2.383,1.221-5.78,2.54-7.818,1.536a14.064,14.064,0,0,1-1.624-1.024c-3.151-2.225-8.94-7.168-10.369-10.773-1.162-2.954-2.511-11.068-3.26-16.06v-.01a20.8,20.8,0,0,1,12.948-16.316c5.061,8.4,19.083,10.949,19.083,10.949a4.745,4.745,0,0,1,1.92-.354,5.4,5.4,0,0,1,3.83,1.979,7.151,7.151,0,0,1,1.546,4.077,8.88,8.88,0,0,1-1.861,6.036A8.615,8.615,0,0,1,130.429,75.929Z" transform="translate(-97.167 -50.366)" fill="#e07049"/>
          </g>
          <g id="Grupo_1184426" data-name="Grupo 1184426" transform="translate(45.933 94.825)">
            <path id="Trazado_1041327" data-name="Trazado 1041327" d="M138.131,172.1c-2.718,2.964-3.781,10.93-4.037,13.352h-.01c-.591-.177-22.923-6.912-24.883-7.937-1.152-.591-2.412-2.354-3.446-4.166A29.366,29.366,0,0,1,104,169.716c-.847-2.225.345-5.2.345-5.2a6.453,6.453,0,0,1-.305-2.727,3.748,3.748,0,0,1,.916-2.136,5.786,5.786,0,0,1,1.713-5.061c.472-3.762,6.361-3.279,6.361-3.279l.059.394.561,3.713,3.347,3.21s-1.575-5.3-2.53-7.661a10.057,10.057,0,0,1-.512-1.822c-.542-2.777-.512-6.666,1.4-6.666a1.317,1.317,0,0,1,.777.266c1.743,1.29,2.314,6.893,5.18,10.27,3.249,3.84,6.292,10.507,8.144,12.869S138.131,172.1,138.131,172.1Z" transform="translate(-103.697 -142.479)" fill="#e07049"/>
          </g>
          <g id="Grupo_1184427" data-name="Grupo 1184427" transform="translate(52.845 35.233)">
            <path id="Trazado_1041328" data-name="Trazado 1041328" d="M133.979,96.186a11.065,11.065,0,0,0,2.807,3.347c-2.462,4.067-8.025,8.714-11.521,11.4-1.792,1.389-3.042,2.245-3.042,2.245-9.65-5.82-11.048-10.261-11.048-10.261,18.384.463,19.527-19.388,19.527-19.388a17.226,17.226,0,0,0,.65-5.465.59.59,0,0,0,.138-.049C133.034,83.975,131.044,90.76,133.979,96.186Z" transform="translate(-111.174 -78.018)" fill="#e07049"/>
          </g>
          <g id="Grupo_1184428" data-name="Grupo 1184428" transform="translate(40.872 142.76)">
            <path id="Trazado_1041329" data-name="Trazado 1041329" d="M99.541,194.38l32.278,10.939a33.769,33.769,0,0,1-13.726,3.377c-9.492.275-19.87-3.653-19.87-3.653.167-3.318.335-6.065.532-8.074.079-.8.167-1.683.266-2.638Z" transform="translate(-98.222 -194.33)" fill="#6455e7"/>
          </g>
          <g id="Grupo_1184429" data-name="Grupo 1184429" transform="translate(45.293 60.137)">
            <path id="Trazado_1041330" data-name="Trazado 1041330" d="M125.15,113.138l-9.069,26.773a1.327,1.327,0,0,0-.777-.266c-1.91,0-1.94,3.889-1.4,6.666l-.866,2.56-.059-.394s-5.888-.483-6.361,3.279a5.784,5.784,0,0,0-1.713,5.061,3.755,3.755,0,0,0-.916,2.136l-.985-.138c3.368-25.08,7.553-53.861,7.553-53.861s1.4,4.441,11.048,10.261c0,0,1.251-.857,3.042-2.245Z" transform="translate(-103.004 -104.956)" fill="#6455e7"/>
          </g>
          <g id="Grupo_1184430" data-name="Grupo 1184430" transform="translate(52.844 40.748)">
            <path id="Trazado_1041331" data-name="Trazado 1041331" d="M130.7,83.983s-1.143,19.851-19.527,19.388l.483-5.208.2-2.1a14.142,14.142,0,0,0,1.624,1.024c2.038,1,5.436-.315,7.818-1.536A20.347,20.347,0,0,0,130.7,83.983Z" transform="translate(-111.173 -83.983)" fill="#222a40"/>
          </g>
          <g id="Grupo_1184431" data-name="Grupo 1184431" transform="translate(3.62 54.927)">
            <path id="Trazado_1041332" data-name="Trazado 1041332" d="M86.139,112.486c3.013-1.319,5.377-2.216,5.377-2.216s7.316-7.247,10.1-8.616a44.628,44.628,0,0,1,6.016-2.333l-.483,5.209s-4.185,28.782-7.553,53.861c-1.526,11.353-2.885,21.938-3.624,28.762-.1.955-.187,1.842-.266,2.638-.2,2.009-.364,4.756-.532,8.074-.995,20.393-1.418,62.083-1.585,83.579-.059,8.212-.079,13.48-.079,13.48s-14.288-3.387-19.241-16.138c-.237-.62-.453-1.251-.65-1.9,0,0-.64-44.8,7.67-79.2,0,0-12.781-1.645-17.34-14.6s-6.027-49.273-6.027-49.273.69-.167,1.8-.394c.128-.03.266-.059.4-.089,3.22-.64,9.236-1.615,13.175-.925-.413-1.566-1.073-4.677-.324-6.253.581-1.211.817-3.742.9-6.194C75.287,117.587,81.492,114.525,86.139,112.486Z" transform="translate(-57.926 -99.321)" fill="#ecb45e"/>
          </g>
          <g id="Grupo_1184432" data-name="Grupo 1184432" transform="translate(41.669 113.999)">
            <path id="Trazado_1041333" data-name="Trazado 1041333" d="M105.406,174.916l-5.8,17.114-.522-.049c.739-6.823,2.1-17.41,3.624-28.762l.985.138a6.451,6.451,0,0,0,.305,2.727s-1.192,2.974-.345,5.2A29.518,29.518,0,0,0,105.406,174.916Z" transform="translate(-99.084 -163.219)" fill="#6455e7"/>
          </g>
          <g id="Grupo_1184433" data-name="Grupo 1184433" transform="translate(0 44.497)">
            <path id="Trazado_1041334" data-name="Trazado 1041334" d="M73.584,119.107c-.079,2.452-.315,4.982-.9,6.194-.749,1.575-.089,4.687.324,6.253-3.938-.69-9.955.286-13.175.925a25.969,25.969,0,0,0-2.206-7.227c-1.8-3.486-4.175-11.954-3.506-14.1s5.2-5.356,7.473-5.563c0,0-5.2-15.6-5.741-16.966,0,0,2.324-2.107,4.51,1.683s6.578,13.372,6.578,13.372a1.534,1.534,0,0,1,1.96.226s2.551-2.442,4.372-2.471.827,1.969.739,3.2-.483,6.952-.413,9.532C73.633,115.307,73.662,117.177,73.584,119.107Z" transform="translate(-54.011 -88.038)" fill="#e07049"/>
          </g>
          <g id="Grupo_1184434" data-name="Grupo 1184434" transform="translate(76.249 57.952)">
            <path id="Trazado_1041335" data-name="Trazado 1041335" d="M183.8,187.165c-1.713,3.968-3.013,4.727-12.043,5.2,0,0,.749,47.294.817,55.979s-.4,33.124-.4,33.124-7.9,13.047-22.44,13.677c-.719.04-1.448.04-2.2.01,0,0-6.48-31.982,3.377-106.9l-.177-.069-14.249-5.042s.019-.256.069-.709h.01c.256-2.422,1.319-10.388,4.037-13.352a3.835,3.835,0,0,1,1.181-.9s9.433-.669,16.03-.906l5.2-15.321,4.135,1.536,7.02-20.717-2.885-5.229-31.805-10.782,1.054-14.179a10.718,10.718,0,0,0,3.4,1.132c3.358.512,6.736-.521,10.113-.965s7.238-.089,9.442,2.5a26.187,26.187,0,0,1,12.918,10.6c1.92,3.358,3.653,8.891,5.022,15.046a136.708,136.708,0,0,1,3.19,23.475C185.036,166.161,185.519,183.2,183.8,187.165Z" transform="translate(-136.49 -102.593)" fill="#ecb45e"/>
          </g>
          <g id="Grupo_1184443" data-name="Grupo 1184443" transform="translate(41.135 19.373)">
            <g id="Grupo_1184435" data-name="Grupo 1184435" transform="translate(6.089 10.044)">
              <path id="Trazado_1041336" data-name="Trazado 1041336" d="M108.138,71.727a13.019,13.019,0,0,1,2.4,4.835c.691,2.828-.742,5.116-1.848,5.252s-3.39-.577-3.593-2.082a6.308,6.308,0,0,1,.789-2.108A58.68,58.68,0,0,0,108.138,71.727Z" transform="translate(-105.094 -71.727)" fill="#bd4a28"/>
            </g>
            <g id="Grupo_1184436" data-name="Grupo 1184436" transform="translate(5.615 8.545)">
              <path id="Trazado_1041337" data-name="Trazado 1041337" d="M110.044,82.285h-.009a9.469,9.469,0,0,1-4.547-1.233,1.852,1.852,0,0,1-.664-2.53,39.952,39.952,0,0,0,3.119-8.071.462.462,0,1,1,.894.236,40.8,40.8,0,0,1-3.191,8.259.941.941,0,0,0,.305,1.306,8.543,8.543,0,0,0,4.1,1.109.462.462,0,0,1-.009.924Z" transform="translate(-104.581 -70.105)" fill="#222a40"/>
            </g>
            <g id="Grupo_1184437" data-name="Grupo 1184437" transform="translate(15.222 4.717)">
              <path id="Trazado_1041338" data-name="Trazado 1041338" d="M115.028,68.874A2.2,2.2,0,1,0,116.678,66,2.355,2.355,0,0,0,115.028,68.874Z" transform="translate(-114.973 -65.964)" fill="#222a40"/>
            </g>
            <g id="Grupo_1184438" data-name="Grupo 1184438" transform="translate(1.794 7.366)">
              <path id="Trazado_1041339" data-name="Trazado 1041339" d="M100.5,71.74a2.2,2.2,0,1,0,1.65-2.874A2.355,2.355,0,0,0,100.5,71.74Z" transform="translate(-100.448 -68.83)" fill="#222a40"/>
            </g>
            <g id="Grupo_1184439" data-name="Grupo 1184439" transform="translate(14.571)">
              <path id="Trazado_1041340" data-name="Trazado 1041340" d="M115.185,60.941a12.479,12.479,0,0,1,4.438.3,1.154,1.154,0,0,1,.65.57,1.148,1.148,0,0,1-.513,1.539,1.3,1.3,0,0,1-.889.057c-.079-.019-.158-.036-.238-.055a10.994,10.994,0,0,0-2.68-.188c-.108.009-.216.017-.324.029a1.23,1.23,0,0,1-.861-.173,1.147,1.147,0,0,1,.417-2.077Z" transform="translate(-114.269 -60.862)" fill="#222a40"/>
            </g>
            <g id="Grupo_1184440" data-name="Grupo 1184440" transform="translate(0 2.235)">
              <path id="Trazado_1041341" data-name="Trazado 1041341" d="M102.887,63.314a12.455,12.455,0,0,0-3.993,1.96,1.151,1.151,0,0,0-.385.775,1.148,1.148,0,0,0,1.059,1.229,1.3,1.3,0,0,0,.844-.285c.066-.048.133-.093.2-.141a11.037,11.037,0,0,1,2.407-1.192c.1-.032.207-.067.312-.1a1.229,1.229,0,0,0,.73-.486,1.147,1.147,0,0,0-1.174-1.764Z" transform="translate(-98.507 -63.279)" fill="#222a40"/>
            </g>
            <g id="Grupo_1184441" data-name="Grupo 1184441" transform="translate(8.681 20.48)">
              <path id="Trazado_1041342" data-name="Trazado 1041342" d="M108.068,88.113a6.181,6.181,0,0,0,7.258,2.06c3.416-1.273,3.644-4.707,3.508-6.433a.773.773,0,0,0-1.066-.667l-9.379,3.851A.762.762,0,0,0,108.068,88.113Z" transform="translate(-107.898 -83.015)" fill="#fff"/>
            </g>
            <g id="Grupo_1184442" data-name="Grupo 1184442" transform="translate(31.634 4.518)">
              <path id="Trazado_1041343" data-name="Trazado 1041343" d="M133.244,75.1a.462.462,0,0,1-.459-.414,11.755,11.755,0,0,1,2.774-8.781.463.463,0,1,1,.7.607,10.808,10.808,0,0,0-2.552,8.078.462.462,0,0,1-.412.508Z" transform="translate(-132.725 -65.749)" fill="#222a40"/>
            </g>
          </g>
          <g id="Grupo_1184444" data-name="Grupo 1184444" transform="translate(29.284 20.106)">
            <path id="Trazado_1041344" data-name="Trazado 1041344" d="M89.787,106.614h-.022c-1.977-.093-3.247-2.087-3.288-3.883a9.141,9.141,0,0,1,1.676-4.816l.26-.425a11.624,11.624,0,0,0,1.758-3.833c.45-2.483-.794-4.783-2.112-7.218-1.212-2.239-2.465-4.555-2.365-7.105.121-3.085,2.131-5.55,4.074-7.935l.582-.718c2.638-3.281,3.555-6.109,2.723-8.406a.462.462,0,1,1,.869-.314c.949,2.621-.018,5.75-2.872,9.3l-.587.723c-1.847,2.267-3.758,4.61-3.867,7.387-.09,2.3,1.1,4.5,2.254,6.629,1.335,2.468,2.716,5.021,2.209,7.822a12.313,12.313,0,0,1-1.88,4.151l-.257.422a8.362,8.362,0,0,0-1.543,4.316c.032,1.387,1.007,2.916,2.407,2.981a.461.461,0,0,1-.018.922Z" transform="translate(-85.688 -61.655)" fill="#222a40"/>
          </g>
          <g id="Grupo_1184445" data-name="Grupo 1184445" transform="translate(70.875 10.221)">
            <path id="Trazado_1041345" data-name="Trazado 1041345" d="M165.542,99.669a.462.462,0,0,1-.385-.717,8.046,8.046,0,0,0-.846-9.65,16.462,16.462,0,0,0-3.526-2.566,14.191,14.191,0,0,1-4.26-3.376c-1.758-2.333-1.9-5.287-2.035-8.144a28.207,28.207,0,0,0-.443-4.431,12.7,12.7,0,0,0-4.262-7.08c-2.246-1.876-5.1-2.931-7.866-3.951-.772-.285-1.542-.569-2.3-.871-4.728-1.879-7.641-4.261-8.906-7.281a.463.463,0,0,1,.853-.358c1.164,2.78,3.91,5,8.394,6.779.752.3,1.515.581,2.28.863,2.836,1.047,5.77,2.131,8.138,4.108a13.628,13.628,0,0,1,4.574,7.6,28.856,28.856,0,0,1,.462,4.578c.135,2.841.263,5.525,1.85,7.631a13.322,13.322,0,0,0,4,3.14,17.169,17.169,0,0,1,3.719,2.722,9,9,0,0,1,.947,10.8A.462.462,0,0,1,165.542,99.669Z" transform="translate(-130.677 -50.962)" fill="#222a40"/>
          </g>
          <g id="Grupo_1184446" data-name="Grupo 1184446" transform="translate(73.076 35.337)">
            <path id="Trazado_1041346" data-name="Trazado 1041346" d="M144.367,106.131a10.855,10.855,0,0,1-8.681-4.868c-1.971-2.9-2.862-6.826-2.576-11.341a59.071,59.071,0,0,1,1.41-8.616c.2-.934.4-1.867.587-2.8a.462.462,0,0,1,.906.179c-.186.94-.388,1.879-.59,2.817a58.262,58.262,0,0,0-1.391,8.48c-.19,3,.076,7.31,2.418,10.764,2.208,3.253,6.082,5.025,9.421,4.306,2.122-.456,3.891-1.761,5.763-3.142,1.89-1.393,3.843-2.834,6.191-3.314a.462.462,0,1,1,.185.906c-2.149.439-3.935,1.757-5.828,3.153a16.5,16.5,0,0,1-6.118,3.3A8.131,8.131,0,0,1,144.367,106.131Z" transform="translate(-133.058 -78.13)" fill="#222a40"/>
          </g>
          <g id="Grupo_1184447" data-name="Grupo 1184447" transform="translate(62.108 29.239)">
            <circle id="Elipse_13327" data-name="Elipse 13327" cx="3.543" cy="3.543" r="3.543" fill="#bd4a28"/>
          </g>
          <g id="Grupo_1184448" data-name="Grupo 1184448" transform="translate(3.16 87.313)">
            <path id="Trazado_1041347" data-name="Trazado 1041347" d="M80.077,152.351a.461.461,0,0,1-.427-.287c-2.325-5.666-5.038-14.548-5.418-15.806-3.69-2.557-16.1.617-16.225.648a.462.462,0,1,1-.232-.894c.539-.141,13.245-3.387,17.137-.4a.461.461,0,0,1,.162.234c.03.1,2.956,9.834,5.433,15.869a.461.461,0,0,1-.429.637Z" transform="translate(-57.429 -134.353)" fill="#222a40"/>
          </g>
          <g id="Grupo_1184449" data-name="Grupo 1184449" transform="translate(22.593 83.015)">
            <path id="Trazado_1041348" data-name="Trazado 1041348" d="M78.912,221.5a.44.44,0,0,1-.078-.006.463.463,0,0,1-.378-.533l7.351-43.239-1.783-19.359c-1.66-10.58,5.86-27.659,6.182-28.381a.462.462,0,0,1,.845.375c-.078.175-7.731,17.553-6.109,27.891l1.793,19.449a.476.476,0,0,1,0,.12l-7.361,43.3A.467.467,0,0,1,78.912,221.5Z" transform="translate(-78.45 -129.704)" fill="#222a40"/>
          </g>
          <g id="Grupo_1184450" data-name="Grupo 1184450" transform="translate(39.434 66.828)">
            <path id="Trazado_1041349" data-name="Trazado 1041349" d="M100.162,166.589a.463.463,0,0,1-.461-.436l-3.033-53.47a.461.461,0,0,1,.435-.487.468.468,0,0,1,.487.435l3.033,53.47a.461.461,0,0,1-.435.487Z" transform="translate(-96.667 -112.195)" fill="#222a40"/>
          </g>
          <g id="Grupo_1184451" data-name="Grupo 1184451" transform="translate(85.275 64.958)">
            <path id="Trazado_1041350" data-name="Trazado 1041350" d="M146.717,120.006a.462.462,0,0,1-.457-.54l1.521-8.91a.462.462,0,1,1,.912.155l-1.521,8.91A.462.462,0,0,1,146.717,120.006Z" transform="translate(-146.254 -110.172)" fill="#222a40"/>
          </g>
          <g id="Grupo_1184452" data-name="Grupo 1184452" transform="translate(81.086 121.663)">
            <path id="Trazado_1041351" data-name="Trazado 1041351" d="M179.946,177.333a.463.463,0,0,1-.377-.194c-1.6-2.248-9.418-4.379-12.29-4.678-2.568-.268-24.835,1.378-25.059,1.394a.462.462,0,0,1-.069-.922c.921-.067,22.575-1.666,25.224-1.392,2.349.244,10.98,2.3,12.947,5.061a.462.462,0,0,1-.108.644A.457.457,0,0,1,179.946,177.333Z" transform="translate(-141.723 -171.51)" fill="#222a40"/>
          </g>
          <g id="Grupo_1184453" data-name="Grupo 1184453" transform="translate(75.788 138.044)">
            <path id="Trazado_1041352" data-name="Trazado 1041352" d="M170.338,199.393a42.356,42.356,0,0,1-10.418-1.258c-9.86-2.515-23.5-7.959-23.638-8.014a.462.462,0,1,1,.343-.858c.137.055,13.723,5.476,23.523,7.976a43.275,43.275,0,0,0,19.151.317.462.462,0,0,1,.272.884A41.576,41.576,0,0,1,170.338,199.393Z" transform="translate(-135.991 -189.229)" fill="#222a40"/>
          </g>
          <g id="Grupo_1184454" data-name="Grupo 1184454" transform="translate(31.121 146.351)">
            <path id="Trazado_1041353" data-name="Trazado 1041353" d="M88.137,295.8h-.02a.463.463,0,0,1-.442-.482c1.007-23.6,5.8-95.946,5.851-96.674a.462.462,0,1,1,.923.061c-.048.728-4.843,73.064-5.85,96.653A.463.463,0,0,1,88.137,295.8Z" transform="translate(-87.675 -198.215)" fill="#222a40"/>
          </g>
          <g id="Grupo_1184455" data-name="Grupo 1184455" transform="translate(91.708 147.28)">
            <path id="Trazado_1041354" data-name="Trazado 1041354" d="M154.34,299.993a.462.462,0,0,1-.46-.424c-1.493-18.192-.017-99.079,0-99.895a.462.462,0,0,1,.462-.454h.008a.462.462,0,0,1,.454.471c-.016.814-1.491,81.655,0,99.8a.463.463,0,0,1-.423.5Z" transform="translate(-153.212 -199.22)" fill="#222a40"/>
          </g>
          <g id="Grupo_1184456" data-name="Grupo 1184456" transform="translate(6.234 59.57)">
            <path id="Trazado_1041355" data-name="Trazado 1041355" d="M69.631,118.945h0c-1.1,0-2.176-1.231-2.783-2.076a5.054,5.054,0,0,1-.787,1.359.914.914,0,0,1-1.132.064,4.576,4.576,0,0,1-1.668-4.008l-1.916.556a.463.463,0,0,1-.258-.888l2.606-.754a.463.463,0,0,1,.58.547,4.174,4.174,0,0,0,.664,3.306c.291.389.509.478.553.481a6.9,6.9,0,0,0,.807-1.7.465.465,0,0,1,.079-.212,12.467,12.467,0,0,0,.9-3.475,11.911,11.911,0,0,0-3.43-4.29c-1.085-.7-1.615-.594-1.619-.592a.477.477,0,0,1-.519-.236.456.456,0,0,1,.083-.549c.12-.111,2.953-2.71,5.771-2.021a.461.461,0,0,1,.31.254c.5,1.071,4.826,10.535,3.275,13.205A1.745,1.745,0,0,1,69.631,118.945Zm-2.36-3.1c.569.913,1.615,2.18,2.361,2.179.1,0,.391,0,.72-.566.975-1.678-1.355-8.1-3.216-12.14a5.677,5.677,0,0,0-3.889,1.2,5.628,5.628,0,0,1,1.1.56c1.368.876,3.629,3.762,3.84,4.9A10.848,10.848,0,0,1,67.271,115.841Z" transform="translate(-60.754 -104.344)" fill="#222a40"/>
          </g>
          <g id="Grupo_1184457" data-name="Grupo 1184457" transform="translate(8.841 82.669)">
            <path id="Trazado_1041356" data-name="Trazado 1041356" d="M64.036,131.558a.462.462,0,0,1-.082-.917l7.21-1.3a.462.462,0,1,1,.165.91l-7.21,1.3A.412.412,0,0,1,64.036,131.558Z" transform="translate(-63.574 -129.33)" fill="#222a40"/>
          </g>
          <g id="Grupo_1184458" data-name="Grupo 1184458" transform="translate(12.477 59.532)">
            <path id="Trazado_1041357" data-name="Trazado 1041357" d="M71.261,118.146a.462.462,0,0,1-.272-.837c.978-.708,2.528-2.157,2.528-3.031,0-1.4-2.831-8.214-3.811-8.737-.964-.514-1.49-.244-1.512-.233a.468.468,0,0,1-.625-.175.457.457,0,0,1,.154-.62,2.454,2.454,0,0,1,2.417.213c1.5.8,4.3,8.083,4.3,9.552,0,1.629-2.613,3.566-2.912,3.781A.453.453,0,0,1,71.261,118.146Z" transform="translate(-67.508 -104.302)" fill="#222a40"/>
          </g>
          <g id="Grupo_1184459" data-name="Grupo 1184459" transform="translate(48.444 106.476)">
            <path id="Trazado_1041358" data-name="Trazado 1041358" d="M108.925,160.7a.464.464,0,0,1-.3-.108,7.1,7.1,0,0,1-2.215-5.045.463.463,0,0,1,.462-.46h0a.462.462,0,0,1,.461.462,6.267,6.267,0,0,0,1.884,4.335.462.462,0,0,1-.3.816Z" transform="translate(-106.413 -155.082)" fill="#222a40"/>
          </g>
          <g id="Grupo_1184460" data-name="Grupo 1184460" transform="translate(46.731 111.537)">
            <path id="Trazado_1041359" data-name="Trazado 1041359" d="M106.735,164.573a.459.459,0,0,1-.243-.069,4.8,4.8,0,0,1-1.93-3.449.463.463,0,0,1,.923-.073,3.928,3.928,0,0,0,1.5,2.736.462.462,0,0,1,.149.637A.468.468,0,0,1,106.735,164.573Z" transform="translate(-104.561 -160.557)" fill="#222a40"/>
          </g>
          <g id="Grupo_1184461" data-name="Grupo 1184461" transform="translate(46.12 116.402)">
            <path id="Trazado_1041360" data-name="Trazado 1041360" d="M105.828,169.451a.461.461,0,0,1-.259-.08,4.791,4.791,0,0,1-1.666-3.03.462.462,0,0,1,.916-.123,3.919,3.919,0,0,0,1.268,2.388.462.462,0,0,1-.26.845Z" transform="translate(-103.899 -165.819)" fill="#222a40"/>
          </g>
          <g id="Grupo_1184462" data-name="Grupo 1184462" transform="translate(74.105 364.764)">
            <path id="Trazado_1041361" data-name="Trazado 1041361" d="M134.633,465.008h-.024a.462.462,0,0,1-.438-.484c.3-5.841,5.086-9.07,6.138-9.71l3.469-19.955a.462.462,0,0,1,.911.159l-3.506,20.166a.468.468,0,0,1-.231.325c-.055.031-5.558,3.16-5.857,9.063A.461.461,0,0,1,134.633,465.008Z" transform="translate(-134.17 -434.474)" fill="#222a40"/>
          </g>
          <g id="Grupo_1184463" data-name="Grupo 1184463" transform="translate(47.523 180.058)">
            <path id="Trazado_1041362" data-name="Trazado 1041362" d="M136.3,393.445a.464.464,0,0,1-.4-.229c-1.23-2.114-30.143-51.906-30.479-62.521-.334-10.548,14.533-92.173,15.167-95.642a.469.469,0,0,1,.538-.372.463.463,0,0,1,.372.538c-.155.849-15.483,85-15.152,95.447.328,10.382,30.053,61.568,30.354,62.083a.462.462,0,0,1-.4.7Z" transform="translate(-105.417 -234.676)" fill="#10141c"/>
          </g>
          <g id="Grupo_1184464" data-name="Grupo 1184464" transform="translate(44.368 173.884)">
            <path id="Trazado_1041363" data-name="Trazado 1041363" d="M117.1,235.094a.471.471,0,0,1-.179-.036l-14.63-6.173a.463.463,0,0,1,.36-.852l14.63,6.173a.463.463,0,0,1-.18.888Z" transform="translate(-102.004 -227.997)" fill="#10141c"/>
          </g>
          <g id="Grupo_1184465" data-name="Grupo 1184465" transform="translate(45.472 180.056)">
            <path id="Trazado_1041364" data-name="Trazado 1041364" d="M114.626,237.472a.458.458,0,0,1-.079-.006l-10.965-1.874a.462.462,0,0,1,.156-.912l10.965,1.874a.462.462,0,0,1-.078.918Z" transform="translate(-103.199 -234.674)" fill="#10141c"/>
          </g>
        </g>
        <g id="Grupo_1184513" data-name="Grupo 1184513" transform="translate(-1739.17 -619.692)">
          <g id="Grupo_1184473" data-name="Grupo 1184473" transform="translate(0 57.968)">
            <g id="Grupo_1184467" data-name="Grupo 1184467">
              <path id="Trazado_1041365" data-name="Trazado 1041365" d="M400.454,213.885q-.134-.854-.27-1.68a80.263,80.263,0,0,0-2.079-9.517l9.307-1.8s-7.3-6.118-7.428-11.467l-1.809-.97s.58-8.708.93-17.395c.03-.52.05-1.04.06-1.57a118.053,118.053,0,0,0-.02-14.386c-.829-6.4-1.149-20.954-2.22-24.6-.569-1.929-7.318-6.138-13.546-9.667-.45-.26-.91-.52-1.36-.77-4.978-2.779-9.277-4.978-9.277-4.978l-.15-1.209c-6.518.031-10.977-2.289-14.026-5.308l-7.888-.64-1.74-.14-2.349,6.878s-3.909,1.15-8.718,2.82c-.459.16-.93.32-1.41.49-6.848,2.44-14.846,5.758-15.986,8.288a83.112,83.112,0,0,0-4.289,12.257c-.13.47-.26.949-.39,1.45-2.129,8.028-4.449,19.784-5.968,36.39-.04.48-.09.97-.13,1.47q-.675,7.648-1.08,16.665a11.808,11.808,0,0,0,9.167,10.7c4.378,1.14,21.394-4.438,21.394-4.438s-11.067,15.606-15.305,29.661q-.51,1.664-.87,3.269a28.809,28.809,0,0,0-.77,6.248c0,6.338,1.24,18.265,2.689,30.062.07.509.13,1.01.2,1.52,2,16.115,4.328,31.51,4.328,31.51s.679.34,1.859.9a216.943,216.943,0,0,0,22.733,9.377c.51.18,1.02.34,1.53.5.63.21,1.259.4,1.879.58a40.354,40.354,0,0,0,10.907,1.979c8.718-.11,24.673-5.638,32.451-8.537.2-.08.39-.15.58-.22.29-.11.569-.21.829-.31,1.95-.74,3.109-1.21,3.109-1.21s-.11-61.1-4.878-92.183v-.012Zm-71-31.76,2.789-9.268.49-1.649,2.149-7.148s.71,2.809,1.56,6.158c.11.47.23.939.36,1.42,1.15,4.539,2.409,9.467,2.519,9.657C339.532,181.635,329.455,182.125,329.455,182.125Z" transform="translate(-308.62 -107.786)" fill="#fff"/>
            </g>
            <g id="Grupo_1184468" data-name="Grupo 1184468" transform="translate(7.179 9.698)">
              <path id="Trazado_1041366" data-name="Trazado 1041366" d="M344.057,138.42c-.31,4.218-3.809,6.678-7.848,6.737a28.019,28.019,0,0,1-7.2-1.24c-2.519-.63-5.028-1.26-7.547-1.89-1.69-.42-3.389-.85-5.078-1.269.13-.5.26-.98.39-1.45,1.879.47,3.749.939,5.628,1.41,2.33.58,4.669,1.169,7,1.759a24.649,24.649,0,0,0,7.158,1.169,6.5,6.5,0,0,0,4.978-2.339,7.154,7.154,0,0,0,.85-5.558,44.314,44.314,0,0,0-1.8-6.168c-.75-2.289-1.5-4.588-2.249-6.878l-1.29-3.939c.48-.17.949-.33,1.41-.49.77,2.339,1.539,4.689,2.309,7.028.779,2.39,1.6,4.779,2.34,7.178A16.518,16.518,0,0,1,344.057,138.42Z" transform="translate(-316.386 -118.276)" fill="#ecb45e"/>
            </g>
            <g id="Grupo_1184469" data-name="Grupo 1184469" transform="translate(62.03 12.277)">
              <path id="Trazado_1041367" data-name="Trazado 1041367" d="M404.233,170.492c-.01.53-.03,1.05-.06,1.57a31.874,31.874,0,0,1-11.306,1.389c-5.119-.4-10.367-2.409-13.646-6.518-3.529-4.409-4.049-10.327-3.059-15.715,1.89-10.327,10.176-19.644,10.927-30.151.45.25.91.51,1.36.77a40.628,40.628,0,0,1-3.8,12.306c-2.54,5.508-5.688,10.877-6.928,16.875-1.109,5.368-.62,11.507,3.269,15.7,3.529,3.788,8.917,5.358,13.976,5.308A33.963,33.963,0,0,0,404.233,170.492Z" transform="translate(-375.718 -121.066)" fill="#ecb45e"/>
            </g>
            <g id="Grupo_1184470" data-name="Grupo 1184470" transform="translate(14.387 61.439)">
              <path id="Trazado_1041368" data-name="Trazado 1041368" d="M360.272,201.691a59.2,59.2,0,0,1-9.457,11.987c-7.148,7.258-15.436,13.276-22.574,20.554-1.4,1.429-2.769,2.919-4.058,4.469q.359-1.6.87-3.269c1.04-1.15,2.119-2.259,3.209-3.339,7.108-7.028,15.216-12.956,22.154-20.154a53.333,53.333,0,0,0,9.167-12.116c2.239-4.3,3.7-9.487,2.17-14.256-1.36-4.218-5-7.148-9.067-8.6-4.569-1.62-9.4-1.429-14.086-.44-.21.04-.41.09-.619.13-.13-.48-.25-.949-.36-1.42a36.7,36.7,0,0,1,6.638-.97c8.488-.38,18.165,3.979,19.465,13.236C364.411,192.443,362.681,197.442,360.272,201.691Z" transform="translate(-324.183 -174.245)" fill="#ecb45e"/>
            </g>
            <g id="Grupo_1184471" data-name="Grupo 1184471" transform="translate(16.307 161.092)">
              <path id="Trazado_1041369" data-name="Trazado 1041369" d="M356.91,326.959c-.51-.16-1.02-.32-1.53-.5q-.255-3.164-.679-6.318a128.8,128.8,0,0,0-3.649-17.735c-1.389-4.939-3.049-10.137-6.638-13.956-4.529-4.839-11.927-6.1-17.955-3.779-.07-.51-.13-1.01-.2-1.52a18.768,18.768,0,0,1,7.618-1.07,17.365,17.365,0,0,1,11.906,5.638c3.639,4.089,5.368,9.457,6.808,14.626A129.365,129.365,0,0,1,356.91,326.959Z" transform="translate(-326.259 -282.041)" fill="#ecb45e"/>
            </g>
            <g id="Grupo_1184472" data-name="Grupo 1184472" transform="translate(47.427 104.419)">
              <path id="Trazado_1041370" data-name="Trazado 1041370" d="M406.1,315.82c-.26.1-.54.2-.829.31-.19.07-.38.14-.58.22a52.386,52.386,0,0,0-11.657-11.237c-8.627-6.278-18.595-11.237-25.523-19.564-6.218-7.468-9.967-17.6-5.879-26.992,1.919-4.428,5.248-8.087,8.807-11.277,4.129-3.7,8.627-7,13-10.417l20.624-16.125q.134.825.27,1.68v.01q-11.472,8.952-22.933,17.924c-7.568,5.918-17.185,12.236-19.544,22.2s3.789,19.864,10.917,26.283c8.047,7.248,18.034,11.887,26.152,19.044A45.391,45.391,0,0,1,406.1,315.82Z" transform="translate(-359.922 -220.737)" fill="#ecb45e"/>
            </g>
          </g>
          <g id="Grupo_1184474" data-name="Grupo 1184474" transform="translate(53.859 257.78)">
            <path id="Trazado_1041371" data-name="Trazado 1041371" d="M405.8,323.924s.05,2.829,0,5.048-24.912,94.5-24.912,94.5l-.86,5.3-.26-.04L367.4,415.877s-3.889-57.623,9.637-66.33l-4.269-16.865C381.7,332.572,398.26,326.753,405.8,323.924Z" transform="translate(-366.88 -323.924)" fill="#e48c59"/>
          </g>
          <g id="Grupo_1184475" data-name="Grupo 1184475" transform="translate(35.108 16.56)">
            <path id="Trazado_1041372" data-name="Trazado 1041372" d="M385.221,72.8c.47,4.708,1.37,14.736.889,18.3-.64,4.758-7.167,13.086-8.917,14.566a4.493,4.493,0,0,1-2.2.889,16.961,16.961,0,0,1-5.879-.48c-.27-.07-.71-.19-1.269-.39-3.339-1.169-10.927-4.938-12.816-13.926a8.3,8.3,0,0,1-1.85-.28,8.389,8.389,0,0,1-3.139-1.539,8.979,8.979,0,0,1-3.319-5.489,7.267,7.267,0,0,1,.52-4.388,5.479,5.479,0,0,1,3.289-2.9,4.9,4.9,0,0,1,1.979-.12s4.548-10.307,9.967-14.056c0,0,7.937,9.377,22.474,7.3h.01S385.071,71.262,385.221,72.8Z" transform="translate(-346.596 -62.994)" fill="#e48c59"/>
          </g>
          <g id="Grupo_1184476" data-name="Grupo 1184476" transform="translate(19.692 0.241)">
            <path id="Trazado_1041373" data-name="Trazado 1041373" d="M384.082,71.459l-.12.01c-.15-1.539-.26-2.509-.26-2.509h-.01c-14.535,2.079-22.474-7.3-22.474-7.3-5.418,3.749-9.967,14.056-9.967,14.056a4.9,4.9,0,0,0-1.979.12,5.479,5.479,0,0,0-3.289,2.9,7.268,7.268,0,0,0-.52,4.388,8.979,8.979,0,0,0,3.319,5.489,8.375,8.375,0,0,0,3.139,1.539l-.04.17a8.973,8.973,0,0,1-14.4-.5c-.77-1.109-1.269-2.65-.53-3.789a9.007,9.007,0,0,1-6.918-7.238c-.669-4.209,1.73-8.278,2.17-12.516.47-4.479-1.26-9.127.04-13.436a11.162,11.162,0,0,1,10.307-7.5,13.7,13.7,0,0,1,11.277,6.039c8.828-4.5,19.644-1.78,21.774.06,2.819,2.429,12.956,3.859,13.616,7.648S384.082,71.459,384.082,71.459Z" transform="translate(-329.921 -45.342)" fill="#222a40"/>
          </g>
          <g id="Grupo_1184477" data-name="Grupo 1184477" transform="translate(49.371 349.734)">
            <path id="Trazado_1041374" data-name="Trazado 1041374" d="M363.094,426.49c.839-2.319,3.939-3.1,3.939-3.1L379.4,436.248l.26.04-2.609,16a16.8,16.8,0,0,1,2.029,11.127l-8.567-3c-.949-2.17-2.6-4.809-5.279-5.9l-2.839-19.095-.34-2.259-.03-5.088Z" transform="translate(-362.025 -423.391)" fill="#6455e7"/>
          </g>
          <g id="Grupo_1184478" data-name="Grupo 1184478" transform="translate(49.949 58.749)">
            <path id="Trazado_1041375" data-name="Trazado 1041375" d="M376.206,110.009l.47,3.929c-6.518.031-10.977-2.289-14.026-5.308l6.408.52v-.01c.56.2,1,.32,1.269.39A16.961,16.961,0,0,0,376.206,110.009Z" transform="translate(-362.65 -108.63)" fill="#222a40"/>
          </g>
          <g id="Grupo_1184479" data-name="Grupo 1184479" transform="translate(29.296 355.062)">
            <path id="Trazado_1041376" data-name="Trazado 1041376" d="M368.87,460.845a18.479,18.479,0,0,1,1.08,3.3H349.027l-4.438-16.465-.14,16.4H340.31s.38-14.5.52-19.774,3.729-15.145,3.729-15.145l16.2,6.7,2.839,19.095C366.272,456.037,367.921,458.676,368.87,460.845Z" transform="translate(-340.31 -429.155)" fill="#6455e7"/>
          </g>
          <g id="Grupo_1184480" data-name="Grupo 1184480" transform="translate(43.54 45.333)">
            <path id="Trazado_1041377" data-name="Trazado 1041377" d="M368.535,108.043v.01l-6.408-.52c-5.6-5.538-6.408-13.416-6.408-13.416C357.609,103.1,365.2,106.874,368.535,108.043Z" transform="translate(-355.718 -94.118)" fill="#222a40"/>
          </g>
          <g id="Grupo_1184481" data-name="Grupo 1184481" transform="translate(42.062 45.333)">
            <path id="Trazado_1041378" data-name="Trazado 1041378" d="M362.007,107.534l-7.888-.64L355.6,94.118S356.408,102,362.007,107.534Z" transform="translate(-354.119 -94.118)" fill="#e48c59"/>
          </g>
          <g id="Grupo_1184482" data-name="Grupo 1184482" transform="translate(20.567 254.102)">
            <path id="Trazado_1041379" data-name="Trazado 1041379" d="M359.67,420.255l.03,5.088.34,2.259-16.2-6.7s-12.906-49.405-12.976-59.2a37.729,37.729,0,0,1,4.438-17.5L333,319.945c4.469,2.129,16.155,7.518,26.142,10.457Z" transform="translate(-330.867 -319.945)" fill="#e48c59"/>
          </g>
          <g id="Grupo_1184493" data-name="Grupo 1184493" transform="translate(37.514 25.145)">
            <g id="Grupo_1184483" data-name="Grupo 1184483" transform="translate(19.621 20.078)">
              <path id="Trazado_1041380" data-name="Trazado 1041380" d="M376.294,98.176a3.2,3.2,0,1,1-1.622-3.783A2.934,2.934,0,0,1,376.294,98.176Z" transform="translate(-370.423 -93.999)" fill="#e07045"/>
            </g>
            <g id="Grupo_1184484" data-name="Grupo 1184484" transform="translate(25.83 8.826)">
              <path id="Trazado_1041381" data-name="Trazado 1041381" d="M378.316,81.828a13.22,13.22,0,0,0-1.176,5.352c.013,2.956,1.987,4.858,3.109,4.721s3.2-1.4,3.03-2.932a6.4,6.4,0,0,0-1.294-1.883A59.811,59.811,0,0,1,378.316,81.828Z" transform="translate(-377.14 -81.828)" fill="#e07045"/>
            </g>
            <g id="Grupo_1184485" data-name="Grupo 1184485" transform="translate(26.005 7.415)">
              <path id="Trazado_1041382" data-name="Trazado 1041382" d="M378.921,92.718a.462.462,0,0,1-.119-.909,8.66,8.66,0,0,0,3.773-2.1.962.962,0,0,0-.019-1.371,41.483,41.483,0,0,1-5.169-7.353.462.462,0,1,1,.811-.445,40.51,40.51,0,0,0,5.053,7.189,1.873,1.873,0,0,1-.033,2.645,9.593,9.593,0,0,1-4.176,2.329A.456.456,0,0,1,378.921,92.718Z" transform="translate(-377.329 -80.301)" fill="#222a40"/>
            </g>
            <g id="Grupo_1184486" data-name="Grupo 1184486" transform="translate(15.947 5.522)">
              <path id="Trazado_1041383" data-name="Trazado 1041383" d="M370.864,80.683a2.23,2.23,0,1,1-2.331-2.427A2.391,2.391,0,0,1,370.864,80.683Z" transform="translate(-366.449 -78.254)" fill="#222a40"/>
            </g>
            <g id="Grupo_1184487" data-name="Grupo 1184487" transform="translate(29.825 4.839)">
              <path id="Trazado_1041384" data-name="Trazado 1041384" d="M385.876,79.944a2.23,2.23,0,1,1-2.331-2.427A2.39,2.39,0,0,1,385.876,79.944Z" transform="translate(-381.461 -77.514)" fill="#222a40"/>
            </g>
            <g id="Grupo_1184488" data-name="Grupo 1184488" transform="translate(13.477 0.558)">
              <path id="Trazado_1041385" data-name="Trazado 1041385" d="M368.6,72.892a12.67,12.67,0,0,0-4.3,1.38,1.174,1.174,0,0,0-.5.721,1.188,1.188,0,0,0,.162.89,1.174,1.174,0,0,0,.721.5,1.314,1.314,0,0,0,.89-.162c.073-.039.147-.075.221-.112a11.128,11.128,0,0,1,2.594-.842c.109-.018.217-.036.327-.051a1.248,1.248,0,0,0,.805-.381,1.164,1.164,0,0,0-.921-1.944Z" transform="translate(-363.777 -72.884)" fill="#222a40"/>
            </g>
            <g id="Grupo_1184489" data-name="Grupo 1184489" transform="translate(28.679)">
              <path id="Trazado_1041386" data-name="Trazado 1041386" d="M381.326,72.281a12.643,12.643,0,0,1,4.414.951,1.168,1.168,0,0,1,.569.668,1.164,1.164,0,0,1-.741,1.47,1.314,1.314,0,0,1-.9-.073c-.077-.031-.153-.06-.23-.09a11.186,11.186,0,0,0-2.664-.583c-.11-.006-.22-.015-.33-.018a1.246,1.246,0,0,1-.839-.3,1.164,1.164,0,0,1,.724-2.025Z" transform="translate(-380.221 -72.28)" fill="#222a40"/>
            </g>
            <g id="Grupo_1184490" data-name="Grupo 1184490" transform="translate(0 9.673)">
              <path id="Trazado_1041387" data-name="Trazado 1041387" d="M354.352,91.32a.461.461,0,0,1-.457-.4,10.988,10.988,0,0,0-4.5-7.337.462.462,0,0,1,.531-.757,11.929,11.929,0,0,1,4.884,7.965.462.462,0,0,1-.393.522A.394.394,0,0,1,354.352,91.32Z" transform="translate(-349.199 -82.744)" fill="#222a40"/>
            </g>
            <g id="Grupo_1184491" data-name="Grupo 1184491" transform="translate(18.368 19.105)">
              <path id="Trazado_1041388" data-name="Trazado 1041388" d="M376.564,98.171a8.332,8.332,0,0,1-7.446-4.553.462.462,0,1,1,.824-.42,7.417,7.417,0,0,0,7.919,3.933.463.463,0,0,1,.165.911A8.26,8.26,0,0,1,376.564,98.171Z" transform="translate(-369.068 -92.947)" fill="#222a40"/>
            </g>
            <g id="Grupo_1184492" data-name="Grupo 1184492" transform="translate(9.322 12.063)">
              <circle id="Elipse_13328" data-name="Elipse 13328" cx="3.59" cy="3.59" r="3.59" fill="#e07045"/>
            </g>
          </g>
          <g id="Grupo_1184494" data-name="Grupo 1184494" transform="translate(17.359 0)">
            <path id="Trazado_1041389" data-name="Trazado 1041389" d="M335.527,86.339a7.971,7.971,0,0,1-2.3-.336,8.2,8.2,0,0,1-4.937-4.228c-1.053-2.19-1.171-4.939-.362-8.405.207-.885.453-1.761.7-2.638a29.8,29.8,0,0,0,1.15-5.342,30.116,30.116,0,0,0-.063-4.519,22.49,22.49,0,0,1,.189-6.286,12.571,12.571,0,0,1,11.2-9.466A14.687,14.687,0,0,1,354.277,52a.462.462,0,1,1-.783.491,13.728,13.728,0,0,0-12.318-6.448A11.784,11.784,0,0,0,330.8,54.784a21.533,21.533,0,0,0-.169,6.029,30.816,30.816,0,0,1,.061,4.659,30.514,30.514,0,0,1-1.181,5.51c-.242.864-.484,1.728-.688,2.6-.76,3.252-.664,5.8.293,7.794a7.143,7.143,0,0,0,10.085,3.048.463.463,0,0,1,.471.8A8.19,8.19,0,0,1,335.527,86.339Z" transform="translate(-327.397 -45.081)" fill="#222a40"/>
          </g>
          <g id="Grupo_1184495" data-name="Grupo 1184495" transform="translate(50.82 15.859)">
            <path id="Trazado_1041390" data-name="Trazado 1041390" d="M378.824,72.667a20.893,20.893,0,0,1-7.626-1.683,16,16,0,0,1-5.073-2.931,7.354,7.354,0,0,1-2.532-5.361.463.463,0,0,1,.462-.456h.006a.462.462,0,0,1,.456.469,6.437,6.437,0,0,0,2.236,4.671,15.167,15.167,0,0,0,4.782,2.748,18.248,18.248,0,0,0,8.6,1.552,8.91,8.91,0,0,0,7.037-4.306.463.463,0,0,1,.818.433,9.845,9.845,0,0,1-7.76,4.794Q379.538,72.666,378.824,72.667Z" transform="translate(-363.592 -62.236)" fill="#222a40"/>
          </g>
          <g id="Grupo_1184499" data-name="Grupo 1184499" transform="translate(45.883 124.644)">
            <g id="Grupo_1184496" data-name="Grupo 1184496">
              <path id="Trazado_1041391" data-name="Trazado 1041391" d="M404.308,192.327l-.41,1.219a3.21,3.21,0,0,1-2.019,1.08,8.96,8.96,0,0,1-3.609-.8,13.122,13.122,0,0,1-4.8.729,44.919,44.919,0,0,1-7.748-1.6s-5.609,3.629-9.517,4.309-10.247-.21-10.247-.21l-5.208,2.22-2.5-12.367,7.518-1.36s15.125-5.219,16.416-5.549,13.266.31,14.656.8,8.618,7.118,8.618,7.118c-.19,1.72-3.859,2.079-3.859,2.079Z" transform="translate(-358.252 -179.91)" fill="#e48c59"/>
            </g>
            <g id="Grupo_1184497" data-name="Grupo 1184497" transform="translate(28.972 8.219)">
              <path id="Trazado_1041392" data-name="Trazado 1041392" d="M400.637,194.961a.454.454,0,0,1-.3-.109c-2.029-1.708-5.36-4.354-6.216-4.64a21.437,21.437,0,0,0-4.083-.485.462.462,0,1,1,.03-.924,21.614,21.614,0,0,1,4.347.533c1.3.433,5.989,4.363,6.519,4.81a.463.463,0,0,1,.056.651A.469.469,0,0,1,400.637,194.961Z" transform="translate(-389.592 -188.8)" fill="#222a40"/>
            </g>
            <g id="Grupo_1184498" data-name="Grupo 1184498" transform="translate(28.972 2.06)">
              <path id="Trazado_1041393" data-name="Trazado 1041393" d="M403.966,190.628a.461.461,0,0,1-.25-.073,50.159,50.159,0,0,0-6.514-3.542c-2.5-.988-7.051-.484-7.1-.481a.462.462,0,1,1-.1-.918c.2-.022,4.825-.534,7.54.539a41.057,41.057,0,0,1,5.33,2.79c-.934-1.867-2.1-3.881-2.691-4.169a58.369,58.369,0,0,0-7.248-1.72.462.462,0,1,1,.172-.908c.253.048,6.213,1.177,7.483,1.8,1.311.643,3.4,5.136,3.8,6.03a.462.462,0,0,1-.422.653Z" transform="translate(-389.591 -182.138)" fill="#222a40"/>
            </g>
          </g>
          <g id="Grupo_1184500" data-name="Grupo 1184500" transform="translate(7.462 129.993)">
            <path id="Trazado_1041394" data-name="Trazado 1041394" d="M339.794,207.1a.462.462,0,0,1-.116-.91l17.057-4.46c.37-5.752-1.944-13.392-2.483-15.081L330.1,188.47c-6.78.418-12.62,4.6-12.678,4.639a.462.462,0,0,1-.544-.748,27.967,27.967,0,0,1,13.158-4.813l24.5-1.852a.467.467,0,0,1,.473.312c.13.383,3.175,9.432,2.616,16.121a.461.461,0,0,1-.344.409l-17.378,4.543A.459.459,0,0,1,339.794,207.1Z" transform="translate(-316.692 -185.695)" fill="#222a40"/>
          </g>
          <g id="Grupo_1184501" data-name="Grupo 1184501" transform="translate(26.174 98.219)">
            <path id="Trazado_1041395" data-name="Trazado 1041395" d="M337.4,165.682a.479.479,0,0,1-.187-.039.462.462,0,0,1-.236-.609L342.9,151.6a.462.462,0,1,1,.845.373l-5.929,13.432A.462.462,0,0,1,337.4,165.682Z" transform="translate(-336.933 -151.326)" fill="#222a40"/>
          </g>
          <g id="Grupo_1184502" data-name="Grupo 1184502" transform="translate(25.804 106.555)">
            <path id="Trazado_1041396" data-name="Trazado 1041396" d="M337,168.492a.462.462,0,0,1-.336-.78l6.855-7.225a.462.462,0,1,1,.67.636l-6.855,7.225A.457.457,0,0,1,337,168.492Z" transform="translate(-336.533 -160.343)" fill="#222a40"/>
          </g>
          <g id="Grupo_1184503" data-name="Grupo 1184503" transform="translate(42.85 66.906)">
            <path id="Trazado_1041397" data-name="Trazado 1041397" d="M367.037,122.822c-4.5,0-11.526-4.314-11.847-4.512a.462.462,0,1,1,.486-.786c.083.051,8.273,5.078,12.267,4.294a14.956,14.956,0,0,0,6.982-3.849.463.463,0,0,1,.668.64,15.631,15.631,0,0,1-7.471,4.118A5.755,5.755,0,0,1,367.037,122.822Z" transform="translate(-354.971 -117.454)" fill="#222a40"/>
          </g>
          <g id="Grupo_1184504" data-name="Grupo 1184504" transform="translate(78.792 83.581)">
            <path id="Trazado_1041398" data-name="Trazado 1041398" d="M405.135,182.323H405.1a.462.462,0,0,1-.424-.5c.012-.156,1.208-15.773.451-24.592-.749-8.709-11.06-20.859-11.164-20.981a.462.462,0,1,1,.7-.6c.434.506,10.609,12.5,11.383,21.5.764,8.894-.439,24.585-.451,24.742A.462.462,0,0,1,405.135,182.323Z" transform="translate(-393.85 -135.492)" fill="#222a40"/>
          </g>
          <g id="Grupo_1184509" data-name="Grupo 1184509" transform="translate(58.457 100.834)">
            <g id="Grupo_1184505" data-name="Grupo 1184505" transform="translate(0 40.648)">
              <rect id="Rectángulo_415580" data-name="Rectángulo 415580" width="86.655" height="1.992" fill="#858cb6"/>
            </g>
            <g id="Grupo_1184506" data-name="Grupo 1184506" transform="translate(19.836)">
              <path id="Trazado_1041399" data-name="Trazado 1041399" d="M466.755,154.154H399.938L393.311,194.8h66.818Z" transform="translate(-393.311 -154.154)" fill="#858cb6"/>
            </g>
            <g id="Grupo_1184507" data-name="Grupo 1184507" transform="translate(19.375 40.186)">
              <path id="Trazado_1041400" data-name="Trazado 1041400" d="M460.092,198.547H393.274a.462.462,0,0,1,0-.924h66.818a.462.462,0,0,1,0,.924Z" transform="translate(-392.812 -197.623)" fill="#222a40"/>
            </g>
            <g id="Grupo_1184508" data-name="Grupo 1184508" transform="translate(34.03 42.641)">
              <path id="Trazado_1041401" data-name="Trazado 1041401" d="M408.665,200.279s2.035,6.49,6.3,7.6c0,0,12.978-2.325,15.016-4.961,0,0,14.961-1.706,15.563-2.636Z" transform="translate(-408.665 -200.279)" fill="#e48c59"/>
            </g>
          </g>
          <g id="Grupo_1184510" data-name="Grupo 1184510" transform="translate(36.445 277.982)">
            <path id="Trazado_1041402" data-name="Trazado 1041402" d="M356.034,353.089a.46.46,0,0,1-.121-.017,12.2,12.2,0,0,1-7.828-6.643.462.462,0,1,1,.841-.385,11.272,11.272,0,0,0,7.228,6.136.462.462,0,0,1-.12.909Z" transform="translate(-348.043 -345.776)" fill="#222a40"/>
          </g>
          <g id="Grupo_1184511" data-name="Grupo 1184511" transform="translate(73.734 282.046)">
            <path id="Trazado_1041403" data-name="Trazado 1041403" d="M397.8,358.072a.48.48,0,0,1-.147-.024,17.692,17.692,0,0,1-9.2-7.164.461.461,0,0,1,.776-.5,16.779,16.779,0,0,0,8.718,6.788.462.462,0,0,1-.147.9Z" transform="translate(-388.379 -350.172)" fill="#222a40"/>
          </g>
          <g id="Grupo_1184512" data-name="Grupo 1184512" transform="translate(49.278 361.298)">
            <path id="Trazado_1041404" data-name="Trazado 1041404" d="M371.584,465.116a.463.463,0,0,1-.461-.435c-.442-7.471-5.768-8.724-5.994-8.773a.463.463,0,0,1-.36-.384L361.93,436.43a.462.462,0,0,1,.913-.135l2.8,18.8c1.277.413,5.985,2.417,6.407,9.532a.461.461,0,0,1-.435.488Z" transform="translate(-361.924 -435.9)" fill="#222a40"/>
          </g>
        </g>
        <g id="Grupo_1184526" data-name="Grupo 1184526" transform="translate(-1655.545 -606.267)">
          <g id="Grupo_1184517" data-name="Grupo 1184517" transform="translate(0 30.422)">
            <g id="Grupo_1184516" data-name="Grupo 1184516">
              <g id="Grupo_1184515" data-name="Grupo 1184515">
                <g id="Grupo_1184514" data-name="Grupo 1184514">
                  <path id="Trazado_1041405" data-name="Trazado 1041405" d="M432,125.377l2.617,2.616a21.272,21.272,0,0,0,5.233-8.84l-3.539-1.044a16.979,16.979,0,0,0,.6-6.752l3.661-.407a20.545,20.545,0,0,0-3.647-9.613l-3,2.1A18.806,18.806,0,0,0,432,101.161a17.744,17.744,0,0,0-3-2.4l1.952-3.118a20.706,20.706,0,0,0-9.775-3.132l-.23,3.675a17,17,0,0,0-6.725.922l-1.206-3.484a20.382,20.382,0,0,0-8.555,5.681l2.725,2.481a17.248,17.248,0,0,0-3.47,5.83l-3.47-1.22a20.494,20.494,0,0,0-.895,10.223l3.647-.583a16.911,16.911,0,0,0,2.386,6.346l-3.118,1.952a20.955,20.955,0,0,0,7.444,7.091l1.8-3.213a16.827,16.827,0,0,0,6.454,2.061l-.407,3.688a21.045,21.045,0,0,0,10.168-1.41l-1.383-3.417A17.039,17.039,0,0,0,432,125.377Zm-19.578-4.637a10.565,10.565,0,1,1,14.927-.014A10.573,10.573,0,0,1,412.421,120.74Z" transform="translate(-399.077 -92.511)" fill="#7f85fa"/>
                </g>
              </g>
            </g>
          </g>
          <g id="Grupo_1184521" data-name="Grupo 1184521" transform="translate(34.636 7.142)">
            <g id="Grupo_1184520" data-name="Grupo 1184520">
              <g id="Grupo_1184519" data-name="Grupo 1184519">
                <g id="Grupo_1184518" data-name="Grupo 1184518">
                  <g transform="matrix(1, 0, 0, 1, -364.94, -53.64)" filter="url(#Trazado_1041406)">
                    <path id="Trazado_1041406-2" data-name="Trazado 1041406" d="M458.881,89.625l1.775,1.775a14.441,14.441,0,0,0,3.551-6l-2.4-.708a11.517,11.517,0,0,0,.4-4.581l2.483-.275a13.936,13.936,0,0,0-2.475-6.522l-2.033,1.426A12.787,12.787,0,0,0,458.88,73.2a11.988,11.988,0,0,0-2.033-1.628l1.325-2.116a14.043,14.043,0,0,0-6.632-2.124l-.156,2.492a11.523,11.523,0,0,0-4.562.626L446,68.083a13.826,13.826,0,0,0-5.8,3.854l1.849,1.683a11.71,11.71,0,0,0-2.355,3.955l-2.355-.827a13.9,13.9,0,0,0-.607,6.935l2.474-.4a11.48,11.48,0,0,0,1.619,4.305l-2.115,1.325a14.227,14.227,0,0,0,5.049,4.811l1.223-2.18a11.413,11.413,0,0,0,4.378,1.4l-.275,2.5a14.272,14.272,0,0,0,6.9-.957l-.938-2.318A11.573,11.573,0,0,0,458.881,89.625ZM445.6,86.479a7.168,7.168,0,1,1,10.127-.009A7.173,7.173,0,0,1,445.6,86.479Z" transform="translate(-71.61 -13.69)" fill="#fff"/>
                  </g>
                </g>
              </g>
            </g>
          </g>
          <g id="Grupo_1184525" data-name="Grupo 1184525" transform="translate(5.949 0)">
            <g id="Grupo_1184524" data-name="Grupo 1184524">
              <g id="Grupo_1184523" data-name="Grupo 1184523">
                <g id="Grupo_1184522" data-name="Grupo 1184522">
                  <path id="Trazado_1041407" data-name="Trazado 1041407" d="M422.336,76.4l1.337,1.337a10.86,10.86,0,0,0,2.674-4.517l-1.808-.533a8.68,8.68,0,0,0,.305-3.45l1.87-.208a10.491,10.491,0,0,0-1.864-4.912l-1.531,1.073a9.615,9.615,0,0,0-.984-1.164,9.06,9.06,0,0,0-1.531-1.226l1-1.594a10.575,10.575,0,0,0-4.995-1.6l-.118,1.878a8.7,8.7,0,0,0-3.436.471l-.617-1.781a10.427,10.427,0,0,0-4.372,2.9l1.392,1.267a8.819,8.819,0,0,0-1.773,2.979l-1.773-.623a10.472,10.472,0,0,0-.458,5.223l1.864-.3a8.64,8.64,0,0,0,1.219,3.242l-1.594,1a10.715,10.715,0,0,0,3.8,3.623l.922-1.642a8.592,8.592,0,0,0,3.3,1.053l-.208,1.884a10.758,10.758,0,0,0,5.2-.72l-.706-1.746A8.649,8.649,0,0,0,422.336,76.4Zm-10-2.369a5.4,5.4,0,1,1,7.628-.006A5.4,5.4,0,0,1,412.333,74.027Z" transform="translate(-405.512 -59.603)" fill="#a0a8fb"/>
                </g>
              </g>
            </g>
          </g>
        </g>
        <g id="Grupo_1184572" data-name="Grupo 1184572" transform="translate(-1869.652 -620.566)">
          <g id="Grupo_1184527" data-name="Grupo 1184527" transform="translate(11.759 63.334)">
            <path id="Trazado_1041408" data-name="Trazado 1041408" d="M307.495,198.192c-3.709.72-12.047,0-12.047,0L284.521,188.5s2.22-14.236,4.818-16.275,6.478-5.559,6.478-5.559l-18.894-10.127L269.7,172.229l.37,16.275,4.679,18.715c-.9.989-4.369,4.608-7.638,5.489-3.8,1.02-26.862-3.329-26.862-3.329s-14.915,7.778-20.384,7.778c-3.709,0-7.937-2.209-10.657-4.559a9.655,9.655,0,0,1-2.639-3.219c-1.2-2.969,0-16.026,0-16.026l-4.768-.19c-4.768-.19-19.135-15.845-20.934-22.794s.65-16.3.65-16.3l1.57-.559,13.016-4.669a48.712,48.712,0,0,1-2.849-11.087l.349-.04a.875.875,0,0,0,.76-.949l-1.24-10.247v-.01c.75-1.379,4.039-7.378,4.7-8.108.74-.83,15.1-5.468,16.945-5.728s5.138,1.18,5.138,1.18c-1.919.41-3.379.66-3.379.66S229.108,124.9,238.2,124.9s22.333-9.267,22.333-9.267l-2.469-1.04a23.016,23.016,0,0,1,5.389.58c3.4.69,16.815,5.088,22.923,9.727s36.039,32.88,36.869,40.848S311.2,197.473,307.495,198.192Z" transform="translate(-180.196 -112.645)" fill="#e8a03f"/>
          </g>
          <g id="Grupo_1184528" data-name="Grupo 1184528" transform="translate(81.113 355.161)">
            <path id="Trazado_1041409" data-name="Trazado 1041409" d="M303.515,468.325h-33.07l-6.208-19.484v19.484h-4.419s-4.339-24.8-4.589-29.631c-.2-4.089,2.069-8.317,2.76-9.5,3.409,2.519,7.138,5.078,8.207,5.088s5.848-3.019,10.257-5.968l9.877,24.953C296.477,457.028,303.515,468.325,303.515,468.325Z" transform="translate(-255.217 -428.317)" fill="#222a40"/>
          </g>
          <g id="Grupo_1184529" data-name="Grupo 1184529" transform="translate(79.637 135.961)">
            <path id="Trazado_1041410" data-name="Trazado 1041410" d="M300.994,204.126l-8.517,3.229s-4.469,6.268-9.867,6.008c-.71-.03-1.35-.09-1.929-.16-.11-.2-.16-.3-.16-.3s-.08.09-.23.25c-3.549-.5-4.679-1.6-4.679-1.6l-8.747-1.429s-2.879.81-4.868,1.34-2.689-1.62-2.689-1.62l4.959-2.359,2.209-.29,5.158-.69-7.277-.37a16.811,16.811,0,0,1-5.968.98c-3.639,0-3.339-1.859-3.339-1.859l13.386-3.8-6.388-.55a14.11,14.11,0,0,1-4.909,1.989c-3.059.65-3.519-1.439-3.519-1.439l5.879-3.749,8.988-1.07-1.719-1.109s-4.239.19-7.458.19-3.349-1.9-3.519-2.5,7.508-1.72,9.357-1.95a11.779,11.779,0,0,1,7.6,1.9c.61.39,1.46.87,2.409,1.369,3.4,1.79,8.147,3.909,8.147,3.909l6.768-4.008Z" transform="translate(-253.62 -191.206)" fill="#e48c59"/>
          </g>
          <g id="Grupo_1184530" data-name="Grupo 1184530" transform="translate(4.548 157.909)">
            <path id="Trazado_1041411" data-name="Trazado 1041411" d="M274.545,215c1.19,2.369,8.957,18.165,8.178,29.061-.83,11.816-4.438,162.583-4.438,162.583s-3.879,2.749-8.087,5.559c-4.409,2.949-9.2,5.968-10.257,5.968s-4.8-2.569-8.207-5.088c-3.279-2.419-6.248-4.779-6.248-4.779l-5.828-138.12L200.048,412.47a17.129,17.129,0,0,1-5.819,2.44,57.3,57.3,0,0,1-11,1.46,23.806,23.806,0,0,1-7.418-6.218,39.03,39.03,0,0,1-3.419-4.718s19.365-120.794,25.573-152.476,10.647-32.631,10.647-32.631c2.719,2.349,6.948,4.559,10.657,4.559,5.468,0,20.384-7.778,20.384-7.778s23.064,4.349,26.862,3.329c3.269-.88,6.738-4.5,7.638-5.489C274.275,214.967,274.405,214.988,274.545,215Z" transform="translate(-172.396 -214.948)" fill="#6455e7"/>
          </g>
          <g id="Grupo_1184531" data-name="Grupo 1184531" transform="translate(48.084 51.15)">
            <path id="Trazado_1041412" data-name="Trazado 1041412" d="M232.605,107.613c.76-3.139,1.489-8.147,1.489-8.147,7.148,17.715,20.834,11.557,20.834,11.557l6.089,2.569h.01l2.469,1.04S250.25,123.9,241.163,123.9s-21.674-10.377-21.674-10.377,1.46-.25,3.379-.66c3.469-.729,8.438-1.94,9.038-3.049A10.931,10.931,0,0,0,232.605,107.613Z" transform="translate(-219.489 -99.466)" fill="#e48c59"/>
          </g>
          <g id="Grupo_1184532" data-name="Grupo 1184532" transform="translate(49.521 17.149)">
            <path id="Trazado_1041413" data-name="Trazado 1041413" d="M223.855,87.31a8.92,8.92,0,0,1-2.539-4.218,7.281,7.281,0,0,1,.15-4.429,5.646,5.646,0,0,1,.77-1.379,5.151,5.151,0,0,1,2.27-1.78,4.671,4.671,0,0,1,1.96-.28s7.337-4.579,7.688-12.537c0,0,10.147,6.529,12.367,5.769,0,0-.48-.729-.83-4.449,0,0,8.008,2.539,12.537,1.759h.01s.76,3.839,1.5,8.317c.76,4.619,1.51,9.907,1.389,12.336-.239,4.789-6.048,13.636-7.668,15.256s-5.329,1.47-8.018,1.08a21.083,21.083,0,0,1-11.227-6.068,17.484,17.484,0,0,1-4.008-7.018,8.716,8.716,0,0,1-5.119-1.389A8.228,8.228,0,0,1,223.855,87.31Z" transform="translate(-221.044 -62.687)" fill="#e48c59"/>
          </g>
          <g id="Grupo_1184533" data-name="Grupo 1184533" transform="translate(62.69 51.15)">
            <path id="Trazado_1041414" data-name="Trazado 1041414" d="M254.533,104.454l1.589,6.568s-13.686,6.158-20.834-11.557a21.083,21.083,0,0,0,11.227,6.068C249.2,105.923,252.9,106.083,254.533,104.454Z" transform="translate(-235.288 -99.466)" fill="#222a40"/>
          </g>
          <g id="Grupo_1184534" data-name="Grupo 1184534" transform="translate(47.062 2.528)">
            <path id="Trazado_1041415" data-name="Trazado 1041415" d="M261.294,60.5c-.59,4.118-1.169,8.257-1.759,12.386-.74-4.479-1.5-8.317-1.5-8.317h-.01c-4.529.78-12.537-1.759-12.537-1.759.35,3.719.83,4.449.83,4.449-2.22.76-12.367-5.769-12.367-5.769-.35,7.958-7.688,12.537-7.688,12.537a4.671,4.671,0,0,0-1.96.28,5.157,5.157,0,0,0-2.27,1.78,47.425,47.425,0,0,1-2.819-7.568c-.74-2.639-1.24-5.489-.38-8.1a11.057,11.057,0,0,1,4.079-5.258,31.484,31.484,0,0,1,5.588-3.059,11.565,11.565,0,0,1,8.348-5.059,23.276,23.276,0,0,1,8.138.48c.67.14,1.329.3,1.989.459a75.712,75.712,0,0,1,10.177,3.329,8.131,8.131,0,0,1,2.959,1.749,5.861,5.861,0,0,1,1.439,3.549A17.594,17.594,0,0,1,261.294,60.5Z" transform="translate(-218.383 -46.871)" fill="#222a40"/>
          </g>
          <g id="Grupo_1184535" data-name="Grupo 1184535" transform="translate(51.704 41.773)">
            <path id="Trazado_1041416" data-name="Trazado 1041416" d="M234.391,98.7s-.73,5.009-1.489,8.147a7.448,7.448,0,0,1-4.978-4.218,9.035,9.035,0,0,1-4.519,3.389,22.051,22.051,0,0,0,.63-16.695,8.222,8.222,0,0,0,1.23.97,8.716,8.716,0,0,0,5.119,1.389A17.472,17.472,0,0,0,234.391,98.7Z" transform="translate(-223.405 -89.322)" fill="#222a40"/>
          </g>
          <g id="Grupo_1184536" data-name="Grupo 1184536" transform="translate(4.55 353.112)">
            <path id="Trazado_1041417" data-name="Trazado 1041417" d="M194.228,430.858c1.52,8.747,3.529,21.084,3.409,24.453-.2,5.4-11.416,15.916-14.215,15.065S173.3,460.979,172.5,457.5c-.64-2.689,2.05-22.424,3.319-31.4a23.806,23.806,0,0,0,7.418,6.218A57.214,57.214,0,0,0,194.228,430.858Z" transform="translate(-172.398 -426.1)" fill="#222a40"/>
          </g>
          <g id="Grupo_1184537" data-name="Grupo 1184537" transform="translate(5.407 88.45)">
            <path id="Trazado_1041418" data-name="Trazado 1041418" d="M195.579,150.9l-13.016,4.669a16.877,16.877,0,0,0-4.509-8.147,52.526,52.526,0,0,0-4.729-4.339l2.359-1.609a.9.9,0,0,0,.77.31l16.275-1.969A48.716,48.716,0,0,0,195.579,150.9Z" transform="translate(-173.325 -139.813)" fill="#e48c59"/>
          </g>
          <g id="Grupo_1184538" data-name="Grupo 1184538" transform="translate(23.382 65.219)">
            <path id="Trazado_1041419" data-name="Trazado 1041419" d="M195.708,114.971c.48.49.3,1.279.11,1.929A48.586,48.586,0,0,0,194,126.077l-1.23-10.107a8.278,8.278,0,0,1,.7-.64C194.108,114.8,195.127,114.381,195.708,114.971Z" transform="translate(-192.769 -114.684)" fill="#e48c59"/>
          </g>
          <g id="Grupo_1184539" data-name="Grupo 1184539" transform="translate(3.631 54.102)">
            <path id="Trazado_1041420" data-name="Trazado 1041420" d="M193.694,136.016a.875.875,0,0,1-.76.949l-.349.04-16.275,1.969a.9.9,0,0,1-.77-.31.846.846,0,0,1-.19-.43l-.44-3.649c.29-.2.59-.41.86-.62l.43,3.559,16.2-1.969.29-.03-.56-4.679-.01-.04-1.78-14.8V116l-1.329-10.986L172.51,107l2.259,18.665a2.467,2.467,0,0,0-.949-.08l-.12-1v-.01a8.647,8.647,0,0,0-.37-3.089v-.02l-1.919-15.855a.858.858,0,0,1,.75-.94l16.625-2.01a.858.858,0,0,1,.96.74l1.41,11.657,1.23,10.107v.01c-.04.29-.06.569-.08.86,0,0,.05-.1.15-.27Z" transform="translate(-171.404 -102.659)" fill="#222a40"/>
          </g>
          <g id="Grupo_1184540" data-name="Grupo 1184540" transform="translate(4.737 56.457)">
            <path id="Trazado_1041421" data-name="Trazado 1041421" d="M192.225,131.04l.56,4.679-.29.03-16.2,1.969-.43-3.559a3.182,3.182,0,0,0,.83-.79,1.694,1.694,0,0,0-.13-1.969,1.728,1.728,0,0,0-1.09-.45,4.637,4.637,0,0,0-.83-.02c.22-.28.56-.65.72-.91a4.748,4.748,0,0,0,.509-1.07,2.928,2.928,0,0,0-.09-2.16,2.023,2.023,0,0,0-.92-.93L172.6,107.2l16.505-1.989,1.329,10.986v.01l1.78,14.8Z" transform="translate(-172.6 -105.206)" fill="#c1c9fc"/>
          </g>
          <g id="Grupo_1184541" data-name="Grupo 1184541" transform="translate(0 70.653)">
            <path id="Trazado_1041422" data-name="Trazado 1041422" d="M174.613,135.939l.44,3.649a.839.839,0,0,0,.19.43l-2.359,1.609c-.99-.82-1.989-1.639-2.949-2.49a7.222,7.222,0,0,1-2.289-2.9,2.748,2.748,0,0,1,.86-3.159c-.11-.29-.239-.58-.36-.87a3.84,3.84,0,0,1,.961-4.818l-.349-.07c.32-1.62.63-3.219.949-4.828.15-.76.41-1.649,1.14-1.879a1.477,1.477,0,0,1,1.539.6,4.214,4.214,0,0,1,.65,1.609v.02l.37,3.089v.01a3.2,3.2,0,0,1-.26,1.01c.09-.01.23-.01.38-.01a2.428,2.428,0,0,1,.949.08,2.019,2.019,0,0,1,.92.93,2.928,2.928,0,0,1,.09,2.16,4.79,4.79,0,0,1-.509,1.07c-.16.26-.5.63-.72.91a4.551,4.551,0,0,1,.83.02,1.725,1.725,0,0,1,1.09.45,1.7,1.7,0,0,1,.13,1.969,3.167,3.167,0,0,1-.83.79C175.2,135.529,174.9,135.739,174.613,135.939Z" transform="translate(-167.476 -120.562)" fill="#e48c59"/>
          </g>
          <g id="Grupo_1184550" data-name="Grupo 1184550" transform="translate(51.834 22.013)">
            <g id="Grupo_1184542" data-name="Grupo 1184542" transform="translate(26.037 9.042)">
              <path id="Trazado_1041423" data-name="Trazado 1041423" d="M252.477,77.729a13.214,13.214,0,0,0-.724,5.431c.261,2.944,2.386,4.674,3.494,4.445s3.07-1.662,2.773-3.176a6.4,6.4,0,0,0-1.447-1.768A59.6,59.6,0,0,1,252.477,77.729Z" transform="translate(-251.709 -77.729)" fill="#e07045"/>
            </g>
            <g id="Grupo_1184543" data-name="Grupo 1184543" transform="translate(25.725 7.679)">
              <path id="Trazado_1041424" data-name="Trazado 1041424" d="M253.923,88.537a.462.462,0,0,1-.157-.9,8.68,8.68,0,0,0,3.584-2.409.963.963,0,0,0-.135-1.365,41.548,41.548,0,0,1-5.765-6.894.462.462,0,1,1,.769-.511,40.593,40.593,0,0,0,5.638,6.74,1.872,1.872,0,0,1,.188,2.639,9.6,9.6,0,0,1-3.965,2.67A.468.468,0,0,1,253.923,88.537Z" transform="translate(-251.372 -76.254)" fill="#222a40"/>
            </g>
            <g id="Grupo_1184544" data-name="Grupo 1184544" transform="translate(15.705 6.487)">
              <path id="Trazado_1041425" data-name="Trazado 1041425" d="M244.938,77.2a2.23,2.23,0,1,1-2.526-2.223A2.39,2.39,0,0,1,244.938,77.2Z" transform="translate(-240.534 -74.965)" fill="#222a40"/>
            </g>
            <g id="Grupo_1184545" data-name="Grupo 1184545" transform="translate(29.478 4.644)">
              <path id="Trazado_1041426" data-name="Trazado 1041426" d="M259.836,75.211a2.23,2.23,0,1,1-2.526-2.222A2.391,2.391,0,0,1,259.836,75.211Z" transform="translate(-255.432 -72.971)" fill="#222a40"/>
            </g>
            <g id="Grupo_1184546" data-name="Grupo 1184546" transform="translate(12.822 1.519)">
              <path id="Trazado_1041427" data-name="Trazado 1041427" d="M242.032,69.612a12.672,12.672,0,0,0-4.169,1.735,1.171,1.171,0,0,0-.438.761,1.193,1.193,0,0,0,.235.874,1.179,1.179,0,0,0,.761.438,1.32,1.32,0,0,0,.874-.236c.069-.044.141-.087.211-.129A11.169,11.169,0,0,1,242.019,72c.107-.027.214-.055.322-.079a1.246,1.246,0,0,0,.771-.447,1.163,1.163,0,0,0-1.08-1.86Z" transform="translate(-237.415 -69.59)" fill="#222a40"/>
            </g>
            <g id="Grupo_1184547" data-name="Grupo 1184547" transform="translate(27.828)">
              <path id="Trazado_1041428" data-name="Trazado 1041428" d="M254.652,67.964a12.676,12.676,0,0,1,4.479.578,1.17,1.17,0,0,1,.622.618,1.194,1.194,0,0,1,0,.905,1.177,1.177,0,0,1-.618.622,1.319,1.319,0,0,1-.905,0c-.079-.025-.158-.046-.238-.069a11.167,11.167,0,0,0-2.7-.359c-.11,0-.221,0-.331.009a1.246,1.246,0,0,1-.861-.228,1.164,1.164,0,0,1,.553-2.079Z" transform="translate(-253.647 -67.948)" fill="#222a40"/>
            </g>
            <g id="Grupo_1184548" data-name="Grupo 1184548" transform="translate(20.347 22.206)">
              <path id="Trazado_1041429" data-name="Trazado 1041429" d="M257.361,93.644a6.276,6.276,0,0,1-6.3,4.352c-3.7-.107-5.041-3.334-5.475-5.037a.785.785,0,0,1,.807-.989l10.274.636A.775.775,0,0,1,257.361,93.644Z" transform="translate(-245.555 -91.968)" fill="#fff"/>
            </g>
            <g id="Grupo_1184549" data-name="Grupo 1184549" transform="translate(0 12.108)">
              <path id="Trazado_1041430" data-name="Trazado 1041430" d="M229.323,89.2a.462.462,0,0,1-.45-.36,10.985,10.985,0,0,0-5.1-6.934.463.463,0,0,1,.465-.8,11.924,11.924,0,0,1,5.533,7.529.461.461,0,0,1-.348.553A.432.432,0,0,1,229.323,89.2Z" transform="translate(-223.545 -81.045)" fill="#222a40"/>
            </g>
          </g>
          <g id="Grupo_1184551" data-name="Grupo 1184551" transform="translate(56.315 0)">
            <path id="Trazado_1041431" data-name="Trazado 1041431" d="M228.855,51.064a.449.449,0,0,1-.154-.027.461.461,0,0,1-.281-.59,20.728,20.728,0,0,1,3.445-6.14.462.462,0,0,1,.717.582,19.831,19.831,0,0,0-3.291,5.867A.463.463,0,0,1,228.855,51.064Z" transform="translate(-228.393 -44.136)" fill="#222a40"/>
          </g>
          <g id="Grupo_1184552" data-name="Grupo 1184552" transform="translate(55.299 1.484)">
            <path id="Trazado_1041432" data-name="Trazado 1041432" d="M228.022,51.226a.461.461,0,0,1-.444-.336,7.523,7.523,0,0,1,.262-4.86.462.462,0,1,1,.857.347,6.6,6.6,0,0,0-.228,4.26.463.463,0,0,1-.318.571A.478.478,0,0,1,228.022,51.226Z" transform="translate(-227.294 -45.741)" fill="#222a40"/>
          </g>
          <g id="Grupo_1184553" data-name="Grupo 1184553" transform="translate(50.035 44.175)">
            <path id="Trazado_1041433" data-name="Trazado 1041433" d="M222.061,103.761a.456.456,0,0,1-.289-.1.461.461,0,0,1-.069-.65,14.686,14.686,0,0,0,3.158-10.58.462.462,0,1,1,.92-.092,15.619,15.619,0,0,1-3.358,11.252A.464.464,0,0,1,222.061,103.761Z" transform="translate(-221.6 -91.921)" fill="#222a40"/>
          </g>
          <g id="Grupo_1184554" data-name="Grupo 1184554" transform="translate(12.613 98.462)">
            <path id="Trazado_1041434" data-name="Trazado 1041434" d="M202.386,196.526a5.276,5.276,0,0,1-.572-.032.462.462,0,1,1,.1-.919c5.232.6,7.21-9.1,7.952-12.75l.113-.549c.675-3.242-.867-16.1-1.53-19.645-.531-2.829-7.746-8.761-10.739-11.007l-15.974,5.757a.462.462,0,1,1-.313-.87l16.208-5.841a.465.465,0,0,1,.432.064c.432.32,10.576,7.888,11.3,11.727.693,3.7,2.237,16.593,1.526,20l-.112.544C210.012,186.76,208.025,196.525,202.386,196.526Z" transform="translate(-181.12 -150.643)" fill="#222a40"/>
          </g>
          <g id="Grupo_1184555" data-name="Grupo 1184555" transform="translate(37.824 93.46)">
            <path id="Trazado_1041435" data-name="Trazado 1041435" d="M208.854,159.154h-.015a.463.463,0,0,1-.448-.476,98.325,98.325,0,0,1,1.565-13.073.462.462,0,1,1,.907.177,97.229,97.229,0,0,0-1.548,12.924A.462.462,0,0,1,208.854,159.154Z" transform="translate(-208.391 -145.232)" fill="#222a40"/>
          </g>
          <g id="Grupo_1184556" data-name="Grupo 1184556" transform="translate(108.304 88.507)">
            <path id="Trazado_1041436" data-name="Trazado 1041436" d="M285.092,157.007l-.036,0a.463.463,0,0,1-.425-.5l1.25-16.208a.479.479,0,0,1,.5-.425.462.462,0,0,1,.425.5l-1.25,16.208A.462.462,0,0,1,285.092,157.007Z" transform="translate(-284.63 -139.875)" fill="#222a40"/>
          </g>
          <g id="Grupo_1184557" data-name="Grupo 1184557" transform="translate(100.243 97.489)">
            <path id="Trazado_1041437" data-name="Trazado 1041437" d="M282.626,157.741a.462.462,0,0,1-.349-.16l-6.254-7.226a.462.462,0,0,1,.7-.6l6.254,7.226a.462.462,0,0,1-.349.765Z" transform="translate(-275.91 -149.591)" fill="#222a40"/>
          </g>
          <g id="Grupo_1184558" data-name="Grupo 1184558" transform="translate(126.918 113.469)">
            <path id="Trazado_1041438" data-name="Trazado 1041438" d="M305.228,171.23a.462.462,0,0,1-.288-.825,19.826,19.826,0,0,1,9.552-3.527.462.462,0,1,1,.1.919,19.263,19.263,0,0,0-9.077,3.333A.458.458,0,0,1,305.228,171.23Z" transform="translate(-304.764 -166.876)" fill="#222a40"/>
          </g>
          <g id="Grupo_1184559" data-name="Grupo 1184559" transform="translate(50.961 151.404)">
            <path id="Trazado_1041439" data-name="Trazado 1041439" d="M223.063,224.815a.462.462,0,0,1-.088-.915c23.358-4.541,27.825-15.579,27.867-15.69a.462.462,0,0,1,.865.326c-.178.472-4.63,11.621-28.556,16.271A.584.584,0,0,1,223.063,224.815Z" transform="translate(-222.602 -207.911)" fill="#222a40"/>
          </g>
          <g id="Grupo_1184560" data-name="Grupo 1184560" transform="translate(52.852 115.969)">
            <path id="Trazado_1041440" data-name="Trazado 1041440" d="M225.108,177.843a.462.462,0,0,1-.12-.909,276.506,276.506,0,0,1,37.31-7.349.463.463,0,0,1,.116.918,275.7,275.7,0,0,0-37.185,7.325A.529.529,0,0,1,225.108,177.843Z" transform="translate(-224.647 -169.581)" fill="#222a40"/>
          </g>
          <g id="Grupo_1184561" data-name="Grupo 1184561" transform="translate(62.731 122.056)">
            <path id="Trazado_1041441" data-name="Trazado 1041441" d="M235.794,178.664a.462.462,0,0,1-.123-.908,43.417,43.417,0,0,1,11.792-1.59.463.463,0,0,1,.46.463.478.478,0,0,1-.464.461h-.132a42.558,42.558,0,0,0-11.41,1.557A.476.476,0,0,1,235.794,178.664Z" transform="translate(-235.333 -176.166)" fill="#222a40"/>
          </g>
          <g id="Grupo_1184562" data-name="Grupo 1184562" transform="translate(60.037 61.035)">
            <path id="Trazado_1041442" data-name="Trazado 1041442" d="M244.562,144.618h0a.466.466,0,0,1-.437-.31l-11.68-33.536a.463.463,0,1,1,.874-.3l11.245,32.288,10.906-31.079a.462.462,0,0,1,.873.306L245,144.31A.465.465,0,0,1,244.562,144.618Z" transform="translate(-232.419 -110.158)" fill="#222a40"/>
          </g>
          <g id="Grupo_1184563" data-name="Grupo 1184563" transform="translate(67.969 93.076)">
            <path id="Trazado_1041443" data-name="Trazado 1041443" d="M249.085,150.792c0,3.3-1.81,5.975-4.044,5.975S241,154.091,241,150.792s1.81-5.975,4.043-5.975S249.085,147.491,249.085,150.792Z" transform="translate(-240.999 -144.817)" fill="#fff"/>
          </g>
          <g id="Grupo_1184564" data-name="Grupo 1184564" transform="translate(73.378 198.972)">
            <path id="Trazado_1041444" data-name="Trazado 1041444" d="M247.312,269.554a.462.462,0,0,1-.165-.894l24.271-9.264a.462.462,0,0,1,.331.863l-24.271,9.264A.471.471,0,0,1,247.312,269.554Z" transform="translate(-246.85 -259.366)" fill="#222a40"/>
          </g>
          <g id="Grupo_1184565" data-name="Grupo 1184565" transform="translate(73.378 210.089)">
            <path id="Trazado_1041445" data-name="Trazado 1041445" d="M247.311,273.428a.462.462,0,0,1-.033-.924l14.822-1.111a.463.463,0,0,1,.068.923l-14.822,1.111Z" transform="translate(-246.85 -271.391)" fill="#222a40"/>
          </g>
          <g id="Grupo_1184566" data-name="Grupo 1184566" transform="translate(7.503 165.438)">
            <path id="Trazado_1041446" data-name="Trazado 1041446" d="M176.055,411.228a.423.423,0,0,1-.1-.01.463.463,0,0,1-.358-.547l11.312-54.092c.116-.646,11.966-66.109,13.887-90.264a123.916,123.916,0,0,1,11.632-42.976.462.462,0,0,1,.818.43,122.956,122.956,0,0,0-11.528,42.621c-1.925,24.2-13.783,89.708-13.9,90.366l-11.315,54.1A.46.46,0,0,1,176.055,411.228Z" transform="translate(-175.592 -223.092)" fill="#222a40"/>
          </g>
          <g id="Grupo_1184567" data-name="Grupo 1184567" transform="translate(0.565 81.668)">
            <path id="Trazado_1041447" data-name="Trazado 1041447" d="M170.527,138.662a.462.462,0,0,1-.144-.9l4.131-1.361c.105-.028,1.854-.5,1.628-1.92a1.189,1.189,0,0,0-.474-.851,1.868,1.868,0,0,0-1.269-.187,25.183,25.183,0,0,0-5.641.951.462.462,0,0,1-.414-.826c1.325-.666,5.453-1,5.92-1.038a2.731,2.731,0,0,1,1.92.331,2.086,2.086,0,0,1,.872,1.474c.288,1.81-1.367,2.723-2.283,2.953l-4.1,1.352A.421.421,0,0,1,170.527,138.662Z" transform="translate(-168.088 -132.477)" fill="#222a40"/>
          </g>
          <g id="Grupo_1184568" data-name="Grupo 1184568" transform="translate(2.106 70.18)">
            <path id="Trazado_1041448" data-name="Trazado 1041448" d="M173.316,127.375a.485.485,0,0,1-.148-.024.463.463,0,0,1-.29-.585c.009-.027.891-2.714-.175-4.66-.372-.679-.743-1.078-1.045-1.124-.34-.046-.756.346-1.121.7a.462.462,0,1,1-.641-.667,2.362,2.362,0,0,1,1.9-.944c.618.094,1.18.616,1.716,1.594,1.264,2.307.283,5.275.24,5.4A.464.464,0,0,1,173.316,127.375Z" transform="translate(-169.754 -120.05)" fill="#222a40"/>
          </g>
          <g id="Grupo_1184569" data-name="Grupo 1184569" transform="translate(0.271 76.528)">
            <path id="Trazado_1041449" data-name="Trazado 1041449" d="M174.275,133.032a.462.462,0,0,1-.3-.813,3.3,3.3,0,0,0,1.1-3.3c-.158-.6-.458-.919-.667-.961-1.139-.227-4.627-.295-5.786,1.469a.463.463,0,1,1-.773-.508c1.546-2.35,5.709-2.071,6.737-1.868a2.036,2.036,0,0,1,1.383,1.632,4.232,4.232,0,0,1-1.39,4.241A.456.456,0,0,1,174.275,133.032Z" transform="translate(-167.77 -126.918)" fill="#222a40"/>
          </g>
          <g id="Grupo_1184570" data-name="Grupo 1184570" transform="translate(14.747 88.506)">
            <path id="Trazado_1041450" data-name="Trazado 1041450" d="M188.406,144.293a.461.461,0,0,1-.434-.3c-.778-2.117-4.185-3.2-4.219-3.212a.462.462,0,0,1,.274-.883c.158.049,3.876,1.229,4.813,3.775a.463.463,0,0,1-.275.594A.455.455,0,0,1,188.406,144.293Z" transform="translate(-183.428 -139.874)" fill="#222a40"/>
          </g>
          <g id="Grupo_1184571" data-name="Grupo 1184571" transform="translate(62.69 35.432)">
            <path id="Trazado_1041451" data-name="Trazado 1041451" d="M242.468,86.053a3.59,3.59,0,1,1-3.59-3.59A3.589,3.589,0,0,1,242.468,86.053Z" transform="translate(-235.289 -82.463)" fill="#e07045"/>
          </g>
        </g>
        <g id="Grupo_1184573" data-name="Grupo 1184573" transform="translate(-1774.308 -641.395)">
          <g transform="matrix(1, 0, 0, 1, -211.54, -11.37)" filter="url(#Trazado_1041452)">
            <path id="Trazado_1041452-2" data-name="Trazado 1041452" d="M320.135,41.964c0,11.24-11.084,20.358-24.763,20.358q-1.082,0-2.138-.078a6.581,6.581,0,0,0-4.061,1.108,27.762,27.762,0,0,1-11.72,3.8c.052-.034.094-.068.146-.1a6.711,6.711,0,0,0,.249-10.715,18.642,18.642,0,0,1-7.238-14.374c0-11.248,11.084-20.358,24.762-20.358S320.135,30.716,320.135,41.964Z" transform="translate(-59.07 -10.24)" fill="#fff"/>
          </g>
        </g>
        <g id="Grupo_1184598" data-name="Grupo 1184598" transform="translate(-1768.63 -639.827)">
          <g id="Grupo_1184578" data-name="Grupo 1184578" transform="translate(0)">
            <g id="Grupo_1184575" data-name="Grupo 1184575" transform="translate(0)">
              <g id="Grupo_1184574" data-name="Grupo 1184574">
                <circle id="Elipse_13329" data-name="Elipse 13329" cx="15.535" cy="15.535" r="15.535" transform="translate(0 30.227) rotate(-76.621)" fill="#fff"/>
              </g>
            </g>
            <g id="Grupo_1184577" data-name="Grupo 1184577" transform="translate(2.276 2.287)">
              <g id="Grupo_1184576" data-name="Grupo 1184576">
                <path id="Trazado_1041453" data-name="Trazado 1041453" d="M295.65,58.645A16.435,16.435,0,1,1,312.085,42.21,16.454,16.454,0,0,1,295.65,58.645Zm0-31.07A14.635,14.635,0,1,0,310.285,42.21,14.652,14.652,0,0,0,295.65,27.575Z" transform="translate(-279.215 -25.775)" fill="#a0a8fb"/>
              </g>
            </g>
          </g>
          <g id="Grupo_1184580" data-name="Grupo 1184580" transform="translate(18.261 26.964)">
            <g id="Grupo_1184579" data-name="Grupo 1184579">
              <path id="Trazado_1041454" data-name="Trazado 1041454" d="M296.956,57.042a.45.45,0,0,1-.45-.45V52.919a.45.45,0,1,1,.9,0v3.673A.45.45,0,0,1,296.956,57.042Z" transform="translate(-296.506 -52.469)" fill="#a0a8fb"/>
            </g>
          </g>
          <g id="Grupo_1184582" data-name="Grupo 1184582" transform="translate(18.261 5.906)">
            <g id="Grupo_1184581" data-name="Grupo 1184581">
              <path id="Trazado_1041455" data-name="Trazado 1041455" d="M296.956,34.263a.45.45,0,0,1-.45-.45V30.14a.45.45,0,1,1,.9,0v3.673A.45.45,0,0,1,296.956,34.263Z" transform="translate(-296.506 -29.69)" fill="#a0a8fb"/>
            </g>
          </g>
          <g id="Grupo_1184584" data-name="Grupo 1184584" transform="translate(5.896 18.272)">
            <g id="Grupo_1184583" data-name="Grupo 1184583">
              <path id="Trazado_1041456" data-name="Trazado 1041456" d="M287.253,43.966H283.58a.45.45,0,1,1,0-.9h3.673a.45.45,0,1,1,0,.9Z" transform="translate(-283.13 -43.066)" fill="#a0a8fb"/>
            </g>
          </g>
          <g id="Grupo_1184586" data-name="Grupo 1184586" transform="translate(26.954 18.272)">
            <g id="Grupo_1184585" data-name="Grupo 1184585">
              <path id="Trazado_1041457" data-name="Trazado 1041457" d="M310.032,43.966h-3.673a.45.45,0,0,1,0-.9h3.673a.45.45,0,1,1,0,.9Z" transform="translate(-305.909 -43.066)" fill="#a0a8fb"/>
            </g>
          </g>
          <g id="Grupo_1184588" data-name="Grupo 1184588" transform="translate(9.517 24.419)">
            <g id="Grupo_1184587" data-name="Grupo 1184587">
              <path id="Trazado_1041458" data-name="Trazado 1041458" d="M287.5,53.212a.45.45,0,0,1-.318-.768l2.6-2.6a.45.45,0,1,1,.636.636l-2.6,2.6A.448.448,0,0,1,287.5,53.212Z" transform="translate(-287.047 -49.716)" fill="#a0a8fb"/>
            </g>
          </g>
          <g id="Grupo_1184590" data-name="Grupo 1184590" transform="translate(24.408 9.528)">
            <g id="Grupo_1184589" data-name="Grupo 1184589">
              <path id="Trazado_1041459" data-name="Trazado 1041459" d="M303.6,37.105a.45.45,0,0,1-.318-.768l2.6-2.6a.45.45,0,0,1,.636.636l-2.6,2.6A.443.443,0,0,1,303.6,37.105Z" transform="translate(-303.154 -33.607)" fill="#a0a8fb"/>
            </g>
          </g>
          <g id="Grupo_1184592" data-name="Grupo 1184592" transform="translate(9.517 9.528)">
            <g id="Grupo_1184591" data-name="Grupo 1184591">
              <path id="Trazado_1041460" data-name="Trazado 1041460" d="M290.095,37.105a.448.448,0,0,1-.318-.132l-2.6-2.6a.45.45,0,0,1,.636-.636l2.6,2.6a.45.45,0,0,1,0,.636A.444.444,0,0,1,290.095,37.105Z" transform="translate(-287.047 -33.607)" fill="#a0a8fb"/>
            </g>
          </g>
          <g id="Grupo_1184594" data-name="Grupo 1184594" transform="translate(24.409 24.419)">
            <g id="Grupo_1184593" data-name="Grupo 1184593">
              <path id="Trazado_1041461" data-name="Trazado 1041461" d="M306.2,53.212a.448.448,0,0,1-.318-.132l-2.6-2.6a.45.45,0,1,1,.636-.636l2.6,2.6a.45.45,0,0,1-.318.768Z" transform="translate(-303.156 -49.715)" fill="#a0a8fb"/>
            </g>
          </g>
          <g id="Grupo_1184597" data-name="Grupo 1184597" transform="translate(17.575 7.494)">
            <g id="Grupo_1184596" data-name="Grupo 1184596">
              <g id="Grupo_1184595" data-name="Grupo 1184595">
                <path id="Trazado_1041462" data-name="Trazado 1041462" d="M296.9,44.319a1.135,1.135,0,0,1-1.136-1.136V32.544a1.136,1.136,0,0,1,2.272,0v9.025l5.258-1.879a1.136,1.136,0,1,1,.765,2.14l-6.777,2.422A1.112,1.112,0,0,1,296.9,44.319Z" transform="translate(-295.764 -31.408)" fill="#7f85fa"/>
              </g>
            </g>
          </g>
        </g>
        <g id="Grupo_1184602" data-name="Grupo 1184602" transform="translate(-1868.092 -615.405)">
          <g id="Grupo_1184599" data-name="Grupo 1184599" transform="translate(0 0)">
            <g transform="matrix(1, 0, 0, 1, -117.75, -37.36)" filter="url(#Trazado_1041463)">
              <path id="Trazado_1041463-2" data-name="Trazado 1041463" d="M169.164,64.782c0,8.316,8.2,15.061,18.32,15.061q.8,0,1.582-.057a4.869,4.869,0,0,1,3,.819,20.544,20.544,0,0,0,8.671,2.814c-.038-.026-.07-.051-.108-.077a4.966,4.966,0,0,1-.184-7.928,13.794,13.794,0,0,0,5.355-10.634c0-8.322-8.2-15.061-18.32-15.061S169.164,56.461,169.164,64.782Z" transform="translate(-51.41 -12.36)" fill="#dce2fd"/>
            </g>
          </g>
          <g id="Grupo_1184601" data-name="Grupo 1184601" transform="translate(5.605 4.619)">
            <g id="Grupo_1184600" data-name="Grupo 1184600">
              <path id="Trazado_1041464" data-name="Trazado 1041464" d="M184.092,75.4l-8.865-8.864,4.116-4.116,4.749,4.749,12.451-12.45,4.116,4.115Z" transform="translate(-175.227 -54.715)" fill="#6455e7"/>
            </g>
          </g>
        </g>
        <g id="Grupo_1184620" data-name="Grupo 1184620" transform="translate(-1984.772 -636.672)">
          <g id="Grupo_1184607" data-name="Grupo 1184607" transform="translate(0 9.019)">
            <g id="Grupo_1184603" data-name="Grupo 1184603">
              <g transform="matrix(1, 0, 0, 1, -1.07, -25.11)" filter="url(#Trazado_1041465)">
                <path id="Trazado_1041465-2" data-name="Trazado 1041465" d="M59.221,73.617c-1.441-.386-2.365-1.75-3.53-4.536-2.307-5.5-11.461-5.633-12.656-16.755S53.477,37.43,53.477,37.43s11.465-4.27,17.434,5.191-1.124,15.244.489,20.991c.817,2.909.941,4.552.048,5.748-.872,1.169-2.71,1.912-5.812,2.992S60.628,73.992,59.221,73.617Z" transform="translate(-41.88 -11.36)" fill="#fff"/>
              </g>
            </g>
            <g id="Grupo_1184604" data-name="Grupo 1184604" transform="translate(16.273 32.891)">
              <path id="Trazado_1041466" data-name="Trazado 1041466" d="M72.776,72.048a2.634,2.634,0,0,1,.345,1.138A3.344,3.344,0,0,1,72.58,75.4a1.564,1.564,0,0,1-.6.507c-.838.384-2.138.912-4.155,1.613s-3.364,1.1-4.258,1.316a1.592,1.592,0,0,1-.878-.056,3.381,3.381,0,0,1-1.7-1.372,2.592,2.592,0,0,1-.439-1.106c1.406.375,3.309-.184,6.413-1.265S71.905,73.216,72.776,72.048Z" transform="translate(-60.552 -72.048)" fill="#e8a03f"/>
            </g>
            <g id="Grupo_1184605" data-name="Grupo 1184605" transform="translate(18.234 36.228)">
              <path id="Trazado_1041467" data-name="Trazado 1041467" d="M74.179,79.212s.947.178.382,1.1a4.615,4.615,0,0,1-1.143.579c-.727.313-1.918.777-3.848,1.449s-3.151,1.048-3.915,1.254a4.629,4.629,0,0,1-1.253.255c-1.013-.368-.382-1.1-.382-1.1l-.232-.666c-.978-.418-.4-1.16-.4-1.16l-.2-.579c-.826-.532-.4-1.15-.4-1.15l.069-.139a1.6,1.6,0,0,0,.878.056c.895-.219,2.242-.614,4.258-1.316s3.318-1.23,4.155-1.613a1.557,1.557,0,0,0,.6-.507l.2-.018s.717.221.4,1.15l.2.579s.912.226.4,1.16Z" transform="translate(-62.674 -75.657)" fill="#e8a03f"/>
            </g>
            <g id="Grupo_1184606" data-name="Grupo 1184606" transform="translate(21.216 41.458)">
              <path id="Trazado_1041468" data-name="Trazado 1041468" d="M73.662,81.315s.424,1.7-3.309,3-4.454-.293-4.454-.293c.765-.206,1.986-.582,3.915-1.254S72.934,81.629,73.662,81.315Z" transform="translate(-65.899 -81.315)" fill="#e8a03f"/>
            </g>
          </g>
          <g id="Grupo_1184609" data-name="Grupo 1184609" transform="translate(9.197 26.556)">
            <g id="Grupo_1184608" data-name="Grupo 1184608">
              <path id="Trazado_1041469" data-name="Trazado 1041469" d="M62.592,75.362a.5.5,0,0,1-.35-.27L52.95,56.16a.5.5,0,0,1,.9-.44L63.14,74.652a.5.5,0,0,1-.548.71Z" transform="translate(-52.899 -55.439)" fill="#222a40"/>
            </g>
          </g>
          <g id="Grupo_1184611" data-name="Grupo 1184611" transform="translate(20.874 22.58)">
            <g id="Grupo_1184610" data-name="Grupo 1184610">
              <path id="Trazado_1041470" data-name="Trazado 1041470" d="M70.126,72.8a.5.5,0,0,1-.39-.391l-4.2-20.668a.5.5,0,1,1,.979-.2l4.2,20.668a.5.5,0,0,1-.39.589A.514.514,0,0,1,70.126,72.8Z" transform="translate(-65.53 -51.138)" fill="#222a40"/>
            </g>
          </g>
          <g id="Grupo_1184613" data-name="Grupo 1184613" transform="translate(9.405 19.723)">
            <g id="Grupo_1184612" data-name="Grupo 1184612">
              <path id="Trazado_1041471" data-name="Trazado 1041471" d="M53.524,60.424a.5.5,0,0,1,.049-.988c.052-.006,4.064-.438,6.165-2.837a6,6,0,0,1-1.589-1.1c-2.374-2.262-2.59-4.02-2.354-5.1a2.967,2.967,0,0,1,1.877-2.153l.2-.067a2.965,2.965,0,0,1,2.8.56c.844.708,1.744,2.232,1.245,5.472a5.989,5.989,0,0,1-.59,1.839c3.129.618,6.57-1.488,6.615-1.516a.5.5,0,0,1,.53.849c-.205.129-4.141,2.537-7.721,1.577-2.263,2.951-6.837,3.441-7.079,3.464A.487.487,0,0,1,53.524,60.424Zm5.62-11.339a1.873,1.873,0,0,0-.952.048l-.2.067a1.947,1.947,0,0,0-1.222,1.421c-.256,1.166.478,2.642,2.067,4.157a4.89,4.89,0,0,0,1.5.982,4.868,4.868,0,0,0,.59-1.694c.335-2.17.015-3.788-.9-4.554A1.973,1.973,0,0,0,59.144,49.084Z" transform="translate(-53.123 -48.048)" fill="#222a40"/>
            </g>
          </g>
          <g id="Grupo_1184614" data-name="Grupo 1184614" transform="translate(25.075 54.009)">
            <path id="Trazado_1041472" data-name="Trazado 1041472" d="M83.688,97.056l-.049,0A16.207,16.207,0,0,1,70.092,85.728a.462.462,0,0,1,.887-.259A15.264,15.264,0,0,0,83.737,96.134a.462.462,0,0,1-.049.922Z" transform="translate(-70.074 -85.135)" fill="#222a40"/>
          </g>
          <g id="Grupo_1184615" data-name="Grupo 1184615" transform="translate(27.874 1.876)">
            <path id="Trazado_1041473" data-name="Trazado 1041473" d="M73.564,39.185a.463.463,0,0,1-.275-.835l12.923-9.517a.462.462,0,0,1,.548.744L73.838,39.1A.459.459,0,0,1,73.564,39.185Z" transform="translate(-73.102 -28.743)" fill="#222a40"/>
          </g>
          <g id="Grupo_1184616" data-name="Grupo 1184616" transform="translate(25.607 0)">
            <path id="Trazado_1041474" data-name="Trazado 1041474" d="M71.111,36.194a.462.462,0,0,1-.421-.652l3.865-8.557a.462.462,0,0,1,.842.38l-3.865,8.558A.464.464,0,0,1,71.111,36.194Z" transform="translate(-70.649 -26.713)" fill="#222a40"/>
          </g>
          <g id="Grupo_1184617" data-name="Grupo 1184617" transform="translate(21.829 2.015)">
            <path id="Trazado_1041475" data-name="Trazado 1041475" d="M67.025,35.306H67.02a.462.462,0,0,1-.457-.468l.069-5.489a.462.462,0,0,1,.462-.457H67.1a.462.462,0,0,1,.457.468l-.069,5.489A.463.463,0,0,1,67.025,35.306Z" transform="translate(-66.563 -28.893)" fill="#222a40"/>
          </g>
          <g id="Grupo_1184618" data-name="Grupo 1184618" transform="translate(30.792 10.282)">
            <path id="Trazado_1041476" data-name="Trazado 1041476" d="M76.72,42.581a.462.462,0,0,1-.175-.889l9.387-3.822a.462.462,0,1,1,.349.855l-9.387,3.822A.441.441,0,0,1,76.72,42.581Z" transform="translate(-76.258 -37.836)" fill="#222a40"/>
          </g>
          <g id="Grupo_1184619" data-name="Grupo 1184619" transform="translate(31.626 17.783)">
            <path id="Trazado_1041477" data-name="Trazado 1041477" d="M83.528,46.947h-.006l-5.905-.069a.461.461,0,0,1-.457-.468.433.433,0,0,1,.468-.457l5.905.069a.462.462,0,0,1-.006.924Z" transform="translate(-77.16 -45.949)" fill="#222a40"/>
          </g>
        </g>
      </g>
    </g>
  </g>
</svg>
