<svg xmlns="http://www.w3.org/2000/svg" xmlns:xlink="http://www.w3.org/1999/xlink" width="108" height="108" viewBox="0 0 108 108">
  <defs>
    <filter id="Trazado_904820" x="0" y="0" width="108" height="108" filterUnits="userSpaceOnUse">
      <feOffset dy="3" input="SourceAlpha"/>
      <feGaussianBlur stdDeviation="3" result="blur"/>
      <feFlood flood-opacity="0.161"/>
      <feComposite operator="in" in2="blur"/>
      <feComposite in="SourceGraphic"/>
    </filter>
  </defs>
  <g id="Grupo_1185232" data-name="Grupo 1185232" transform="translate(-200 -5354)">
    <g id="Grupo_1180727" data-name="Grupo 1180727" transform="translate(-0.461 5031)">
      <g id="Grupo_1174900" data-name="Grupo 1174900" transform="translate(0.006 -432.67)">
        <g id="Grupo_1173787" data-name="Grupo 1173787" transform="translate(209.455 761.67)">
          <g id="Grupo_1171910" data-name="Grupo 1171910" transform="translate(0)">
            <g id="Grupo_1167341" data-name="Grupo 1167341">
              <g id="Grupo_1166792" data-name="Grupo 1166792">
                <g transform="matrix(1, 0, 0, 1, -9, -6)" filter="url(#Trazado_904820)">
                  <g id="Trazado_904820-2" data-name="Trazado 904820" transform="translate(9 6)" fill="#e9f9fd">
                    <path d="M 44.99999618530273 88.50003051757812 C 39.12687301635742 88.50003051757812 33.43022155761719 87.35010528564453 28.06829643249512 85.08219909667969 C 22.88852119445801 82.89134216308594 18.23629570007324 79.75461578369141 14.24084663391113 75.75916290283203 C 10.24540901184082 71.76371765136719 7.108683586120605 67.11150360107422 4.917821407318115 61.93172836303711 C 2.649921178817749 56.56978988647461 1.499996185302734 50.87313842773438 1.499996185302734 45.00001525878906 C 1.499996185302734 39.12689208984375 2.649921178817749 33.43024063110352 4.917821407318115 28.06831550598145 C 7.108683586120605 22.88854026794434 10.24540901184082 18.23631477355957 14.24084663391113 14.24086570739746 C 18.23629570007324 10.24541568756104 22.88852119445801 7.10869026184082 28.06829643249512 4.917840480804443 C 33.43022155761719 2.649927854537964 39.12687301635742 1.50000274181366 44.99999618530273 1.50000274181366 C 50.87311935424805 1.50000274181366 56.56977081298828 2.649927854537964 61.93169784545898 4.917840480804443 C 67.11147308349609 7.10869026184082 71.76369476318359 10.24541568756104 75.75914764404297 14.24086570739746 C 79.75458526611328 18.23631477355957 82.89131164550781 22.88854026794434 85.08216857910156 28.06831550598145 C 87.35007476806641 33.43024063110352 88.5 39.12689208984375 88.5 45.00001525878906 C 88.5 50.87313842773438 87.35007476806641 56.56978988647461 85.08216857910156 61.93172836303711 C 82.89131164550781 67.11150360107422 79.75458526611328 71.76371765136719 75.75914764404297 75.75916290283203 C 71.76369476318359 79.75461578369141 67.11147308349609 82.89134216308594 61.93169784545898 85.08219909667969 C 56.56977081298828 87.35010528564453 50.87311935424805 88.50003051757812 44.99999618530273 88.50003051757812 Z" stroke="none"/>
                    <path d="M 44.99999618530273 3 C 39.32870864868164 3 33.82865142822266 4.110061645507812 28.65262603759766 6.299346923828125 C 23.65165710449219 8.414573669433594 19.15968322753906 11.44334411621094 15.301513671875 15.301513671875 C 11.44333648681641 19.15968322753906 8.414566040039062 23.65165710449219 6.299339294433594 28.65262985229492 C 4.110054016113281 33.82867050170898 2.999992370605469 39.32872772216797 2.999992370605469 45.00001525878906 C 2.999992370605469 50.67130279541016 4.110054016113281 56.17136001586914 6.299339294433594 61.34738922119141 C 8.414566040039062 66.34837341308594 11.44333648681641 70.84033203125 15.301513671875 74.69850158691406 C 19.15968322753906 78.55668640136719 23.65165710449219 81.58545684814453 28.65262603759766 83.70068359375 C 33.82865142822266 85.88996887207031 39.32870864868164 87.00003051757812 44.99999618530273 87.00003051757812 C 50.67128372192383 87.00003051757812 56.17134094238281 85.88996887207031 61.34736633300781 83.70068359375 C 66.34834289550781 81.58545684814453 70.84030914306641 78.55668640136719 74.69847869873047 74.69850158691406 C 78.55665588378906 70.84033203125 81.58542633056641 66.34837341308594 83.70065307617188 61.34738922119141 C 85.88993835449219 56.17136001586914 87 50.67130279541016 87 45.00001525878906 C 87 39.32872772216797 85.88993835449219 33.82867050170898 83.70065307617188 28.65262985229492 C 81.58542633056641 23.65165710449219 78.55665588378906 19.15968322753906 74.69847869873047 15.301513671875 C 70.84030914306641 11.44334411621094 66.34834289550781 8.414573669433594 61.34736633300781 6.299346923828125 C 56.17134094238281 4.110061645507812 50.67128372192383 3 44.99999618530273 3 M 44.99999618530273 0 C 69.85281372070312 0 90 20.14718627929688 90 45.00001525878906 C 90 69.85282897949219 69.85281372070312 90.00003051757812 44.99999618530273 90.00003051757812 C 20.14717864990234 90.00003051757812 -7.62939453125e-06 69.85282897949219 -7.62939453125e-06 45.00001525878906 C -7.62939453125e-06 20.14718627929688 20.14717864990234 0 44.99999618530273 0 Z" stroke="none" fill="#1d7083"/>
                  </g>
                </g>
              </g>
            </g>
          </g>
        </g>
      </g>
    </g>
    <g id="computadora" transform="translate(227 5378)">
      <path id="Trazado_1041837" data-name="Trazado 1041837" d="M58.278,145.753H9.145A1.644,1.644,0,0,1,7.5,144.108V113.645A1.644,1.644,0,0,1,9.145,112H58.277a1.645,1.645,0,0,1,1.645,1.644v30.463A1.645,1.645,0,0,1,58.278,145.753Zm0,0" transform="translate(-6.709 -100.187)" fill="#5793c9"/>
      <path id="Trazado_1041838" data-name="Trazado 1041838" d="M462.074,112H458.91a1.644,1.644,0,0,1,1.644,1.644v30.463a1.645,1.645,0,0,1-1.644,1.645h3.164a1.645,1.645,0,0,0,1.644-1.645V113.644A1.644,1.644,0,0,0,462.074,112Zm0,0" transform="translate(-410.506 -100.187)" fill="#4c87bd"/>
      <path id="Trazado_1041839" data-name="Trazado 1041839" d="M83.593,142v27.424H37.5V142Zm0,0" transform="translate(-33.545 -127.022)" fill="#b5fcff"/>
      <path id="Trazado_1041840" data-name="Trazado 1041840" d="M444.5,142h3.164v27.424H444.5Zm0,0" transform="translate(-397.616 -127.022)" fill="#8cf2ff"/>
      <path id="Trazado_1041841" data-name="Trazado 1041841" d="M140.8,477.664H113.582a1.582,1.582,0,1,1,0-3.164H140.8a1.582,1.582,0,1,1,0,3.164Zm0,0" transform="translate(-100.187 -424.451)" fill="#5793c9"/>
      <path id="Trazado_1041842" data-name="Trazado 1041842" d="M358.052,474.5h-3.177a1.582,1.582,0,0,1,0,3.164h3.177a1.582,1.582,0,1,0,0-3.164Zm0,0" transform="translate(-317.444 -424.451)" fill="#4c87bd"/>
      <path id="Trazado_1041843" data-name="Trazado 1041843" d="M211,432h9.493v4.483H211Zm0,0" transform="translate(-188.745 -386.434)" fill="#b5fcff"/>
      <path id="Trazado_1041844" data-name="Trazado 1041844" d="M211,432h9.493v4.483H211Zm0,0" transform="translate(-188.745 -386.434)" fill="#dcdfe8"/>
      <path id="Trazado_1041845" data-name="Trazado 1041845" d="M271,432h3.164v4.483H271Zm0,0" transform="translate(-242.416 -386.434)" fill="#cbcdd9"/>
      <path id="Trazado_1041846" data-name="Trazado 1041846" d="M177.895,192.848a.02.02,0,0,0,.012-.017c0-.1.115-.667.232-1.215a1.411,1.411,0,0,1,2.76,0c.117.548.232,1.113.232,1.215a.018.018,0,0,0,.012.017l1.945.805a.019.019,0,0,0,.021,0c.072-.072.553-.39,1.023-.695a1.411,1.411,0,0,1,1.952,1.951c-.3.471-.623.951-.7,1.023a.018.018,0,0,0,0,.02l.806,1.945a.018.018,0,0,0,.017.012c.1,0,.666.115,1.215.232a1.411,1.411,0,0,1,0,2.76c-.548.117-1.113.232-1.215.232a.019.019,0,0,0-.017.012l-.805,1.943a.018.018,0,0,0,0,.021c.072.072.39.553.695,1.023a1.411,1.411,0,0,1-1.951,1.952c-.471-.3-.952-.623-1.023-.7a.019.019,0,0,0-.021,0l-1.944.805a.02.02,0,0,0-.012.017c0,.1-.115.667-.232,1.215a1.411,1.411,0,0,1-2.76,0c-.117-.548-.232-1.113-.232-1.215a.02.02,0,0,0-.012-.017l-1.944-.805a.019.019,0,0,0-.021,0c-.072.072-.553.39-1.023.7a1.411,1.411,0,0,1-1.951-1.952c.3-.471.623-.951.695-1.023a.02.02,0,0,0,0-.021l-.805-1.944a.02.02,0,0,0-.017-.012c-.1,0-.667-.115-1.215-.232a1.411,1.411,0,0,1,0-2.76c.548-.117,1.113-.232,1.215-.232a.02.02,0,0,0,.017-.012l.805-1.944a.019.019,0,0,0,0-.021c-.072-.072-.39-.553-.7-1.023a1.411,1.411,0,0,1,1.952-1.951c.471.3.951.623,1.023.695a.02.02,0,0,0,.021,0Zm0,0" transform="translate(-152.517 -170.407)" fill="#ff4b26"/>
      <path id="Trazado_1041847" data-name="Trazado 1041847" d="M234,251.062a2.941,2.941,0,1,1-2.941-2.941A2.94,2.94,0,0,1,234,251.062Zm0,0" transform="translate(-204.06 -221.95)" fill="#5793c9"/>
      <path id="Trazado_1041848" data-name="Trazado 1041848" d="M78.3,37.583H62.9a1.9,1.9,0,0,1-1.9-1.9V24.4a1.9,1.9,0,0,1,1.9-1.9H78.3a1.9,1.9,0,0,1,1.9,1.9V35.685A1.9,1.9,0,0,1,78.3,37.583Zm0,0" transform="translate(-54.566 -20.127)" fill="#47d5e6"/>
      <path id="Trazado_1041849" data-name="Trazado 1041849" d="M198.164,22.5H195a1.9,1.9,0,0,1,1.9,1.9V35.685a1.9,1.9,0,0,1-1.9,1.9h3.164a1.9,1.9,0,0,0,1.9-1.9V24.4A1.9,1.9,0,0,0,198.164,22.5Zm0,0" transform="translate(-174.432 -20.127)" fill="#22c0d4"/>
      <path id="Trazado_1041850" data-name="Trazado 1041850" d="M318.29,22.689H306.9a1.9,1.9,0,0,1-1.9-1.9V9.4a1.9,1.9,0,0,1,1.9-1.9H318.29a1.9,1.9,0,0,1,1.9,1.9V20.79A1.9,1.9,0,0,1,318.29,22.689Zm0,0" transform="translate(-272.83 -6.709)" fill="#47d5e6"/>
      <path id="Trazado_1041851" data-name="Trazado 1041851" d="M404.164,7.5H401a1.9,1.9,0,0,1,1.9,1.9V20.79a1.9,1.9,0,0,1-1.9,1.9h3.164a1.9,1.9,0,0,0,1.9-1.9V9.4A1.9,1.9,0,0,0,404.164,7.5Zm0,0" transform="translate(-358.704 -6.709)" fill="#22c0d4"/>
      <path id="Trazado_1041852" data-name="Trazado 1041852" d="M338.548,35.353a5.274,5.274,0,1,0-10.548,0,5.37,5.37,0,0,0,2.238,4.378,2.3,2.3,0,0,1,.946,1.874h4.181a2.3,2.3,0,0,1,.945-1.874,5.37,5.37,0,0,0,2.238-4.378Zm0,0" transform="translate(-293.404 -26.836)" fill="#ffd659"/>
      <path id="Trazado_1041853" data-name="Trazado 1041853" d="M364.582,30a5.192,5.192,0,0,0-1.582.246,5.388,5.388,0,0,1,1.454,9.485,2.3,2.3,0,0,0-.946,1.874h3.164a2.3,2.3,0,0,1,.946-1.874,5.37,5.37,0,0,0,2.238-4.378A5.314,5.314,0,0,0,364.582,30Zm0,0" transform="translate(-324.712 -26.836)" fill="#ffbd54"/>
      <path id="Trazado_1041854" data-name="Trazado 1041854" d="M358.763,140.023h-4.31a.368.368,0,0,0-.368.368v.62a2.174,2.174,0,0,0,2.174,2.174h.7a2.174,2.174,0,0,0,2.174-2.174v-.62A.368.368,0,0,0,358.763,140.023Zm0,0" transform="translate(-316.739 -125.254)" fill="#5793c9"/>
      <path id="Trazado_1041855" data-name="Trazado 1041855" d="M51.568,11.022H48.15V2.69A2.692,2.692,0,0,0,45.46,0H34.069a2.692,2.692,0,0,0-2.69,2.69v8.333H26.422V4.272a2.692,2.692,0,0,0-2.69-2.69H8.332a2.692,2.692,0,0,0-2.69,2.69v6.75H2.435A2.438,2.438,0,0,0,0,13.458V16.85a.791.791,0,1,0,1.582,0V13.458a.854.854,0,0,1,.853-.853H5.643v1.582H3.955a.791.791,0,0,0-.791.791V42.4a.791.791,0,0,0,.791.791H43.878a.791.791,0,0,0,0-1.582H4.746V15.769h.906a2.693,2.693,0,0,0,2.681,2.479h6.385V34.777a.791.791,0,0,0,.791.791h2.475a.791.791,0,1,0,0-1.582H16.3V18.247h7.433a2.693,2.693,0,0,0,2.681-2.479h5.564a2.685,2.685,0,0,0,2.092,1h2.667a2.973,2.973,0,0,0,2.344,1.918v5.658H36.495a.791.791,0,1,0,0,1.582H39.87a.791.791,0,0,0,.791-.791V18.689A2.973,2.973,0,0,0,43,16.771H45.46a2.686,2.686,0,0,0,2.092-1h1.7V41.61H47.28a.791.791,0,1,0,0,1.582h2.769a.791.791,0,0,0,.791-.791V14.978a.791.791,0,0,0-.791-.791h-1.9c0-.035,0-.07,0-.105V12.6h3.419a.854.854,0,0,1,.853.853V43.921a.854.854,0,0,1-.853.853H2.435a.854.854,0,0,1-.853-.853v-23.7a.791.791,0,0,0-1.582,0v23.7a2.438,2.438,0,0,0,2.435,2.435H21.464v2.9H13.4A2.373,2.373,0,1,0,13.4,54H40.608a2.373,2.373,0,1,0,0-4.746H32.539v-2.9H51.568A2.438,2.438,0,0,0,54,43.921V13.458a2.438,2.438,0,0,0-2.435-2.435ZM24.84,15.558a1.109,1.109,0,0,1-1.108,1.108H8.332a1.109,1.109,0,0,1-1.108-1.108V4.272A1.109,1.109,0,0,1,8.332,3.164h15.4A1.109,1.109,0,0,1,24.84,4.272Zm1.582-1.371V12.6h4.957v1.477c0,.035,0,.07,0,.105Zm13.8,2.953h-.7a1.385,1.385,0,0,1-1.375-1.235v-.013a1.329,1.329,0,0,1-.007-.135v-.2H41.6v.2a1.328,1.328,0,0,1-.007.135v.013a1.385,1.385,0,0,1-1.374,1.235Zm5.242-1.951H43.183v-.052a1.155,1.155,0,0,0-.358-.836,1.468,1.468,0,0,1,.541-.762A6.2,6.2,0,0,0,45.038,5.3a.791.791,0,1,0-1.352.821,4.619,4.619,0,0,1-1.241,6.13,3.064,3.064,0,0,0-1.175,1.726h-2.8a3.063,3.063,0,0,0-1.175-1.726,4.6,4.6,0,0,1-1.907-3.734A4.528,4.528,0,0,1,39.87,3.955a4.393,4.393,0,0,1,1.665.325.791.791,0,0,0,.6-1.465,5.972,5.972,0,0,0-2.262-.442,6.112,6.112,0,0,0-6.065,6.144,6.182,6.182,0,0,0,2.569,5.021,1.468,1.468,0,0,1,.541.763,1.154,1.154,0,0,0-.358.836v.052H34.069a1.109,1.109,0,0,1-1.108-1.108V2.69a1.109,1.109,0,0,1,1.108-1.108H45.46A1.109,1.109,0,0,1,46.568,2.69V14.081a1.109,1.109,0,0,1-1.107,1.108ZM41.4,51.631a.792.792,0,0,1-.791.791H13.4a.791.791,0,0,1,0-1.582H40.608A.792.792,0,0,1,41.4,51.631ZM30.957,49.258H23.046v-2.9h7.911Zm0,0" transform="translate(0)"/>
      <path id="Trazado_1041856" data-name="Trazado 1041856" d="M180.877,194.962a2.2,2.2,0,0,0,0-4.306c-.374-.08-.64-.135-.832-.171l-.475-1.148c.11-.162.259-.389.467-.71a2.2,2.2,0,0,0-3.045-3.045c-.321.208-.547.357-.709.467l-1.148-.475c-.037-.192-.091-.458-.171-.832a2.2,2.2,0,0,0-4.307,0c-.08.374-.134.639-.171.832l-1.148.475c-.162-.11-.388-.259-.709-.467a2.2,2.2,0,0,0-3.045,3.045c.208.321.357.548.467.71l-.475,1.148c-.192.037-.458.091-.832.171a2.2,2.2,0,0,0,0,4.306c.374.08.64.135.832.172l.475,1.148c-.11.162-.259.389-.467.71a2.2,2.2,0,0,0,3.045,3.045c.321-.208.547-.357.709-.467l1.148.476c.037.192.091.458.171.831a2.2,2.2,0,0,0,4.307,0c.08-.374.134-.639.171-.832l1.148-.475c.162.11.388.259.709.467a2.2,2.2,0,0,0,3.045-3.045c-.208-.321-.357-.548-.467-.71l.475-1.148C180.237,195.1,180.5,195.043,180.877,194.962Zm-14.751-1.332h0Zm13.342,0h0Zm-.01,0a.809.809,0,0,0-.71.5l-.806,1.946a.81.81,0,0,0,.148.851c.027.034.152.2.618.924a.62.62,0,0,1-.857.857c-.7-.456-.881-.585-.921-.616a.808.808,0,0,0-.855-.149l-1.941.8a.8.8,0,0,0-.5.714c-.007.054-.042.276-.215,1.085a.62.62,0,0,1-1.213,0c-.175-.819-.209-1.037-.215-1.087a.8.8,0,0,0-.5-.71l-1.947-.807a.806.806,0,0,0-.855.152c-.044.034-.228.167-.919.615a.62.62,0,0,1-.858-.857c.456-.7.586-.882.616-.921a.809.809,0,0,0,.149-.855l-.807-1.947a.808.808,0,0,0-.708-.5c-.048-.006-.263-.04-1.088-.216a.62.62,0,0,1,0-1.213c.82-.176,1.037-.21,1.087-.216a.809.809,0,0,0,.71-.5l.806-1.946a.81.81,0,0,0-.148-.851c-.027-.034-.152-.2-.618-.924a.62.62,0,0,1,.857-.857c.7.456.881.585.921.616a.808.808,0,0,0,.855.149l1.944-.805a.8.8,0,0,0,.5-.712c.007-.054.042-.276.215-1.085a.62.62,0,0,1,1.213,0c.176.82.209,1.037.216,1.087a.809.809,0,0,0,.5.71l1.948.807a.806.806,0,0,0,.854-.152c.044-.034.228-.167.919-.615a.62.62,0,0,1,.858.857c-.456.7-.586.882-.616.922a.808.808,0,0,0-.149.855l.8,1.943a.806.806,0,0,0,.71.5c.048.007.264.04,1.088.216a.62.62,0,0,1,0,1.212c-.82.176-1.037.21-1.087.216Zm0,0" transform="translate(-145.807 -163.698)"/>
      <path id="Trazado_1041857" data-name="Trazado 1041857" d="M224.353,240.617a3.732,3.732,0,1,0,3.732,3.732A3.736,3.736,0,0,0,224.353,240.617Zm0,5.882a2.15,2.15,0,1,1,2.15-2.15A2.152,2.152,0,0,1,224.353,246.5Zm0,0" transform="translate(-197.351 -215.238)"/>
      <path id="Trazado_1041858" data-name="Trazado 1041858" d="M85.291,55.778h6.181a.791.791,0,0,0,0-1.582H85.291a.791.791,0,1,0,0,1.582Zm0,0" transform="translate(-75.587 -48.479)"/>
      <path id="Trazado_1041859" data-name="Trazado 1041859" d="M85.291,85.774H97.948a.791.791,0,0,0,0-1.582H85.291a.791.791,0,1,0,0,1.582Zm0,0" transform="translate(-75.587 -75.311)"/>
      <path id="Trazado_1041860" data-name="Trazado 1041860" d="M97.952,114.191H85.3a.791.791,0,1,0,0,1.582H97.952a.791.791,0,1,0,0-1.582Zm0,0" transform="translate(-75.591 -102.147)"/>
    </g>
  </g>
</svg>
