<svg xmlns="http://www.w3.org/2000/svg" xmlns:xlink="http://www.w3.org/1999/xlink" width="113" height="113" viewBox="0 0 113 113">
  <defs>
    <filter id="Trazado_982547" x="0" y="0" width="113" height="113" filterUnits="userSpaceOnUse">
      <feOffset dy="3" input="SourceAlpha"/>
      <feGaussianBlur stdDeviation="3" result="blur"/>
      <feFlood flood-opacity="0.161"/>
      <feComposite operator="in" in2="blur"/>
      <feComposite in="SourceGraphic"/>
    </filter>
  </defs>
  <g id="Grupo_1185507" data-name="Grupo 1185507" transform="translate(-1164.461 -7236.382)">
    <g id="Grupo_1180753" data-name="Grupo 1180753" transform="translate(0 6440.382)">
      <g id="Grupo_1174903" data-name="Grupo 1174903" transform="translate(0.461 -5152.015)">
        <g id="Grupo_1174056" data-name="Grupo 1174056" transform="translate(1173 5954.015)">
          <g id="Grupo_1172010" data-name="Grupo 1172010">
            <g id="Grupo_1171046" data-name="Grupo 1171046">
              <g id="Grupo_1148525" data-name="Grupo 1148525">
                <g transform="matrix(1, 0, 0, 1, -9, -6)" filter="url(#Trazado_982547)">
                  <g id="Trazado_982547-2" data-name="Trazado 982547" transform="translate(9 6)" fill="#f2f7e5">
                    <path d="M 47.5 93.5 C 41.28937149047852 93.5 35.26533508300781 92.28397369384766 29.59518623352051 89.88570404052734 C 24.11771965026855 87.56893157958984 19.19813346862793 84.25196075439453 14.97309303283691 80.02691650390625 C 10.74804019927979 75.80186462402344 7.431066513061523 70.88229370117188 5.114293098449707 65.40481567382812 C 2.716026782989502 59.73468017578125 1.5 53.71062850952148 1.5 47.5 C 1.5 41.28937149047852 2.716026782989502 35.26533508300781 5.114293098449707 29.59518623352051 C 7.431066513061523 24.11771965026855 10.74804019927979 19.19813346862793 14.97309303283691 14.97309303283691 C 19.19813346862793 10.74804019927979 24.11771965026855 7.431066513061523 29.59518623352051 5.114293098449707 C 35.26533508300781 2.716026782989502 41.28937149047852 1.5 47.5 1.5 C 53.71062850952148 1.5 59.73468017578125 2.716026782989502 65.40481567382812 5.114293098449707 C 70.88229370117188 7.431066513061523 75.80186462402344 10.74804019927979 80.02691650390625 14.97309303283691 C 84.25196075439453 19.19813346862793 87.56893157958984 24.11771965026855 89.88570404052734 29.59518623352051 C 92.28397369384766 35.26533508300781 93.5 41.28937149047852 93.5 47.5 C 93.5 53.71062850952148 92.28397369384766 59.73468017578125 89.88570404052734 65.40481567382812 C 87.56893157958984 70.88229370117188 84.25196075439453 75.80186462402344 80.02691650390625 80.02691650390625 C 75.80186462402344 84.25196075439453 70.88229370117188 87.56893157958984 65.40481567382812 89.88570404052734 C 59.73468017578125 92.28397369384766 53.71062850952148 93.5 47.5 93.5 Z" stroke="none"/>
                    <path d="M 47.5 3 C 41.49121475219727 3 35.66376876831055 4.176155090332031 30.17950439453125 6.495796203613281 C 24.88084411621094 8.736953735351562 20.12152099609375 11.94598388671875 16.03375244140625 16.03375244140625 C 11.94598388671875 20.12152099609375 8.736953735351562 24.88084411621094 6.495796203613281 30.17950439453125 C 4.176155090332031 35.66376876831055 3 41.49121475219727 3 47.5 C 3 53.50878524780273 4.176155090332031 59.33623123168945 6.495796203613281 64.82049560546875 C 8.736953735351562 70.11915588378906 11.94598388671875 74.87847900390625 16.03375244140625 78.96624755859375 C 20.12152099609375 83.05401611328125 24.88084411621094 86.26304626464844 30.17950439453125 88.50419616699219 C 35.66376876831055 90.82384490966797 41.49121475219727 92 47.5 92 C 53.50878524780273 92 59.33623123168945 90.82384490966797 64.82049560546875 88.50419616699219 C 70.11915588378906 86.26304626464844 74.87847900390625 83.05401611328125 78.96624755859375 78.96624755859375 C 83.05401611328125 74.87847900390625 86.26304626464844 70.11915588378906 88.50419616699219 64.82049560546875 C 90.82384490966797 59.33623123168945 92 53.50878524780273 92 47.5 C 92 41.49121475219727 90.82384490966797 35.66376876831055 88.50419616699219 30.17950439453125 C 86.26304626464844 24.88084411621094 83.05401611328125 20.12152099609375 78.96624755859375 16.03375244140625 C 74.87847900390625 11.94598388671875 70.11915588378906 8.736953735351562 64.82049560546875 6.495796203613281 C 59.33623123168945 4.176155090332031 53.50878524780273 3 47.5 3 M 47.5 0 C 73.7335205078125 0 95 21.2664794921875 95 47.5 C 95 73.7335205078125 73.7335205078125 95 47.5 95 C 21.2664794921875 95 0 73.7335205078125 0 47.5 C 0 21.2664794921875 21.2664794921875 0 47.5 0 Z" stroke="none" fill="#86b60c"/>
                  </g>
                </g>
              </g>
            </g>
          </g>
        </g>
      </g>
    </g>
    <g id="medios-de-comunicacion-social" transform="translate(1186.92 7258.759)">
      <g id="Grupo_1185489" data-name="Grupo 1185489" transform="translate(30.333 32.157)">
        <g id="Grupo_1185488" data-name="Grupo 1185488">
          <g id="Grupo_1185487" data-name="Grupo 1185487">
            <path id="Trazado_1042112" data-name="Trazado 1042112" d="M250.3,290.089l1-2.224a2.1,2.1,0,0,0-.06-1.859,14.583,14.583,0,1,1,5.93,5.93,2.1,2.1,0,0,0-1.859-.06l-2.224,1a2.11,2.11,0,0,1-2.792-2.792Z" transform="translate(-249.499 -264.5)" fill="#ffee6e"/>
          </g>
        </g>
      </g>
      <g id="Grupo_1185490" data-name="Grupo 1185490" transform="translate(30.333 32.157)">
        <path id="Trazado_1042113" data-name="Trazado 1042113" d="M260.442,279.1a14.593,14.593,0,0,1,9.118-13.541,14.593,14.593,0,0,0-18.318,20.445,2.1,2.1,0,0,1,.06,1.859l-1,2.224a2.11,2.11,0,0,0,2.792,2.792l2.224-1a2.1,2.1,0,0,1,1.859.06,14.559,14.559,0,0,0,12.388.67A14.641,14.641,0,0,1,260.442,279.1Z" transform="translate(-249.5 -264.5)" fill="#ffda45"/>
      </g>
      <g id="Grupo_1185491" data-name="Grupo 1185491" transform="translate(36.412 37.02)">
        <path id="Trazado_1042114" data-name="Trazado 1042114" d="M314.393,316.506v-5.623a6.383,6.383,0,1,0-12.766,0v5.623a2.128,2.128,0,0,0,0,4.255h3.191a3.191,3.191,0,1,0,6.383,0h3.191a2.128,2.128,0,0,0,0-4.255Z" transform="translate(-299.5 -304.5)" fill="#f5fafc"/>
      </g>
      <g id="Grupo_1185492" data-name="Grupo 1185492" transform="translate(36.412 37.02)">
        <path id="Trazado_1042115" data-name="Trazado 1042115" d="M305.883,318.633a2.128,2.128,0,0,1,2.128-2.128v-5.623a6.379,6.379,0,0,1,3.191-5.527,6.382,6.382,0,0,0-9.574,5.527v5.623a2.128,2.128,0,0,0,0,4.255h3.191a3.191,3.191,0,1,0,6.383,0H308.01A2.128,2.128,0,0,1,305.883,318.633Z" transform="translate(-299.5 -304.5)" fill="#e1f1fa"/>
      </g>
      <g id="Grupo_1185495" data-name="Grupo 1185495" transform="translate(0.912 14.103)">
        <g id="Grupo_1185494" data-name="Grupo 1185494">
          <g id="Grupo_1185493" data-name="Grupo 1185493">
            <path id="Trazado_1042116" data-name="Trazado 1042116" d="M40.611,145.854l-1.172-2.595a2.447,2.447,0,0,1,.07-2.169,17.014,17.014,0,1,0-6.919,6.919,2.447,2.447,0,0,1,2.169-.07l2.595,1.172a2.462,2.462,0,0,0,3.257-3.257Z" transform="translate(-7.5 -116)" fill="#ff808c"/>
          </g>
        </g>
      </g>
      <g id="Grupo_1185496" data-name="Grupo 1185496" transform="translate(0.912 14.103)">
        <path id="Trazado_1042117" data-name="Trazado 1042117" d="M17.226,133.037A17.027,17.027,0,0,1,29.372,116.71,17.009,17.009,0,0,0,7.5,133.037a17.029,17.029,0,0,0,21.9,16.294A17.087,17.087,0,0,1,17.226,133.037Z" transform="translate(-7.5 -116)" fill="#ff6e7c"/>
      </g>
      <g id="Grupo_1185497" data-name="Grupo 1185497" transform="translate(8.206 23.459)">
        <path id="Trazado_1042118" data-name="Trazado 1042118" d="M84.065,193.419c-3.779-1.679-6.837,1.739-6.837,1.739s-3.059-3.419-6.837-1.739-3.779,7.257-.42,10.976a23.313,23.313,0,0,0,6.277,4.863,2.1,2.1,0,0,0,1.96,0,23.315,23.315,0,0,0,6.277-4.863C87.843,200.676,87.843,195.1,84.065,193.419Z" transform="translate(-67.501 -192.955)" fill="#f5fafc"/>
      </g>
      <g id="Grupo_1185498" data-name="Grupo 1185498" transform="translate(8.206 23.459)">
        <path id="Trazado_1042119" data-name="Trazado 1042119" d="M76.078,201.227a16.5,16.5,0,0,1,1.149-6.07s-3.059-3.418-6.838-1.739-3.779,7.257-.42,10.976a23.313,23.313,0,0,0,6.277,4.863,2.1,2.1,0,0,0,1.919.02A16.467,16.467,0,0,1,76.078,201.227Z" transform="translate(-67.5 -192.954)" fill="#e1f1fa"/>
      </g>
      <g id="Grupo_1185501" data-name="Grupo 1185501" transform="translate(22.431 0.912)">
        <g id="Grupo_1185500" data-name="Grupo 1185500">
          <g id="Grupo_1185499" data-name="Grupo 1185499">
            <path id="Trazado_1042120" data-name="Trazado 1042120" d="M185.564,41.619l1.34-2.965a2.8,2.8,0,0,0-.08-2.479,19.444,19.444,0,1,1,7.907,7.907,2.8,2.8,0,0,0-2.479-.08l-2.965,1.34a2.814,2.814,0,0,1-3.723-3.723Z" transform="translate(-184.501 -7.5)" fill="#69a8ff"/>
          </g>
        </g>
      </g>
      <g id="Grupo_1185502" data-name="Grupo 1185502" transform="translate(22.431 0.912)">
        <path id="Trazado_1042121" data-name="Trazado 1042121" d="M195.442,26.97A19.46,19.46,0,0,1,209.423,8.28a19.458,19.458,0,0,0-22.6,27.893,2.8,2.8,0,0,1,.08,2.479l-1.34,2.965a2.814,2.814,0,0,0,3.723,3.723L192.251,44a2.8,2.8,0,0,1,2.479.08,19.427,19.427,0,0,0,14.694,1.532A19.528,19.528,0,0,1,195.442,26.97Z" transform="translate(-184.5 -7.499)" fill="#549cff"/>
      </g>
      <g id="Grupo_1185503" data-name="Grupo 1185503" transform="translate(37.298 7.903)">
        <path id="Trazado_1042122" data-name="Trazado 1042122" d="M324.241,75.472a4.1,4.1,0,0,0-4.1-4.1H316.09l2.244-3.237a2.007,2.007,0,0,0-.124-2.482,1.967,1.967,0,0,0-2.778-.143l-7.291,6.579a4.1,4.1,0,0,0-1.354,3.046v7.648a4.1,4.1,0,0,0,4.1,4.1h9.248a4.1,4.1,0,0,0,4.1-4.1V75.472Z" transform="translate(-306.786 -65.001)" fill="#f5fafc"/>
      </g>
      <g id="Grupo_1185504" data-name="Grupo 1185504" transform="translate(37.298 7.902)">
        <path id="Trazado_1042123" data-name="Trazado 1042123" d="M316.089,71.369l2.244-3.237a2.006,2.006,0,0,0-.124-2.481,1.966,1.966,0,0,0-2.778-.143l-7.291,6.579a4.1,4.1,0,0,0-1.354,3.046v7.648a4.1,4.1,0,0,0,4.1,4.1h5.2a4.1,4.1,0,0,1-4.1-4.1V75.472A4.1,4.1,0,0,1,316.089,71.369Z" transform="translate(-306.785 -65)" fill="#e1f1fa"/>
      </g>
      <g id="Grupo_1185505" data-name="Grupo 1185505" transform="translate(30.459 13.373)">
        <path id="Trazado_1042124" data-name="Trazado 1042124" d="M252.967,126.413h3.343a2.431,2.431,0,0,0,2.432-2.432v-11.55A2.431,2.431,0,0,0,256.31,110h-3.343a2.431,2.431,0,0,0-2.432,2.432v11.55A2.431,2.431,0,0,0,252.967,126.413Z" transform="translate(-250.535 -110)" fill="#f5fafc"/>
      </g>
      <g id="Grupo_1185506" data-name="Grupo 1185506" transform="translate(0)">
        <path id="Trazado_1042125" data-name="Trazado 1042125" d="M55.531,35.446q.357-.324.7-.667A20.347,20.347,0,0,0,41.883,0h-.02A20.476,20.476,0,0,0,22.6,13.812a17.807,17.807,0,0,0-4.652-.621h-.018a17.933,17.933,0,0,0,0,35.865H18a17.958,17.958,0,0,0,8.437-2.141,1.544,1.544,0,0,1,1.361-.042l1.65.746A15.3,15.3,0,0,0,31.272,54.1a1.192,1.192,0,0,1,.032,1.051l-1,2.224a3.022,3.022,0,0,0,4,4l2.224-1a1.192,1.192,0,0,1,1.051.032,15.525,15.525,0,0,0,7.293,1.851h.057a15.5,15.5,0,0,0,10.609-26.8ZM28.76,7.3a18.4,18.4,0,0,1,13.1-5.476h.018A18.517,18.517,0,0,1,54.947,33.486,18.407,18.407,0,0,1,41.883,38.9h-.067a18.566,18.566,0,0,1-8.722-2.213,3.729,3.729,0,0,0-3.287-.109l-2.965,1.34a1.9,1.9,0,0,1-2.516-2.516l1.34-2.966A.912.912,0,1,0,24,31.69l-1.34,2.966a3.707,3.707,0,0,0-.321,1.71,22.557,22.557,0,0,1-3.854,2.589,1.19,1.19,0,0,1-1.11,0,22.413,22.413,0,0,1-6.026-4.668,7.968,7.968,0,0,1-2.113-6.656,3.893,3.893,0,0,1,2.226-2.875c3.112-1.383,5.681,1.4,5.788,1.514a.913.913,0,0,0,.678.3h0a.915.915,0,0,0,.677-.3,6.524,6.524,0,0,1,3.315-1.841,20.171,20.171,0,0,0,1.479,4.5.912.912,0,0,0,1.654-.768,18.568,18.568,0,0,1-1-12.9c0-.012.01-.023.014-.036a.914.914,0,0,0,.028-.108A18.514,18.514,0,0,1,28.76,7.3ZM50.393,43.4v5.623a.912.912,0,0,0,.912.912,1.216,1.216,0,1,1,0,2.432H48.114a.912.912,0,0,0-.912.912,2.279,2.279,0,0,1-4.368.912h1.632a.912.912,0,0,0,0-1.824H38.54a1.216,1.216,0,1,1,0-2.432.912.912,0,0,0,.912-.912V43.4a5.442,5.442,0,0,1,.739-2.748c.538.045,1.077.071,1.618.073h.074a20.244,20.244,0,0,0,6.9-1.2A5.484,5.484,0,0,1,50.393,43.4ZM25.569,45.31a16.128,16.128,0,0,1-7.578,1.922h-.059a16.109,16.109,0,1,1,0-32.218h.016a15.988,15.988,0,0,1,4.142.55,20.353,20.353,0,0,0-.572,4.873,20.711,20.711,0,0,0,.124,2.191,7.965,7.965,0,0,0-3.709,1.784,6.784,6.784,0,0,0-7.209-1.323,5.693,5.693,0,0,0-3.269,4.163A9.7,9.7,0,0,0,10,35.51a24.286,24.286,0,0,0,6.529,5.059,3.014,3.014,0,0,0,2.809,0,24.316,24.316,0,0,0,3.6-2.344,3.674,3.674,0,0,0,.482.6,3.745,3.745,0,0,0,4.168.761l2.965-1.34a1.9,1.9,0,0,1,1.67.052l.1.054c-.069.138-.14.275-.213.41a3.378,3.378,0,0,0-.1,2.977l1.172,2.595a1.55,1.55,0,0,1-2.051,2.051l-2.595-1.172a3.378,3.378,0,0,0-2.977.1ZM54.56,56.426a13.578,13.578,0,0,1-9.637,4h-.05a13.694,13.694,0,0,1-6.434-1.632,3.026,3.026,0,0,0-2.667-.089l-2.224,1a1.2,1.2,0,0,1-1.585-1.586l1-2.224a3.025,3.025,0,0,0-.089-2.668,13.478,13.478,0,0,1-1.544-4.918,3.371,3.371,0,0,0,3.521-4.73l-1.172-2.595a1.543,1.543,0,0,1,.042-1.36c.088-.162.172-.327.255-.493a20.417,20.417,0,0,0,4.293,1.27,7.267,7.267,0,0,0-.644,3v4.851a3.04,3.04,0,0,0,.912,5.939h2.382a4.1,4.1,0,0,0,8,0h2.382a3.04,3.04,0,0,0,.912-5.939V43.4a7.311,7.311,0,0,0-1.654-4.622,20.3,20.3,0,0,0,3.552-2.161,13.647,13.647,0,0,1,.444,19.806Z" transform="translate(0)"/>
        <path id="Trazado_1042126" data-name="Trazado 1042126" d="M246.378,81.227h3.343a3.33,3.33,0,0,0,2.288-.909,4.978,4.978,0,0,0,2.879.909h9.248a5.021,5.021,0,0,0,5.015-5.015V68.9a5.021,5.021,0,0,0-5.015-5.015h-2.306l1.252-1.806a2.934,2.934,0,0,0-.2-3.613,2.885,2.885,0,0,0-4.065-.208l-6.551,5.911a3.336,3.336,0,0,0-2.548-1.182h-3.343a3.347,3.347,0,0,0-3.343,3.343v11.55A3.347,3.347,0,0,0,246.378,81.227Zm13.663-21.612a1.058,1.058,0,0,1,1.491.079,1.1,1.1,0,0,1,.05,1.35l-2.244,3.237a.912.912,0,0,0,.75,1.431h4.048a3.2,3.2,0,0,1,3.191,3.191v7.309a3.2,3.2,0,0,1-3.191,3.191h-9.248a3.167,3.167,0,0,1-1.937-.656,3.336,3.336,0,0,0,.114-.864V66.334a3.359,3.359,0,0,0-.025-.4Zm-15.183,6.719a1.521,1.521,0,0,1,1.52-1.52h3.343a1.521,1.521,0,0,1,1.52,1.52v11.55a1.521,1.521,0,0,1-1.52,1.52h-3.343a1.521,1.521,0,0,1-1.52-1.52Z" transform="translate(-213.488 -50.529)"/>
      </g>
    </g>
  </g>
</svg>
