<svg xmlns="http://www.w3.org/2000/svg" xmlns:xlink="http://www.w3.org/1999/xlink" width="113" height="113" viewBox="0 0 113 113">
  <defs>
    <filter id="Trazado_982547" x="0" y="0" width="113" height="113" filterUnits="userSpaceOnUse">
      <feOffset dy="3" input="SourceAlpha"/>
      <feGaussianBlur stdDeviation="3" result="blur"/>
      <feFlood flood-opacity="0.161"/>
      <feComposite operator="in" in2="blur"/>
      <feComposite in="SourceGraphic"/>
    </filter>
  </defs>
  <g id="Grupo_1185219" data-name="Grupo 1185219" transform="translate(-324 -1201)">
    <g id="Grupo_1180712" data-name="Grupo 1180712" transform="translate(0 -4747.015)">
      <g id="Grupo_1174057" data-name="Grupo 1174057" transform="translate(333 5954.015)">
        <g id="Grupo_1172010" data-name="Grupo 1172010">
          <g id="Grupo_1171046" data-name="Grupo 1171046">
            <g id="Grupo_1148525" data-name="Grupo 1148525">
              <g transform="matrix(1, 0, 0, 1, -9, -6)" filter="url(#Trazado_982547)">
                <g id="Trazado_982547-2" data-name="Trazado 982547" transform="translate(9 6)" fill="#f2f7e5">
                  <path d="M 47.5 93.5 C 41.28937149047852 93.5 35.26533508300781 92.28397369384766 29.59518623352051 89.88570404052734 C 24.11771965026855 87.56893157958984 19.19813346862793 84.25196075439453 14.97309303283691 80.02691650390625 C 10.74804019927979 75.80186462402344 7.431066513061523 70.88229370117188 5.114293098449707 65.40481567382812 C 2.716026782989502 59.73468017578125 1.5 53.71062850952148 1.5 47.5 C 1.5 41.28937149047852 2.716026782989502 35.26533508300781 5.114293098449707 29.59518623352051 C 7.431066513061523 24.11771965026855 10.74804019927979 19.19813346862793 14.97309303283691 14.97309303283691 C 19.19813346862793 10.74804019927979 24.11771965026855 7.431066513061523 29.59518623352051 5.114293098449707 C 35.26533508300781 2.716026782989502 41.28937149047852 1.5 47.5 1.5 C 53.71062850952148 1.5 59.73468017578125 2.716026782989502 65.40481567382812 5.114293098449707 C 70.88229370117188 7.431066513061523 75.80186462402344 10.74804019927979 80.02691650390625 14.97309303283691 C 84.25196075439453 19.19813346862793 87.56893157958984 24.11771965026855 89.88570404052734 29.59518623352051 C 92.28397369384766 35.26533508300781 93.5 41.28937149047852 93.5 47.5 C 93.5 53.71062850952148 92.28397369384766 59.73468017578125 89.88570404052734 65.40481567382812 C 87.56893157958984 70.88229370117188 84.25196075439453 75.80186462402344 80.02691650390625 80.02691650390625 C 75.80186462402344 84.25196075439453 70.88229370117188 87.56893157958984 65.40481567382812 89.88570404052734 C 59.73468017578125 92.28397369384766 53.71062850952148 93.5 47.5 93.5 Z" stroke="none"/>
                  <path d="M 47.5 3 C 41.49121475219727 3 35.66376876831055 4.176155090332031 30.17950439453125 6.495796203613281 C 24.88084411621094 8.736953735351562 20.12152099609375 11.94598388671875 16.03375244140625 16.03375244140625 C 11.94598388671875 20.12152099609375 8.736953735351562 24.88084411621094 6.495796203613281 30.17950439453125 C 4.176155090332031 35.66376876831055 3 41.49121475219727 3 47.5 C 3 53.50878524780273 4.176155090332031 59.33623123168945 6.495796203613281 64.82049560546875 C 8.736953735351562 70.11915588378906 11.94598388671875 74.87847900390625 16.03375244140625 78.96624755859375 C 20.12152099609375 83.05401611328125 24.88084411621094 86.26304626464844 30.17950439453125 88.50419616699219 C 35.66376876831055 90.82384490966797 41.49121475219727 92 47.5 92 C 53.50878524780273 92 59.33623123168945 90.82384490966797 64.82049560546875 88.50419616699219 C 70.11915588378906 86.26304626464844 74.87847900390625 83.05401611328125 78.96624755859375 78.96624755859375 C 83.05401611328125 74.87847900390625 86.26304626464844 70.11915588378906 88.50419616699219 64.82049560546875 C 90.82384490966797 59.33623123168945 92 53.50878524780273 92 47.5 C 92 41.49121475219727 90.82384490966797 35.66376876831055 88.50419616699219 30.17950439453125 C 86.26304626464844 24.88084411621094 83.05401611328125 20.12152099609375 78.96624755859375 16.03375244140625 C 74.87847900390625 11.94598388671875 70.11915588378906 8.736953735351562 64.82049560546875 6.495796203613281 C 59.33623123168945 4.176155090332031 53.50878524780273 3 47.5 3 M 47.5 0 C 73.7335205078125 0 95 21.2664794921875 95 47.5 C 95 73.7335205078125 73.7335205078125 95 47.5 95 C 21.2664794921875 95 0 73.7335205078125 0 47.5 C 0 21.2664794921875 21.2664794921875 0 47.5 0 Z" stroke="none" fill="#86b60c"/>
                </g>
              </g>
            </g>
          </g>
        </g>
      </g>
    </g>
    <g id="liderazgo-intelectual" transform="translate(340.197 1221)">
      <g id="Grupo_1185217" data-name="Grupo 1185217" transform="translate(11.719 0.916)">
        <g id="Grupo_1185215" data-name="Grupo 1185215" transform="translate(0)">
          <g id="Grupo_1185214" data-name="Grupo 1185214" transform="translate(0 39.915)">
            <path id="Trazado_1041774" data-name="Trazado 1041774" d="M424.723,352.033v1.439a1.6,1.6,0,0,1-1.6,1.6h-4.019l-1.616-3.035a9.584,9.584,0,0,0-1-4.247,10.8,10.8,0,0,0,2.2-6.524,41.218,41.218,0,0,0-.9-6.892,7.1,7.1,0,0,1,1.477-.086,6.985,6.985,0,0,1,3.075,13.076,5.774,5.774,0,0,1,2.378,4.674Z" transform="translate(-367.857 -334.277)" fill="#83deff"/>
            <path id="Trazado_1041775" data-name="Trazado 1041775" d="M360.161,348.46a9.587,9.587,0,0,1,1,4.247v3.035h-3.813l-2.138-3.035c0-1.921-5.645-3.882-4.2-4.933-2.135-1.2,3-3.218,3-5.838a6.988,6.988,0,0,1,5.839-6.892,10.471,10.471,0,0,1,2.515,6.892,10.8,10.8,0,0,1-2.2,6.525Z" transform="translate(-309.908 -334.95)" fill="#5ad6ff"/>
            <path id="Trazado_1041776" data-name="Trazado 1041776" d="M348.521,370.42v3.035h-4.642l-1.268-5.811a13.673,13.673,0,0,0-2.18-7.446,43.2,43.2,0,0,1,7.709-4.976,6.983,6.983,0,0,1-2,10.525A5.775,5.775,0,0,1,348.521,370.42Z" transform="translate(-301.084 -352.664)" fill="#f3f5fc"/>
            <path id="Trazado_1041777" data-name="Trazado 1041777" d="M308.071,342.4a13.674,13.674,0,0,1,2.18,7.446v5.22h-3.813l-3.113-3.035a5.775,5.775,0,0,1,2.378-4.674,6.985,6.985,0,1,1,8.809-10.525c-.59,2.531-4.359,5.318-6.441,5.567Z" transform="translate(-267.457 -334.278)" fill="#d7ddf5"/>
            <path id="Trazado_1041778" data-name="Trazado 1041778" d="M25.548,341.262a10.539,10.539,0,0,0,1.884,6.524,9.586,9.586,0,0,0-1,4.247l-1.313,3.035H21.1a1.6,1.6,0,0,1-1.6-1.6v-1.439a5.775,5.775,0,0,1,2.378-4.674,6.985,6.985,0,0,1,3.075-13.076,7.075,7.075,0,0,1,1.476.087A25.427,25.427,0,0,0,25.548,341.262Z" transform="translate(-18.305 -334.276)" fill="#83deff"/>
            <path id="Trazado_1041779" data-name="Trazado 1041779" d="M75.632,347.775c1.44,1.051-4.2,3.013-4.2,4.933l-2.138,3.035H65.476v-3.035a9.584,9.584,0,0,1,1-4.247,10.8,10.8,0,0,1-2.2-6.524,10.468,10.468,0,0,1,2.514-6.892,6.986,6.986,0,0,1,5.841,6.892C72.629,344.557,77.767,346.579,75.632,347.775Z" transform="translate(-58.658 -334.951)" fill="#5ad6ff"/>
            <path id="Trazado_1041780" data-name="Trazado 1041780" d="M105.161,360.19A15.971,15.971,0,0,0,103,368.253l-1.655,5.194H96.705v-3.035a5.775,5.775,0,0,1,2.378-4.674,6.985,6.985,0,0,1-2-10.526C98.068,356.594,104.329,359.3,105.161,360.19Z" transform="translate(-86.074 -352.655)" fill="#f3f5fc"/>
            <path id="Trazado_1041781" data-name="Trazado 1041781" d="M119.647,352.035l-3.113,3.035h-3.813v-5.22a13.684,13.684,0,0,1,2.158-7.413c-3.016-.624-6.038-3.506-6.419-5.6a6.985,6.985,0,1,1,8.809,10.526A5.775,5.775,0,0,1,119.647,352.035Z" transform="translate(-97.448 -334.278)" fill="#d7ddf5"/>
          </g>
          <path id="Trazado_1041782" data-name="Trazado 1041782" d="M228.839,404v5.22H215.7L213.728,404c0-3.3,1.895-7.6,6.066-8.037h4.956A9.932,9.932,0,0,1,228.839,404Z" transform="translate(-189.858 -348.513)" fill="#ff6e80"/>
          <path id="Trazado_1041783" data-name="Trazado 1041783" d="M185.41,395.962A9.928,9.928,0,0,0,181.321,404v5.22H174.56V404a9.931,9.931,0,0,1,4.089-8.037h6.761Z" transform="translate(-155.474 -348.513)" fill="#fd5c6f"/>
          <path id="Trazado_1041784" data-name="Trazado 1041784" d="M244.587,26.855l-3.251,3.17L242.1,34.5a2.081,2.081,0,0,1-3.02,2.194l-4.019-2.112c-4.994-2.77-3.071-17.044,2.018-15.692l1.857,3.762,4.495.652A2.081,2.081,0,0,1,244.587,26.855Z" transform="translate(-206.03 -17.42)" fill="#fce3a0"/>
          <path id="Trazado_1041785" data-name="Trazado 1041785" d="M183.024,24.662,179,26.775a2.081,2.081,0,0,1-3.02-2.194l.768-4.475-3.251-3.17a2.081,2.081,0,0,1,1.153-3.55l4.495-.652,2.01-4.073a2.081,2.081,0,0,1,3.732,0l.153.31c-4.239.981-4.543,11.436-2.018,15.692Z" transform="translate(-153.99 -7.5)" fill="#f9d171"/>
        </g>
        <g id="Grupo_1185216" data-name="Grupo 1185216" transform="translate(13.694 24.767)">
          <ellipse id="Elipse_13335" data-name="Elipse 13335" cx="2.761" cy="2.463" rx="2.761" ry="2.463" transform="translate(25.157 11.726)" fill="#ffcbbe"/>
          <ellipse id="Elipse_13336" data-name="Elipse 13336" cx="2.761" cy="2.463" rx="2.761" ry="2.463" transform="translate(0 11.726)" fill="#ffcbbe"/>
          <path id="Trazado_1041786" data-name="Trazado 1041786" d="M224.1,257.482c0,4.425-3.16,8.191-7.577,9.6a9.982,9.982,0,0,1-9.851-9.6c0-4.426,3.308-9.2,9.851-9.6C220.943,249.292,224.1,253.057,224.1,257.482Z" transform="translate(-197.36 -243.287)" fill="#ffddcf"/>
          <path id="Trazado_1041787" data-name="Trazado 1041787" d="M177.5,262.818a12.668,12.668,0,0,1-3.851.594c-6.312,0-11.43-4.565-11.43-10.194s5.117-10.194,11.43-10.194a12.63,12.63,0,0,1,3.851.594c-4.417,1.41-7.578,5.175-7.578,9.6S173.083,261.408,177.5,262.818Z" transform="translate(-158.334 -239.021)" fill="#ffcbbe"/>
          <path id="Trazado_1041788" data-name="Trazado 1041788" d="M254.932,222.284c0,.187-.005.372-.015.558a23.231,23.231,0,0,1-3.407-.259c-1.624-4.638-8.176-5.8-11.222-4.123-3.161-2.546-2.726-7.342.508-8.124C248.02,210.574,254.932,215.832,254.932,222.284Z" transform="translate(-224.973 -210.327)" fill="#eaaa83"/>
          <path id="Trazado_1041789" data-name="Trazado 1041789" d="M150.91,218.395c-2.541-1.675-9.67-.816-11.219,4.122,0,0-2.277.258-3.36.261-.01-.186-.015-.371-.015-.558,0-6.6,7.189-11.957,14.593-11.957.169,0,.339,0,.508.009C149.5,211.779,149.324,215.964,150.91,218.395Z" transform="translate(-135.596 -210.262)" fill="#e4996d"/>
        </g>
      </g>
      <g id="Grupo_1185218" data-name="Grupo 1185218" transform="translate(10.803 0)">
        <path id="Trazado_1041790" data-name="Trazado 1041790" d="M169.184,13.841l-.686,4A2.993,2.993,0,0,0,172.846,21l3.593-1.889L180.033,21a3,3,0,0,0,4.349-3.16l-.686-4,2.907-2.834a3,3,0,0,0-1.661-5.113l-4.017-.584-1.8-3.64a3,3,0,0,0-5.376,0l-1.8,3.64-4.017.584a3,3,0,0,0-1.661,5.113ZM167.261,8.5a1.143,1.143,0,0,1,.941-.793l4.494-.653a.916.916,0,0,0,.69-.5l2.01-4.072a1.165,1.165,0,0,1,2.09,0l2.01,4.072a.916.916,0,0,0,.69.5l4.494.653a1.165,1.165,0,0,1,.646,1.987l-3.252,3.17a.916.916,0,0,0-.263.811l.768,4.476a1.165,1.165,0,0,1-1.691,1.228l-4.02-2.113a.917.917,0,0,0-.853,0l-4.019,2.113a1.165,1.165,0,0,1-1.691-1.228l.768-4.476a.916.916,0,0,0-.263-.811L167.556,9.7a1.143,1.143,0,0,1-.295-1.194Z" transform="translate(-146.49 0)"/>
        <path id="Trazado_1041791" data-name="Trazado 1041791" d="M194.014,325.18a.916.916,0,0,0-.916.916v1.295a.916.916,0,0,0,1.832,0V326.1A.916.916,0,0,0,194.014,325.18Z" transform="translate(-170.831 -285.46)"/>
        <path id="Trazado_1041792" data-name="Trazado 1041792" d="M304.338,325.18a.916.916,0,0,0-.916.916v1.295a.916.916,0,1,0,1.832,0V326.1A.916.916,0,0,0,304.338,325.18Z" transform="translate(-267.68 -285.46)"/>
        <path id="Trazado_1041793" data-name="Trazado 1041793" d="M238.787,335.69a.916.916,0,0,0-1.293.089,1.438,1.438,0,0,1-2.172,0,.916.916,0,0,0-1.381,1.2,3.27,3.27,0,0,0,4.934,0A.916.916,0,0,0,238.787,335.69Z" transform="translate(-206.488 -294.488)"/>
        <path id="Trazado_1041794" data-name="Trazado 1041794" d="M70.7,225.81a7.9,7.9,0,0,0-12.615-6.34,7.887,7.887,0,0,0-1.2-.735,2.983,2.983,0,0,0,.121-.884,3.257,3.257,0,0,0-.724-2,10.959,10.959,0,0,0-2.765-7.343.916.916,0,1,0-1.4,1.182,9.321,9.321,0,0,1,2.326,5.559c-.621-.027-1.339-.075-1.835-.136a8.147,8.147,0,0,0-4.7-4.226,10.014,10.014,0,0,0-7.15-.113,9.692,9.692,0,0,0-7.051-.02,7.92,7.92,0,0,0-4.866,4.326c-.471.048-1.163.114-1.783.155a10.131,10.131,0,0,1,4.164-7.341,15.344,15.344,0,0,1,17.867-.829.916.916,0,0,0,.99-1.542,17.177,17.177,0,0,0-20,.936c-3.2,2.552-4.935,5.868-4.863,9.391a3.255,3.255,0,0,0-.724,2,2.974,2.974,0,0,0,.121.883,7.878,7.878,0,0,0-1.2.736,7.9,7.9,0,0,0-9.609,12.541,6.725,6.725,0,0,0-1.8,4.571v1.439a2.515,2.515,0,0,0,2.513,2.513H34.948a.916.916,0,0,0,0-1.832H31.722v-4.3a8.966,8.966,0,0,1,3.073-6.784,13.531,13.531,0,0,0,11.9-.016,8.962,8.962,0,0,1,3.092,6.8v4.3H39.223a.916.916,0,0,0,0,1.832H66.988A2.515,2.515,0,0,0,69.5,238.02v-1.439a6.725,6.725,0,0,0-1.8-4.571A7.912,7.912,0,0,0,70.7,225.81ZM53.034,217c.662.056,1.389.09,1.9.1a1.413,1.413,0,0,1,.246.78,1.818,1.818,0,0,1-2.22,1.508,10.061,10.061,0,0,0,.115-1.516Q53.073,217.435,53.034,217Zm-26.7.883a1.411,1.411,0,0,1,.248-.782c.565-.022,1.262-.079,1.847-.134-.027.3-.042.606-.042.909a10.074,10.074,0,0,0,.116,1.523C27.553,219.456,26.472,219.131,26.329,217.88ZM13.837,238.02v-1.439a4.888,4.888,0,0,1,2-3.934.916.916,0,0,0-.093-1.539,6.068,6.068,0,1,1,6.315-10.354,7.9,7.9,0,0,0,1.177,11.256,6.726,6.726,0,0,0-1.8,4.571V238.7H14.517A.681.681,0,0,1,13.837,238.02ZM29.89,234.4v4.3H23.266v-2.119a4.888,4.888,0,0,1,2-3.934.916.916,0,0,0-.093-1.539,6.069,6.069,0,0,1,.452-10.826,3.958,3.958,0,0,0,3.313.9,11.22,11.22,0,0,0,4.21,5.459A10.78,10.78,0,0,0,29.89,234.4Zm.325-16.524a8.285,8.285,0,0,1,.173-1.68,6.122,6.122,0,0,1,3.937-3.711c2.341-.833,4.838-.607,5.9.092a.916.916,0,0,0,.946.038,7.882,7.882,0,0,1,6.086-.013,6.238,6.238,0,0,1,3.808,3.579,8.285,8.285,0,0,1,.177,1.694c0,5.116-4.716,9.278-10.513,9.278S30.214,222.988,30.214,217.872Zm18.119,8.745a11.213,11.213,0,0,0,4.183-5.447,3.966,3.966,0,0,0,3.361-.888,6.069,6.069,0,0,1,.452,10.826.916.916,0,0,0-.093,1.539,4.888,4.888,0,0,1,2,3.934V238.7H51.616v-4.3A10.774,10.774,0,0,0,48.334,226.617Zm19.335,11.4a.681.681,0,0,1-.68.68H60.072v-2.119a6.726,6.726,0,0,0-1.8-4.571,7.9,7.9,0,0,0,1.177-11.256,6.068,6.068,0,1,1,6.315,10.354.916.916,0,0,0-.093,1.539,4.888,4.888,0,0,1,2,3.934v1.439Z" transform="translate(-10.803 -177.994)"/>
      </g>
    </g>
  </g>
</svg>
