<svg xmlns="http://www.w3.org/2000/svg" xmlns:xlink="http://www.w3.org/1999/xlink" width="113" height="113" viewBox="0 0 113 113">
  <defs>
    <filter id="Trazado_982547" x="0" y="0" width="113" height="113" filterUnits="userSpaceOnUse">
      <feOffset dy="3" input="SourceAlpha"/>
      <feGaussianBlur stdDeviation="3" result="blur"/>
      <feFlood flood-opacity="0.161"/>
      <feComposite operator="in" in2="blur"/>
      <feComposite in="SourceGraphic"/>
    </filter>
  </defs>
  <g id="Grupo_1185783" data-name="Grupo 1185783" transform="translate(-153.461 -2310)">
    <g id="Grupo_1184121" data-name="Grupo 1184121" transform="translate(162.461 2316)">
      <g id="Grupo_1174888" data-name="Grupo 1174888">
        <g id="Grupo_1166845" data-name="Grupo 1166845">
          <g id="Grupo_1166720" data-name="Grupo 1166720">
            <g id="Grupo_1164305" data-name="Grupo 1164305">
              <g id="Grupo_1163948" data-name="Grupo 1163948">
                <g id="Grupo_1158168" data-name="Grupo 1158168">
                  <g id="Grupo_1152576" data-name="Grupo 1152576">
                    <g id="Grupo_1148633" data-name="Grupo 1148633">
                      <g id="Grupo_1148525" data-name="Grupo 1148525">
                        <g transform="matrix(1, 0, 0, 1, -9, -6)" filter="url(#Trazado_982547)">
                          <g id="Trazado_982547-2" data-name="Trazado 982547" transform="translate(9 6)" fill="#f2f7e5">
                            <path d="M 47.5 93.5 C 41.28937149047852 93.5 35.26533508300781 92.28397369384766 29.59518623352051 89.88570404052734 C 24.11771965026855 87.56893157958984 19.19813346862793 84.25196075439453 14.97309303283691 80.02691650390625 C 10.74804019927979 75.80186462402344 7.431066513061523 70.88229370117188 5.114293098449707 65.40481567382812 C 2.716026782989502 59.73468017578125 1.5 53.71062850952148 1.5 47.5 C 1.5 41.28937149047852 2.716026782989502 35.26533508300781 5.114293098449707 29.59518623352051 C 7.431066513061523 24.11771965026855 10.74804019927979 19.19813346862793 14.97309303283691 14.97309303283691 C 19.19813346862793 10.74804019927979 24.11771965026855 7.431066513061523 29.59518623352051 5.114293098449707 C 35.26533508300781 2.716026782989502 41.28937149047852 1.5 47.5 1.5 C 53.71062850952148 1.5 59.73468017578125 2.716026782989502 65.40481567382812 5.114293098449707 C 70.88229370117188 7.431066513061523 75.80186462402344 10.74804019927979 80.02691650390625 14.97309303283691 C 84.25196075439453 19.19813346862793 87.56893157958984 24.11771965026855 89.88570404052734 29.59518623352051 C 92.28397369384766 35.26533508300781 93.5 41.28937149047852 93.5 47.5 C 93.5 53.71062850952148 92.28397369384766 59.73468017578125 89.88570404052734 65.40481567382812 C 87.56893157958984 70.88229370117188 84.25196075439453 75.80186462402344 80.02691650390625 80.02691650390625 C 75.80186462402344 84.25196075439453 70.88229370117188 87.56893157958984 65.40481567382812 89.88570404052734 C 59.73468017578125 92.28397369384766 53.71062850952148 93.5 47.5 93.5 Z" stroke="none"/>
                            <path d="M 47.5 3 C 41.49121475219727 3 35.66376876831055 4.176155090332031 30.17950439453125 6.495796203613281 C 24.88084411621094 8.736953735351562 20.12152099609375 11.94598388671875 16.03375244140625 16.03375244140625 C 11.94598388671875 20.12152099609375 8.736953735351562 24.88084411621094 6.495796203613281 30.17950439453125 C 4.176155090332031 35.66376876831055 3 41.49121475219727 3 47.5 C 3 53.50878524780273 4.176155090332031 59.33623123168945 6.495796203613281 64.82049560546875 C 8.736953735351562 70.11915588378906 11.94598388671875 74.87847900390625 16.03375244140625 78.96624755859375 C 20.12152099609375 83.05401611328125 24.88084411621094 86.26304626464844 30.17950439453125 88.50419616699219 C 35.66376876831055 90.82384490966797 41.49121475219727 92 47.5 92 C 53.50878524780273 92 59.33623123168945 90.82384490966797 64.82049560546875 88.50419616699219 C 70.11915588378906 86.26304626464844 74.87847900390625 83.05401611328125 78.96624755859375 78.96624755859375 C 83.05401611328125 74.87847900390625 86.26304626464844 70.11915588378906 88.50419616699219 64.82049560546875 C 90.82384490966797 59.33623123168945 92 53.50878524780273 92 47.5 C 92 41.49121475219727 90.82384490966797 35.66376876831055 88.50419616699219 30.17950439453125 C 86.26304626464844 24.88084411621094 83.05401611328125 20.12152099609375 78.96624755859375 16.03375244140625 C 74.87847900390625 11.94598388671875 70.11915588378906 8.736953735351562 64.82049560546875 6.495796203613281 C 59.33623123168945 4.176155090332031 53.50878524780273 3 47.5 3 M 47.5 0 C 73.7335205078125 0 95 21.2664794921875 95 47.5 C 95 73.7335205078125 73.7335205078125 95 47.5 95 C 21.2664794921875 95 0 73.7335205078125 0 47.5 C 0 21.2664794921875 21.2664794921875 0 47.5 0 Z" stroke="none" fill="#86b60c"/>
                          </g>
                        </g>
                      </g>
                    </g>
                  </g>
                </g>
              </g>
            </g>
          </g>
        </g>
      </g>
    </g>
    <g id="lider" transform="translate(180.461 2333.814)">
      <g id="Grupo_1185780" data-name="Grupo 1185780" transform="translate(1.158 1.344)">
        <path id="Trazado_1042545" data-name="Trazado 1042545" d="M303.07,272.86v-5.451H288.184v21.1H303.07V272.86Z" transform="translate(-255.959 -237.612)" fill="#fff"/>
        <path id="Trazado_1042546" data-name="Trazado 1042546" d="M416.689,263.644V269.1l9.883-.093V245.459L416.689,248v15.643Z" transform="translate(-369.578 -218.205)" fill="#5c90ae"/>
        <path id="Trazado_1042547" data-name="Trazado 1042547" d="M42.225,231.588H40.473c-3.208,0-4.232-2.51-5.506-4.114l-.89-1.12a6.717,6.717,0,0,0-5.26-2.539H21.26l.769,4.994h-8.6a2.779,2.779,0,0,0,0,5.558h-.651a2.779,2.779,0,1,0,0,5.558H14.59a2.779,2.779,0,0,0,0,5.558h1.046a2.779,2.779,0,0,0,0,5.558H29.623a6.717,6.717,0,0,0,4.372-1.618l.908-.779a6.717,6.717,0,0,1,4.372-1.618h2.95Z" transform="translate(-10 -199.068)" fill="#ffc6ae"/>
        <path id="Trazado_1042548" data-name="Trazado 1042548" d="M43.23,39.926,38.971,12.314a2.511,2.511,0,1,0-4.962.773l4.237,26.839Z" transform="translate(-31.2 -10.185)" fill="#f9f5f3"/>
        <path id="Trazado_1042549" data-name="Trazado 1042549" d="M108,458.832l.3,2.276a2.389,2.389,0,1,1-4.738.608l-.362-2.885Z" transform="translate(-92.41 -406.86)" fill="#f9f5f3"/>
        <g id="Grupo_1185779" data-name="Grupo 1185779" transform="translate(7.816 2.449)">
          <path id="Trazado_1042550" data-name="Trazado 1042550" d="M77.472,31.329h13.99l-1.9,13.892H79.588Z" transform="translate(-77.472 -31.329)" fill="#ff7e96"/>
          <path id="Trazado_1042551" data-name="Trazado 1042551" d="M179.111,65.365h10.123l-2.964,7.178,5.08,6.714H177.215Z" transform="translate(-165.661 -61.422)" fill="#ff7e96"/>
        </g>
      </g>
      <g id="Grupo_1185782" data-name="Grupo 1185782" transform="translate(0 0.186)">
        <g id="Grupo_1185781" data-name="Grupo 1185781" transform="translate(0 0)">
          <path id="Trazado_1042552" data-name="Trazado 1042552" d="M408.94,349.209a1.157,1.157,0,1,0-.627,1.513A1.169,1.169,0,0,0,408.94,349.209Z" transform="translate(-359.601 -308.148)"/>
          <path id="Trazado_1042553" data-name="Trazado 1042553" d="M58.862,27.683a1.158,1.158,0,0,0-1-.206l-9.741,2.506H33.383a1.158,1.158,0,0,0-1.158,1.158v1.564h-.593c-2.015,0-2.873-1.235-3.866-2.666-.235-.338-1.624-2.13-1.624-2.13a7.834,7.834,0,0,0-6.167-2.977H13.411l-.939-6.089H19.74l-.359,2.628a1.173,1.173,0,0,0,1.148,1.315H34.664a1.169,1.169,0,0,0,.924-1.857l-4.68-6.186,2.711-6.565a1.158,1.158,0,0,0-1.071-1.6H23.753l.359-2.628a1.173,1.173,0,0,0-1.148-1.315H9.91A3.646,3.646,0,0,0,6.448.186,3.7,3.7,0,0,0,2.823,4.427l4.026,25.5H4.59A3.935,3.935,0,0,0,1.515,36.32a3.935,3.935,0,0,0,.82,6.7,3.934,3.934,0,0,0,1.246,5.247,3.935,3.935,0,0,0,3.214,6.209h4.139l.235,1.869a3.547,3.547,0,1,0,7.036-.9l-.129-.965h2.706a7.88,7.88,0,0,0,5.126-1.9l.909-.779a5.562,5.562,0,0,1,3.618-1.339h1.791v1.78A1.158,1.158,0,0,0,33.384,53.4h14.9l9.883-.093a1.158,1.158,0,0,0,1.148-1.158V28.6a1.159,1.159,0,0,0-.449-.915ZM30.816,8.895l-2.3,5.577a1.158,1.158,0,0,0,.147,1.141l3.675,4.857H21.856L23.437,8.895h7.379ZM21.28,7.564l0,.016-1.221,8.948H12.115L10.33,4.952H21.637ZM5.112,4.066A1.366,1.366,0,0,1,6.448,2.5c.893,0,1.265.7,1.382,1.465l4.008,25.959H9.194Zm10.8,51.679a1.23,1.23,0,1,1-2.441.312l-.2-1.582h2.47Zm14.526-7.6a7.88,7.88,0,0,0-5.126,1.9l-.908.779a5.562,5.562,0,0,1-3.618,1.339H6.795a1.62,1.62,0,0,1,0-3.241,1.158,1.158,0,0,0,0-2.317H5.748a1.62,1.62,0,0,1,0-3.241,1.158,1.158,0,0,0,0-2.317H3.937a1.62,1.62,0,1,1,0-3.241h.651a1.158,1.158,0,0,0,0-2.317,1.62,1.62,0,0,1,0-3.241H18.5a1.158,1.158,0,0,0,0-2.317H14.182l-.412-2.677h6.207a5.53,5.53,0,0,1,4.353,2.1s1.311,1.688,1.534,2.01c1.073,1.545,2.541,3.661,5.769,3.661h.593V48.144H30.434ZM56.994,51l-7.566.071V46.784a1.158,1.158,0,0,0-2.317,0v4.3H34.542V32.3H47.111v4.292a1.158,1.158,0,0,0,2.317,0V32.04l7.566-1.947Z" transform="translate(0 -0.186)"/>
        </g>
      </g>
    </g>
  </g>
</svg>
