<svg xmlns="http://www.w3.org/2000/svg" xmlns:xlink="http://www.w3.org/1999/xlink" width="93.934" height="93.934" viewBox="0 0 93.934 93.934">
  <defs>
    <filter id="Trazado_982547" x="0" y="0" width="93.934" height="93.934" filterUnits="userSpaceOnUse">
      <feOffset dy="3" input="SourceAlpha"/>
      <feGaussianBlur stdDeviation="3" result="blur"/>
      <feFlood flood-opacity="0.161"/>
      <feComposite operator="in" in2="blur"/>
      <feComposite in="SourceGraphic"/>
    </filter>
  </defs>
  <g id="Grupo_1185787" data-name="Grupo 1185787" transform="translate(-189.461 -2701)">
    <g id="Grupo_1183851" data-name="Grupo 1183851" transform="translate(-629.572 1805.967)">
      <g id="Grupo_1179711" data-name="Grupo 1179711" transform="translate(630.033 111.033)">
        <g id="Grupo_1173782" data-name="Grupo 1173782" transform="translate(198 790)">
          <g id="Grupo_1167337" data-name="Grupo 1167337">
            <g id="Grupo_1166720" data-name="Grupo 1166720">
              <g id="Grupo_1164305" data-name="Grupo 1164305">
                <g id="Grupo_1163948" data-name="Grupo 1163948">
                  <g id="Grupo_1158168" data-name="Grupo 1158168">
                    <g id="Grupo_1152576" data-name="Grupo 1152576">
                      <g id="Grupo_1148633" data-name="Grupo 1148633">
                        <g id="Grupo_1148525" data-name="Grupo 1148525">
                          <g transform="matrix(1, 0, 0, 1, -9, -6)" filter="url(#Trazado_982547)">
                            <g id="Trazado_982547-2" data-name="Trazado 982547" transform="translate(9 6)" fill="#e9f9fd">
                              <path d="M 37.966796875 74.43359375 C 33.04315185546875 74.43359375 28.26757431030273 73.46962738037109 23.77274131774902 71.56847381591797 C 19.43047523498535 69.73184967041016 15.53040790557861 67.10224914550781 12.18087482452393 63.75271987915039 C 8.831341743469238 60.4031867980957 6.201741218566895 56.50312042236328 4.365118980407715 52.16086196899414 C 2.463963508605957 47.66601943969727 1.499996900558472 42.89044189453125 1.499996900558472 37.966796875 C 1.499996900558472 33.04315185546875 2.463963508605957 28.26757431030273 4.365118980407715 23.77274131774902 C 6.201741218566895 19.43047523498535 8.831341743469238 15.53040790557861 12.18087482452393 12.18087482452393 C 15.53040790557861 8.831341743469238 19.43047523498535 6.201741218566895 23.77274131774902 4.365118980407715 C 28.26757431030273 2.463963508605957 33.04315185546875 1.499996900558472 37.966796875 1.499996900558472 C 42.89044189453125 1.499996900558472 47.66601943969727 2.463963508605957 52.16086196899414 4.365118980407715 C 56.50312042236328 6.201741218566895 60.4031867980957 8.831341743469238 63.75271987915039 12.18087482452393 C 67.10224914550781 15.53040790557861 69.73184967041016 19.43047523498535 71.56847381591797 23.77274131774902 C 73.46962738037109 28.26757431030273 74.43359375 33.04315185546875 74.43359375 37.966796875 C 74.43359375 42.89044189453125 73.46962738037109 47.66601943969727 71.56847381591797 52.16086196899414 C 69.73184967041016 56.50313186645508 67.10224914550781 60.4031867980957 63.75271987915039 63.75271987915039 C 60.4031867980957 67.10224914550781 56.50313186645508 69.73184967041016 52.16086196899414 71.56847381591797 C 47.66601943969727 73.46962738037109 42.89044189453125 74.43359375 37.966796875 74.43359375 Z" stroke="none"/>
                              <path d="M 37.966796875 3 C 33.2449836730957 3 28.66600799560547 3.924095153808594 24.35705947875977 5.746635437011719 C 20.19359588623047 7.507637023925781 16.45379638671875 10.02928161621094 13.24153518676758 13.24153518676758 C 10.02927398681641 16.45379638671875 7.507621765136719 20.19359588623047 5.746635437011719 24.35705947875977 C 3.924095153808594 28.66600799560547 3 33.2449836730957 3 37.966796875 C 3 42.6886100769043 3.924095153808594 47.26758575439453 5.746635437011719 51.57653427124023 C 7.507621765136719 55.73999786376953 10.02927398681641 59.47979736328125 13.24153518676758 62.69205856323242 C 16.45379638671875 65.90431976318359 20.19359588623047 68.42597198486328 24.35705947875977 70.18695831298828 C 28.66600799560547 72.00949859619141 33.2449836730957 72.93359375 37.966796875 72.93359375 C 42.6886100769043 72.93359375 47.26758575439453 72.00949859619141 51.57653427124023 70.18695831298828 C 55.73999786376953 68.42597198486328 59.47979736328125 65.90431976318359 62.69205856323242 62.69205856323242 C 65.90431976318359 59.47979736328125 68.42597198486328 55.73999786376953 70.18695831298828 51.57653427124023 C 72.00949859619141 47.26758575439453 72.93359375 42.6886100769043 72.93359375 37.966796875 C 72.93359375 33.2449836730957 72.00949859619141 28.66600799560547 70.18695831298828 24.35705947875977 C 68.42597198486328 20.19359588623047 65.90431976318359 16.45379638671875 62.69205856323242 13.24153518676758 C 59.47979736328125 10.02928161621094 55.73999786376953 7.507637023925781 51.57653427124023 5.746635437011719 C 47.26758575439453 3.924095153808594 42.6886100769043 3 37.966796875 3 M 37.966796875 0 C 58.93528366088867 0 75.93359375 16.99832153320312 75.93359375 37.966796875 C 75.93359375 58.93528366088867 58.93528366088867 75.93359375 37.966796875 75.93359375 C 16.99831008911133 75.93359375 0 58.93528366088867 0 37.966796875 C 0 16.99832153320312 16.99831008911133 0 37.966796875 0 Z" stroke="none" fill="#1d7083"/>
                            </g>
                          </g>
                        </g>
                      </g>
                    </g>
                  </g>
                </g>
              </g>
            </g>
          </g>
        </g>
      </g>
    </g>
    <g id="proceso-de-trabajo" transform="translate(209.461 2718)">
      <g id="Grupo_1185785" data-name="Grupo 1185785" transform="translate(0.842 0.843)">
        <path id="Trazado_1042554" data-name="Trazado 1042554" d="M53.989,10.159h0A23.965,23.965,0,0,0,30.148,31.7l6.326-.3A17.756,17.756,0,0,1,53.989,16.4l-.028.01v2.422l6.116-4.942L53.961,8v2.169" transform="translate(-27.815 -8)" fill="#ffe27a"/>
        <path id="Trazado_1042555" data-name="Trazado 1042555" d="M105.864,74.076l4.607-3.722A17.732,17.732,0,0,0,88.161,86.662l.216-.01a17.756,17.756,0,0,1,17.515-15.008l-.028.01Z" transform="translate(-79.718 -63.244)" fill="#f9cf58"/>
        <path id="Trazado_1042556" data-name="Trazado 1042556" d="M166.789,153.868l-2-.3a9.35,9.35,0,0,0-1.474-3.556l1.2-1.63a.717.717,0,0,0-.07-.933l-1.037-1.037a.717.717,0,0,0-.933-.07l-1.63,1.2a9.35,9.35,0,0,0-3.556-1.474l-.3-2a.717.717,0,0,0-.709-.61h-1.467a.717.717,0,0,0-.709.61l-.3,2a9.349,9.349,0,0,0-3.556,1.474l-1.63-1.2a.717.717,0,0,0-.933.07l-1.037,1.037a.717.717,0,0,0-.07.933l1.2,1.63a9.35,9.35,0,0,0-1.474,3.556l-2,.3a.717.717,0,0,0-.61.709v1.467a.717.717,0,0,0,.61.709l2,.3a9.35,9.35,0,0,0,1.474,3.556l-1.2,1.63a.717.717,0,0,0,.07.933l1.037,1.037a.717.717,0,0,0,.933.07l1.63-1.2a9.349,9.349,0,0,0,3.556,1.474l.3,2a.717.717,0,0,0,.709.61h1.467a.717.717,0,0,0,.709-.61l.3-2a9.348,9.348,0,0,0,3.556-1.474l1.63,1.2a.717.717,0,0,0,.933-.07l1.037-1.037a.717.717,0,0,0,.07-.933l-1.2-1.63a9.35,9.35,0,0,0,1.474-3.556l2-.3a.717.717,0,0,0,.61-.709v-1.467A.717.717,0,0,0,166.789,153.868Zm-11.244,6.187a4.745,4.745,0,1,1,4.745-4.745A4.745,4.745,0,0,1,155.546,160.055Z" transform="translate(-129.4 -129.189)" fill="#ff4755"/>
        <path id="Trazado_1042557" data-name="Trazado 1042557" d="M10.184,203.816c0,.008,0,.016,0,.024a23.965,23.965,0,0,0,21.546,23.841l-.371-6.339a17.726,17.726,0,0,1-14.934-17.5c0-.008,0-.016,0-.024h2.407L13.89,197.7,8,203.816h2.169" transform="translate(-8 -177.719)" fill="#8bcaff"/>
        <path id="Trazado_1042558" data-name="Trazado 1042558" d="M203.816,293.781h.049a17.726,17.726,0,0,0,17.5-14.929l6.344-.431a23.964,23.964,0,0,1-23.846,21.6h-.049v2.16l-6.116-5.89,6.116-4.942v2.422Z" transform="translate(-177.719 -249.938)" fill="#98db7c"/>
        <path id="Trazado_1042559" data-name="Trazado 1042559" d="M220.674,265.948a4.764,4.764,0,0,0-.095-.948,4.746,4.746,0,0,1-9.3,0,4.745,4.745,0,1,0,9.395.948Z" transform="translate(-189.784 -237.931)" fill="#fc2b3a"/>
        <path id="Trazado_1042560" data-name="Trazado 1042560" d="M215.889,298.127a24.072,24.072,0,0,1-4.749-.472l4.7,4.527v-2.16h.049a23.964,23.964,0,0,0,23.846-21.6l-.326.339A23.969,23.969,0,0,1,215.889,298.127Z" transform="translate(-189.744 -249.939)" fill="#82d361"/>
        <path id="Trazado_1042561" data-name="Trazado 1042561" d="M47.946,277.387a23.974,23.974,0,0,1-19.139-21.619h-.073c0,.008,0,.016,0,.024a23.965,23.965,0,0,0,21.546,23.841Z" transform="translate(-26.549 -229.671)" fill="#6cc4ff"/>
        <path id="Trazado_1042562" data-name="Trazado 1042562" d="M300.263,53.473c0-.008,0-.016,0-.024a23.964,23.964,0,0,0-21.6-23.846l3.753,3.615-3.369,2.722a17.726,17.726,0,0,1,14.974,17.509c0,.008,0,.016,0,.024h-2.456l4.942,6.116,5.89-6.116Z" transform="translate(-250.155 -27.327)" fill="#ffba57"/>
        <g id="Grupo_1185784" data-name="Grupo 1185784" transform="translate(28.893 7.11)">
          <path id="Trazado_1042563" data-name="Trazado 1042563" d="M284.175,75.5,282.316,77a17.727,17.727,0,0,1,14.949,16.566q.025-.473.026-.953A17.728,17.728,0,0,0,284.175,75.5Z" transform="translate(-282.316 -75.501)" fill="#ffac3e"/>
        </g>
      </g>
      <g id="Grupo_1185786" data-name="Grupo 1185786" transform="translate(0 0)">
        <path id="Trazado_1042564" data-name="Trazado 1042564" d="M209.117,203.347a5.549,5.549,0,0,0-5.21,7.451.792.792,0,1,0,1.487-.544,3.963,3.963,0,1,1,1.681,2.036.792.792,0,0,0-.817,1.356,5.546,5.546,0,1,0,2.859-10.3Z" transform="translate(-182.129 -181.929)"/>
        <path id="Trazado_1042565" data-name="Trazado 1042565" d="M160,146.155l-1.468-.221a10.083,10.083,0,0,0-1.173-2.831l.882-1.194a1.5,1.5,0,0,0-.147-1.965l-1.039-1.039a1.5,1.5,0,0,0-1.965-.147l-1.194.882a10.079,10.079,0,0,0-2.831-1.173L150.84,137a1.5,1.5,0,0,0-1.493-1.285h-1.47A1.5,1.5,0,0,0,146.384,137l-.221,1.468a10.08,10.08,0,0,0-2.831,1.173l-1.194-.882a1.5,1.5,0,0,0-1.965.147l-1.039,1.039a1.5,1.5,0,0,0-.147,1.965l.882,1.194a10.072,10.072,0,0,0-1.173,2.831l-1.468.221a1.5,1.5,0,0,0-1.286,1.493v1.47a1.5,1.5,0,0,0,1.285,1.493l1.468.221a10.08,10.08,0,0,0,1.173,2.831l-.882,1.194a1.5,1.5,0,0,0,.147,1.965l1.039,1.039a1.5,1.5,0,0,0,1.965.147l1.194-.882a10.079,10.079,0,0,0,2.831,1.173l.221,1.468a1.5,1.5,0,0,0,1.493,1.285h1.47a1.5,1.5,0,0,0,1.493-1.286l.221-1.468a10.079,10.079,0,0,0,2.831-1.173l1.195.882a1.5,1.5,0,0,0,1.965-.147l1.039-1.039a1.5,1.5,0,0,0,.147-1.965l-.882-1.194a10.076,10.076,0,0,0,1.173-2.831l1.468-.221a1.5,1.5,0,0,0,1.286-1.493v-1.47A1.5,1.5,0,0,0,160,146.155Zm-.3,2.9-1.946.292a.791.791,0,0,0-.66.637,8.534,8.534,0,0,1-1.352,3.263.791.791,0,0,0,.017.917l1.169,1.583-.95.95-1.583-1.169a.792.792,0,0,0-.917-.017,8.533,8.533,0,0,1-3.263,1.352.792.792,0,0,0-.637.66l-.292,1.946H147.94l-.292-1.946a.791.791,0,0,0-.637-.66,8.534,8.534,0,0,1-3.263-1.352.791.791,0,0,0-.917.017l-1.583,1.169-.95-.95,1.169-1.583a.791.791,0,0,0,.017-.917,8.532,8.532,0,0,1-1.352-3.263.791.791,0,0,0-.66-.637l-1.946-.292v-1.344l1.946-.292a.791.791,0,0,0,.66-.637,8.533,8.533,0,0,1,1.352-3.263.791.791,0,0,0-.017-.917l-1.169-1.583.95-.95,1.583,1.169a.792.792,0,0,0,.917.017,8.536,8.536,0,0,1,3.263-1.352.791.791,0,0,0,.637-.66l.292-1.946h1.344l.292,1.946a.792.792,0,0,0,.637.66,8.532,8.532,0,0,1,3.263,1.352.791.791,0,0,0,.917-.017l1.583-1.169.95.95-1.169,1.583a.791.791,0,0,0-.017.917,8.534,8.534,0,0,1,1.352,3.263.791.791,0,0,0,.66.637l1.946.292Z" transform="translate(-121.624 -121.419)"/>
        <path id="Trazado_1042566" data-name="Trazado 1042566" d="M53.865,26.679a.791.791,0,0,0-.728-.482H51.777A24.8,24.8,0,0,0,29.709,2.312L27.536.219A.8.8,0,0,0,26.2.79V2.174A24.625,24.625,0,0,0,12.712,6.68a.792.792,0,0,0,.912,1.294A23.068,23.068,0,0,1,26.987,3.745a.791.791,0,0,0,.792-.792v-.3L31.921,6.64,27.779,9.986v-.78a.791.791,0,0,0-.792-.792A18.554,18.554,0,0,0,9,22.413l-1.7-2.1a.8.8,0,0,0-1.186-.052l-1.859,1.93A23.189,23.189,0,0,1,11.243,9.9a.792.792,0,0,0-1.074-1.163,24.752,24.752,0,0,0-7.827,15.45L.219,26.39a.8.8,0,0,0,.57,1.341H2.2A24.8,24.8,0,0,0,24.211,51.61l2.179,2.1a.8.8,0,0,0,1.341-.57V51.755a24.61,24.61,0,0,0,13.7-4.627.792.792,0,1,0-.923-1.286,23.058,23.058,0,0,1-13.53,4.341h-.039a.791.791,0,0,0-.792.792v.3l-4.142-3.989,4.142-3.346v.779a.792.792,0,0,0,.786.792h.054A18.554,18.554,0,0,0,44.959,31.561l1.659,2.054a.8.8,0,0,0,1.186.052l1.92-1.994a23.2,23.2,0,0,1-6.849,12.222.792.792,0,1,0,1.084,1.154,24.767,24.767,0,0,0,7.679-15.364l2.068-2.147a.791.791,0,0,0,.158-.859ZM20.312,46.621a.8.8,0,0,0-.052,1.186l1.956,1.884A23.225,23.225,0,0,1,3.769,26.967V26.94a.791.791,0,0,0-.792-.792H2.651l3.989-4.142,3.346,4.142H9.23a.789.789,0,0,0-.792.789v.027A18.555,18.555,0,0,0,22.4,44.938Zm17.744-6.8A16.957,16.957,0,0,1,27.73,43.914V42.285a.8.8,0,0,0-1.289-.616l-2.467,1.993A16.971,16.971,0,0,1,10.039,27.731h1.6a.8.8,0,0,0,.616-1.289l-1.977-2.447A16.97,16.97,0,0,1,26.2,10.016v1.627a.8.8,0,0,0,1.289.616l2.476-2A16.971,16.971,0,0,1,43.936,26.2H42.283a.8.8,0,0,0-.616,1.289l2.017,2.5a16.974,16.974,0,0,1-5.628,9.839Zm9.23-7.9L43.94,27.78h.8a.789.789,0,0,0,.792-.789v-.027A18.555,18.555,0,0,0,31.543,8.98l2.071-1.673a.8.8,0,0,0,.052-1.186L31.7,4.225a23.225,23.225,0,0,1,18.51,22.736v.027A.791.791,0,0,0,51,27.78h.278Z" transform="translate(0 0)"/>
      </g>
    </g>
  </g>
</svg>
