<svg xmlns="http://www.w3.org/2000/svg" xmlns:xlink="http://www.w3.org/1999/xlink" width="113" height="113" viewBox="0 0 113 113">
  <defs>
    <filter id="Trazado_982547" x="0" y="0" width="113" height="113" filterUnits="userSpaceOnUse">
      <feOffset dy="3" input="SourceAlpha"/>
      <feGaussianBlur stdDeviation="3" result="blur"/>
      <feFlood flood-opacity="0.161"/>
      <feComposite operator="in" in2="blur"/>
      <feComposite in="SourceGraphic"/>
    </filter>
  </defs>
  <g id="Grupo_1185227" data-name="Grupo 1185227" transform="translate(-1164 -1201)">
    <g id="Grupo_1180714" data-name="Grupo 1180714" transform="translate(-0.461 405)">
      <g id="Grupo_1174903" data-name="Grupo 1174903" transform="translate(0.461 -5152.015)">
        <g id="Grupo_1174056" data-name="Grupo 1174056" transform="translate(1173 5954.015)">
          <g id="Grupo_1172010" data-name="Grupo 1172010">
            <g id="Grupo_1171046" data-name="Grupo 1171046">
              <g id="Grupo_1148525" data-name="Grupo 1148525">
                <g transform="matrix(1, 0, 0, 1, -9, -6)" filter="url(#Trazado_982547)">
                  <g id="Trazado_982547-2" data-name="Trazado 982547" transform="translate(9 6)" fill="#f2f7e5">
                    <path d="M 47.5 93.5 C 41.28937149047852 93.5 35.26533508300781 92.28397369384766 29.59518623352051 89.88570404052734 C 24.11771965026855 87.56893157958984 19.19813346862793 84.25196075439453 14.97309303283691 80.02691650390625 C 10.74804019927979 75.80186462402344 7.431066513061523 70.88229370117188 5.114293098449707 65.40481567382812 C 2.716026782989502 59.73468017578125 1.5 53.71062850952148 1.5 47.5 C 1.5 41.28937149047852 2.716026782989502 35.26533508300781 5.114293098449707 29.59518623352051 C 7.431066513061523 24.11771965026855 10.74804019927979 19.19813346862793 14.97309303283691 14.97309303283691 C 19.19813346862793 10.74804019927979 24.11771965026855 7.431066513061523 29.59518623352051 5.114293098449707 C 35.26533508300781 2.716026782989502 41.28937149047852 1.5 47.5 1.5 C 53.71062850952148 1.5 59.73468017578125 2.716026782989502 65.40481567382812 5.114293098449707 C 70.88229370117188 7.431066513061523 75.80186462402344 10.74804019927979 80.02691650390625 14.97309303283691 C 84.25196075439453 19.19813346862793 87.56893157958984 24.11771965026855 89.88570404052734 29.59518623352051 C 92.28397369384766 35.26533508300781 93.5 41.28937149047852 93.5 47.5 C 93.5 53.71062850952148 92.28397369384766 59.73468017578125 89.88570404052734 65.40481567382812 C 87.56893157958984 70.88229370117188 84.25196075439453 75.80186462402344 80.02691650390625 80.02691650390625 C 75.80186462402344 84.25196075439453 70.88229370117188 87.56893157958984 65.40481567382812 89.88570404052734 C 59.73468017578125 92.28397369384766 53.71062850952148 93.5 47.5 93.5 Z" stroke="none"/>
                    <path d="M 47.5 3 C 41.49121475219727 3 35.66376876831055 4.176155090332031 30.17950439453125 6.495796203613281 C 24.88084411621094 8.736953735351562 20.12152099609375 11.94598388671875 16.03375244140625 16.03375244140625 C 11.94598388671875 20.12152099609375 8.736953735351562 24.88084411621094 6.495796203613281 30.17950439453125 C 4.176155090332031 35.66376876831055 3 41.49121475219727 3 47.5 C 3 53.50878524780273 4.176155090332031 59.33623123168945 6.495796203613281 64.82049560546875 C 8.736953735351562 70.11915588378906 11.94598388671875 74.87847900390625 16.03375244140625 78.96624755859375 C 20.12152099609375 83.05401611328125 24.88084411621094 86.26304626464844 30.17950439453125 88.50419616699219 C 35.66376876831055 90.82384490966797 41.49121475219727 92 47.5 92 C 53.50878524780273 92 59.33623123168945 90.82384490966797 64.82049560546875 88.50419616699219 C 70.11915588378906 86.26304626464844 74.87847900390625 83.05401611328125 78.96624755859375 78.96624755859375 C 83.05401611328125 74.87847900390625 86.26304626464844 70.11915588378906 88.50419616699219 64.82049560546875 C 90.82384490966797 59.33623123168945 92 53.50878524780273 92 47.5 C 92 41.49121475219727 90.82384490966797 35.66376876831055 88.50419616699219 30.17950439453125 C 86.26304626464844 24.88084411621094 83.05401611328125 20.12152099609375 78.96624755859375 16.03375244140625 C 74.87847900390625 11.94598388671875 70.11915588378906 8.736953735351562 64.82049560546875 6.495796203613281 C 59.33623123168945 4.176155090332031 53.50878524780273 3 47.5 3 M 47.5 0 C 73.7335205078125 0 95 21.2664794921875 95 47.5 C 95 73.7335205078125 73.7335205078125 95 47.5 95 C 21.2664794921875 95 0 73.7335205078125 0 47.5 C 0 21.2664794921875 21.2664794921875 0 47.5 0 Z" stroke="none" fill="#86b60c"/>
                  </g>
                </g>
              </g>
            </g>
          </g>
        </g>
      </g>
    </g>
    <g id="compromiso-de-los-empleados" transform="translate(1191 1224.998)">
      <g id="Grupo_1185226" data-name="Grupo 1185226" transform="translate(0.865 0.866)">
        <path id="Trazado_1041805" data-name="Trazado 1041805" d="M131.822,92.848,129.4,96.763a13.836,13.836,0,0,1-1.822,6.863l-5.122,8.961H112.91l1.188-2.206,4.063-7.547a5.189,5.189,0,0,0,.559-3.247l-.943-6.134a13.829,13.829,0,0,1,.627-6.707l2.6-9.387a2.857,2.857,0,0,1,5.606.935l-.447,7.426a2.767,2.767,0,0,1,3.233,2.726Z" transform="translate(-100.759 -67.455)" fill="#ffddcf"/>
        <path id="Trazado_1041806" data-name="Trazado 1041806" d="M131.643,81.743l-1.3,7.791a10.374,10.374,0,0,0,0,3.432l.8,4.734a10.375,10.375,0,0,1-.823,6.094l-4.089,8.8-.2.439s-.174-.159-.477-.439c-.5-.46-1.341-1.251-2.324-2.206l4.063-7.547a5.189,5.189,0,0,0,.559-3.247l-.943-6.134a13.829,13.829,0,0,1,.627-6.707l2.6-9.387a2.858,2.858,0,0,1,5.1-.866c-.874.325-3.1,1.509-3.589,5.247Z" transform="translate(-109.88 -67.455)" fill="#ffcbbe"/>
        <path id="Trazado_1041807" data-name="Trazado 1041807" d="M48.744,17.113l-.067.922a2.766,2.766,0,0,1,1.776,3.839l-3.517,7.534a13.845,13.845,0,0,1-4.556,5.448l-6.53,4.612-2.693-4.042L31.15,32.414l3.034-2.259a5.188,5.188,0,0,0,1.88-2.707L37.8,21.492A13.852,13.852,0,0,1,41.21,15.68l7.313-7.45a2.452,2.452,0,0,1,3.906,2.888L49.512,16.5Z" transform="translate(-28.424 -7.495)" fill="#db9e82"/>
        <path id="Trazado_1041808" data-name="Trazado 1041808" d="M52.517,8.96a5.826,5.826,0,0,0-3.655,1.971L43.3,17.057a10.374,10.374,0,0,0-2.523,5.109L40.1,25.877a10.375,10.375,0,0,1-2.869,5.473l-4.076,4.077L31.15,32.414l3.034-2.259a5.188,5.188,0,0,0,1.88-2.707L37.8,21.492A13.852,13.852,0,0,1,41.21,15.68l7.313-7.45a2.452,2.452,0,0,1,3.994.731Z" transform="translate(-28.424 -7.495)" fill="#c8866a"/>
        <path id="Trazado_1041809" data-name="Trazado 1041809" d="M76.314,326.305l-6.263,13.786a1.732,1.732,0,0,1-1.575,1.013H57.756a1.728,1.728,0,0,1-1.574-2.444l8.1-17.824a1.73,1.73,0,0,1,2.289-.859l.679.309.923.618,2.006.714.006,0,5.27,2.4A1.728,1.728,0,0,1,76.314,326.305Z" transform="translate(-50.431 -283.819)" fill="#fd7a6e"/>
        <path id="Trazado_1041810" data-name="Trazado 1041810" d="M70.179,321.618a1.023,1.023,0,0,0-1.267.637L60.376,341.1h-2.62a1.728,1.728,0,0,1-1.574-2.444l8.1-17.824a1.73,1.73,0,0,1,2.289-.859Z" transform="translate(-50.431 -283.819)" fill="#f85647"/>
        <path id="Trazado_1041811" data-name="Trazado 1041811" d="M18.553,210.126l-8.216,6.853A1.73,1.73,0,0,1,7.5,215.651V202.942a1.732,1.732,0,0,1,.621-1.328l1.964-1.638a1.729,1.729,0,0,1,2.436.22l.229.276.462.941,1.526,1.443h0l4.032,4.833A1.73,1.73,0,0,1,18.553,210.126Z" transform="translate(-7.5 -177.432)" fill="#fad989"/>
        <path id="Trazado_1041812" data-name="Trazado 1041812" d="M12.521,200.2l2.218,2.659a1.818,1.818,0,0,0-1.914.13L7.5,207.5v-4.553a1.732,1.732,0,0,1,.621-1.328l1.964-1.638A1.729,1.729,0,0,1,12.521,200.2Z" transform="translate(-7.5 -177.432)" fill="#fdc072"/>
        <path id="Trazado_1041813" data-name="Trazado 1041813" d="M272.461,112.588h-9.547l-.543-.95-4.579-8.012a13.836,13.836,0,0,1-1.823-6.863l.959-3.6-.959-4.714a2.768,2.768,0,0,1,3.1-2.746l.129.02.29-.848-.4-.9-.348-5.854a2.858,2.858,0,0,1,5.612-.76l2.6,9.387a13.829,13.829,0,0,1,.627,6.707l-.943,6.134a5.189,5.189,0,0,0,.559,3.247Z" transform="translate(-227.328 -67.455)" fill="#db9e82"/>
        <path id="Trazado_1041814" data-name="Trazado 1041814" d="M265.066,190.757s-1.294.407-2.7.8l-4.579-8.012a13.836,13.836,0,0,1-1.823-6.863v-8.316a2.768,2.768,0,0,1,3.1-2.746,3.02,3.02,0,0,0-.777,2.633l.486,6.955a13.84,13.84,0,0,0,1.283,4.923Z" transform="translate(-227.328 -147.372)" fill="#c8866a"/>
        <path id="Trazado_1041815" data-name="Trazado 1041815" d="M315.2,32.414l-2.912,4.369L310.5,39.468l-6.53-4.612a13.828,13.828,0,0,1-2.918-2.779L296.4,19.8l1.145-1.729c.04-.014.082-.025.123-.037V16.61l-.811-.073-2.94-5.42a2.452,2.452,0,0,1,3.905-2.888l7.313,7.45a13.853,13.853,0,0,1,3.406,5.812l1.74,5.956a5.188,5.188,0,0,0,1.88,2.707Z" transform="translate(-260.639 -7.495)" fill="#ffddcf"/>
        <path id="Trazado_1041816" data-name="Trazado 1041816" d="M327.721,117.958l-1.789,2.685-6.53-4.612a13.845,13.845,0,0,1-4.556-5.448l-3.517-7.534a2.766,2.766,0,0,1,1.653-3.8,4.094,4.094,0,0,0,.513,3l3.423,6.072a13.833,13.833,0,0,0,3.678,4.219Z" transform="translate(-276.074 -88.67)" fill="#ffcbbe"/>
        <path id="Trazado_1041817" data-name="Trazado 1041817" d="M297.274,341.1H286.553a1.731,1.731,0,0,1-1.575-1.013l-6.263-13.786a1.728,1.728,0,0,1,.859-2.289l.4-.182h0l1.448-.195,1.428-1.112,5.607-2.549a1.73,1.73,0,0,1,2.289.859l8.1,17.824A1.728,1.728,0,0,1,297.274,341.1Z" transform="translate(-247.314 -283.819)" fill="#ace094"/>
        <path id="Trazado_1041818" data-name="Trazado 1041818" d="M290.312,361.855h-3.759a1.732,1.732,0,0,1-1.575-1.013l-6.263-13.786a1.728,1.728,0,0,1,.859-2.289l3.277-1.489s-.639.6-.129,1.931Z" transform="translate(-247.314 -304.57)" fill="#8dd470"/>
        <path id="Trazado_1041819" data-name="Trazado 1041819" d="M414.845,202.942v12.709a1.73,1.73,0,0,1-2.837,1.328l-8.216-6.853a1.73,1.73,0,0,1-.22-2.436l.526-.629,1.233-.87.921-1.713a0,0,0,0,0,0,0l3.57-4.279a1.729,1.729,0,0,1,2.436-.22l1.964,1.638A1.732,1.732,0,0,1,414.845,202.942Z" transform="translate(-357.56 -177.432)" fill="#00c9df"/>
        <path id="Trazado_1041820" data-name="Trazado 1041820" d="M414.845,250.109v3.171a1.73,1.73,0,0,1-2.837,1.328l-8.216-6.853a1.73,1.73,0,0,1-.22-2.436l2.68-3.213a1.57,1.57,0,0,0,.609,1.841Z" transform="translate(-357.56 -215.062)" fill="#00bad5"/>
      </g>
      <path id="Trazado_1041821" data-name="Trazado 1041821" d="M58.081,24.384l-1.964-1.639a2.59,2.59,0,0,0-3.322,0,4.35,4.35,0,0,1-1.456-2.17L49.6,14.62A14.768,14.768,0,0,0,45.98,8.445L38.667,1A3.317,3.317,0,0,0,33.384,4.9l1.582,2.918a3.722,3.722,0,0,0-3.544,3.713l.4,6.723a3.629,3.629,0,0,0-2.315,1.253,3.629,3.629,0,0,0-2.315-1.253l.4-6.723a3.726,3.726,0,0,0-3.543-3.715L25.629,4.9A3.317,3.317,0,0,0,20.346.995l-7.313,7.45A14.768,14.768,0,0,0,9.414,14.62l-.293,1a.865.865,0,1,0,1.66.485l.293-1a13.032,13.032,0,0,1,3.194-5.449l7.313-7.45a1.588,1.588,0,0,1,2.528,1.87l-3.46,6.38a3.658,3.658,0,0,0-3.335,1.686l-3.2,5.089a.865.865,0,0,0,1.464.92l3.2-5.089a1.9,1.9,0,0,1,3.333,1.817l-3.517,7.534a13,13,0,0,1-4.271,5.108l-2.558,1.807-4.4-5.281a6.093,6.093,0,0,0,1.975-2.986l.311-1.067a.865.865,0,0,0-1.66-.484l-.311,1.067a4.351,4.351,0,0,1-1.456,2.169,2.59,2.59,0,0,0-3.323,0L.932,24.384A2.586,2.586,0,0,0,0,26.376V39.084a2.593,2.593,0,0,0,4.255,1.992l8.216-6.853a2.6,2.6,0,0,0,.4-3.56A31.355,31.355,0,0,0,17.1,27.452l.874,5.678a4.35,4.35,0,0,1-.466,2.706l-.2.376a2.6,2.6,0,0,0-3.376,1.313l-8.1,17.823a2.594,2.594,0,0,0,2.361,3.667H18.91a2.6,2.6,0,0,0,2.361-1.521L27.534,43.71a2.593,2.593,0,0,0-.849-3.181,32.039,32.039,0,0,0,2.821-5.394c.529,1.477.854,1.952,2.821,5.394a2.593,2.593,0,0,0-.849,3.181L37.743,57.5A2.6,2.6,0,0,0,40.1,59.016h5.572a.865.865,0,0,0,0-1.729H40.1a.868.868,0,0,1-.788-.506L33.053,42.994a.863.863,0,0,1,.43-1.144l8.884-4.038a.866.866,0,0,1,1.145.429l8.1,17.824a.862.862,0,0,1-.787,1.221H49.711a.865.865,0,1,0,0,1.729h1.114a2.593,2.593,0,0,0,2.361-3.666l-8.1-17.824a2.6,2.6,0,0,0-3.376-1.313l-.2-.376a4.351,4.351,0,0,1-.466-2.707l.874-5.678a31.166,31.166,0,0,0,4.227,3.21,2.6,2.6,0,0,0,.4,3.56l8.216,6.853a2.594,2.594,0,0,0,4.255-1.992V26.376a2.587,2.587,0,0,0-.932-1.992ZM11.363,32.9,3.147,39.748a.865.865,0,0,1-1.418-.664V26.376a.862.862,0,0,1,.311-.664L4,24.074a.864.864,0,0,1,1.218.11l6.251,7.494a.867.867,0,0,1-.11,1.218Zm14.6,10.1L19.7,56.78a.866.866,0,0,1-.787.507H8.189A.864.864,0,0,1,7.4,56.064l8.1-17.823a.866.866,0,0,1,1.145-.43l8.885,4.039A.863.863,0,0,1,25.96,42.994Zm.973-6.385-1.8,3.158-6.247-2.839.147-.273a6.09,6.09,0,0,0,.652-3.788l-1.059-7.155a14.7,14.7,0,0,0,1.539-2.568l3.517-7.534A3.635,3.635,0,0,0,22.322,11L23,9.741a1.994,1.994,0,0,1,2.857,1.767l-.415,6.963a3.658,3.658,0,0,0-2.309,2.938l-.745,5.964a.865.865,0,1,0,1.716.214l.745-5.964a1.9,1.9,0,0,1,3.789.236v8.316a12.991,12.991,0,0,1-1.709,6.435Zm13.486-14.2-.7-1.5a.865.865,0,1,0-1.567.731,19.792,19.792,0,0,0,2.237,4.066l-1.059,7.155a6.091,6.091,0,0,0,.652,3.789l.147.272-6.247,2.839-1.8-3.158a12.991,12.991,0,0,1-1.709-6.435V21.859a1.9,1.9,0,0,1,2.223-1.874h0a1.913,1.913,0,0,1,1.565,1.639l.745,5.964a.865.865,0,1,0,1.716-.214l-.745-5.964a3.658,3.658,0,0,0-2.309-2.938l-.415-6.963A2,2,0,0,1,35.966,9.72l.041.016L36.692,11a3.635,3.635,0,0,0-1.356,4.611l1.11,2.378a.865.865,0,1,0,1.567-.731L36.9,14.879a1.9,1.9,0,0,1,3.333-1.817l3.2,5.089a.865.865,0,0,0,1.464-.92l-3.2-5.089a3.658,3.658,0,0,0-3.335-1.686L34.9,4.076a1.588,1.588,0,0,1,2.528-1.87l7.313,7.45a13.032,13.032,0,0,1,3.194,5.449l1.739,5.956a6.092,6.092,0,0,0,1.975,2.986l-4.4,5.28L44.69,27.52a13,13,0,0,1-4.271-5.107ZM57.285,39.084a.865.865,0,0,1-1.418.664L47.651,32.9a.867.867,0,0,1-.11-1.218l6.252-7.494a.864.864,0,0,1,1.218-.11l1.964,1.638a.862.862,0,0,1,.311.664V39.084Z"/>
    </g>
  </g>
</svg>
