<svg xmlns="http://www.w3.org/2000/svg" xmlns:xlink="http://www.w3.org/1999/xlink" width="93.934" height="93.934" viewBox="0 0 93.934 93.934">
  <defs>
    <filter id="Trazado_982547" x="0" y="0" width="93.934" height="93.934" filterUnits="userSpaceOnUse">
      <feOffset dy="3" input="SourceAlpha"/>
      <feGaussianBlur stdDeviation="3" result="blur"/>
      <feFlood flood-opacity="0.161"/>
      <feComposite operator="in" in2="blur"/>
      <feComposite in="SourceGraphic"/>
    </filter>
  </defs>
  <g id="Grupo_1185813" data-name="Grupo 1185813" transform="translate(-819.461 -2701)">
    <g id="Grupo_1183850" data-name="Grupo 1183850" transform="translate(630.461 1806)">
      <g id="Grupo_1179712" data-name="Grupo 1179712" transform="translate(-630.033 111)">
        <g id="Grupo_1173783" data-name="Grupo 1173783" transform="translate(828.033 790)">
          <g id="Grupo_1167337" data-name="Grupo 1167337">
            <g id="Grupo_1166720" data-name="Grupo 1166720">
              <g id="Grupo_1164305" data-name="Grupo 1164305">
                <g id="Grupo_1163948" data-name="Grupo 1163948">
                  <g id="Grupo_1158168" data-name="Grupo 1158168">
                    <g id="Grupo_1152576" data-name="Grupo 1152576">
                      <g id="Grupo_1148633" data-name="Grupo 1148633">
                        <g id="Grupo_1148525" data-name="Grupo 1148525">
                          <g transform="matrix(1, 0, 0, 1, -9, -6)" filter="url(#Trazado_982547)">
                            <g id="Trazado_982547-2" data-name="Trazado 982547" transform="translate(9 6)" fill="#e9f9fd">
                              <path d="M 37.966796875 74.43359375 C 33.04315185546875 74.43359375 28.26757431030273 73.46962738037109 23.77274131774902 71.56847381591797 C 19.43047523498535 69.73184967041016 15.53040790557861 67.10224914550781 12.18087482452393 63.75271987915039 C 8.831341743469238 60.4031867980957 6.201741218566895 56.50312042236328 4.365118980407715 52.16086196899414 C 2.463963508605957 47.66601943969727 1.499996900558472 42.89044189453125 1.499996900558472 37.966796875 C 1.499996900558472 33.04315185546875 2.463963508605957 28.26757431030273 4.365118980407715 23.77274131774902 C 6.201741218566895 19.43047523498535 8.831341743469238 15.53040790557861 12.18087482452393 12.18087482452393 C 15.53040790557861 8.831341743469238 19.43047523498535 6.201741218566895 23.77274131774902 4.365118980407715 C 28.26757431030273 2.463963508605957 33.04315185546875 1.499996900558472 37.966796875 1.499996900558472 C 42.89044189453125 1.499996900558472 47.66601943969727 2.463963508605957 52.16086196899414 4.365118980407715 C 56.50312042236328 6.201741218566895 60.4031867980957 8.831341743469238 63.75271987915039 12.18087482452393 C 67.10224914550781 15.53040790557861 69.73184967041016 19.43047523498535 71.56847381591797 23.77274131774902 C 73.46962738037109 28.26757431030273 74.43359375 33.04315185546875 74.43359375 37.966796875 C 74.43359375 42.89044189453125 73.46962738037109 47.66601943969727 71.56847381591797 52.16086196899414 C 69.73184967041016 56.50313186645508 67.10224914550781 60.4031867980957 63.75271987915039 63.75271987915039 C 60.4031867980957 67.10224914550781 56.50313186645508 69.73184967041016 52.16086196899414 71.56847381591797 C 47.66601943969727 73.46962738037109 42.89044189453125 74.43359375 37.966796875 74.43359375 Z" stroke="none"/>
                              <path d="M 37.966796875 3 C 33.2449836730957 3 28.66600799560547 3.924095153808594 24.35705947875977 5.746635437011719 C 20.19359588623047 7.507637023925781 16.45379638671875 10.02928161621094 13.24153518676758 13.24153518676758 C 10.02927398681641 16.45379638671875 7.507621765136719 20.19359588623047 5.746635437011719 24.35705947875977 C 3.924095153808594 28.66600799560547 3 33.2449836730957 3 37.966796875 C 3 42.6886100769043 3.924095153808594 47.26758575439453 5.746635437011719 51.57653427124023 C 7.507621765136719 55.73999786376953 10.02927398681641 59.47979736328125 13.24153518676758 62.69205856323242 C 16.45379638671875 65.90431976318359 20.19359588623047 68.42597198486328 24.35705947875977 70.18695831298828 C 28.66600799560547 72.00949859619141 33.2449836730957 72.93359375 37.966796875 72.93359375 C 42.6886100769043 72.93359375 47.26758575439453 72.00949859619141 51.57653427124023 70.18695831298828 C 55.73999786376953 68.42597198486328 59.47979736328125 65.90431976318359 62.69205856323242 62.69205856323242 C 65.90431976318359 59.47979736328125 68.42597198486328 55.73999786376953 70.18695831298828 51.57653427124023 C 72.00949859619141 47.26758575439453 72.93359375 42.6886100769043 72.93359375 37.966796875 C 72.93359375 33.2449836730957 72.00949859619141 28.66600799560547 70.18695831298828 24.35705947875977 C 68.42597198486328 20.19359588623047 65.90431976318359 16.45379638671875 62.69205856323242 13.24153518676758 C 59.47979736328125 10.02928161621094 55.73999786376953 7.507637023925781 51.57653427124023 5.746635437011719 C 47.26758575439453 3.924095153808594 42.6886100769043 3 37.966796875 3 M 37.966796875 0 C 58.93528366088867 0 75.93359375 16.99832153320312 75.93359375 37.966796875 C 75.93359375 58.93528366088867 58.93528366088867 75.93359375 37.966796875 75.93359375 C 16.99831008911133 75.93359375 0 58.93528366088867 0 37.966796875 C 0 16.99832153320312 16.99831008911133 0 37.966796875 0 Z" stroke="none" fill="#1d7083"/>
                            </g>
                          </g>
                        </g>
                      </g>
                    </g>
                  </g>
                </g>
              </g>
            </g>
          </g>
        </g>
      </g>
    </g>
    <g id="recursos-humanos" transform="translate(831.501 2719)">
      <g id="Grupo_1185788" data-name="Grupo 1185788" transform="translate(17.452 41.437)">
        <circle id="Elipse_13379" data-name="Elipse 13379" cx="3.532" cy="3.532" r="3.532" transform="translate(0)" fill="#f3c5d2"/>
      </g>
      <g id="Grupo_1185789" data-name="Grupo 1185789" transform="translate(18.821 38.332)">
        <circle id="Elipse_13380" data-name="Elipse 13380" cx="2.163" cy="2.163" r="2.163" fill="#f8c091"/>
      </g>
      <g id="Grupo_1185791" data-name="Grupo 1185791" transform="translate(10.982 31.474)">
        <g id="Grupo_1185790" data-name="Grupo 1185790" transform="translate(0)">
          <path id="Trazado_1042567" data-name="Trazado 1042567" d="M37.365,324.87l1.109.7a9.687,9.687,0,0,0,1.569-5.292H38.731a8.4,8.4,0,0,0-.2-1.818l1.284-.274a9.76,9.76,0,0,0-2.681-4.842l-.934.913a8.729,8.729,0,0,0-2.463-1.712l.561-1.171a10.056,10.056,0,0,0-4.257-.933,10.306,10.306,0,0,0-1.279.08l.166,1.281a8.722,8.722,0,0,0-2.878.887l-.605-1.149a9.944,9.944,0,0,0-4.056,3.8l1.138.651a8.4,8.4,0,0,0-1.04,2.785l-1.293-.225a9.76,9.76,0,0,0-.154,1.727,9.642,9.642,0,0,0,.754,3.752l1.216-.494a8.548,8.548,0,0,0,1.619,2.5l-.972.874a10.01,10.01,0,0,0,4.787,2.868l.341-1.248a8.806,8.806,0,0,0,2.257.293c.252,0,.5-.011.747-.032l.111,1.287a10.052,10.052,0,0,0,5.227-1.994l-.8-1.027A8.673,8.673,0,0,0,37.365,324.87Zm-12.9-4.595a5.574,5.574,0,1,1,5.573,5.481A5.534,5.534,0,0,1,24.469,320.275Z" transform="translate(-20.04 -310.439)" fill="#ed6c8e"/>
        </g>
      </g>
      <g id="Grupo_1185793" data-name="Grupo 1185793" transform="translate(20.401 31.474)">
        <g id="Grupo_1185792" data-name="Grupo 1185792">
          <path id="Trazado_1042568" data-name="Trazado 1042568" d="M122.217,320.274a8.409,8.409,0,0,0-.2-1.818l1.284-.274a9.76,9.76,0,0,0-2.681-4.842l-.934.913a8.729,8.729,0,0,0-2.463-1.712l.561-1.171a10.055,10.055,0,0,0-4.257-.934c-.194,0-.389.006-.583.017a10.424,10.424,0,0,1,1.416,19.33l.025.291a10.053,10.053,0,0,0,5.227-1.994l-.8-1.027a8.671,8.671,0,0,0,2.04-2.185l1.109.7a9.688,9.688,0,0,0,1.569-5.292h-1.313Z" transform="translate(-112.946 -310.438)" fill="#de556f"/>
        </g>
      </g>
      <g id="Grupo_1185794" data-name="Grupo 1185794" transform="translate(40.425 30.284)">
        <circle id="Elipse_13381" data-name="Elipse 13381" cx="4.265" cy="4.265" r="4.265" transform="translate(0)" fill="#e9ac3f"/>
      </g>
      <g id="Grupo_1185795" data-name="Grupo 1185795" transform="translate(42.079 26.535)">
        <circle id="Elipse_13382" data-name="Elipse 13382" cx="2.612" cy="2.612" r="2.612" fill="#f8c091"/>
      </g>
      <g id="Grupo_1185797" data-name="Grupo 1185797" transform="translate(30.8 15.089)">
        <g id="Grupo_1185796" data-name="Grupo 1185796">
          <path id="Trazado_1042569" data-name="Trazado 1042569" d="M243.761,162.956h-1.854a12.275,12.275,0,0,0-.281-2.611l1.814-.393A14.083,14.083,0,0,0,239.655,153l-1.319,1.311a12.328,12.328,0,0,0-3.479-2.458l.792-1.681a14.006,14.006,0,0,0-6.013-1.341,14.279,14.279,0,0,0-1.806.115l.235,1.839A12.174,12.174,0,0,0,224,152.057l-.855-1.65a14.142,14.142,0,0,0-5.729,5.459l1.607.934a12.188,12.188,0,0,0-1.469,4l-1.826-.324a14.246,14.246,0,0,0-.217,2.48,14.045,14.045,0,0,0,1.065,5.389l1.717-.709a12.3,12.3,0,0,0,2.287,3.592l-1.373,1.255a14.1,14.1,0,0,0,6.761,4.118l.481-1.793a12.245,12.245,0,0,0,3.188.421c.356,0,.707-.016,1.055-.046l.157,1.848a14.062,14.062,0,0,0,7.382-2.863l-1.133-1.476a12.374,12.374,0,0,0,2.881-3.137l1.566,1A14.083,14.083,0,0,0,243.761,162.956Zm-21.854,0a7.728,7.728,0,1,1,7.728,7.728A7.737,7.737,0,0,1,221.907,162.956Z" transform="translate(-215.509 -148.83)" fill="#f7c848"/>
        </g>
      </g>
      <g id="Grupo_1185802" data-name="Grupo 1185802" transform="translate(40.314 15.089)">
        <g id="Grupo_1185799" data-name="Grupo 1185799" transform="translate(0 27.482)">
          <g id="Grupo_1185798" data-name="Grupo 1185798">
            <path id="Trazado_1042570" data-name="Trazado 1042570" d="M309.35,419.888q.465.16.942.289l.057-.213Q309.845,419.945,309.35,419.888Z" transform="translate(-309.35 -419.888)" fill="#e9ac3f"/>
          </g>
        </g>
        <g id="Grupo_1185801" data-name="Grupo 1185801" transform="translate(2.805)">
          <g id="Grupo_1185800" data-name="Grupo 1185800">
            <path id="Trazado_1042571" data-name="Trazado 1042571" d="M351.1,162.956a12.275,12.275,0,0,0-.281-2.611l1.814-.393A14.083,14.083,0,0,0,348.847,153l-1.319,1.311a12.328,12.328,0,0,0-3.479-2.458l.792-1.681a14.006,14.006,0,0,0-6.013-1.341,14.28,14.28,0,0,0-1.806.115l.14,1.1a13.22,13.22,0,0,1,2.767,25.676l.112,1.314a14.062,14.062,0,0,0,7.382-2.863l-1.133-1.476a12.372,12.372,0,0,0,2.881-3.137l1.566,1a14.083,14.083,0,0,0,2.217-7.6Z" transform="translate(-337.021 -148.83)" fill="#e9ac3f"/>
          </g>
        </g>
      </g>
      <g id="Grupo_1185803" data-name="Grupo 1185803" transform="translate(18.303 12.437)">
        <circle id="Elipse_13383" data-name="Elipse 13383" cx="4.14" cy="4.14" r="4.14" fill="#ccd8d3"/>
      </g>
      <g id="Grupo_1185805" data-name="Grupo 1185805" transform="translate(10.72 0.76)">
        <g id="Grupo_1185804" data-name="Grupo 1185804" transform="translate(0)">
          <path id="Trazado_1042572" data-name="Trazado 1042572" d="M37.767,24.415l1.3.817a11.355,11.355,0,0,0,1.84-6.2H39.368a9.852,9.852,0,0,0-.233-2.131l1.505-.321A11.44,11.44,0,0,0,37.5,10.9L36.4,11.972a10.235,10.235,0,0,0-2.887-2.006l.657-1.372A11.788,11.788,0,0,0,29.184,7.5a12.054,12.054,0,0,0-1.5.094l.2,1.5a10.226,10.226,0,0,0-3.374,1.039L23.8,8.787a11.656,11.656,0,0,0-4.754,4.456l1.334.762a9.844,9.844,0,0,0-1.219,3.264l-1.516-.264a11.444,11.444,0,0,0-.18,2.024,11.3,11.3,0,0,0,.883,4.4l1.425-.579a10.021,10.021,0,0,0,1.9,2.932L20.528,26.8a11.732,11.732,0,0,0,5.611,3.361l.4-1.463a10.323,10.323,0,0,0,2.646.343c.3,0,.587-.013.876-.037l.131,1.509a11.784,11.784,0,0,0,6.126-2.337l-.94-1.2A10.162,10.162,0,0,0,37.767,24.415ZM22.652,19.029a6.533,6.533,0,1,1,6.532,6.424A6.486,6.486,0,0,1,22.652,19.029Z" transform="translate(-17.461 -7.5)" fill="#76c6b6"/>
        </g>
      </g>
      <g id="Grupo_1185810" data-name="Grupo 1185810" transform="translate(15.676 0.76)">
        <g id="Grupo_1185807" data-name="Grupo 1185807" transform="translate(0 1.287)">
          <g id="Grupo_1185806" data-name="Grupo 1185806">
            <path id="Trazado_1042573" data-name="Trazado 1042573" d="M67.946,20.628l-.227-.432a11.811,11.811,0,0,0-1.38.827A10.652,10.652,0,0,1,67.946,20.628Z" transform="translate(-66.339 -20.197)" fill="#24ae98"/>
          </g>
        </g>
        <g id="Grupo_1185809" data-name="Grupo 1185809" transform="translate(4.9)">
          <g id="Grupo_1185808" data-name="Grupo 1185808">
            <path id="Trazado_1042574" data-name="Trazado 1042574" d="M126.721,19.029a9.852,9.852,0,0,0-.233-2.131l1.505-.321a11.44,11.44,0,0,0-3.142-5.675l-1.095,1.07a10.235,10.235,0,0,0-2.887-2.006l.657-1.372a11.787,11.787,0,0,0-4.99-1.094,12.054,12.054,0,0,0-1.5.094l.2,1.5c-.19.024-.377.055-.563.089,5.2.744,10,4.808,10,10.211,0,4.383-3.441,8.557-7.208,10.221l.078.9a11.784,11.784,0,0,0,6.126-2.337l-.94-1.2a10.163,10.163,0,0,0,2.391-2.561l1.3.817a11.355,11.355,0,0,0,1.84-6.2h-1.538Z" transform="translate(-114.669 -7.5)" fill="#24ae98"/>
          </g>
        </g>
      </g>
      <g id="Grupo_1185811" data-name="Grupo 1185811" transform="translate(19.908 8.798)">
        <circle id="Elipse_13384" data-name="Elipse 13384" cx="2.535" cy="2.535" r="2.535" fill="#f8c091"/>
      </g>
      <g id="Grupo_1185812" data-name="Grupo 1185812" transform="translate(9.96 0)">
        <path id="Trazado_1042575" data-name="Trazado 1042575" d="M11.89,17.392l.754-.306a10.725,10.725,0,0,0,1.22,1.888l-.585.525a.76.76,0,0,0-.049,1.083A12.491,12.491,0,0,0,19.2,24.161a.76.76,0,0,0,.928-.535l.207-.76a11.118,11.118,0,0,0,2.1.2l.182,0,.067.778a.76.76,0,0,0,.757.695l.064,0a12.543,12.543,0,0,0,6.521-2.488.76.76,0,0,0,.141-1.075l-.481-.617a10.862,10.862,0,0,0,1.54-1.652l.688.433a.76.76,0,0,0,1.042-.229,12.113,12.113,0,0,0,1.963-6.617.76.76,0,0,0-.76-.76h-.805q-.028-.392-.085-.781l.783-.167a.76.76,0,0,0,.584-.907,12.2,12.2,0,0,0-3.35-6.052.76.76,0,0,0-1.066,0l-.578.565a10.938,10.938,0,0,0-1.866-1.3l.336-.7a.761.761,0,0,0-.366-1.018A12.541,12.541,0,0,0,22.443,0a12.814,12.814,0,0,0-1.594.1.76.76,0,0,0-.659.852l.1.771A10.942,10.942,0,0,0,18.1,2.4l-.372-.705a.76.76,0,0,0-1.018-.323,12.414,12.414,0,0,0-5.063,4.746.76.76,0,0,0,.277,1.047l.687.393a10.555,10.555,0,0,0-.783,2.1l-.8-.139a.76.76,0,0,0-.879.614A12.206,12.206,0,0,0,9.96,12.29a12.057,12.057,0,0,0,.943,4.692A.76.76,0,0,0,11.89,17.392Zm-.348-6.243.744.13a.761.761,0,0,0,.879-.614A9.064,9.064,0,0,1,14.29,7.653a.76.76,0,0,0-.277-1.048l-.64-.366a10.891,10.891,0,0,1,3.372-3.152l.348.661a.76.76,0,0,0,1.019.323,9.449,9.449,0,0,1,3.123-.962.76.76,0,0,0,.659-.852L21.8,1.539q.321-.018.643-.018a11.045,11.045,0,0,1,3.96.724L26.09,2.9a.761.761,0,0,0,.366,1.018,9.439,9.439,0,0,1,2.673,1.857.76.76,0,0,0,1.066,0l.542-.53a10.669,10.669,0,0,1,2.229,4.012l-.729.155a.761.761,0,0,0-.584.908,9.124,9.124,0,0,1,.215,1.967.761.761,0,0,0,.76.76h.751a10.586,10.586,0,0,1-1.3,4.386l-.644-.4a.761.761,0,0,0-1.042.229,9.37,9.37,0,0,1-2.212,2.369.76.76,0,0,0-.141,1.075l.448.574a11.017,11.017,0,0,1-4.345,1.653l-.063-.727a.76.76,0,0,0-.757-.695l-.065,0c-.274.023-.547.035-.812.035a9.579,9.579,0,0,1-2.451-.318.76.76,0,0,0-.928.535l-.194.711A10.967,10.967,0,0,1,14.891,20.1l.544-.489a.76.76,0,0,0,.049-1.083,9.232,9.232,0,0,1-1.754-2.71.76.76,0,0,0-.987-.41l-.7.286a10.557,10.557,0,0,1-.558-3.4A10.735,10.735,0,0,1,11.542,11.149Z" transform="translate(-9.96 0)"/>
        <path id="Trazado_1042576" data-name="Trazado 1042576" d="M68.449,64.724A7.185,7.185,0,1,0,65.195,51.11a.76.76,0,1,0,.672,1.364,5.788,5.788,0,0,1,2.581-.6,5.725,5.725,0,0,1,5.772,5.664,5.558,5.558,0,0,1-1,3.179,4.91,4.91,0,0,0-1.777-2.766,3.3,3.3,0,1,0-5.993,0,4.909,4.909,0,0,0-1.778,2.766,5.566,5.566,0,0,1,.21-6.643.76.76,0,0,0-1.193-.943,7.043,7.043,0,0,0-1.536,4.406A7.248,7.248,0,0,0,68.449,64.724Zm0-9.916a1.775,1.775,0,1,1-1.775,1.775A1.777,1.777,0,0,1,68.449,54.807Zm-2.061,4.344a3.286,3.286,0,0,0,4.121,0,3.372,3.372,0,0,1,1.32,2.674c0,.1-.005.208-.015.31a5.842,5.842,0,0,1-6.73,0c-.01-.1-.015-.205-.015-.31A3.373,3.373,0,0,1,66.388,59.152Z" transform="translate(-55.965 -45.249)"/>
        <path id="Trazado_1042577" data-name="Trazado 1042577" d="M62.555,345.9a6.394,6.394,0,0,0-2,.318.76.76,0,1,0,.474,1.445,4.878,4.878,0,0,1,1.523-.242,4.773,4.773,0,0,1,4.813,4.721,4.625,4.625,0,0,1-.7,2.444,4.3,4.3,0,0,0-1.423-2.122,2.923,2.923,0,1,0-5.386,0,4.3,4.3,0,0,0-1.423,2.122,4.638,4.638,0,0,1,.343-5.368.76.76,0,0,0-1.183-.956,6.2,6.2,0,0,0-1.376,3.881,6.334,6.334,0,1,0,6.333-6.242Zm0,4.023a1.4,1.4,0,1,1-1.4,1.4A1.4,1.4,0,0,1,62.555,349.92ZM59.792,356c0-.067-.008-.135-.008-.2a2.765,2.765,0,0,1,1.015-2.139,2.917,2.917,0,0,0,3.515,0,2.765,2.765,0,0,1,1.014,2.14c0,.069,0,.136-.009.2a4.873,4.873,0,0,1-5.526,0Z" transform="translate(-51.532 -310.828)"/>
        <path id="Trazado_1042578" data-name="Trazado 1042578" d="M33.3,312.773h-.584q-.019-.234-.051-.467l.566-.121a.76.76,0,0,0,.584-.907,10.519,10.519,0,0,0-2.888-5.219.76.76,0,0,0-1.066,0l-.42.411a9.443,9.443,0,0,0-1.441-1l.242-.5a.76.76,0,0,0-.366-1.018,10.81,10.81,0,0,0-4.577-1,11.057,11.057,0,0,0-1.374.086.76.76,0,0,0-.659.852l.072.554a9.443,9.443,0,0,0-1.693.523l-.269-.511a.76.76,0,0,0-1.018-.323A10.7,10.7,0,0,0,14,308.209a.761.761,0,0,0,.277,1.047l.5.283a9.109,9.109,0,0,0-.6,1.619l-.58-.1a.761.761,0,0,0-.879.614,10.523,10.523,0,0,0-.166,1.862,10.4,10.4,0,0,0,.813,4.046.761.761,0,0,0,.987.41l.548-.223a9.253,9.253,0,0,0,.941,1.456l-.42.378a.761.761,0,0,0-.049,1.083,10.77,10.77,0,0,0,5.15,3.085.76.76,0,0,0,.928-.535l.15-.549a9.6,9.6,0,0,0,1.767.154l.049.56a.76.76,0,0,0,.757.695l.064,0a10.813,10.813,0,0,0,5.621-2.145.76.76,0,0,0,.141-1.075l-.346-.443a9.378,9.378,0,0,0,1.188-1.275l.5.315a.76.76,0,0,0,1.042-.229,10.447,10.447,0,0,0,1.692-5.707A.761.761,0,0,0,33.3,312.773Zm-1.825,4.993-.448-.282a.76.76,0,0,0-1.042.229,7.881,7.881,0,0,1-1.861,1.993.76.76,0,0,0-.141,1.074l.307.393a9.287,9.287,0,0,1-3.442,1.309l-.043-.5a.76.76,0,0,0-.757-.695l-.065,0c-.231.019-.461.029-.683.029a8.061,8.061,0,0,1-2.063-.268.76.76,0,0,0-.928.535l-.134.492a9.245,9.245,0,0,1-3.153-1.883l.373-.335a.76.76,0,0,0,.049-1.083,7.763,7.763,0,0,1-1.475-2.279.761.761,0,0,0-.987-.41l-.49.2a8.894,8.894,0,0,1-.433-2.753c0-.281.013-.563.039-.842l.517.09a.761.761,0,0,0,.879-.614,7.623,7.623,0,0,1,.946-2.533.76.76,0,0,0-.277-1.047l-.44-.251a9.179,9.179,0,0,1,2.672-2.5l.242.459a.76.76,0,0,0,1.019.323,7.95,7.95,0,0,1,2.628-.809.76.76,0,0,0,.659-.852l-.064-.493q.211-.009.423-.009a9.32,9.32,0,0,1,3.225.568l-.214.448a.761.761,0,0,0,.366,1.018,7.943,7.943,0,0,1,2.249,1.562.76.76,0,0,0,1.066,0l.378-.369a8.991,8.991,0,0,1,1.766,3.177l-.5.107a.761.761,0,0,0-.584.908,7.668,7.668,0,0,1,.181,1.654.76.76,0,0,0,.76.76h.52A8.917,8.917,0,0,1,31.48,317.766Z" transform="translate(-12.279 -272.222)"/>
        <path id="Trazado_1042579" data-name="Trazado 1042579" d="M237.019,155.457H235.9c-.025-.423-.07-.846-.136-1.264l1.092-.237a.76.76,0,0,0,.582-.9,14.841,14.841,0,0,0-3.99-7.328.76.76,0,0,0-1.075,0l-.8.79a13.024,13.024,0,0,0-2.465-1.741l.477-1.014a.76.76,0,0,0-.364-1.012,14.759,14.759,0,0,0-6.337-1.413,15.071,15.071,0,0,0-1.9.121.76.76,0,0,0-.658.851l.142,1.108a12.887,12.887,0,0,0-2.882.9l-.515-.994a.761.761,0,0,0-1.025-.325,14.9,14.9,0,0,0-6.036,5.752.76.76,0,0,0,.275,1.04l.968.563a12.9,12.9,0,0,0-1.042,2.836l-1.1-.195a.76.76,0,0,0-.881.616,15.005,15.005,0,0,0-.229,2.612,14.8,14.8,0,0,0,1.122,5.679.76.76,0,0,0,.993.413l1.035-.428a13,13,0,0,0,1.62,2.545l-.828.756a.76.76,0,0,0-.048,1.074,14.855,14.855,0,0,0,7.125,4.339.76.76,0,0,0,.932-.537l.29-1.08a13.044,13.044,0,0,0,2.645.271q.179,0,.36-.005l.095,1.112a.76.76,0,0,0,.758.7l.065,0a14.82,14.82,0,0,0,7.78-3.018.761.761,0,0,0,.14-1.066l-.683-.89a13.065,13.065,0,0,0,2.041-2.222l.944.6a.76.76,0,0,0,1.05-.231,14.842,14.842,0,0,0,2.337-8.009A.76.76,0,0,0,237.019,155.457Zm-2.466,7.3-.907-.58a.76.76,0,0,0-1.05.231,11.569,11.569,0,0,1-2.7,2.944.76.76,0,0,0-.14,1.066l.657.855a13.292,13.292,0,0,1-5.611,2.177l-.091-1.069a.76.76,0,0,0-.758-.7l-.065,0c-.334.029-.667.043-.991.043a11.5,11.5,0,0,1-2.991-.395.76.76,0,0,0-.932.537l-.278,1.038a13.329,13.329,0,0,1-5.139-3.131l.8-.727a.76.76,0,0,0,.048-1.074,11.5,11.5,0,0,1-2.146-3.37.76.76,0,0,0-.993-.412l-.994.411a13.3,13.3,0,0,1-.737-4.387,13.52,13.52,0,0,1,.094-1.594l1.056.187a.76.76,0,0,0,.881-.616,11.4,11.4,0,0,1,1.378-3.75.76.76,0,0,0-.275-1.04l-.931-.541a13.374,13.374,0,0,1,4.355-4.151l.5.956a.76.76,0,0,0,1.026.325,11.392,11.392,0,0,1,3.812-1.194.76.76,0,0,0,.657-.851l-.136-1.064c.317-.022.636-.034.953-.034a13.253,13.253,0,0,1,4.992.963l-.459.974a.76.76,0,0,0,.363,1.012,11.529,11.529,0,0,1,3.264,2.306.76.76,0,0,0,1.075,0l.765-.76a13.316,13.316,0,0,1,2.879,5.285l-1.049.228a.761.761,0,0,0-.582.9,11.542,11.542,0,0,1,.263,2.45.76.76,0,0,0,.76.76h1.072A13.317,13.317,0,0,1,234.553,162.755Z" transform="translate(-187.927 -127.002)"/>
        <path id="Trazado_1042580" data-name="Trazado 1042580" d="M285.321,206.655a.76.76,0,1,0-1.026,1.123,6.954,6.954,0,0,1,.087,10.205,5.021,5.021,0,0,0-1.959-3.712,3.372,3.372,0,1,0-6.116,0,5.024,5.024,0,0,0-1.917,3.269,6.966,6.966,0,0,1,7.352-11.251.76.76,0,0,0,.469-1.447,8.509,8.509,0,1,0,3.11,1.811ZM279.365,211a1.851,1.851,0,1,1-1.851,1.851A1.853,1.853,0,0,1,279.365,211Zm-3.456,7.826a3.489,3.489,0,0,1,1.334-3.357,3.363,3.363,0,0,0,4.245,0,3.5,3.5,0,0,1,1.271,3.659,6.944,6.944,0,0,1-6.85-.3Z" transform="translate(-244.635 -183.706)"/>
      </g>
    </g>
  </g>
</svg>
