<svg xmlns="http://www.w3.org/2000/svg" xmlns:xlink="http://www.w3.org/1999/xlink" width="93.934" height="93.934" viewBox="0 0 93.934 93.934">
  <defs>
    <filter id="Trazado_982547" x="0" y="0" width="93.934" height="93.934" filterUnits="userSpaceOnUse">
      <feOffset dy="3" input="SourceAlpha"/>
      <feGaussianBlur stdDeviation="3" result="blur"/>
      <feFlood flood-opacity="0.161"/>
      <feComposite operator="in" in2="blur"/>
      <feComposite in="SourceGraphic"/>
    </filter>
  </defs>
  <g id="Grupo_1185814" data-name="Grupo 1185814" transform="translate(-189.461 -2875)">
    <g id="Grupo_1183852" data-name="Grupo 1183852" transform="translate(-629.572 1835)">
      <g id="Grupo_1179714" data-name="Grupo 1179714" transform="translate(0 111)">
        <g id="Grupo_1173785" data-name="Grupo 1173785" transform="translate(828.033 935)">
          <g id="Grupo_1167337" data-name="Grupo 1167337">
            <g id="Grupo_1166720" data-name="Grupo 1166720">
              <g id="Grupo_1164305" data-name="Grupo 1164305">
                <g id="Grupo_1163948" data-name="Grupo 1163948">
                  <g id="Grupo_1158168" data-name="Grupo 1158168">
                    <g id="Grupo_1152576" data-name="Grupo 1152576">
                      <g id="Grupo_1148633" data-name="Grupo 1148633">
                        <g id="Grupo_1148525" data-name="Grupo 1148525">
                          <g transform="matrix(1, 0, 0, 1, -9, -6)" filter="url(#Trazado_982547)">
                            <g id="Trazado_982547-2" data-name="Trazado 982547" transform="translate(9 6)" fill="#e9f9fd">
                              <path d="M 37.966796875 74.43359375 C 33.04315185546875 74.43359375 28.26757431030273 73.46962738037109 23.77274131774902 71.56847381591797 C 19.43047523498535 69.73184967041016 15.53040790557861 67.10224914550781 12.18087482452393 63.75271987915039 C 8.831341743469238 60.4031867980957 6.201741218566895 56.50312042236328 4.365118980407715 52.16086196899414 C 2.463963508605957 47.66601943969727 1.499996900558472 42.89044189453125 1.499996900558472 37.966796875 C 1.499996900558472 33.04315185546875 2.463963508605957 28.26757431030273 4.365118980407715 23.77274131774902 C 6.201741218566895 19.43047523498535 8.831341743469238 15.53040790557861 12.18087482452393 12.18087482452393 C 15.53040790557861 8.831341743469238 19.43047523498535 6.201741218566895 23.77274131774902 4.365118980407715 C 28.26757431030273 2.463963508605957 33.04315185546875 1.499996900558472 37.966796875 1.499996900558472 C 42.89044189453125 1.499996900558472 47.66601943969727 2.463963508605957 52.16086196899414 4.365118980407715 C 56.50312042236328 6.201741218566895 60.4031867980957 8.831341743469238 63.75271987915039 12.18087482452393 C 67.10224914550781 15.53040790557861 69.73184967041016 19.43047523498535 71.56847381591797 23.77274131774902 C 73.46962738037109 28.26757431030273 74.43359375 33.04315185546875 74.43359375 37.966796875 C 74.43359375 42.89044189453125 73.46962738037109 47.66601943969727 71.56847381591797 52.16086196899414 C 69.73184967041016 56.50313186645508 67.10224914550781 60.4031867980957 63.75271987915039 63.75271987915039 C 60.4031867980957 67.10224914550781 56.50313186645508 69.73184967041016 52.16086196899414 71.56847381591797 C 47.66601943969727 73.46962738037109 42.89044189453125 74.43359375 37.966796875 74.43359375 Z" stroke="none"/>
                              <path d="M 37.966796875 3 C 33.2449836730957 3 28.66600799560547 3.924095153808594 24.35705947875977 5.746635437011719 C 20.19359588623047 7.507637023925781 16.45379638671875 10.02928161621094 13.24153518676758 13.24153518676758 C 10.02927398681641 16.45379638671875 7.507621765136719 20.19359588623047 5.746635437011719 24.35705947875977 C 3.924095153808594 28.66600799560547 3 33.2449836730957 3 37.966796875 C 3 42.6886100769043 3.924095153808594 47.26758575439453 5.746635437011719 51.57653427124023 C 7.507621765136719 55.73999786376953 10.02927398681641 59.47979736328125 13.24153518676758 62.69205856323242 C 16.45379638671875 65.90431976318359 20.19359588623047 68.42597198486328 24.35705947875977 70.18695831298828 C 28.66600799560547 72.00949859619141 33.2449836730957 72.93359375 37.966796875 72.93359375 C 42.6886100769043 72.93359375 47.26758575439453 72.00949859619141 51.57653427124023 70.18695831298828 C 55.73999786376953 68.42597198486328 59.47979736328125 65.90431976318359 62.69205856323242 62.69205856323242 C 65.90431976318359 59.47979736328125 68.42597198486328 55.73999786376953 70.18695831298828 51.57653427124023 C 72.00949859619141 47.26758575439453 72.93359375 42.6886100769043 72.93359375 37.966796875 C 72.93359375 33.2449836730957 72.00949859619141 28.66600799560547 70.18695831298828 24.35705947875977 C 68.42597198486328 20.19359588623047 65.90431976318359 16.45379638671875 62.69205856323242 13.24153518676758 C 59.47979736328125 10.02928161621094 55.73999786376953 7.507637023925781 51.57653427124023 5.746635437011719 C 47.26758575439453 3.924095153808594 42.6886100769043 3 37.966796875 3 M 37.966796875 0 C 58.93528366088867 0 75.93359375 16.99832153320312 75.93359375 37.966796875 C 75.93359375 58.93528366088867 58.93528366088867 75.93359375 37.966796875 75.93359375 C 16.99831008911133 75.93359375 0 58.93528366088867 0 37.966796875 C 0 16.99832153320312 16.99831008911133 0 37.966796875 0 Z" stroke="none" fill="#1d7083"/>
                            </g>
                          </g>
                        </g>
                      </g>
                    </g>
                  </g>
                </g>
              </g>
            </g>
          </g>
        </g>
      </g>
    </g>
    <g id="chat" transform="translate(213.461 2895)">
      <path id="Trazado_1042581" data-name="Trazado 1042581" d="M268.149,36.137c-6.179,0-11.188,3.266-11.188,9.568a11.19,11.19,0,1,0,22.375,0C279.336,39.4,274.327,36.137,268.149,36.137Zm0,0" transform="translate(-233.307 -32.811)" fill="#fbc4ac"/>
      <path id="Trazado_1042582" data-name="Trazado 1042582" d="M259.174,27.545a11.327,11.327,0,0,1,10.083-11.353q-.545-.054-1.1-.055a11.411,11.411,0,0,0,0,22.818q.559,0,1.1-.055a11.327,11.327,0,0,1-10.083-11.353Zm0,0" transform="translate(-233.31 -14.651)" fill="#e3b098"/>
      <path id="Trazado_1042583" data-name="Trazado 1042583" d="M429.468,170.955h-1.579a.69.69,0,0,1,0-1.381h1.579a.69.69,0,0,1,0,1.381Zm0,0" transform="translate(-387.874 -153.965)" fill="#f98084"/>
      <path id="Trazado_1042584" data-name="Trazado 1042584" d="M299.9,170.955h-1.58a.69.69,0,0,1,0-1.381h1.58a.69.69,0,1,1,0,1.381Zm0,0" transform="translate(-270.235 -153.965)" fill="#f98084"/>
      <path id="Trazado_1042585" data-name="Trazado 1042585" d="M278.8,16.213c-.768-9.353-4.54-7.913-10.652-7.913a27.759,27.759,0,0,1-7.785-.757.81.81,0,0,0-.965.4,26.209,26.209,0,0,0-2.438,11.761s2.676-4.818,11.188-4.818c3.96,0,3.629,1.323,10.652,1.323Zm0,0" transform="translate(-233.307 -6.815)" fill="#c86d5c"/>
      <path id="Trazado_1042586" data-name="Trazado 1042586" d="M261.608,7.947a.813.813,0,0,1,.059-.1,11.172,11.172,0,0,1-1.3-.308.81.81,0,0,0-.965.4,26.209,26.209,0,0,0-2.438,11.761,8.107,8.107,0,0,1,2.289-2.329,24.817,24.817,0,0,1,2.358-9.432Zm0,0" transform="translate(-233.307 -6.814)" fill="#ad4f3d"/>
      <path id="Trazado_1042587" data-name="Trazado 1042587" d="M7.59,375.762v7.354a3.6,3.6,0,0,0,3.2,3.574l5.286.588Zm0,0" transform="translate(-6.891 -341.172)" fill="#3a484a"/>
      <path id="Trazado_1042588" data-name="Trazado 1042588" d="M166.783,375.762v7.354a3.6,3.6,0,0,1-3.2,3.574l-5.287.588Zm0,0" transform="translate(-143.725 -341.172)" fill="#3a484a"/>
      <path id="Trazado_1042589" data-name="Trazado 1042589" d="M29.867,290.567h0L18.439,281.93,7.51,290.568h0c-.005.147-.008.294-.008.442a11.3,11.3,0,0,0,11.187,11.409,11.3,11.3,0,0,0,11.187-11.409c0-.148,0-.295-.008-.442Zm0,0" transform="translate(-6.81 -255.978)" fill="#fbc4ac"/>
      <path id="Trazado_1042590" data-name="Trazado 1042590" d="M9.359,371.813a11.629,11.629,0,0,1-1.85.365h0c-.005.147-.008.293-.008.441a11.3,11.3,0,0,0,11.187,11.409c.319,0,.635-.014.947-.041-5.556-.508-9.968-5.707-10.276-12.173Zm0,0" transform="translate(-6.809 -337.587)" fill="#e3b098"/>
      <path id="Trazado_1042591" data-name="Trazado 1042591" d="M50.441,411.44H48.862a.69.69,0,0,1,0-1.381h1.579a.69.69,0,0,1,0,1.381Zm0,0" transform="translate(-43.737 -372.312)" fill="#f98084"/>
      <path id="Trazado_1042592" data-name="Trazado 1042592" d="M180.008,411.44h-1.579a.69.69,0,1,1,0-1.381h1.579a.69.69,0,1,1,0,1.381Zm0,0" transform="translate(-161.377 -372.312)" fill="#f98084"/>
      <path id="Trazado_1042593" data-name="Trazado 1042593" d="M7.59,267.592h0c6-.664,11.178-6.463,11.178-6.463s5.174,5.8,11.178,6.463h0a11.289,11.289,0,0,0-11.179-10.967A11.289,11.289,0,0,0,7.59,267.592Zm0,0" transform="translate(-6.891 -233.002)" fill="#3a484a"/>
      <path id="Trazado_1042594" data-name="Trazado 1042594" d="M19.736,256.668c-.319-.028-.641-.043-.967-.043A11.289,11.289,0,0,0,7.59,267.592h0a10.439,10.439,0,0,0,1.85-.365,11.431,11.431,0,0,1,10.295-10.561Zm0,0" transform="translate(-6.891 -233.002)" fill="#323e40"/>
      <path id="Trazado_1042595" data-name="Trazado 1042595" d="M25.616,64.427v-6.9a4.461,4.461,0,0,0-4.461-4.461H11.961A4.461,4.461,0,0,0,7.5,57.531v6.3a4.461,4.461,0,0,0,4.461,4.461H27.753Zm0,0" transform="translate(-6.81 -48.185)" fill="#58b78c"/>
      <path id="Trazado_1042596" data-name="Trazado 1042596" d="M282.156,309.232v-6.9a4.46,4.46,0,0,1,4.461-4.461h9.194a4.461,4.461,0,0,1,4.461,4.461v6.3a4.46,4.46,0,0,1-4.461,4.461H280.019Zm0,0" transform="translate(-254.242 -270.455)" fill="#f2c42c"/>
      <path id="Trazado_1042597" data-name="Trazado 1042597" d="M436.467,141.009a.69.69,0,0,0,.69-.69V139.16a.69.69,0,1,0-1.381,0v1.159A.69.69,0,0,0,436.467,141.009Zm0,0" transform="translate(-395.662 -125.723)"/>
      <path id="Trazado_1042598" data-name="Trazado 1042598" d="M306.9,141.009a.69.69,0,0,0,.69-.69V139.16a.69.69,0,1,0-1.381,0v1.159A.69.69,0,0,0,306.9,141.009Zm0,0" transform="translate(-278.02 -125.723)"/>
      <path id="Trazado_1042599" data-name="Trazado 1042599" d="M362.685,163.912a.69.69,0,0,0-.974.065.752.752,0,0,1-1.093,0,.691.691,0,0,0-1.04.909,2.132,2.132,0,0,0,3.173,0,.69.69,0,0,0-.065-.974Zm0,0" transform="translate(-326.322 -148.669)"/>
      <path id="Trazado_1042600" data-name="Trazado 1042600" d="M57.44,381.49a.691.691,0,0,0,.69-.69v-1.16a.69.69,0,1,0-1.381,0v1.16A.69.69,0,0,0,57.44,381.49Zm0,0" transform="translate(-51.526 -344.066)"/>
      <path id="Trazado_1042601" data-name="Trazado 1042601" d="M187.006,381.49a.691.691,0,0,0,.69-.69v-1.16a.69.69,0,1,0-1.381,0v1.16A.691.691,0,0,0,187.006,381.49Zm0,0" transform="translate(-169.165 -344.066)"/>
      <path id="Trazado_1042602" data-name="Trazado 1042602" d="M111.156,404.46a.69.69,0,0,0-1.04.909,2.131,2.131,0,0,0,3.173,0,.69.69,0,0,0-1.04-.909.752.752,0,0,1-1.093,0Zm0,0" transform="translate(-99.825 -367.014)"/>
      <path id="Trazado_1042603" data-name="Trazado 1042603" d="M5.151,62.178H20.943a.7.7,0,0,0,.6-1.024l-2.05-3.71V50.725a5.157,5.157,0,0,0-5.151-5.151H5.151A5.157,5.157,0,0,0,0,50.725v6.3a5.157,5.157,0,0,0,5.151,5.151ZM1.381,50.725a3.774,3.774,0,0,1,3.77-3.77h9.194a3.774,3.774,0,0,1,3.77,3.77v6.9a.687.687,0,0,0,.086.334l1.57,2.842H5.151a3.775,3.775,0,0,1-3.77-3.771Zm0,0" transform="translate(0 -41.379)"/>
      <path id="Trazado_1042604" data-name="Trazado 1042604" d="M46.78,95.412h9.63a.69.69,0,1,0,0-1.381H46.78a.69.69,0,0,0,0,1.381Zm0,0" transform="translate(-41.847 -85.376)"/>
      <path id="Trazado_1042605" data-name="Trazado 1042605" d="M46.78,129.643h9.63a.69.69,0,1,0,0-1.381H46.78a.69.69,0,1,0,0,1.381Zm0,0" transform="translate(-41.847 -116.455)"/>
      <path id="Trazado_1042606" data-name="Trazado 1042606" d="M46.78,163.873h6.006a.69.69,0,1,0,0-1.381H46.78a.69.69,0,1,0,0,1.381Zm0,0" transform="translate(-41.847 -147.535)"/>
      <path id="Trazado_1042607" data-name="Trazado 1042607" d="M273.235,306.979h15.791a5.157,5.157,0,0,0,5.151-5.151v-6.3a5.157,5.157,0,0,0-5.151-5.151h-9.195a5.157,5.157,0,0,0-5.151,5.151v6.718l-2.05,3.711A.7.7,0,0,0,273.235,306.979Zm2.741-4.223a.692.692,0,0,0,.086-.334v-6.9a3.774,3.774,0,0,1,3.77-3.77h9.194a3.774,3.774,0,0,1,3.77,3.77v6.3a3.775,3.775,0,0,1-3.77,3.77H274.405Zm0,0" transform="translate(-247.458 -263.646)"/>
      <path id="Trazado_1042608" data-name="Trazado 1042608" d="M342.506,340.217h9.63a.69.69,0,1,0,0-1.381h-9.63a.69.69,0,1,0,0,1.381Zm0,0" transform="translate(-310.351 -307.646)"/>
      <path id="Trazado_1042609" data-name="Trazado 1042609" d="M352.828,373.753a.69.69,0,0,0-.69-.69h-9.63a.69.69,0,1,0,0,1.381h9.63A.69.69,0,0,0,352.828,373.753Zm0,0" transform="translate(-310.352 -338.722)"/>
      <path id="Trazado_1042610" data-name="Trazado 1042610" d="M388.578,407.983a.69.69,0,0,0-.69-.69h-6.006a.69.69,0,0,0,0,1.381h6.006A.69.69,0,0,0,388.578,407.983Zm0,0" transform="translate(-346.102 -369.801)"/>
      <path id="Trazado_1042611" data-name="Trazado 1042611" d="M261.338,24.993a12,12,0,0,0,11.877-12.1,12.3,12.3,0,0,0-.544-3.622c-.34-4.043-1.259-6.373-2.975-7.55-1.62-1.11-3.751-1.045-6.219-.97-.685.021-1.394.043-2.14.043A27.143,27.143,0,0,1,253.76.069a1.5,1.5,0,0,0-1.786.751,20.956,20.956,0,0,0-1.512,4.063.69.69,0,0,0,1.334.357A19.575,19.575,0,0,1,253.2,1.446a.118.118,0,0,1,.144-.059,28.4,28.4,0,0,0,7.99.789c.767,0,1.487-.022,2.182-.043,2.318-.071,4.148-.127,5.4.729S270.9,5.574,271.231,8.7a28.583,28.583,0,0,1-3.113-.181,22.029,22.029,0,0,1-2.956-.591,12.853,12.853,0,0,0-3.824-.545,19.6,19.6,0,0,0-4.732.551,13.952,13.952,0,0,0-3.78,1.541,11.239,11.239,0,0,0-1.9,1.429l-.024.022a30.324,30.324,0,0,1,.337-3.069.69.69,0,0,0-1.363-.222,32.865,32.865,0,0,0-.412,5.258,12,12,0,0,0,11.878,12.1Zm0-1.381a10.617,10.617,0,0,1-10.5-10.523c0-.006.015-.022.019-.028a8.411,8.411,0,0,1,2.517-2.294,15.054,15.054,0,0,1,9.366-1.932c1.547.171,3.024.74,4.565.968a30.051,30.051,0,0,0,4.043.28h.118a10.946,10.946,0,0,1,.365,2.808,10.622,10.622,0,0,1-10.5,10.718Zm0,0" transform="translate(-226.497 0)"/>
      <path id="Trazado_1042612" data-name="Trazado 1042612" d="M.013,268.137a4.282,4.282,0,0,0,3.813,4.26l5.251.584a11.685,11.685,0,0,0,5.612,0l5.251-.584a4.282,4.282,0,0,0,3.813-4.26v-6.488c0-.3.01-.594,0-.892a12.135,12.135,0,0,0-3.618-8.236,11.736,11.736,0,0,0-17.676,1.34.69.69,0,0,0,1.1.831A10.355,10.355,0,0,1,19.165,253.5a10.743,10.743,0,0,1,3.143,6.466q-.254-.049-.505-.11a16.764,16.764,0,0,1-5.577-2.686l-.005,0a26.342,26.342,0,0,1-3.025-2.5c-.223-.214-.442-.433-.656-.657a1.107,1.107,0,0,0-.443-.35.675.675,0,0,0-.43,0,1.38,1.38,0,0,0-.5.415c-.423.441-.866.862-1.323,1.268a26.246,26.246,0,0,1-2.317,1.841,16.059,16.059,0,0,1-6.067,2.783,10.788,10.788,0,0,1,.806-3.041.69.69,0,1,0-1.269-.544,12.2,12.2,0,0,0-.981,4.372c-.011.3-.01.595,0,.892ZM5.1,271.149l-1.117-.124a2.9,2.9,0,0,1-2.585-2.888v-1.226a12.221,12.221,0,0,0,1.3,1.981,11.992,11.992,0,0,0,2.235,2.136l.165.122Zm17.276-3.012a2.9,2.9,0,0,1-2.585,2.888l-1.116.124.167-.123a11.984,11.984,0,0,0,2.233-2.134,12.213,12.213,0,0,0,1.3-1.981ZM12.027,255.466a22.627,22.627,0,0,0,7.69,5.186,13.647,13.647,0,0,0,2.661.734c0,.074,0,.148-.006.221a.048.048,0,0,1,0,.007,10.829,10.829,0,0,1-3.812,7.873l-.01.009A10.308,10.308,0,0,1,5.2,269.487a10.83,10.83,0,0,1-3.812-7.873.04.04,0,0,1,0-.007c0-.074,0-.148-.006-.222.063-.01.126-.023.189-.035a14.509,14.509,0,0,0,1.935-.506,18.58,18.58,0,0,0,4.744-2.474l0,0a26.005,26.005,0,0,0,3.623-3.047l.145.145Zm0,0" transform="translate(-0.004 -226.192)"/>
    </g>
  </g>
</svg>
