<svg xmlns="http://www.w3.org/2000/svg" xmlns:xlink="http://www.w3.org/1999/xlink" width="93.934" height="93.934" viewBox="0 0 93.934 93.934">
  <defs>
    <filter id="Trazado_982547" x="0" y="0" width="93.934" height="93.934" filterUnits="userSpaceOnUse">
      <feOffset dy="3" input="SourceAlpha"/>
      <feGaussianBlur stdDeviation="3" result="blur"/>
      <feFlood flood-opacity="0.161"/>
      <feComposite operator="in" in2="blur"/>
      <feComposite in="SourceGraphic"/>
    </filter>
  </defs>
  <g id="Grupo_1185816" data-name="Grupo 1185816" transform="translate(-819.461 -2875)">
    <g id="Grupo_1183849" data-name="Grupo 1183849" transform="translate(630.428 1835)">
      <g id="Grupo_1179713" data-name="Grupo 1179713" transform="translate(0 111)">
        <g id="Grupo_1173784" data-name="Grupo 1173784" transform="translate(198.033 935)">
          <g id="Grupo_1167337" data-name="Grupo 1167337">
            <g id="Grupo_1166720" data-name="Grupo 1166720">
              <g id="Grupo_1164305" data-name="Grupo 1164305">
                <g id="Grupo_1163948" data-name="Grupo 1163948">
                  <g id="Grupo_1158168" data-name="Grupo 1158168">
                    <g id="Grupo_1152576" data-name="Grupo 1152576">
                      <g id="Grupo_1148633" data-name="Grupo 1148633">
                        <g id="Grupo_1148525" data-name="Grupo 1148525">
                          <g transform="matrix(1, 0, 0, 1, -9, -6)" filter="url(#Trazado_982547)">
                            <g id="Trazado_982547-2" data-name="Trazado 982547" transform="translate(9 6)" fill="#e9f9fd">
                              <path d="M 37.966796875 74.43359375 C 33.04315185546875 74.43359375 28.26757431030273 73.46962738037109 23.77274131774902 71.56847381591797 C 19.43047523498535 69.73184967041016 15.53040790557861 67.10224914550781 12.18087482452393 63.75271987915039 C 8.831341743469238 60.4031867980957 6.201741218566895 56.50312042236328 4.365118980407715 52.16086196899414 C 2.463963508605957 47.66601943969727 1.499996900558472 42.89044189453125 1.499996900558472 37.966796875 C 1.499996900558472 33.04315185546875 2.463963508605957 28.26757431030273 4.365118980407715 23.77274131774902 C 6.201741218566895 19.43047523498535 8.831341743469238 15.53040790557861 12.18087482452393 12.18087482452393 C 15.53040790557861 8.831341743469238 19.43047523498535 6.201741218566895 23.77274131774902 4.365118980407715 C 28.26757431030273 2.463963508605957 33.04315185546875 1.499996900558472 37.966796875 1.499996900558472 C 42.89044189453125 1.499996900558472 47.66601943969727 2.463963508605957 52.16086196899414 4.365118980407715 C 56.50312042236328 6.201741218566895 60.4031867980957 8.831341743469238 63.75271987915039 12.18087482452393 C 67.10224914550781 15.53040790557861 69.73184967041016 19.43047523498535 71.56847381591797 23.77274131774902 C 73.46962738037109 28.26757431030273 74.43359375 33.04315185546875 74.43359375 37.966796875 C 74.43359375 42.89044189453125 73.46962738037109 47.66601943969727 71.56847381591797 52.16086196899414 C 69.73184967041016 56.50313186645508 67.10224914550781 60.4031867980957 63.75271987915039 63.75271987915039 C 60.4031867980957 67.10224914550781 56.50313186645508 69.73184967041016 52.16086196899414 71.56847381591797 C 47.66601943969727 73.46962738037109 42.89044189453125 74.43359375 37.966796875 74.43359375 Z" stroke="none"/>
                              <path d="M 37.966796875 3 C 33.2449836730957 3 28.66600799560547 3.924095153808594 24.35705947875977 5.746635437011719 C 20.19359588623047 7.507637023925781 16.45379638671875 10.02928161621094 13.24153518676758 13.24153518676758 C 10.02927398681641 16.45379638671875 7.507621765136719 20.19359588623047 5.746635437011719 24.35705947875977 C 3.924095153808594 28.66600799560547 3 33.2449836730957 3 37.966796875 C 3 42.6886100769043 3.924095153808594 47.26758575439453 5.746635437011719 51.57653427124023 C 7.507621765136719 55.73999786376953 10.02927398681641 59.47979736328125 13.24153518676758 62.69205856323242 C 16.45379638671875 65.90431976318359 20.19359588623047 68.42597198486328 24.35705947875977 70.18695831298828 C 28.66600799560547 72.00949859619141 33.2449836730957 72.93359375 37.966796875 72.93359375 C 42.6886100769043 72.93359375 47.26758575439453 72.00949859619141 51.57653427124023 70.18695831298828 C 55.73999786376953 68.42597198486328 59.47979736328125 65.90431976318359 62.69205856323242 62.69205856323242 C 65.90431976318359 59.47979736328125 68.42597198486328 55.73999786376953 70.18695831298828 51.57653427124023 C 72.00949859619141 47.26758575439453 72.93359375 42.6886100769043 72.93359375 37.966796875 C 72.93359375 33.2449836730957 72.00949859619141 28.66600799560547 70.18695831298828 24.35705947875977 C 68.42597198486328 20.19359588623047 65.90431976318359 16.45379638671875 62.69205856323242 13.24153518676758 C 59.47979736328125 10.02928161621094 55.73999786376953 7.507637023925781 51.57653427124023 5.746635437011719 C 47.26758575439453 3.924095153808594 42.6886100769043 3 37.966796875 3 M 37.966796875 0 C 58.93528366088867 0 75.93359375 16.99832153320312 75.93359375 37.966796875 C 75.93359375 58.93528366088867 58.93528366088867 75.93359375 37.966796875 75.93359375 C 16.99831008911133 75.93359375 0 58.93528366088867 0 37.966796875 C 0 16.99832153320312 16.99831008911133 0 37.966796875 0 Z" stroke="none" fill="#1d7083"/>
                            </g>
                          </g>
                        </g>
                      </g>
                    </g>
                  </g>
                </g>
              </g>
            </g>
          </g>
        </g>
      </g>
    </g>
    <g id="practica" transform="translate(832.039 2889.976)">
      <path id="Trazado_1042613" data-name="Trazado 1042613" d="M205.529,37.331l-2.972-.586L201.252,33.6l1.688-2.517-3.48-3.48-2.517,1.688L193.8,27.985l-.586-2.972h-4.921l-.586,2.972-3.146,1.305L182.04,27.6l-3.48,3.48,1.688,2.517-1.305,3.146-2.972.586v4.921l2.972.586,1.305,3.146L178.56,48.5l3.48,3.48,2.517-1.688L187.7,51.6l.586,2.972h4.921L193.8,51.6l3.146-1.305,2.517,1.688,3.48-3.48-1.688-2.517,1.305-3.146,2.972-.586Z" transform="translate(-149.505 -18.955)" fill="#f9ac00" fill-rule="evenodd"/>
      <path id="Trazado_1042614" data-name="Trazado 1042614" d="M204.092,42.253l-2.972.586-1.305,3.146L201.5,48.5l-2.9,2.9-2.207-1.48L192.36,51.6l-.586,2.972h-3.485L187.7,51.6l-4.034-1.673-2.206,1.48-2.9-2.9,1.688-2.517-1.305-3.146-2.972-.586V37.331l2.972-.586,1.305-3.146-1.688-2.517,2.9-2.9,2.206,1.48,4.034-1.673.586-2.972h3.485l.586,2.972,4.034,1.673,2.207-1.48,2.9,2.9L199.815,33.6l1.305,3.146,2.972.586Z" transform="translate(-149.505 -18.955)" fill="#fdc72e" fill-rule="evenodd"/>
      <circle id="Elipse_13385" data-name="Elipse 13385" cx="7.603" cy="7.603" r="7.603" transform="translate(30.595 25.963) rotate(-73.504)" fill="#f9ac00"/>
      <circle id="Elipse_13386" data-name="Elipse 13386" cx="7.572" cy="7.572" r="7.572" transform="translate(33.672 13.265)" fill="#f3f3ff"/>
      <g id="Grupo_1185815" data-name="Grupo 1185815" transform="translate(10.422 4.024)">
        <path id="Trazado_1042615" data-name="Trazado 1042615" d="M162.341,18.972a4.026,4.026,0,0,0,.178,7.995h8.748a2.836,2.836,0,0,0,2.83-2.83V12.03a4.372,4.372,0,0,0-7.14,1.7,5.418,5.418,0,0,0-4.616,5.243Z" transform="translate(-144.489 -10.161)" fill="#ff6161" fill-rule="evenodd"/>
        <path id="Trazado_1042616" data-name="Trazado 1042616" d="M162.341,185.443a4.026,4.026,0,0,1,.178-7.995h8.748a2.836,2.836,0,0,1,2.83,2.83v12.108a4.372,4.372,0,0,1-7.14-1.7,5.418,5.418,0,0,1-4.616-5.243Z" transform="translate(-144.489 -160.641)" fill="#ff6161" fill-rule="evenodd"/>
        <path id="Trazado_1042617" data-name="Trazado 1042617" d="M108.3,347.449a2.378,2.378,0,0,0-2.132-3.587c-2.965,0-3.74.153-6.487-1.483L96.69,340.6a8.688,8.688,0,0,0-5.614-1.345l-8.227.761v12.157c7.923,0,16.593,4,24.989,2.259,2.95-.611,12.55-6.1,14.335-8.45,1.613-2.121-.469-4.118-2.93-2.7-3.313,1.913-10.662,5.241-13.743,5.544a3.611,3.611,0,0,0,2.8-1.378Z" transform="translate(-75.83 -306.726)" fill="#fdb0a0" fill-rule="evenodd"/>
        <path id="Trazado_1042618" data-name="Trazado 1042618" d="M108.3,347.449a2.378,2.378,0,0,0-2.132-3.587c-2.965,0-3.74.153-6.487-1.483L96.69,340.6a8.688,8.688,0,0,0-5.614-1.345l-8.227.761v10.1c7.852.093,16.694,3.975,24.989,2.257,2.95-.611,12.55-6.1,14.335-8.45a3.343,3.343,0,0,0,.258-.392c-.562-.762-1.816-1.033-3.188-.241-3.313,1.913-10.662,5.241-13.743,5.544a3.611,3.611,0,0,0,2.8-1.378Z" transform="translate(-75.83 -306.726)" fill="#ffcec0" fill-rule="evenodd"/>
        <path id="Trazado_1042619" data-name="Trazado 1042619" d="M204.55,391.511a17.243,17.243,0,0,0,5.987,1.646,12.19,12.19,0,0,0,3.293-.023c3.079-.562,2.935-1.9,2.069-2.76a2.382,2.382,0,0,1,.869,3.282,3.119,3.119,0,0,1-2.136,1.268c-.2.037-.417.073-.66.11a14.319,14.319,0,0,1-3.632.044,19.352,19.352,0,0,1-6.774-1.9.978.978,0,1,1,.984-1.664Z" transform="translate(-184.301 -352.932)" fill="#fdb0a0" fill-rule="evenodd"/>
        <path id="Trazado_1042620" data-name="Trazado 1042620" d="M17.5,326.619h5a1.788,1.788,0,0,1,1.783,1.783v12.642a1.788,1.788,0,0,1-1.783,1.783h-5Z" transform="translate(-16.816 -295.356)" fill="#2a93fc" fill-rule="evenodd"/>
        <path id="Trazado_1042621" data-name="Trazado 1042621" d="M17.5,326.619h5a1.77,1.77,0,0,1,.279.955v12.469a1.386,1.386,0,0,1-1.383,1.384H17.5Z" transform="translate(-16.816 -295.356)" fill="#4eb1fc" fill-rule="evenodd"/>
        <path id="Trazado_1042622" data-name="Trazado 1042622" d="M40.035,446.068a1.335,1.335,0,1,0-1.335-1.335A1.338,1.338,0,0,0,40.035,446.068Z" transform="translate(-35.96 -400.818)" fill="#0062d9" fill-rule="evenodd"/>
        <path id="Trazado_1042623" data-name="Trazado 1042623" d="M15.148,47.955a.657.657,0,1,0-.657.657A.658.658,0,0,0,15.148,47.955Zm1.357,0a2.014,2.014,0,1,1-2.014-2.015A2.016,2.016,0,0,1,16.505,47.955Zm39.93-6.779c-.376-.427-1.219-.591-2.254.006-3.1,1.79-10.648,5.3-14.021,5.633v0a11.857,11.857,0,0,1-1.38.077,19.4,19.4,0,0,1-8.63-2.053.678.678,0,0,1,.736-1.14c1.695,1.092,6.992,2.314,9.832,1.647a2.4,2.4,0,0,0,1.591-.929,1.7,1.7,0,0,0-1.524-2.563H40.76l-.694,0a9.18,9.18,0,0,1-6.142-1.582l-2.99-1.781a7.963,7.963,0,0,0-5.206-1.252L18.56,37.9V48.833a61.183,61.183,0,0,1,8.909,1.3c4.894.961,9.955,1.955,14.827.946,2.731-.566,12.239-5.966,13.938-8.2.494-.65.57-1.288.2-1.705ZM17.2,37.082V49.728A1.106,1.106,0,0,1,16.1,50.834H11.779V35.977H16.1a1.105,1.105,0,0,1,1.105,1.1ZM57.313,43.7c-1.9,2.5-11.674,8.07-14.742,8.706a22.9,22.9,0,0,1-4.659.453,56.055,56.055,0,0,1-10.7-1.4,59.3,59.3,0,0,0-8.691-1.278,2.466,2.466,0,0,1-2.418,2h-5a.678.678,0,0,1-.678-.679V35.3a.678.678,0,0,1,.678-.679h5a2.465,2.465,0,0,1,2.4,1.924l7.1-.656a9.325,9.325,0,0,1,6.026,1.438l2.989,1.78A7.9,7.9,0,0,0,40.059,40.5l.688,0a3.06,3.06,0,0,1,3.018,3.962,68.713,68.713,0,0,0,9.737-4.45,3.075,3.075,0,0,1,3.951.272,2.637,2.637,0,0,1-.141,3.425ZM25.674,25.947a3.369,3.369,0,0,0,1.974,2.034,6.073,6.073,0,0,1,.545-1.884.679.679,0,1,1,1.225.585,4.756,4.756,0,0,0,.091,4.267,4.709,4.709,0,0,0,2.484,2.2,5.016,5.016,0,0,1-.009-.973,5.074,5.074,0,0,1,3.676-4.419.679.679,0,0,1,.364,1.307,3.693,3.693,0,1,0,3.331,6.414v-2.92a4.061,4.061,0,0,1-2.265,1.208.81.81,0,0,1-.115.01.678.678,0,0,1-.114-1.347,3.234,3.234,0,0,0,2.493-3.25v-5.5A2.154,2.154,0,0,0,37.2,21.525h-8.71a3.346,3.346,0,0,0-2.819,4.422Zm.751-6.789a3.357,3.357,0,0,0,2.064,1.01H37.2a2.154,2.154,0,0,0,2.152-2.152v-5.5a3.233,3.233,0,0,0-2.493-3.25.678.678,0,1,1,.229-1.337,4.061,4.061,0,0,1,2.265,1.208V6.213a3.693,3.693,0,1,0-3.331,6.414.679.679,0,0,1-.364,1.307,5.075,5.075,0,0,1-3.676-4.419,5.009,5.009,0,0,1,.009-.973,4.708,4.708,0,0,0-2.484,2.2,4.756,4.756,0,0,0-.091,4.267.679.679,0,0,1-1.225.585,6.076,6.076,0,0,1-.545-1.884,3.345,3.345,0,0,0-1.223,5.447ZM43.15,6.752H40.711v5.86c.178-.012.358-.02.537-.02a8.254,8.254,0,0,1,0,16.509c-.179,0-.358-.007-.537-.019V34.94H43.15l.478-2.423a.683.683,0,0,1,.406-.5l3.145-1.3a.678.678,0,0,1,.638.063l2.053,1.377,2.69-2.689-1.376-2.053a.679.679,0,0,1-.064-.638l1.305-3.145a.677.677,0,0,1,.5-.406l2.423-.478v-3.8l-2.423-.478a.675.675,0,0,1-.5-.406l-1.305-3.145a.679.679,0,0,1,.064-.638l1.376-2.052-2.69-2.69-2.053,1.377a.679.679,0,0,1-.638.063l-3.145-1.3a.681.681,0,0,1-.406-.5L43.15,6.752ZM39.273,20.846a3.507,3.507,0,0,0,1.438-2.831V13.97c.178-.014.358-.022.537-.022a6.9,6.9,0,0,1,0,13.8c-.179,0-.358-.008-.537-.022V23.677a3.505,3.505,0,0,0-1.438-2.83Zm-13.826.746a4.652,4.652,0,0,1,.929-.746,4.7,4.7,0,0,1,1.264-8.557,6.072,6.072,0,0,1,4.769-5.28A5.041,5.041,0,0,1,40.477,5.4h3.231a.68.68,0,0,1,.666.547l.516,2.613,2.473,1.026L49.577,8.1a.68.68,0,0,1,.858.083l3.478,3.478a.679.679,0,0,1,.084.858l-1.485,2.214,1.026,2.474,2.614.515a.677.677,0,0,1,.547.665v4.92a.677.677,0,0,1-.547.665l-2.614.516-1.026,2.474L54,29.175a.678.678,0,0,1-.084.858l-3.478,3.478a.679.679,0,0,1-.858.084L47.362,32.11l-2.473,1.026-.516,2.614a.68.68,0,0,1-.666.547H40.477A5.07,5.07,0,0,1,37,37.668a5.019,5.019,0,0,1-4.594-2.986A6.071,6.071,0,0,1,27.64,29.4a4.7,4.7,0,0,1-2.193-7.809Zm7.852,6a.678.678,0,0,1-.552-.283,3.153,3.153,0,0,1,2.6-4.992.678.678,0,0,1-.009,1.356h-.032a1.8,1.8,0,0,0-1.459,2.844.679.679,0,0,1-.55,1.075Zm-.787-9.91a3.14,3.14,0,0,1,.235-3.3.678.678,0,1,1,1.1.792,1.8,1.8,0,0,0,1.459,2.845.248.248,0,0,1,.032,0,.678.678,0,0,1,.009,1.356h-.041a3.137,3.137,0,0,1-2.8-1.7Z" transform="translate(-10.422 -4.024)" fill-rule="evenodd"/>
      </g>
    </g>
  </g>
</svg>
