<svg xmlns="http://www.w3.org/2000/svg" xmlns:xlink="http://www.w3.org/1999/xlink" width="113" height="113" viewBox="0 0 113 113">
  <defs>
    <filter id="Trazado_982547" x="0" y="0" width="113" height="113" filterUnits="userSpaceOnUse">
      <feOffset dy="3" input="SourceAlpha"/>
      <feGaussianBlur stdDeviation="3" result="blur"/>
      <feFlood flood-opacity="0.161"/>
      <feComposite operator="in" in2="blur"/>
      <feComposite in="SourceGraphic"/>
    </filter>
  </defs>
  <g id="Grupo_1185231" data-name="Grupo 1185231" transform="translate(-153 -3340)">
    <g id="Grupo_1180725" data-name="Grupo 1180725" transform="translate(162 3346)">
      <g id="Grupo_1174888" data-name="Grupo 1174888">
        <g id="Grupo_1166845" data-name="Grupo 1166845">
          <g id="Grupo_1166720" data-name="Grupo 1166720">
            <g id="Grupo_1164305" data-name="Grupo 1164305">
              <g id="Grupo_1163948" data-name="Grupo 1163948">
                <g id="Grupo_1158168" data-name="Grupo 1158168">
                  <g id="Grupo_1152576" data-name="Grupo 1152576">
                    <g id="Grupo_1148633" data-name="Grupo 1148633">
                      <g id="Grupo_1148525" data-name="Grupo 1148525">
                        <g transform="matrix(1, 0, 0, 1, -9, -6)" filter="url(#Trazado_982547)">
                          <g id="Trazado_982547-2" data-name="Trazado 982547" transform="translate(9 6)" fill="#fff4e6">
                            <path d="M 47.5 93.5 C 41.28937149047852 93.5 35.26533508300781 92.28397369384766 29.59518623352051 89.88570404052734 C 24.11771965026855 87.56893157958984 19.19813346862793 84.25196075439453 14.97309303283691 80.02691650390625 C 10.74804019927979 75.80186462402344 7.431066513061523 70.88229370117188 5.114293098449707 65.40481567382812 C 2.716026782989502 59.73468017578125 1.5 53.71062850952148 1.5 47.5 C 1.5 41.28937149047852 2.716026782989502 35.26533508300781 5.114293098449707 29.59518623352051 C 7.431066513061523 24.11771965026855 10.74804019927979 19.19813346862793 14.97309303283691 14.97309303283691 C 19.19813346862793 10.74804019927979 24.11771965026855 7.431066513061523 29.59518623352051 5.114293098449707 C 35.26533508300781 2.716026782989502 41.28937149047852 1.5 47.5 1.5 C 53.71062850952148 1.5 59.73468017578125 2.716026782989502 65.40481567382812 5.114293098449707 C 70.88229370117188 7.431066513061523 75.80186462402344 10.74804019927979 80.02691650390625 14.97309303283691 C 84.25196075439453 19.19813346862793 87.56893157958984 24.11771965026855 89.88570404052734 29.59518623352051 C 92.28397369384766 35.26533508300781 93.5 41.28937149047852 93.5 47.5 C 93.5 53.71062850952148 92.28397369384766 59.73468017578125 89.88570404052734 65.40481567382812 C 87.56893157958984 70.88229370117188 84.25196075439453 75.80186462402344 80.02691650390625 80.02691650390625 C 75.80186462402344 84.25196075439453 70.88229370117188 87.56893157958984 65.40481567382812 89.88570404052734 C 59.73468017578125 92.28397369384766 53.71062850952148 93.5 47.5 93.5 Z" stroke="none"/>
                            <path d="M 47.5 3 C 41.49121475219727 3 35.66376876831055 4.176155090332031 30.17950439453125 6.495796203613281 C 24.88084411621094 8.736953735351562 20.12152099609375 11.94598388671875 16.03375244140625 16.03375244140625 C 11.94598388671875 20.12152099609375 8.736953735351562 24.88084411621094 6.495796203613281 30.17950439453125 C 4.176155090332031 35.66376876831055 3 41.49121475219727 3 47.5 C 3 53.50878524780273 4.176155090332031 59.33623123168945 6.495796203613281 64.82049560546875 C 8.736953735351562 70.11915588378906 11.94598388671875 74.87847900390625 16.03375244140625 78.96624755859375 C 20.12152099609375 83.05401611328125 24.88084411621094 86.26304626464844 30.17950439453125 88.50419616699219 C 35.66376876831055 90.82384490966797 41.49121475219727 92 47.5 92 C 53.50878524780273 92 59.33623123168945 90.82384490966797 64.82049560546875 88.50419616699219 C 70.11915588378906 86.26304626464844 74.87847900390625 83.05401611328125 78.96624755859375 78.96624755859375 C 83.05401611328125 74.87847900390625 86.26304626464844 70.11915588378906 88.50419616699219 64.82049560546875 C 90.82384490966797 59.33623123168945 92 53.50878524780273 92 47.5 C 92 41.49121475219727 90.82384490966797 35.66376876831055 88.50419616699219 30.17950439453125 C 86.26304626464844 24.88084411621094 83.05401611328125 20.12152099609375 78.96624755859375 16.03375244140625 C 74.87847900390625 11.94598388671875 70.11915588378906 8.736953735351562 64.82049560546875 6.495796203613281 C 59.33623123168945 4.176155090332031 53.50878524780273 3 47.5 3 M 47.5 0 C 73.7335205078125 0 95 21.2664794921875 95 47.5 C 95 73.7335205078125 73.7335205078125 95 47.5 95 C 21.2664794921875 95 0 73.7335205078125 0 47.5 C 0 21.2664794921875 21.2664794921875 0 47.5 0 Z" stroke="none" fill="#ff9d1c"/>
                          </g>
                        </g>
                      </g>
                    </g>
                  </g>
                </g>
              </g>
            </g>
          </g>
        </g>
      </g>
    </g>
    <g id="gestion" transform="translate(179.5 3363.5)">
      <g id="Color" transform="translate(2.472 2.472)">
        <path id="Trazado_1041822" data-name="Trazado 1041822" d="M21.443,11.722a8.683,8.683,0,0,1-.194,1.905v.019c-.331.156-.661.35-.992.544l.194,1.828a9.45,9.45,0,0,1-1.769,2.508,9.818,9.818,0,0,0-6.961-2.917,3.889,3.889,0,1,0-3.889-3.889,3.9,3.9,0,0,0,3.889,3.889,9.818,9.818,0,0,0-6.961,2.917,9.727,9.727,0,1,1,16.682-6.805Z" transform="translate(-2 -2)" fill="#ffc943"/>
        <path id="Trazado_1041823" data-name="Trazado 1041823" d="M17.342,11.917a9.912,9.912,0,0,1-2.7,1.925,9.628,9.628,0,0,1-2.353.817,10.215,10.215,0,0,1-1.905.175A9.818,9.818,0,0,1,3.42,11.917a9.765,9.765,0,0,1,13.922,0Z" transform="translate(-0.659 4.61)" fill="#f2f2f2"/>
        <circle id="Elipse_13341" data-name="Elipse 13341" cx="3.889" cy="3.889" r="3.889" transform="translate(5.833 5.833)" fill="#f2f2f2"/>
        <path id="Trazado_1041824" data-name="Trazado 1041824" d="M39.443,11.722a9.712,9.712,0,0,1-2.761,6.805,9.818,9.818,0,0,0-6.961-2.917,3.889,3.889,0,1,0-3.889-3.889,3.9,3.9,0,0,0,3.889,3.889,9.818,9.818,0,0,0-6.961,2.917,9.913,9.913,0,0,0,2.7,1.925l-1.147.117a15.294,15.294,0,0,0-3.441-3.461l.117-1.089.194-1.828c-.331-.194-.661-.389-.992-.544v-.019A8.683,8.683,0,0,1,20,11.722a9.722,9.722,0,1,1,19.443,0Z" transform="translate(14.998 -2)" fill="#43b3ff"/>
        <path id="Trazado_1041825" data-name="Trazado 1041825" d="M35.342,11.917a9.818,9.818,0,0,1-6.961,2.917,10.215,10.215,0,0,1-1.905-.175,9.628,9.628,0,0,1-2.353-.817,9.912,9.912,0,0,1-2.7-1.925,9.765,9.765,0,0,1,13.922,0Z" transform="translate(16.339 4.61)" fill="#f2f2f2"/>
        <circle id="Elipse_13342" data-name="Elipse 13342" cx="3.889" cy="3.889" r="3.889" transform="translate(40.831 5.833)" fill="#f2f2f2"/>
        <path id="Trazado_1041826" data-name="Trazado 1041826" d="M21.443,29.722a9.712,9.712,0,0,1-2.761,6.805,9.818,9.818,0,0,0-6.961-2.917,3.889,3.889,0,1,0-3.889-3.889,3.9,3.9,0,0,0,3.889,3.889,9.818,9.818,0,0,0-6.961,2.917A9.735,9.735,0,0,1,11.722,20a8.926,8.926,0,0,1,1.905.194c.175.331.369.661.564.992L16,20.992l1.128-.117A11.963,11.963,0,0,0,18.021,22a15.253,15.253,0,0,0,2.547,2.333l-.117,1.108-.194,1.808c.331.194.661.389.992.564a8.934,8.934,0,0,1,.194,1.906Z" transform="translate(-2 14.998)" fill="#43b3ff"/>
        <path id="Trazado_1041827" data-name="Trazado 1041827" d="M17.342,29.917a9.765,9.765,0,0,1-13.922,0,9.765,9.765,0,0,1,13.922,0Z" transform="translate(-0.659 21.609)" fill="#f2f2f2"/>
        <circle id="Elipse_13343" data-name="Elipse 13343" cx="3.889" cy="3.889" r="3.889" transform="translate(5.833 40.831)" fill="#f2f2f2"/>
        <path id="Trazado_1041828" data-name="Trazado 1041828" d="M39.443,29.722a9.712,9.712,0,0,1-2.761,6.805,9.818,9.818,0,0,0-6.961-2.917,3.889,3.889,0,1,0-3.889-3.889,3.9,3.9,0,0,0,3.889,3.889,9.818,9.818,0,0,0-6.961,2.917A9.712,9.712,0,0,1,20,29.722a8.935,8.935,0,0,1,.194-1.906c.331-.175.661-.369.992-.564l-.194-1.808-.117-1.128A14.353,14.353,0,0,0,23.422,22c.331-.369.622-.739.914-1.128l1.108.117,1.808.194c.195-.331.389-.661.564-.992A8.926,8.926,0,0,1,29.722,20a9.725,9.725,0,0,1,9.722,9.722Z" transform="translate(14.998 14.998)" fill="#ffc943"/>
        <path id="Trazado_1041829" data-name="Trazado 1041829" d="M35.342,29.917a9.765,9.765,0,0,1-13.922,0,9.765,9.765,0,0,1,13.922,0Z" transform="translate(16.339 21.609)" fill="#f2f2f2"/>
        <circle id="Elipse_13344" data-name="Elipse 13344" cx="3.889" cy="3.889" r="3.889" transform="translate(40.831 40.831)" fill="#f2f2f2"/>
        <path id="Trazado_1041830" data-name="Trazado 1041830" d="M38.924,26.694l2.294,1.828a18.725,18.725,0,0,1-1.38,3.694,8.977,8.977,0,0,0-2.372.8L36.357,32.9c-.292.389-.583.758-.914,1.128a13.521,13.521,0,0,0-11.2-5.891A5.833,5.833,0,1,0,18.411,22.3a5.825,5.825,0,0,0,5.833,5.833,13.521,13.521,0,0,0-11.2,5.891A11.962,11.962,0,0,1,12.15,32.9l-1.128.117a8.977,8.977,0,0,0-2.372-.8,18.726,18.726,0,0,1-1.38-3.694l2.294-1.847a15.22,15.22,0,0,1,0-4.88L7.27,19.967a18.555,18.555,0,0,1,1.38-3.675A9.627,9.627,0,0,0,11,15.475l1.128.117a15.3,15.3,0,0,1,3.461-3.442l-.117-1.108a8.976,8.976,0,0,0,.8-2.372V8.65A18.734,18.734,0,0,1,19.967,7.27l1.847,2.294a15.22,15.22,0,0,1,4.88,0L28.522,7.27A18.733,18.733,0,0,1,32.216,8.65V8.67c.331.156.661.35.992.544l-.194,1.828L32.9,12.131a15.294,15.294,0,0,1,3.441,3.461l1.147-.117a9.628,9.628,0,0,0,2.353.817,18.555,18.555,0,0,1,1.38,3.675l-2.294,1.847a15.22,15.22,0,0,1,0,4.88Z" transform="translate(2.977 2.977)" fill="#f45151" fill-rule="evenodd"/>
        <g id="Grupo_1185228" data-name="Grupo 1185228" transform="translate(16.021 19.443)">
          <path id="Trazado_1041831" data-name="Trazado 1041831" d="M30.092,26.205l.117,1.128a8.976,8.976,0,0,0-.8,2.372,18.719,18.719,0,0,1-3.694,1.381L23.87,28.791a15.22,15.22,0,0,1-4.88,0l-1.828,2.294A18.718,18.718,0,0,1,13.468,29.7a8.976,8.976,0,0,0-.8-2.372l.117-1.108a15.254,15.254,0,0,1-2.547-2.333,13.591,13.591,0,0,1,22.4,0,14.353,14.353,0,0,1-2.547,2.314Z" transform="translate(-10.24 -6.334)" fill="#f2f2f2" fill-rule="evenodd"/>
          <circle id="Elipse_13345" data-name="Elipse 13345" cx="5.833" cy="5.833" r="5.833" transform="translate(5.366)" fill="#f2f2f2"/>
        </g>
      </g>
      <g id="Outline" transform="translate(1.5 1.5)">
        <g id="Grupo_1185230" data-name="Grupo 1185230">
          <g id="Grupo_1185229" data-name="Grupo 1185229">
            <path id="Trazado_1041832" data-name="Trazado 1041832" d="M10.009,22.673a1.052,1.052,0,0,0,.2.021.972.972,0,0,0,.2-1.923,8.911,8.911,0,0,1-3.69-1.762,8.878,8.878,0,0,1,9.631-.887.973.973,0,0,0,.938-1.705,10.5,10.5,0,0,0-1.725-.734,4.862,4.862,0,1,0-6.722.017,10.764,10.764,0,0,0-3.47,1.93A8.716,8.716,0,0,1,12.194,3.444a8.791,8.791,0,0,1,8.575,6.984.972.972,0,0,0,1.9-.395A10.7,10.7,0,1,0,4.546,19.686a10.925,10.925,0,0,0,5.464,2.987ZM9.277,12.194a2.917,2.917,0,1,1,2.917,2.917A2.92,2.92,0,0,1,9.277,12.194Z" transform="translate(-1.5 -1.5)" fill-rule="evenodd"/>
            <path id="Trazado_1041833" data-name="Trazado 1041833" d="M20.374,11.182a.971.971,0,0,0,1.149-.754,8.754,8.754,0,0,1,17.326,1.766,8.69,8.69,0,0,1-1.928,5.436,10.764,10.764,0,0,0-3.47-1.93,4.859,4.859,0,1,0-6.723-.017A10.523,10.523,0,0,0,25,16.417a.973.973,0,1,0,.938,1.705,8.838,8.838,0,0,1,9.631.886,8.9,8.9,0,0,1-3.691,1.763.972.972,0,0,0,.2,1.923,1.054,1.054,0,0,0,.2-.021,10.941,10.941,0,0,0,5.472-2.994A10.7,10.7,0,1,0,19.62,10.033a.97.97,0,0,0,.754,1.149Zm6.809,1.012A2.917,2.917,0,1,1,30.1,15.11a2.92,2.92,0,0,1-2.917-2.917Z" transform="translate(15.592 -1.5)" fill-rule="evenodd"/>
            <path id="Trazado_1041834" data-name="Trazado 1041834" d="M21.891,31.111a.967.967,0,0,0-1.143.765,8.55,8.55,0,0,1-1.714,3.676,10.765,10.765,0,0,0-3.489-1.945,4.861,4.861,0,1,0-6.7,0,10.764,10.764,0,0,0-3.47,1.93A8.688,8.688,0,0,1,3.444,30.1a8.8,8.8,0,0,1,6.984-8.577.972.972,0,1,0-.395-1.9,10.7,10.7,0,1,0,9.814,17.966,10.46,10.46,0,0,0,2.809-5.336.972.972,0,0,0-.765-1.141ZM9.277,30.1a2.917,2.917,0,1,1,2.917,2.917A2.92,2.92,0,0,1,9.277,30.1ZM6.753,36.907a8.584,8.584,0,0,1,10.882,0,8.586,8.586,0,0,1-10.882,0Z" transform="translate(-1.5 15.591)" fill-rule="evenodd"/>
            <path id="Trazado_1041835" data-name="Trazado 1041835" d="M32.25,19.622a.972.972,0,0,0-.395,1.9A8.8,8.8,0,0,1,38.839,30.1a8.69,8.69,0,0,1-1.928,5.436,10.764,10.764,0,0,0-3.47-1.93,4.861,4.861,0,1,0-6.7,0,10.765,10.765,0,0,0-3.488,1.945,8.55,8.55,0,0,1-1.715-3.676.972.972,0,1,0-1.906.376,10.447,10.447,0,0,0,2.812,5.341,10.737,10.737,0,0,0,15.3-.008,10.714,10.714,0,0,0-5.5-17.964ZM27.173,30.1a2.917,2.917,0,1,1,2.917,2.917A2.92,2.92,0,0,1,27.173,30.1Zm-2.525,6.805a8.584,8.584,0,0,1,10.882,0,8.585,8.585,0,0,1-10.882,0Z" transform="translate(15.602 15.591)" fill-rule="evenodd"/>
            <path id="Trazado_1041836" data-name="Trazado 1041836" d="M34.647,39.645l-.253-2.383A16.186,16.186,0,0,0,37.273,34.4l2.372.253a.985.985,0,0,0,.936-.467,18.839,18.839,0,0,0,2.053-4.941.976.976,0,0,0-.336-1l-1.863-1.485A16.108,16.108,0,0,0,40.44,22.7L42.3,21.2a.975.975,0,0,0,.332-1,18.84,18.84,0,0,0-2.053-4.941.975.975,0,0,0-.936-.467l-2.383.253a16.186,16.186,0,0,0-2.867-2.879l.253-2.372a.971.971,0,0,0-.467-.936A18.839,18.839,0,0,0,29.239,6.8a.974.974,0,0,0-1,.336L26.75,9a16.116,16.116,0,0,0-4.057-.006L21.2,7.133a.969.969,0,0,0-1-.332,18.79,18.79,0,0,0-4.941,2.053.971.971,0,0,0-.467.936l.252,2.383a16.213,16.213,0,0,0-2.878,2.867L9.79,14.787a.961.961,0,0,0-.937.465A18.72,18.72,0,0,0,6.8,20.2a.97.97,0,0,0,.335,1L9,22.684a16.152,16.152,0,0,0,0,4.056l-1.86,1.5a.971.971,0,0,0-.331,1,18.719,18.719,0,0,0,2.052,4.944.97.97,0,0,0,.936.465l2.382-.253a16.192,16.192,0,0,0,2.868,2.879l-.253,2.372a.971.971,0,0,0,.467.936,18.789,18.789,0,0,0,4.941,2.053.976.976,0,0,0,1.01-.344l.623-.8a.972.972,0,1,0-1.532-1.2l-.222.285a16.8,16.8,0,0,1-3.286-1.361l.243-2.286a.968.968,0,0,0-.39-.885,15.156,15.156,0,0,1-1.848-1.609,12.56,12.56,0,0,1,19.846,0,13.407,13.407,0,0,1-1.829,1.58.967.967,0,0,0-.406.9l.245,2.307a16.974,16.974,0,0,1-3.306,1.367l-.239-.292a.972.972,0,1,0-1.5,1.238l.642.778a.977.977,0,0,0,.995.323,18.84,18.84,0,0,0,4.941-2.053.971.971,0,0,0,.467-.936ZM19.855,22.773a4.861,4.861,0,1,1,4.861,4.861,4.866,4.866,0,0,1-4.861-4.861Zm8.894,5.45a6.805,6.805,0,1,0-8.067,0,14.454,14.454,0,0,0-7.17,4.7c-.028-.039-.067-.073-.095-.113a.972.972,0,0,0-.9-.406l-2.306.245a16.775,16.775,0,0,1-1.364-3.3l1.8-1.447a.972.972,0,0,0,.348-.921,14.194,14.194,0,0,1,0-4.567.971.971,0,0,0-.355-.91L8.851,20.081a16.643,16.643,0,0,1,1.363-3.292l2.285.243a.945.945,0,0,0,.887-.391,14.285,14.285,0,0,1,3.237-3.222.969.969,0,0,0,.406-.9l-.243-2.307a16.869,16.869,0,0,1,3.3-1.363l1.446,1.8A.963.963,0,0,0,22.45,11a14.17,14.17,0,0,1,4.567,0,.967.967,0,0,0,.908-.355l1.428-1.792a16.8,16.8,0,0,1,3.292,1.363L32.4,12.5a.971.971,0,0,0,.391.885,14.234,14.234,0,0,1,3.222,3.239.977.977,0,0,0,.9.406l2.307-.245a16.927,16.927,0,0,1,1.363,3.3l-1.8,1.447a.975.975,0,0,0-.349.923,14.164,14.164,0,0,1,0,4.567.969.969,0,0,0,.355.908l1.792,1.428a16.8,16.8,0,0,1-1.363,3.292L36.933,32.4a.985.985,0,0,0-.885.391c-.037.051-.082.089-.119.139a14.457,14.457,0,0,0-7.179-4.71Z" transform="translate(3.477 3.476)" fill-rule="evenodd"/>
          </g>
          <circle id="Elipse_13346" data-name="Elipse 13346" cx="0.972" cy="0.972" r="0.972" transform="translate(27.221 42.074)"/>
        </g>
      </g>
    </g>
  </g>
</svg>
