<svg xmlns="http://www.w3.org/2000/svg" xmlns:xlink="http://www.w3.org/1999/xlink" width="110" height="110" viewBox="0 0 110 110">
  <defs>
    <filter id="Trazado_982547" x="0" y="0" width="110" height="110" filterUnits="userSpaceOnUse">
      <feOffset dy="3" input="SourceAlpha"/>
      <feGaussianBlur stdDeviation="3" result="blur"/>
      <feFlood flood-opacity="0.161"/>
      <feComposite operator="in" in2="blur"/>
      <feComposite in="SourceGraphic"/>
    </filter>
  </defs>
  <g id="Grupo_1185727" data-name="Grupo 1185727" transform="translate(-1113.461 -954)">
    <g id="Grupo_1184115" data-name="Grupo 1184115" transform="translate(-33.519 -1471.333)">
      <g id="Grupo_1183744" data-name="Grupo 1183744" transform="translate(458.936 -388.667)">
        <g id="Grupo_1181546" data-name="Grupo 1181546" transform="translate(-4.696 -130.677)">
          <g id="Grupo_1177563" data-name="Grupo 1177563" transform="translate(0.279 -12113.323)">
            <g id="Grupo_1173148" data-name="Grupo 1173148" transform="translate(701.461 15064)">
              <g id="Grupo_1163803" data-name="Grupo 1163803" transform="translate(0 0)">
                <g id="Grupo_1163015" data-name="Grupo 1163015">
                  <g id="Grupo_1157017" data-name="Grupo 1157017" transform="translate(0 0)">
                    <g id="Grupo_1155793" data-name="Grupo 1155793" transform="translate(0 0)">
                      <g id="Grupo_1154704" data-name="Grupo 1154704">
                        <g id="Grupo_1150790" data-name="Grupo 1150790">
                          <g id="Grupo_1154214" data-name="Grupo 1154214">
                            <g id="Grupo_1152583" data-name="Grupo 1152583">
                              <g id="Grupo_1146973" data-name="Grupo 1146973" transform="translate(0 0)">
                                <g id="Grupo_1146954" data-name="Grupo 1146954">
                                  <g transform="matrix(1, 0, 0, 1, -9, -6)" filter="url(#Trazado_982547)">
                                    <g id="Trazado_982547-2" data-name="Trazado 982547" transform="translate(9 6)" fill="#f2f7e5">
                                      <path d="M 46.00000381469727 90.49988555908203 C 39.99188232421875 90.49988555908203 34.16427230834961 89.32352447509766 28.67905807495117 87.00347137451172 C 23.38020324707031 84.76226043701172 18.62103080749512 81.55342864990234 14.53375053405762 77.46615600585938 C 10.44645690917969 73.37887573242188 7.237643718719482 68.61971282958984 4.996417045593262 63.32085800170898 C 2.676363706588745 57.83565902709961 1.500003814697266 52.00806045532227 1.500003814697266 45.99993896484375 C 1.500003814697266 39.99181747436523 2.676363706588745 34.16421890258789 4.996417045593262 28.67901802062988 C 7.237643718719482 23.38017845153809 10.44645690917969 18.62101936340332 14.53375053405762 14.53373908996582 C 18.62103080749512 10.44645881652832 23.38020324707031 7.237632274627686 28.67905807495117 4.996418952941895 C 34.16427230834961 2.676365613937378 39.99188232421875 1.500005602836609 46.00000381469727 1.500005602836609 C 52.00812530517578 1.500005602836609 57.83573532104492 2.676365613937378 63.32094955444336 4.996418952941895 C 68.61980438232422 7.237632274627686 73.37896728515625 10.44645881652832 77.46625518798828 14.53373908996582 C 81.55353546142578 18.62101936340332 84.76236724853516 23.38017845153809 87.00359344482422 28.67901802062988 C 89.32364654541016 34.16421890258789 90.5 39.99181747436523 90.5 45.99993896484375 C 90.5 52.00806045532227 89.32364654541016 57.83565902709961 87.00359344482422 63.32085800170898 C 84.76236724853516 68.61971282958984 81.55353546142578 73.37887573242188 77.46625518798828 77.46615600585938 C 73.37896728515625 81.55342864990234 68.61980438232422 84.76226043701172 63.32094955444336 87.00347137451172 C 57.83573532104492 89.32352447509766 52.00812530517578 90.49988555908203 46.00000381469727 90.49988555908203 Z" stroke="none"/>
                                      <path d="M 46.00000381469727 2.999992370605469 C 40.19371795654297 2.999992370605469 34.56270217895508 4.136497497558594 29.26338958740234 6.377906799316406 C 24.14333343505859 8.543510437011719 19.54441833496094 11.64437866210938 15.59440612792969 15.59439849853516 C 11.64440155029297 19.54439544677734 8.54351806640625 24.14329528808594 6.377914428710938 29.26335144042969 C 4.136505126953125 34.56266784667969 3.000007629394531 40.19366836547852 3.000007629394531 45.99993896484375 C 3.000007629394531 51.80620956420898 4.136505126953125 57.43722534179688 6.377914428710938 62.73654174804688 C 8.54351806640625 67.85658264160156 11.64440155029297 72.45548248291016 15.59440612792969 76.40549468994141 C 19.54441833496094 80.35549926757812 24.14333343505859 83.45636749267578 29.26337432861328 85.62196350097656 C 34.56270217895508 87.86338043212891 40.19371795654297 88.9998779296875 46.00000381469727 88.9998779296875 C 51.80628967285156 88.9998779296875 57.43730545043945 87.86338043212891 62.73663330078125 85.62196350097656 C 67.85667419433594 83.45636749267578 72.45558929443359 80.35549926757812 76.40560150146484 76.40549468994141 C 80.35560607910156 72.45548248291016 83.45648956298828 67.85658264160156 85.62208557128906 62.73654174804688 C 87.86350250244141 57.43722534179688 89 51.80620956420898 89 45.99993896484375 C 89 40.19366836547852 87.86350250244141 34.56266784667969 85.62208557128906 29.26335144042969 C 83.45648956298828 24.14329528808594 80.35560607910156 19.54439544677734 76.40560150146484 15.59439849853516 C 72.45558929443359 11.64437866210938 67.85667419433594 8.543510437011719 62.73661804199219 6.377906799316406 C 57.43730545043945 4.136497497558594 51.80628967285156 2.999992370605469 46.00000381469727 2.999992370605469 M 46.00000381469727 -7.62939453125e-06 C 71.40510559082031 -7.62939453125e-06 92 20.59487915039062 92 45.99993896484375 C 92 71.40501403808594 71.40510559082031 91.99988555908203 46.00000381469727 91.99988555908203 C 20.59490203857422 91.99988555908203 7.62939453125e-06 71.40501403808594 7.62939453125e-06 45.99993896484375 C 7.62939453125e-06 20.59487915039062 20.59490203857422 -7.62939453125e-06 46.00000381469727 -7.62939453125e-06 Z" stroke="none" fill="#86b60c"/>
                                    </g>
                                  </g>
                                </g>
                              </g>
                            </g>
                          </g>
                        </g>
                      </g>
                    </g>
                  </g>
                </g>
              </g>
            </g>
          </g>
        </g>
      </g>
    </g>
    <g id="organizacion_2_" data-name="organizacion (2)" transform="translate(1140.461 977)">
      <path id="Trazado_1042461" data-name="Trazado 1042461" d="M23.021,419.127H15.008A5.008,5.008,0,0,0,10,424.135v4.1H28.03v-4.1A5.008,5.008,0,0,0,23.021,419.127Z" transform="translate(-8.901 -373.049)" fill="#fec96b"/>
      <path id="Trazado_1042462" data-name="Trazado 1042462" d="M63.569,341.134v1a4.007,4.007,0,0,1-4.007,4.007h0a4.007,4.007,0,0,1-4.007-4.007v-1a4.007,4.007,0,0,1,4.007-4.007h0A4.007,4.007,0,0,1,63.569,341.134Z" transform="translate(-49.448 -300.064)" fill="#ffdca0"/>
      <path id="Trazado_1042463" data-name="Trazado 1042463" d="M187.021,419.127h-8.013A5.008,5.008,0,0,0,174,424.135v4.1h18.03v-4.1A5.008,5.008,0,0,0,187.021,419.127Z" transform="translate(-154.87 -373.049)" fill="#c0f4f1"/>
      <g id="Grupo_1185726" data-name="Grupo 1185726" transform="translate(24.137 37.063)">
        <path id="Trazado_1042464" data-name="Trazado 1042464" d="M227.569,341.134v1a4.007,4.007,0,0,1-4.007,4.007h0a4.007,4.007,0,0,1-4.007-4.007v-1a4.007,4.007,0,0,1,4.007-4.007h0A4.007,4.007,0,0,1,227.569,341.134Z" transform="translate(-219.556 -337.127)" fill="#ffdca0"/>
        <path id="Trazado_1042465" data-name="Trazado 1042465" d="M391.569,341.134v1a4.007,4.007,0,0,1-4.007,4.007h0a4.007,4.007,0,0,1-4.007-4.007v-1a4.007,4.007,0,0,1,4.007-4.007h0A4.007,4.007,0,0,1,391.569,341.134Z" transform="translate(-365.526 -337.127)" fill="#ffdca0"/>
      </g>
      <path id="Trazado_1042466" data-name="Trazado 1042466" d="M351.021,419.127h-8.013A5.008,5.008,0,0,0,338,424.135v4.1h18.03v-4.1A5.008,5.008,0,0,0,351.021,419.127Z" transform="translate(-300.84 -373.049)" fill="#c1ee92"/>
      <path id="Trazado_1042467" data-name="Trazado 1042467" d="M161.14,142.03H150.459a7.036,7.036,0,0,0-7.036,7.036v3.295h24.753v-3.295A7.036,7.036,0,0,0,161.14,142.03Z" transform="translate(-127.655 -126.416)" fill="#ff5d5d"/>
      <path id="Trazado_1042468" data-name="Trazado 1042468" d="M211.912,10h0a5.446,5.446,0,0,0-5.446,5.446v1.311h2.663a5.983,5.983,0,0,0,4.586-2.14h0l3.643,2.14V15.446A5.445,5.445,0,0,0,211.912,10Z" transform="translate(-183.768 -8.901)" fill="#fec96b"/>
      <path id="Trazado_1042469" data-name="Trazado 1042469" d="M212.541,53.06a5.982,5.982,0,0,1-3.413,1.07h-2.663v2.313a5.446,5.446,0,0,0,5.446,5.446h0a5.446,5.446,0,0,0,5.446-5.446V54.13l-1.821-1.07-1.821-1.07Z" transform="translate(-183.768 -46.274)" fill="#ffdca0"/>
      <path id="Trazado_1042470" data-name="Trazado 1042470" d="M50.364,336.146a5.076,5.076,0,0,0,.915-2.912v-1a5.106,5.106,0,0,0-10.212,0v1a5.076,5.076,0,0,0,.915,2.912,6.1,6.1,0,0,0-4.824,2.613,6.1,6.1,0,0,0-4.824-2.613,5.076,5.076,0,0,0,.915-2.912v-1a5.106,5.106,0,0,0-10.212,0v1a5.076,5.076,0,0,0,.915,2.912,6.1,6.1,0,0,0-4.824,2.613,6.1,6.1,0,0,0-4.824-2.613,5.076,5.076,0,0,0,.915-2.912v-1a5.106,5.106,0,0,0-10.212,0v1a5.076,5.076,0,0,0,.915,2.912A6.114,6.114,0,0,0,0,342.25v4.1a1.1,1.1,0,0,0,1.1,1.1H55.188a1.1,1.1,0,0,0,1.1-1.1v-4.1A6.114,6.114,0,0,0,50.364,336.146Zm-7.1-3.914a2.907,2.907,0,0,1,5.814,0v1a2.907,2.907,0,1,1-5.814,0Zm-18.03,0a2.907,2.907,0,0,1,5.814,0v1a2.907,2.907,0,1,1-5.814,0Zm-18.03,0a2.907,2.907,0,0,1,5.814,0v1a2.907,2.907,0,1,1-5.814,0ZM2.2,342.25a3.913,3.913,0,0,1,3.909-3.909H9.015v4.393a1.1,1.1,0,0,0,2.2,0v-4.393h2.907a3.913,3.913,0,0,1,3.909,3.909v3H2.2Zm18.03,0a3.913,3.913,0,0,1,3.909-3.909h2.921v4.393a1.1,1.1,0,0,0,2.2,0v-4.393H32.15a3.913,3.913,0,0,1,3.909,3.909v3H20.228Zm33.861,3H38.258v-3a3.913,3.913,0,0,1,3.909-3.909H45.1v4.393a1.1,1.1,0,0,0,2.2,0v-4.393H50.18a3.913,3.913,0,0,1,3.909,3.909Z" transform="translate(0 -291.164)"/>
      <path id="Trazado_1042471" data-name="Trazado 1042471" d="M247.877,192.877a1.1,1.1,0,1,0-.777.322A1.108,1.108,0,0,0,247.877,192.877Z" transform="translate(-218.955 -170.002)"/>
      <path id="Trazado_1042472" data-name="Trazado 1042472" d="M83.1,34.417a1.1,1.1,0,0,0,1.1-1.1V31.882H100.03v1.436a1.1,1.1,0,1,0,2.2,0V31.882h3.746a1.1,1.1,0,1,0,0-2.2h-3.746V27.045h11.277a1.1,1.1,0,0,0,1.1-1.1V22.65a8.145,8.145,0,0,0-8.135-8.135h-.452a6.517,6.517,0,0,0,1.657-4.346V6.545a6.545,6.545,0,1,0-13.09,0v3.624a6.517,6.517,0,0,0,1.657,4.346h-.452a8.145,8.145,0,0,0-8.135,8.135v3.295a1.1,1.1,0,0,0,1.1,1.1H100.03v2.638H83.1a1.1,1.1,0,0,0-1.1,1.1v2.535A1.1,1.1,0,0,0,83.1,34.417ZM96.783,6.545a4.346,4.346,0,0,1,8.646-.638l-1.94-1.14a1.1,1.1,0,0,0-1.4.242,4.871,4.871,0,0,1-3.743,1.747H96.783V6.545Zm0,3.624V8.955h1.563A7.063,7.063,0,0,0,103.123,7.1l2.353,1.382v1.684a4.346,4.346,0,1,1-8.692,0ZM89.852,22.65a5.943,5.943,0,0,1,5.937-5.937h4.241V17.92a1.1,1.1,0,1,0,2.2,0V16.714h4.241a5.943,5.943,0,0,1,5.937,5.937v2.2H89.852Z" transform="translate(-72.985)"/>
      <path id="Trazado_1042473" data-name="Trazado 1042473" d="M326.4,270.322a1.1,1.1,0,1,0,.776-.322A1.1,1.1,0,0,0,326.4,270.322Z" transform="translate(-290.232 -240.317)"/>
      <path id="Trazado_1042474" data-name="Trazado 1042474" d="M358.576,271.1a1.1,1.1,0,0,0,1.1,1.1h4.582v1.436a1.1,1.1,0,0,0,2.2,0V271.1a1.1,1.1,0,0,0-1.1-1.1h-5.681A1.1,1.1,0,0,0,358.576,271.1Z" transform="translate(-319.155 -240.317)"/>
    </g>
  </g>
</svg>
