<svg xmlns="http://www.w3.org/2000/svg" xmlns:xlink="http://www.w3.org/1999/xlink" width="110" height="110" viewBox="0 0 110 110">
  <defs>
    <filter id="Trazado_982547" x="0" y="0" width="110" height="110" filterUnits="userSpaceOnUse">
      <feOffset dy="3" input="SourceAlpha"/>
      <feGaussianBlur stdDeviation="3" result="blur"/>
      <feFlood flood-opacity="0.161"/>
      <feComposite operator="in" in2="blur"/>
      <feComposite in="SourceGraphic"/>
    </filter>
  </defs>
  <g id="Grupo_1185725" data-name="Grupo 1185725" transform="translate(-798.461 -953.29)">
    <g id="Grupo_1184083" data-name="Grupo 1184083" transform="translate(-32.778 -1471.71)">
      <g id="Grupo_1183743" data-name="Grupo 1183743" transform="translate(459.195 -389)">
        <g id="Grupo_1181545" data-name="Grupo 1181545" transform="translate(-5.417 -130)">
          <g id="Grupo_1177562" data-name="Grupo 1177562" transform="translate(0 -12113)">
            <g id="Grupo_1173147" data-name="Grupo 1173147" transform="translate(386.461 15063)">
              <g id="Grupo_1163801" data-name="Grupo 1163801" transform="translate(0 0)">
                <g id="Grupo_1163014" data-name="Grupo 1163014">
                  <g id="Grupo_1157015" data-name="Grupo 1157015" transform="translate(0 0)">
                    <g id="Grupo_1155792" data-name="Grupo 1155792" transform="translate(0 0)">
                      <g id="Grupo_1154703" data-name="Grupo 1154703">
                        <g id="Grupo_1150789" data-name="Grupo 1150789">
                          <g id="Grupo_1154212" data-name="Grupo 1154212">
                            <g id="Grupo_1152583" data-name="Grupo 1152583">
                              <g id="Grupo_1146973" data-name="Grupo 1146973" transform="translate(0 0)">
                                <g id="Grupo_1146954" data-name="Grupo 1146954">
                                  <g transform="matrix(1, 0, 0, 1, -9, -6)" filter="url(#Trazado_982547)">
                                    <g id="Trazado_982547-2" data-name="Trazado 982547" transform="translate(9 6)" fill="#f2f7e5">
                                      <path d="M 46.00000381469727 90.49988555908203 C 39.99188232421875 90.49988555908203 34.16427230834961 89.32352447509766 28.67905807495117 87.00347137451172 C 23.38020324707031 84.76226043701172 18.62103080749512 81.55342864990234 14.53375053405762 77.46615600585938 C 10.44645690917969 73.37887573242188 7.237643718719482 68.61971282958984 4.996417045593262 63.32085800170898 C 2.676363706588745 57.83565902709961 1.500003814697266 52.00806045532227 1.500003814697266 45.99993896484375 C 1.500003814697266 39.99181747436523 2.676363706588745 34.16421890258789 4.996417045593262 28.67901802062988 C 7.237643718719482 23.38017845153809 10.44645690917969 18.62101936340332 14.53375053405762 14.53373908996582 C 18.62103080749512 10.44645881652832 23.38020324707031 7.237632274627686 28.67905807495117 4.996418952941895 C 34.16427230834961 2.676365613937378 39.99188232421875 1.500005602836609 46.00000381469727 1.500005602836609 C 52.00812530517578 1.500005602836609 57.83573532104492 2.676365613937378 63.32094955444336 4.996418952941895 C 68.61980438232422 7.237632274627686 73.37896728515625 10.44645881652832 77.46625518798828 14.53373908996582 C 81.55353546142578 18.62101936340332 84.76236724853516 23.38017845153809 87.00359344482422 28.67901802062988 C 89.32364654541016 34.16421890258789 90.5 39.99181747436523 90.5 45.99993896484375 C 90.5 52.00806045532227 89.32364654541016 57.83565902709961 87.00359344482422 63.32085800170898 C 84.76236724853516 68.61971282958984 81.55353546142578 73.37887573242188 77.46625518798828 77.46615600585938 C 73.37896728515625 81.55342864990234 68.61980438232422 84.76226043701172 63.32094955444336 87.00347137451172 C 57.83573532104492 89.32352447509766 52.00812530517578 90.49988555908203 46.00000381469727 90.49988555908203 Z" stroke="none"/>
                                      <path d="M 46.00000381469727 2.999992370605469 C 40.19371795654297 2.999992370605469 34.56270217895508 4.136497497558594 29.26338958740234 6.377906799316406 C 24.14333343505859 8.543510437011719 19.54441833496094 11.64437866210938 15.59440612792969 15.59439849853516 C 11.64440155029297 19.54439544677734 8.54351806640625 24.14329528808594 6.377914428710938 29.26335144042969 C 4.136505126953125 34.56266784667969 3.000007629394531 40.19366836547852 3.000007629394531 45.99993896484375 C 3.000007629394531 51.80620956420898 4.136505126953125 57.43722534179688 6.377914428710938 62.73654174804688 C 8.54351806640625 67.85658264160156 11.64440155029297 72.45548248291016 15.59440612792969 76.40549468994141 C 19.54441833496094 80.35549926757812 24.14333343505859 83.45636749267578 29.26337432861328 85.62196350097656 C 34.56270217895508 87.86338043212891 40.19371795654297 88.9998779296875 46.00000381469727 88.9998779296875 C 51.80628967285156 88.9998779296875 57.43730545043945 87.86338043212891 62.73663330078125 85.62196350097656 C 67.85667419433594 83.45636749267578 72.45558929443359 80.35549926757812 76.40560150146484 76.40549468994141 C 80.35560607910156 72.45548248291016 83.45648956298828 67.85658264160156 85.62208557128906 62.73654174804688 C 87.86350250244141 57.43722534179688 89 51.80620956420898 89 45.99993896484375 C 89 40.19366836547852 87.86350250244141 34.56266784667969 85.62208557128906 29.26335144042969 C 83.45648956298828 24.14329528808594 80.35560607910156 19.54439544677734 76.40560150146484 15.59439849853516 C 72.45558929443359 11.64437866210938 67.85667419433594 8.543510437011719 62.73661804199219 6.377906799316406 C 57.43730545043945 4.136497497558594 51.80628967285156 2.999992370605469 46.00000381469727 2.999992370605469 M 46.00000381469727 -7.62939453125e-06 C 71.40510559082031 -7.62939453125e-06 92 20.59487915039062 92 45.99993896484375 C 92 71.40501403808594 71.40510559082031 91.99988555908203 46.00000381469727 91.99988555908203 C 20.59490203857422 91.99988555908203 7.62939453125e-06 71.40501403808594 7.62939453125e-06 45.99993896484375 C 7.62939453125e-06 20.59487915039062 20.59490203857422 -7.62939453125e-06 46.00000381469727 -7.62939453125e-06 Z" stroke="none" fill="#86b60c"/>
                                    </g>
                                  </g>
                                </g>
                              </g>
                            </g>
                          </g>
                        </g>
                      </g>
                    </g>
                  </g>
                </g>
              </g>
            </g>
          </g>
        </g>
      </g>
    </g>
    <g id="resolucion-de-problemas_1_" data-name="resolucion-de-problemas (1)" transform="translate(796.562 973.469)">
      <path id="Trazado_1042441" data-name="Trazado 1042441" d="M342.666,132h-6.061A10.3,10.3,0,0,1,332,136.007v6.66a.762.762,0,0,0,.762.762h9.906a.762.762,0,0,0,.762-.762v-9.906A.762.762,0,0,0,342.666,132Z" transform="translate(-265.578 -115.419)" fill="#cb97e7"/>
      <g id="Grupo_1185712" data-name="Grupo 1185712" transform="translate(66.42 17.43)">
        <path id="Trazado_1042442" data-name="Trazado 1042442" d="M336.018,148.589v-9.817A10.286,10.286,0,0,1,332,141.929v6.66a.762.762,0,0,0,.762.762h4.019A.762.762,0,0,1,336.018,148.589Z" transform="translate(-331.999 -138.772)" fill="#bd80e1"/>
      </g>
      <g id="Grupo_1185723" data-name="Grupo 1185723" transform="translate(29.212 0.942)">
        <path id="Trazado_1042443" data-name="Trazado 1042443" d="M108.886,273.872l2.153-5.858a14.71,14.71,0,0,1-13.982,0l2.153,5.858Z" transform="translate(-89.359 -235.292)" fill="#fff0ad"/>
        <path id="Trazado_1042444" data-name="Trazado 1042444" d="M104.5,273.872l-1.518-4.129a14.6,14.6,0,0,1-5.926-1.729l2.153,5.858Z" transform="translate(-89.36 -235.292)" fill="#ffe177"/>
        <path id="Trazado_1042445" data-name="Trazado 1042445" d="M126,393.588v1.96a1.884,1.884,0,0,0,1.884,1.884h2.943a1.884,1.884,0,0,0,1.884-1.884v-1.96Z" transform="translate(-114.667 -345.094)" fill="#02c7dd"/>
        <path id="Trazado_1042446" data-name="Trazado 1042446" d="M129.14,395.548v-1.96H126v1.96a1.884,1.884,0,0,0,1.884,1.884h2.943c.033,0,.066,0,.1-.005A1.882,1.882,0,0,1,129.14,395.548Z" transform="translate(-114.667 -345.094)" fill="#07b2cd"/>
        <path id="Trazado_1042447" data-name="Trazado 1042447" d="M113.43,362.995v3.34a.628.628,0,0,0,.628.628h8.613a.628.628,0,0,0,.628-.628v-3.34Z" transform="translate(-103.675 -318.343)" fill="#a6e7f0"/>
        <path id="Trazado_1042448" data-name="Trazado 1042448" d="M116.57,366.335V363h-3.14v3.34a.628.628,0,0,0,.628.628h3.14A.628.628,0,0,1,116.57,366.335Z" transform="translate(-103.675 -318.343)" fill="#6bd9e7"/>
        <path id="Trazado_1042449" data-name="Trazado 1042449" d="M58.6,53.337a10.274,10.274,0,0,1,.3-2.475A14.689,14.689,0,1,0,65.147,62.9,10.256,10.256,0,0,1,58.6,53.337Z" transform="translate(-35.77 -43.082)" fill="#ffe177"/>
        <g id="Grupo_1185713" data-name="Grupo 1185713" transform="translate(0 5.111)">
          <path id="Trazado_1042450" data-name="Trazado 1042450" d="M42.092,62.883A14.694,14.694,0,0,1,53.619,48.536a14.689,14.689,0,1,0,0,28.693A14.693,14.693,0,0,1,42.092,62.883Z" transform="translate(-35.769 -48.194)" fill="#ffd15b"/>
        </g>
        <g id="Grupo_1185714" data-name="Grupo 1185714" transform="translate(7.87 38.58)">
          <path id="Trazado_1042451" data-name="Trazado 1042451" d="M110.81,320.849H99.685a1.256,1.256,0,0,1-1.256-1.256v-3.686a1.256,1.256,0,0,1,1.256-1.256H110.81a1.256,1.256,0,0,1,1.256,1.256v3.686A1.256,1.256,0,0,1,110.81,320.849Z" transform="translate(-98.429 -314.651)" fill="#eaf9fa"/>
        </g>
        <path id="Trazado_1042452" data-name="Trazado 1042452" d="M102.647,319.593v-3.686a1.256,1.256,0,0,1,1.256-1.256H99.686a1.256,1.256,0,0,0-1.256,1.256v3.686a1.256,1.256,0,0,0,1.256,1.256H103.9A1.256,1.256,0,0,1,102.647,319.593Z" transform="translate(-90.559 -276.071)" fill="#d4f2f6"/>
        <g id="Grupo_1185715" data-name="Grupo 1185715" transform="translate(26.547 33.648)">
          <path id="Trazado_1042453" data-name="Trazado 1042453" d="M271.778,290.429a4.411,4.411,0,0,1-2.81-.765.378.378,0,0,0-.6.306v6.04a.628.628,0,0,1-.628.628H261.7a.378.378,0,0,0-.306.6,4.427,4.427,0,1,1-7.3-.011.376.376,0,0,0-.314-.585h-6.04a.628.628,0,0,1-.628-.628v-4.743a.624.624,0,0,1,.676-.626,4.525,4.525,0,0,0,.705.012,4.427,4.427,0,0,0-.274-8.846q-.209,0-.413.019a.63.63,0,0,1-.694-.624v-5.187a.628.628,0,0,1,.628-.628h4.945a.625.625,0,0,1,.627.642c0,.044,0,.088,0,.133a4.427,4.427,0,1,0,8.855,0q0-.067,0-.133a.625.625,0,0,1,.627-.642h4.945a.628.628,0,0,1,.628.628v6.04a.376.376,0,0,0,.585.314,4.427,4.427,0,1,1,2.821,8.061Z" transform="translate(-247.12 -275.386)" fill="#fe9738"/>
        </g>
        <g id="Grupo_1185716" data-name="Grupo 1185716" transform="translate(26.547 33.648)">
          <path id="Trazado_1042454" data-name="Trazado 1042454" d="M271.778,290.429a4.411,4.411,0,0,1-2.81-.765.378.378,0,0,0-.6.306v6.04a.628.628,0,0,1-.628.628H261.7a.378.378,0,0,0-.306.6,4.427,4.427,0,1,1-7.3-.011.376.376,0,0,0-.314-.585h-6.04a.628.628,0,0,1-.628-.628v-4.743a.624.624,0,0,1,.676-.626,4.525,4.525,0,0,0,.705.012,4.427,4.427,0,0,0-.274-8.846q-.209,0-.413.019a.63.63,0,0,1-.694-.624v-5.187a.628.628,0,0,1,.628-.628h4.945a.625.625,0,0,1,.627.642c0,.044,0,.088,0,.133a4.427,4.427,0,1,0,8.855,0q0-.067,0-.133a.625.625,0,0,1,.627-.642h4.945a.628.628,0,0,1,.628.628v6.04a.376.376,0,0,0,.585.314,4.427,4.427,0,1,1,2.821,8.061Z" transform="translate(-247.12 -275.386)" fill="#fe9738"/>
        </g>
        <g id="Grupo_1185719" data-name="Grupo 1185719" transform="translate(26.546 33.648)">
          <g id="Grupo_1185717" data-name="Grupo 1185717" transform="translate(0)">
            <path id="Trazado_1042455" data-name="Trazado 1042455" d="M247.812,281.827q.2-.019.413-.019a4.417,4.417,0,0,1,3.386,1.575v-7.367a.628.628,0,0,1,.628-.628h-4.493a.628.628,0,0,0-.628.628V281.2A.63.63,0,0,0,247.812,281.827Z" transform="translate(-247.118 -275.388)" fill="#fe860a"/>
          </g>
          <g id="Grupo_1185718" data-name="Grupo 1185718" transform="translate(0 13.692)">
            <path id="Trazado_1042456" data-name="Trazado 1042456" d="M251.611,391.329V384.4a4.424,4.424,0,0,1-3.112,1.574,4.506,4.506,0,0,1-.705-.012.624.624,0,0,0-.676.626v4.743a.628.628,0,0,0,.628.628h4.493a.628.628,0,0,1-.628-.628Z" transform="translate(-247.118 -384.398)" fill="#fe860a"/>
          </g>
        </g>
        <g id="Grupo_1185722" data-name="Grupo 1185722" transform="translate(22.831)">
          <g id="Grupo_1185720" data-name="Grupo 1185720">
            <circle id="Elipse_13366" data-name="Elipse 13366" cx="10.255" cy="10.255" r="10.255" fill="#05e39c"/>
          </g>
          <g id="Grupo_1185721" data-name="Grupo 1185721" transform="translate(0 0)">
            <path id="Trazado_1042457" data-name="Trazado 1042457" d="M222.833,17.755a10.258,10.258,0,0,1,7.607-9.908,10.255,10.255,0,1,0,0,19.816,10.258,10.258,0,0,1-7.607-9.908Z" transform="translate(-217.536 -7.5)" fill="#0ed290"/>
          </g>
        </g>
      </g>
      <g id="Grupo_1185724" data-name="Grupo 1185724" transform="translate(28.27 0)">
        <path id="Trazado_1042458" data-name="Trazado 1042458" d="M268.836,275.791a5.373,5.373,0,0,0-6.083-1.255v-5.079a1.572,1.572,0,0,0-1.57-1.57h-4.945a1.579,1.579,0,0,0-1.128.477,1.55,1.55,0,0,0-.44,1.136c0,.034,0,.069,0,.1a3.485,3.485,0,0,1-6.971,0c0-.035,0-.069,0-.1a1.55,1.55,0,0,0-.44-1.136,1.579,1.579,0,0,0-1.128-.477h-4.945a1.572,1.572,0,0,0-1.57,1.57v5.187a1.569,1.569,0,0,0,.511,1.157,1.586,1.586,0,0,0,1.212.405c.107-.01.217-.015.326-.015a3.485,3.485,0,0,1,.218,6.964,3.588,3.588,0,0,1-.558-.01,1.555,1.555,0,0,0-1.192.4,1.579,1.579,0,0,0-.516,1.166v4.743a1.572,1.572,0,0,0,1.57,1.57h5.079a5.37,5.37,0,0,0,4.912,7.526c.127,0,.255,0,.384-.013a5.373,5.373,0,0,0,4.541-7.513h5.078a1.572,1.572,0,0,0,1.57-1.57v-5.078a5.37,5.37,0,0,0,6.082-8.583Zm-.449,3.912a3.488,3.488,0,0,1-3.232,3.228h0a3.456,3.456,0,0,1-2.213-.6,1.32,1.32,0,0,0-2.072,1.082v5.726h-5.726a1.32,1.32,0,0,0-1.082,2.072,3.485,3.485,0,1,1-5.745-.009,1.318,1.318,0,0,0-1.088-2.063H241.5v-4.1c.165.005.331,0,.5-.007a5.369,5.369,0,0,0-.5-10.726v-4.538h4.317a5.369,5.369,0,0,0,10.734,0h4.317V275.5a1.318,1.318,0,0,0,2.063,1.088,3.485,3.485,0,0,1,5.454,3.118Z" transform="translate(-213.073 -234.239)"/>
        <path id="Trazado_1042459" data-name="Trazado 1042459" d="M50.058,38.664l1.6-4.343A15.674,15.674,0,0,0,56.1,30.51a.942.942,0,1,0-1.47-1.178,13.7,13.7,0,0,1-7.559,4.789V26.333h1.847A3.731,3.731,0,1,0,45.19,22.6v1.847H42.612V22.6a3.731,3.731,0,1,0-3.731,3.731h1.847v7.786A13.746,13.746,0,1,1,51.288,9.154a11.2,11.2,0,0,0,6.345,12.221,13.652,13.652,0,0,1-.931,4.387.942.942,0,1,0,1.754.688,15.508,15.508,0,0,0,1.022-4.416,11.211,11.211,0,0,0,6-.1v5.314a1.706,1.706,0,0,0,1.7,1.7h9.906a1.706,1.706,0,0,0,1.7-1.7V24.241a.942.942,0,1,0-1.884,0v2.826H67.362V21.181a11.277,11.277,0,0,0,4.171-3.659h5.375v2.324a.942.942,0,1,0,1.884,0v-2.5a1.706,1.706,0,0,0-1.7-1.7H72.576A11.2,11.2,0,1,0,51.813,7.268a15.627,15.627,0,1,0-15.67,27.04l1.6,4.355a2.2,2.2,0,0,0-1.6,2.114v3.686a2.2,2.2,0,0,0,1.884,2.173v2.3a1.572,1.572,0,0,0,1.57,1.57H39.6V51.4a2.829,2.829,0,0,0,2.826,2.826h2.943A2.829,2.829,0,0,0,48.2,51.4V50.5h.009a1.572,1.572,0,0,0,1.57-1.57v-2.3a2.2,2.2,0,0,0,1.884-2.173V40.778a2.2,2.2,0,0,0-1.6-2.114ZM47.074,22.6a1.847,1.847,0,1,1,1.847,1.847H47.074ZM62.3,1.884A9.313,9.313,0,1,1,52.985,11.2,9.324,9.324,0,0,1,62.3,1.884ZM47.074,36.05a15.544,15.544,0,0,0,2.161-.61L48.081,38.58H47.074Zm-4.463-9.718H45.19v8.1c-.426.04-.856.061-1.289.061s-.865-.021-1.289-.061v-8.1Zm0,9.987c.425.035.855.054,1.289.054s.863-.018,1.289-.053v2.26H42.612ZM38.881,24.448A1.847,1.847,0,1,1,40.727,22.6v1.847Zm1.847,11.6V38.58H39.72l-1.156-3.145A15.5,15.5,0,0,0,40.727,36.049ZM46.314,51.4a.943.943,0,0,1-.942.942H42.429a.943.943,0,0,1-.942-.942V50.5h4.827Zm3.463-6.933a.314.314,0,0,1-.314.314H46.574a.942.942,0,0,0,0,1.884h1.319V48.62H39.909V46.662h2.27a.942.942,0,0,0,0-1.884h-3.84a.314.314,0,0,1-.314-.314V40.778a.314.314,0,0,1,.314-.314H49.463a.314.314,0,0,1,.314.314Z" transform="translate(-28.27 0)"/>
        <path id="Trazado_1042460" data-name="Trazado 1042460" d="M254.773,67.387a.942.942,0,0,0,.709.335h.012a.942.942,0,0,0,.7-.317l6.171-6.962a.942.942,0,0,0-1.41-1.25l-5.448,6.146L252,61.168a.942.942,0,1,0-1.441,1.214Z" transform="translate(-222.444 -51.481)"/>
      </g>
    </g>
  </g>
</svg>
